<svg 
 xmlns="http://www.w3.org/2000/svg"
 xmlns:xlink="http://www.w3.org/1999/xlink"
 width="35px" height="10px">
<path fill-rule="evenodd"  stroke="rgb(24, 24, 24)" stroke-width="0px" stroke-dasharray="0, 0" stroke-linecap="butt" stroke-linejoin="miter" fill="#ffffff"
 d="M32.592,9.237 C28.935,11.543 20.770,7.858 20.834,7.685 C20.683,7.620 20.549,7.561 20.403,7.498 C17.271,6.290 11.564,3.888 8.960,2.814 C6.459,2.034 5.000,1.998 5.000,1.998 C5.078,1.966 5.157,1.946 5.235,1.917 C3.942,1.936 2.888,2.228 2.859,2.276 C-1.398,5.194 1.429,8.005 1.502,8.226 C4.204,11.081 6.862,8.033 6.930,7.966 C7.829,7.900 7.388,8.708 7.382,8.742 C4.825,11.563 1.069,8.774 1.050,8.742 C-1.925,4.534 2.286,1.612 2.407,1.759 C6.064,-0.548 14.229,3.137 14.166,3.311 C14.317,3.377 14.452,3.435 14.598,3.499 C17.728,4.706 23.428,7.106 26.034,8.180 C28.538,8.962 30.000,8.998 30.000,8.998 C29.958,9.028 29.909,9.048 29.866,9.075 C31.111,9.043 32.112,8.767 32.140,8.720 C36.397,5.802 33.570,2.990 33.497,2.771 C30.796,-0.085 28.138,2.962 28.070,3.029 C27.170,3.096 27.611,2.288 27.618,2.253 C30.175,-0.567 33.931,2.222 33.949,2.253 C36.925,6.462 32.713,9.383 32.592,9.237 Z"/>
</svg>