<?xml version="1.0" encoding="utf-8"?>
<!-- Generator: Adobe Illustrator 18.1.0, SVG Export Plug-In . SVG Version: 6.00 Build 0)  -->
<svg version="1.1" id="Слой_1" xmlns="http://www.w3.org/2000/svg" xmlns:xlink="http://www.w3.org/1999/xlink" x="0px" y="0px"
	 width="41.3px" height="42.5px" viewBox="0 0 41.3 42.5" enable-background="new 0 0 41.3 42.5" xml:space="preserve">
<g>
	<path fill-rule="evenodd" clip-rule="evenodd" fill="#DADADA" d="M29.9,17.4c0-1-0.2-1.7-0.4-2.3c-0.2-0.6-0.6-1.1-1.1-1.6
		c-0.5-0.5-1-0.8-1.6-1.1c-0.6-0.2-1.3-0.4-2.3-0.4c-1,0-1.3-0.1-3.8-0.1c-2.5,0-2.8,0-3.8,0.1c-1,0-1.7,0.2-2.3,0.4
		c-0.6,0.2-1.1,0.6-1.6,1.1c-0.5,0.5-0.8,1-1.1,1.6c-0.2,0.6-0.4,1.3-0.4,2.3c0,1-0.1,1.3-0.1,3.8c0,2.5,0,2.8,0.1,3.8
		c0,1,0.2,1.7,0.4,2.3c0.2,0.6,0.6,1.1,1.1,1.6c0.5,0.5,1,0.8,1.6,1.1c0.6,0.2,1.3,0.4,2.3,0.4c1,0,1.3,0.1,3.8,0.1
		c2.5,0,2.8,0,3.8-0.1c1,0,1.7-0.2,2.3-0.4c0.6-0.2,1.1-0.6,1.6-1.1c0.5-0.5,0.8-1,1.1-1.6c0.2-0.6,0.4-1.3,0.4-2.3
		c0-1,0.1-1.3,0.1-3.8C29.9,18.7,29.9,18.4,29.9,17.4z M28.2,25c0,0.9-0.2,1.4-0.3,1.7c-0.2,0.4-0.4,0.7-0.7,1.1
		c-0.3,0.3-0.6,0.5-1.1,0.7c-0.3,0.1-0.8,0.3-1.7,0.3c-1,0-1.3,0.1-3.8,0.1c-2.5,0-2.8,0-3.8-0.1c-0.9,0-1.4-0.2-1.7-0.3
		c-0.4-0.2-0.7-0.4-1.1-0.7s-0.5-0.6-0.7-1.1c-0.1-0.3-0.3-0.8-0.3-1.7c0-1-0.1-1.3-0.1-3.8c0-2.5,0-2.8,0.1-3.8
		c0-0.9,0.2-1.4,0.3-1.7c0.2-0.4,0.4-0.7,0.7-1.1c0.3-0.3,0.6-0.5,1.1-0.7c0.3-0.1,0.8-0.3,1.7-0.3c1,0,1.3-0.1,3.8-0.1
		c2.5,0,2.8,0,3.8,0.1c0.9,0,1.4,0.2,1.7,0.3c0.4,0.2,0.7,0.4,1.1,0.7c0.3,0.3,0.5,0.6,0.7,1.1c0.1,0.3,0.3,0.8,0.3,1.7
		c0,1,0.1,1.3,0.1,3.8C28.2,23.7,28.2,24,28.2,25z"/>
	<path fill-rule="evenodd" clip-rule="evenodd" fill="#DADADA" d="M20.6,16.5c-2.6,0-4.8,2.1-4.8,4.8c0,2.6,2.1,4.8,4.8,4.8
		c2.6,0,4.8-2.1,4.8-4.8C25.4,18.6,23.3,16.5,20.6,16.5z M20.6,24.4c-1.7,0-3.1-1.4-3.1-3.1c0-1.7,1.4-3.1,3.1-3.1
		c1.7,0,3.1,1.4,3.1,3.1C23.7,23,22.3,24.4,20.6,24.4z"/>
	<circle fill-rule="evenodd" clip-rule="evenodd" fill="#DADADA" cx="25.6" cy="16.3" r="1.1"/>
</g>
</svg>
