<?xml version="1.0" encoding="utf-8"?>
<!-- Generator: Adobe Illustrator 18.1.0, SVG Export Plug-In . SVG Version: 6.00 Build 0)  -->
<svg version="1.1" id="Слой_1" xmlns="http://www.w3.org/2000/svg" xmlns:xlink="http://www.w3.org/1999/xlink" x="0px" y="0px"
	 width="41.3px" height="42.5px" viewBox="0 0 41.3 42.5" enable-background="new 0 0 41.3 42.5" xml:space="preserve">
<g>
	<path fill-rule="evenodd" clip-rule="evenodd" fill="#DADADA" d="M21.7,21.6c2.6,0,4.8-2.1,4.8-4.8c0-2.6-2.1-4.8-4.8-4.8
		s-4.8,2.1-4.8,4.8C16.9,19.5,19,21.6,21.7,21.6z M21.7,14.9c1.1,0,2,0.9,2,2c0,1.1-0.9,2-2,2c-1.1,0-2-0.9-2-2
		C19.7,15.7,20.6,14.9,21.7,14.9z"/>
	<path fill-rule="evenodd" clip-rule="evenodd" fill="#DADADA" d="M23.7,25.4c1.1-0.3,2-0.7,2.4-1c0.5-0.2,0.9-0.7,0.9-1.3
		c0-0.8-0.6-1.4-1.4-1.4c-0.4,0-0.7,0.1-0.9,0.3c-0.4,0.3-1.4,0.8-2.8,0.8c-2.1,0-3.2-0.9-3.2-0.9l0,0c-0.2-0.2-0.5-0.2-0.8-0.2
		c-0.8,0-1.4,0.6-1.4,1.4c0,0.5,0.3,1,0.7,1.2l0,0c0,0,1.1,0.7,2.6,1.1L17,28c-0.6,0.6-0.6,1.5,0,2c0.6,0.6,1.5,0.6,2,0l2.6-2.6
		l2.6,2.6c0.6,0.6,1.5,0.6,2,0c0.6-0.6,0.6-1.5,0-2L23.7,25.4z"/>
</g>
</svg>
