<?xml version="1.0" encoding="utf-8"?>
<!-- Generator: Adobe Illustrator 18.1.0, SVG Export Plug-In . SVG Version: 6.00 Build 0)  -->
<svg version="1.1" id="Слой_1" xmlns="http://www.w3.org/2000/svg" xmlns:xlink="http://www.w3.org/1999/xlink" x="0px" y="0px"
	 width="41.3px" height="42.5px" viewBox="0 0 41.3 42.5" enable-background="new 0 0 41.3 42.5" xml:space="preserve">
<path fill-rule="evenodd" clip-rule="evenodd" fill="#DADADA" d="M27.6,23.3c-0.6-0.6-1.2-1.1-1.2-1.4c0-0.5,0.2-0.7,0.5-1
	c0.3-0.3,2-2.6,2.2-3.1c0.2-0.5,0.5-1.1-0.5-1.1c-1,0-2.1,0-2.6,0c-0.5,0-0.7,0.1-0.9,0.5c-0.1,0.2-0.4,1.1-0.9,1.9
	c-0.6,1-1.3,2-1.7,2c-0.7-0.1-0.4-1.8-0.4-2.1c0-0.3,0.1-0.9,0.1-1.3c0-0.4,0.2-1.4-1.8-1.4c-0.5,0-1.5,0-2.1,0.2
	c-0.4,0.1-0.6,0.5-0.6,0.5s0.9,0.2,1,0.9c0.1,0.6,0.2,3.3-0.3,3.3c-0.7,0-1.2-1.1-1.7-1.9c-0.5-0.8-0.9-1.8-1-2
	c-0.1-0.2-0.1-0.5-0.9-0.5h-2c-0.3,0-0.9,0.1-0.7,0.7c0.1,0.3,1.5,3.4,3.2,5.7c1.2,1.6,2.2,2.5,3.6,2.9c0.9,0.2,2,0.2,2.3,0.2
	c0.3,0,1-0.1,1-0.7c0-0.7,0.1-1.5,0.5-1.5c0.5,0,0.8,0.3,1.2,0.8c0.4,0.5,1.2,1.5,2.4,1.4c1.2,0,1.7,0,2.1,0c0.4,0,1.3-0.2,0.8-1.1
	C28.9,24.7,28.3,24,27.6,23.3z"/>
</svg>
