<?xml version="1.0" encoding="utf-8"?>
<!-- Generator: Adobe Illustrator 18.1.0, SVG Export Plug-In . SVG Version: 6.00 Build 0)  -->
<svg version="1.1" id="Слой_1" xmlns="http://www.w3.org/2000/svg" xmlns:xlink="http://www.w3.org/1999/xlink" x="0px" y="0px"
	 width="41.3px" height="42.5px" viewBox="0 0 41.3 42.5" enable-background="new 0 0 41.3 42.5" xml:space="preserve">
<path fill-rule="evenodd" clip-rule="evenodd" fill="#DADADA" d="M30.6,19.6c0-0.4,0-0.9-0.1-1.5c-0.1-0.6-0.1-1.2-0.2-1.6
	c-0.1-0.5-0.4-1-0.8-1.4c-0.4-0.4-0.9-0.6-1.4-0.6c-1.6-0.2-4.1-0.3-7.5-0.3c-3.3,0-5.8,0.1-7.5,0.3c-0.5,0.1-1,0.3-1.4,0.6
	c-0.4,0.4-0.7,0.8-0.8,1.4c-0.1,0.5-0.2,1-0.3,1.6c-0.1,0.6-0.1,1.1-0.1,1.5c0,0.4,0,1,0,1.7c0,0.7,0,1.3,0,1.7c0,0.4,0,0.9,0.1,1.5
	c0.1,0.6,0.1,1.2,0.2,1.6c0.1,0.5,0.4,1,0.8,1.4c0.4,0.4,0.9,0.6,1.4,0.6c1.6,0.2,4.1,0.3,7.5,0.3c3.3,0,5.8-0.1,7.5-0.3
	c0.5-0.1,1-0.3,1.4-0.6c0.4-0.4,0.6-0.8,0.8-1.4c0.1-0.5,0.2-1,0.3-1.6c0.1-0.6,0.1-1.1,0.1-1.5c0-0.4,0-1,0-1.7
	C30.6,20.5,30.6,20,30.6,19.6z M24.6,21.9l-5.7,3.6c-0.1,0.1-0.2,0.1-0.4,0.1c-0.1,0-0.2,0-0.3-0.1c-0.2-0.1-0.4-0.3-0.4-0.6v-7.1
	c0-0.3,0.1-0.5,0.4-0.6c0.3-0.1,0.5-0.1,0.7,0l5.7,3.6c0.2,0.1,0.3,0.3,0.3,0.6C24.9,21.5,24.8,21.7,24.6,21.9z"/>
</svg>
