<svg width="87" height="471" fill="none" xmlns="http://www.w3.org/2000/svg"><g clip-path="url(#clip0)"><path d="M80.243 362.772v-37.397h-3.342v-2.963h-6.659l-.165-12.419h-5.836v-6.33h-2.836v-6.102h2v-4.279h-6.33V156.3h-3.62v-30.776l-4.115-3.646v-9.115l-2.392-2.127v-8.786l-1.798-1.583v-7.76l-4.241-3.798V81.34h-1.671v-2.216l-2.532-2.228v-5.811H34.11v-4.507l-1.266-1.114-1.342-2.368-.43-4.671-.671-2.532-.165-5.621-1.063-1.266-.709-24.421-.278-23.497L27.793 0l-.38 1.089-.278 23.497-.722 24.42-1.063 1.267-.165 5.62-.658 2.533-.507 4.722-1.329 2.367-1.266 1.115v4.456h-2.532v5.76l-2.532 2.228v2.216h-1.658v7.393l-4.254 3.798v7.761l-1.785 1.582v8.761l-2.406 2.127v9.115l-4.127 3.697v30.802h-3.608v136.93h-6.33v4.279h2v6.103H-8.68v6.33h-5.837l-.177 12.419h-6.646v2.962h-3.33v37.423H-31v108.37H86.523v-108.37h-6.28zM-25.77 420.249h-2.292v-53.628h2.292v53.628zm6.178 0h-2.292v-53.628h2.292v53.628zm.747-58.236h-2.216v-33.195h2.254l-.038 33.195zm5.443 58.236h-2.291v-53.628h2.291v53.628zm.228-58.236h-2.228v-33.195h2.228v33.195zm3.444-33.22h2.215v33.22H-9.73v-33.22zm2.532 91.431H-9.49v-53.603h2.292v53.603zM42.669 92.14l-1.216 4.266-2.747-1.633 3.963-2.633zm-.064 9.672l-1.62 4.102-2.532-1.849 4.152-2.253zm0 9.761l-1.62 4.101-2.532-1.848 4.152-2.253zm-.29 14.394v32.232h-2.001v-32.207l2-.025zm-4.42 1.481v1.621h-4v-1.621h4zm-4 17.939v-1.62h4v1.62h-4zm4 3.798v1.659h-4v-1.621l4-.038zm-4-9.254v-1.633h4v1.633h-4zm0-5.444v-1.62h4v1.62h-4zm2.342-55.438l-.557 4.317-2.962-1.266 3.52-3.05zm0 9.76l-.557 4.318-2.962-1.266 3.52-3.051zm0 9.863l-.557 4.317-2.962-1.266 3.52-3.05zM27.806 56.35l1.025 4.722h-2.063l1.038-4.722zm0 8.532l1.86 5.862h-3.721l1.86-5.862zm0 9.977l2.443 6.14h-4.887l2.444-6.14zm0 10.128l2.443 6.14h-4.887l2.444-6.14zm0 10.128l2.443 6.152h-4.887l2.444-6.152zm0 10.128l2.443 6.14h-4.887l2.444-6.14zm-13.167 10.444l-1.646-4.089 4.204 2.253-2.558 1.836zm.671 10.293v32.232h-2v-32.22l2-.012zm-.67-20.054l-1.634-4.102 4.203 2.254-2.57 1.848zm2.265-11.191l-2.797 1.67-1.203-4.215 4 2.545zM6.98 125.98h2v32.232h-2V125.98zM-4.06 328.806h2.229v33.219H-4.06v-33.219zm2.976 91.443h-2.292v-53.628h2.292v53.628zm6.19 0H2.815v-53.628h2.291v53.628zm5.47-58.236H3.573v-2.076h7.001v2.076zm0-5.254H3.573v-2.089h7.001v2.089zm0-5.241H3.573v-2.077h7.001v2.077zm0-5.254H3.573V344.2h7.001v2.064zm0-5.241H3.573v-2.051h7.001v2.051zm0-5.254H3.573v-2.077h7.001v2.077zm0-5.254H3.573v-2.064h7.001v2.064zm0-5.254H3.573v-2.064h7.001v2.064zm0-5.241H3.573v-2.064h7.001v2.064zm0-5.254H3.573v-2.064h7.001v2.064zm0-5.242H3.573v-2.076h7.001v2.076zm0-15.432H.915v-2.33h9.66v2.33zm0-6.204H.915v-2.329h9.66v2.329zm0-6.216H.915v-2.329h9.66v2.329zm0-6.203H.915v-2.329h9.66v2.329zm0-6.216H.915v-2.329h9.66v2.329zm0-6.203H.915v-2.33h9.66v2.33zm0-6.217H.915v-2.304h9.66v2.304zm0-6.203H.915v-2.304h9.66v2.304zm0-6.216H.915v-2.329h9.66v2.329zm0-6.203H.915v-2.33h9.66v2.33zm0-6.216H.915v-2.33h9.66v2.33zm0-6.216H.915v-2.317h9.66v2.317zm0-6.204H.915v-2.329h9.66v2.329zm0-6.216H.915v-2.329h9.66v2.329zm0-6.203H.915v-2.33h9.66v2.33zm0-6.216H.915v-2.33h9.66v2.33zm0-6.204H.915v-2.329h9.66v2.329zm0-6.216H.915v-2.329h9.66v2.329zm0-6.203H.915v-2.355h9.66v2.355zm0-6.216H.915v-2.33h9.66v2.33zm0-6.204H.915v-2.329h9.66v2.329zm-2.254-54.21l4.697 1.266-1.963 2.355-2.734-3.621zm11.204 304.537h-6.672V165.618h6.672v254.606zM21.704 156.3h-4.001v-1.658h4v1.658zm0-5.443h-4.001v-1.621h4v1.621zm0-5.444h-4.001v-1.621h4v1.621zm0-5.431h-4.001v-1.633h4v1.633zm0-5.444h-4.001v-1.621h4v1.621zm0-5.444h-4.001v-1.62h4v1.62zm-1.798-16.395l-.557-4.317 3.532 3.013-2.975 1.304zm0-9.659l-.557-4.317 3.532 3.025-2.975 1.292zm0-9.862l-.557-4.317 3.532 3.025-2.975 1.292zm0-9.761l-.557-4.317 3.532 3.025-2.975 1.292zm12.103 336.832h-8.444V123.625a4.254 4.254 0 018.444 0v296.624zm4.203-311.867l-.557 4.317-2.962-1.266 3.519-3.051zm-2.33 46.26h4.001v1.62h-4v-1.62zm8.863 265.569h-6.672V165.618h6.672v254.593zm-.165-303.283l4.697-1.266-2.785 3.659-1.912-2.393zm6.102 9.026v32.233h-2v-32.195l2-.038zm-3.671 225.551v-2.076h7v2.076h-7zm6.95 3.165v2.064H44.96v-2.064h7.001zm-7.001-8.432v-2.063h7.001v2.063H44.96zm0-5.241v-2.025h7.001v2.076l-7.001-.051zm0-5.254v-2.076h7.001v2.076H44.96zm0-5.254v-2.063h7.001v2.063H44.96zm0-5.254v-2.063h7.001v2.063H44.96zm0-5.241v-2.038h7.001v2.076l-7.001-.038zm0-5.254v-2.063h7.001v2.063H44.96zm0-5.241v-2.076h7.001v2.076H44.96zm0 50.412h7.001v2.076H44.96v-2.076zm7.76 60.287h-2.278v-53.577h2.279v53.577zm1.9-126.081h-9.673v-2.329h9.673v2.329zm0-6.203h-9.673v-2.33h9.673v2.33zm0-6.216h-9.673v-2.33h9.673v2.33zm0-6.204h-9.673v-2.329h9.673v2.329zm0-6.216h-9.673v-2.329h9.673v2.329zm0-6.203h-9.673v-2.33h9.673v2.33zm0-6.216h-9.673v-2.33h9.673v2.33zm0-6.204h-9.673v-2.329h9.673v2.329zm0-6.216h-9.673v-2.329h9.673v2.329zm0-6.203h-9.673v-2.329h9.673v2.329zm0-6.216h-9.673v-2.33h9.673v2.33zm0-6.216h-9.673v-2.317h9.673v2.317zm0-6.204h-9.673v-2.329h9.673v2.329zm0-6.216h-9.673v-2.329h9.673v2.329zm0-6.203h-9.673v-2.329h9.673v2.329zm0-6.216h-9.673v-2.33h9.673v2.33zm0-6.204h-9.673v-2.329h9.673v2.329zm0-6.216h-9.673v-2.329h9.673v2.329zm0-6.203h-9.673v-2.38h9.673v2.38zm0-6.216h-9.673v-2.329h9.673v2.329zm0-6.203h-9.673v-2.33h9.673v2.33zm4.279 250.326h-2.292v-53.628H58.9v53.628zm.747-58.236h-2.229v-33.195h2.267l-.038 33.195zm5.443 58.236h-2.291v-53.628h2.291v53.628zm.228-58.236h-2.215v-33.195h2.228l-.013 33.195zm3.444-33.22h2.228v33.22h-2.228v-33.22zm2.532 91.431H69v-53.603h2.292v53.603zm3.14-91.431h2.228v33.22h-2.228v-33.22zm3.038 91.431h-2.292v-53.603h2.292v53.603zm6.19 0h-2.29v-53.603h2.29v53.603z" fill="#EBF6F8"/></g><defs><clipPath id="clip0"><path fill="#fff" d="M0 0h87v471H0z"/></clipPath></defs></svg>