<svg width="187" height="467" fill="none" xmlns="http://www.w3.org/2000/svg"><g clip-path="url(#clip0)"><path d="M189.872 419.781s-12.375-17.406-46.448-17.406c-34.074 0-41.618 17.152-41.618 17.152l8.815-29.039 68.826.595 10.425 28.698z" fill="#EBF6F8"/><path d="M192.669 425.131l-12.629-34.897-70.012-.595-8.985 29.633 1.526.594c.085-.169 7.798-16.641 40.855-16.641 33.141 0 45.601 16.896 45.77 17.066l3.475 4.84zm-13.731-33.284l8.815 24.284c-5.34-5.095-18.817-14.605-44.245-14.605-23.563 0-34.582 8.067-39.329 13.246l7.12-23.519 67.639.594z" fill="#EBF6F8"/><path d="M104.688 409.762l5.425-18.934 71.792.51 5.594 20.038c-5.001-4.84-18.308-14.774-44.075-14.774-23.394-.085-34.244 8.066-38.736 13.16z" fill="#EBF6F8"/><path d="M188.686 413.329l-6.357-22.586h-.424l-72.301-.509-6.272 21.906 1.695-1.953c4.323-4.84 15.087-12.991 38.397-12.991 25.852 0 39.159 10.274 43.651 14.604l1.611 1.529zm-7.205-21.482l4.916 17.661c-5.764-4.925-19.156-13.585-42.889-13.585-21.275 0-32.293 6.707-37.633 11.717l4.662-16.302 70.944.509z" fill="#EBF6F8"/><path d="M144.865 391.592h1.186v4.84h-1.186v-4.84zm1.101 10.529l.085-5.689h-1.186l-.085 5.604 1.186.085zm38.335.076l1.048.557-2.425 4.574-1.048-.557 2.425-4.574zm-34.595-11.73l1.185.068-.367 6.442-1.184-.067.366-6.443zm32.462 4.534l1.125.377-3.347 10.07-1.125-.376 3.347-10.071zm-4.301-3.299l1.15.292-2.727 10.783-1.15-.293 2.727-10.782zm-5.116 9.74l1.525-10.02-1.102-.169-1.61 9.934 1.187.255zm-3.645-1.444l.763-8.66-1.187-.085-.763 8.66 1.187.085zm-4.416-8.859l1.185.047-.318 8.06-1.186-.047.319-8.06zm-4.096.201l1.187.019-.107 6.622-1.187-.019.107-6.622zm-2.507 6.111l.254-6.283h-1.186l-.255 6.198 1.187.085zm-3.645-.34l.339-6.028-1.186-.085-.339 6.113h1.186zm31.419 12.747l1.119.398-1.583 4.482-1.118-.397 1.582-4.483zm-2.503-1.543l1.113.414-1.501 4.061-1.113-.414 1.501-4.061zm-2.894 2.891l1.441-4.161-1.102-.424-1.441 4.16 1.102.425zm-2.543-1.274l1.271-4.585-1.186-.339-1.272 4.585 1.187.339zm-2.373-1.783l1.017-4.755-1.187-.254-1.017 4.754 1.187.255zm-3.068-5.694l1.168.213-.789 4.344-1.167-.213.788-4.344zm-2.357 3.911l.678-5.349-1.186-.17-.679 5.434 1.187.085zm-2.882-1.189l.424-4.924-1.187-.085-.423 4.84 1.186.169zm-4.035-5.975l1.18.127-.547 5.15-1.18-.126.547-5.151zm-3.424-.597l1.186.036-.156 5.176-1.186-.036.156-5.176zm-2.847-.923l1.187.012-.058 5.518-1.187-.012.058-5.518zm-2.916.024h1.186v5.179h-1.186v-5.179zm-3.013-.689l1.187.017-.078 5.603-1.187-.016.078-5.604zm-2.928.248l1.186.038-.153 4.837-1.186-.037.153-4.838zm-41.164 3.511l2.427 4.669-1.053.549-2.426-4.669 1.052-.549zm33.797-4.004l1.187-.085-.339-6.368h-1.187l.339 6.453zm-31.702-3.112l3.368 10.241-1.127.372-3.368-10.241 1.127-.372zm5.935 8.036l1.187-.255-2.797-10.868-1.102.255 2.712 10.868zm3.175-11.51l1.363 9.754-1.175.165-1.363-9.754 1.175-.165zm4.199 8.623l1.102-.085-.932-8.32-1.187.085 1.017 8.32zm3.306-.254l1.187-.085-.34-8.066-1.186.085.339 8.066zm3.899-1.189h1.187l-.085-6.623h-1.187l.085 6.623zm4.521-6.681l.242 6.278-1.186.046-.242-6.278 1.186-.046zm2.768 6.172l1.102-.085-.254-6.114-1.187.085.339 6.114zm-30.937 16.472l1.102-.425-1.611-4.5-1.102.424 1.611 4.501zm1.963-6.387l1.49 4.065-1.115.409-1.489-4.065 1.114-.409zm2.663-1.545l1.415 4.181-1.124.382-1.415-4.182 1.124-.381zm2.833 3.347l1.102-.255-1.272-4.67-1.102.34 1.272 4.585zm2.373-1.699l1.102-.254-1.102-4.755-1.187.339 1.187 4.67zm2.817-6.391l.946 5.264-1.168.211-.946-5.265 1.168-.21zm2.966-.617l.792 5.376-1.174.173-.792-5.376 1.174-.173zm2.523 4.376l1.187-.17-.593-5.264-1.187.17.593 5.264zm3.966-5.911l.575 5.232-1.179.13-.575-5.232 1.179-.13zm2.391 4.892l1.187-.085-.254-5.518h-1.187l.254 5.603zm2.798-6.368h1.186v5.774h-1.186v-5.774zm2.881.425h1.187v5.179h-1.187v-5.179zm3.052 4.924h1.186l-.084-5.603h-1.187l.085 5.603zm4.238-.254v-5.519h-1.187v5.519h1.187z" fill="#EBF6F8"/><path d="M145.119 67.077c0 18.51.085 37.104.339 55.614.254 18.51.678 37.104 1.187 55.614.254 9.255.678 18.51 1.017 27.765.254 9.255.762 18.51 1.356 27.765.593 9.254.847 18.509 1.865 27.764.932 9.255 1.44 18.51 2.712 27.765 1.356 9.17 2.373 18.34 4.238 27.51l2.627 13.755 3.221 13.585c1.95 9.085 4.832 18 7.29 26.916 1.356 4.415 2.882 8.83 4.323 13.245a185.48 185.48 0 004.577 13.161c3.136 8.745 6.611 17.406 10.256 25.981 3.729 8.491 7.543 16.982 11.781 25.303 4.154 8.321 8.561 16.472 13.223 24.623 4.747 8.066 9.578 15.963 15.172 23.604l.593.849h1.018l54.246.764 5.34.17-3.814-3.99c-6.442-6.793-12.629-14.18-18.647-21.567-5.934-7.472-11.612-15.113-17.122-22.925l-8.052-11.802-7.713-12.057c-4.916-8.151-9.917-16.302-14.325-24.793-4.662-8.321-8.73-16.981-12.968-25.557-2.119-4.33-3.814-8.745-5.764-13.076-1.865-4.415-3.899-8.745-5.425-13.245l-5.085-13.415c-1.695-4.5-2.967-9.085-4.493-13.586-3.136-9-5.34-18.34-7.713-27.594-1.271-4.585-2.119-9.255-3.051-14.01l-6.781-35.237-.932-7.132-3.899-28.444c-1.272-9.509-1.865-19.019-2.882-28.614l-1.356-14.264-.933-14.349c-.593-9.595-1.271-19.104-1.61-28.699l-2.289-57.482-.508-.51h-11.019v.595zm.932.51h10.087l-.509-.51 1.865 57.482c.254 9.594.847 19.189 1.356 28.699l.763 14.349 1.187 14.349c.932 9.595 1.44 19.104 2.627 28.699l3.645 28.614.932 7.132 1.272 7.047 5.255 28.189c.847 4.67 1.695 9.51 2.966 14.095 2.289 9.34 4.493 18.68 7.629 27.85 1.441 4.585 2.712 9.254 4.407 13.755l5.001 13.5c1.611 4.585 3.56 8.915 5.425 13.415 1.949 4.415 3.645 8.915 5.764 13.246 4.153 8.66 8.221 17.406 12.798 25.812 4.408 8.575 9.324 16.811 14.24 25.047l7.629 12.227 8.052 11.972a563.737 563.737 0 0017.122 23.264c6.018 7.557 12.12 14.944 18.732 22.076l1.695-3.906-54.247-.424 1.611.849c-5.34-7.302-10.256-15.198-15.003-23.095-4.662-7.981-9.154-16.047-13.307-24.283-4.239-8.236-8.053-16.642-11.867-25.048-3.645-8.491-7.205-16.981-10.341-25.727a239.63 239.63 0 01-4.662-13.076c-1.44-4.415-2.966-8.745-4.322-13.16-2.458-8.915-5.425-17.661-7.375-26.746l-3.305-13.5-2.713-13.585c-1.949-9.001-3.051-18.255-4.492-27.425-1.356-9.085-1.949-18.425-2.966-27.595-1.018-9.17-1.357-18.51-2.035-27.68a761.505 761.505 0 01-1.525-27.765c-.424-9.255-.933-18.509-1.187-27.764-.678-18.51-1.187-37.02-1.526-55.615-.339-18-.593-36.425-.678-54.765z" fill="#EBF6F8"/><path d="M192.076 422.838h40.092v2.378h-40.092v-2.378zm17.461 35.322h46.11v2.377h-46.11v-2.377z" fill="#EBF6F8"/><path d="M286.076 497.641c.423 0 .847-.254 1.101-.679.255-.594 0-1.273-.508-1.528l-75.437-36.51 22.207-33.624c.17-.254.255-.594.17-.933-.085-.34-.254-.595-.509-.765l-52.89-33.538c-.509-.34-1.272-.17-1.611.34-.339.509-.169 1.273.339 1.613l51.874 32.944-22.292 33.708c-.17.255-.255.594-.17.934.085.34.339.594.594.764l76.623 37.105c.17.085.339.169.509.169z" fill="#EBF6F8"/><path d="M231.829 497.047c.424 0 .763-.17 1.017-.509l23.309-36.51c.17-.255.254-.595.17-.934-.085-.34-.255-.595-.594-.765l-61.621-34.812 21.021-31.245c.339-.51.254-1.274-.339-1.614-.509-.339-1.271-.254-1.61.34l-21.784 32.265a1.18 1.18 0 00-.169.934c.084.339.254.594.593.764l61.621 34.812-22.631 35.491c-.339.51-.17 1.274.339 1.613.254.085.424.17.678.17z" fill="#EBF6F8"/><path d="M255.731 496.877l1.95-1.358c-.424-.679-45.262-67.417-58.739-105.54l-2.204.764c13.562 38.463 58.569 105.455 58.993 106.134zm-92.812-159.201h28.733a.85.85 0 000-1.698h-28.733a.85.85 0 00-.848.849.85.85 0 00.848.849zm-4.408-21.821h26.106a.85.85 0 00.848-.849.85.85 0 00-.848-.849h-26.106a.85.85 0 00-.848.849c0 .509.339.849.848.849zm-3.221-21.482h23.479a.849.849 0 000-1.698H155.29a.85.85 0 00-.848.849c.085.51.424.849.848.849z" fill="#EBF6F8"/><path d="M198.348 356.526c.255 0 .594-.17.763-.425.17-.424.085-.934-.339-1.104l-34.158-17.915 20.088-20.887a.922.922 0 00.254-.595c0-.254-.169-.424-.339-.594l-28.14-21.736 19.071-15.369c.339-.254.424-.764.085-1.188-.255-.34-.763-.425-1.187-.085l-19.834 16.047c-.17.17-.339.425-.339.68 0 .254.085.509.339.679l28.225 21.821-20.258 20.972c-.169.17-.254.425-.254.679 0 .255.17.51.424.595l35.091 18.425c.254-.085.339 0 .508 0z" fill="#EBF6F8"/><path d="M167.919 357.205c.17 0 .339-.085.509-.17l23.055-19.274c.169-.17.339-.424.254-.679 0-.255-.169-.51-.339-.679l-31.361-20.972 18.901-21.227a.661.661 0 00.17-.68c0-.254-.17-.424-.339-.594l-25.005-16.472c-.423-.255-.932-.17-1.101.255-.255.424-.17.849.254 1.104l24.157 16.047-18.902 21.227a.661.661 0 00-.17.679c0 .255.17.425.339.594l31.277 20.888-22.207 18.594c-.339.255-.424.849-.085 1.189.085.085.339.17.593.17z" fill="#EBF6F8"/><path d="M181.481 357.035l2.289-.679c-.17-.51-15.003-49.586-18.478-81.341l-2.373.254c3.475 32.01 18.393 81.257 18.562 81.766zm-31.616-119.804h18.224v1.189h-18.224v-1.189zm-.423-13.246h16.867v1.189h-16.867v-1.189zm-1.272-13.245h16.698v1.189H148.17v-1.189zm-.339-13.246h16.105v1.189h-16.105v-1.189zm-2.458-125.747h11.189v1.188h-11.189v-1.188zm.17 6.028h11.103v1.189h-11.103v-1.189zm0 6.962H156.9v1.19h-11.357v-1.19zm.169 7.982h11.358v1.188h-11.358V92.72zm-.254 7.641h12.036v1.189h-12.036v-1.189zm.169 8.916h12.206v1.188h-12.206v-1.188zm-.169 9.934h13.053v1.189h-13.053v-1.189zm.339 9.425h12.968v1.188h-12.968v-1.188zm.085 9.594h13.222v1.189h-13.222v-1.189zm.339 9.595h13.222v1.188h-13.222v-1.188zm.678 11.207h13.816v1.189h-13.816v-1.189zm.508 12.397h13.562v1.188h-13.562v-1.188zm.085 12.651h14.664v1.189h-14.664v-1.189z" fill="#EBF6F8"/><path d="M170.038 253.193l.679-.934-19.495-14.434 15.935-13.245-17.631-13.331 14.664-13.245-15.596-13.246 13.053-12.736-13.901-11.972 12.46-11.292-13.053-9.85 12.036-9.594-12.036-9.425 11.358-9.679-11.527-9.001 10.679-7.471-10.34-8.321 9.832-6.878-9.917-5.773 9.069-4.67-.508-1.104-11.019 5.689 10.171 5.943-9.578 6.708 10.341 8.32-10.68 7.473 11.612 9.085-11.358 9.679 12.036 9.425-12.12 9.679 13.222 9.849-12.46 11.208 13.986 11.972-13.053 12.821 15.511 13.246-14.664 13.245 17.461 13.331-15.85 13.245 20.681 15.283z" fill="#EBF6F8"/><path d="M156.901 119.465l-12.121-9.17 11.103-9.34-10.171-7.642 9.493-7.896-10.001-7.048 10.001-5.773-9.408-4.84.508-1.019 10.341 5.35c.085.339.17.594.255.933l-9.578 5.52 9.747 6.877-9.493 7.981 10.256 7.642-11.104 9.255 12.121 9.17-11.697 9.764 12.375 9.594-11.443 9.51 12.715 10.953-12.376 12.821 14.071 12.481-13.138 13.501 15.85 13.245-14.918 13.585 18.308 12.736-16.952 15.114-.762-.849 15.85-14.18-17.715-12.311-.594-.425 14.918-13.67-15.341-12.651-.509-.425 13.138-13.585-14.07-12.481 12.375-12.821-12.884-11.123 11.528-9.425-12.375-9.594 11.697-9.764zm62.383 355.931h48.822v2.377h-48.822v-2.377zm-19.749-35.916h44.076v2.377h-44.076v-2.377zm-14.833-34.218h37.888v2.378h-37.888v-2.378z" fill="#EBF6F8"/><path d="M144.949 67.586a2977.94 2977.94 0 01-.763 55.105c-.339 18.51-.932 37.02-1.525 55.614-.255 9.255-.848 18.51-1.187 27.765-.339 9.255-.932 18.51-1.526 27.765-.678 9.254-1.017 18.509-2.034 27.679-1.017 9.17-1.61 18.51-2.966 27.595-1.441 9.17-2.459 18.425-4.493 27.425l-2.712 13.585-3.306 13.501c-2.034 9-4.916 17.83-7.374 26.746-1.356 4.415-2.882 8.745-4.323 13.16-1.441 4.415-2.966 8.746-4.662 13.076-3.136 8.66-6.696 17.236-10.34 25.727-3.815 8.406-7.629 16.811-11.867 25.047-4.153 8.236-8.645 16.303-13.307 24.284-4.747 7.896-9.663 15.793-15.003 23.095l1.61-.849-54.246.424 1.695 3.906c6.696-7.132 12.799-14.519 18.732-22.076s11.612-15.368 17.122-23.265l8.052-11.972 7.628-12.226c4.917-8.321 9.833-16.557 14.24-25.048 4.662-8.406 8.73-17.151 12.8-25.812 2.118-4.33 3.813-8.83 5.763-13.245 1.865-4.415 3.814-8.831 5.425-13.416l5-13.5c1.696-4.5 2.882-9.17 4.408-13.755 3.051-9.085 5.255-18.51 7.628-27.849 1.272-4.67 2.119-9.425 2.967-14.095l5.255-28.189 1.272-7.047.932-7.133 3.645-28.613c1.271-9.51 1.78-19.105 2.627-28.699l1.187-14.349.763-14.35c.508-9.594 1.186-19.189 1.356-28.698l1.865-57.483-.509.51 10.171-.34zm.933-.934h-11.019l-.509.51-2.288 57.482c-.255 9.594-1.017 19.104-1.611 28.699l-.932 14.349-1.356 14.264c-1.017 9.51-1.611 19.104-2.882 28.614l-3.899 28.444-.933 7.132-6.78 35.237c-.933 4.754-1.78 9.339-3.052 14.009-2.373 9.255-4.662 18.51-7.713 27.595-1.526 4.5-2.797 9.17-4.492 13.585l-5.086 13.416c-1.61 4.5-3.56 8.83-5.424 13.245-1.95 4.331-3.73 8.831-5.764 13.076-4.153 8.576-8.222 17.236-12.969 25.557-4.407 8.491-9.408 16.642-14.324 24.793l-7.713 12.057-8.053 11.802c-5.509 7.811-11.188 15.453-17.121 22.925-5.933 7.387-12.121 14.774-18.648 21.566L-.5 499l5.425-.085 54.247-.764h1.017l.593-.849c5.51-7.642 10.34-15.538 15.172-23.604 4.662-8.067 9.07-16.218 13.223-24.623 4.238-8.321 8.052-16.812 11.782-25.303 3.56-8.575 7.119-17.151 10.256-25.981a186.666 186.666 0 004.577-13.161c1.441-4.415 2.966-8.83 4.322-13.246 2.459-9 5.256-17.83 7.29-26.915l3.221-13.585 2.627-13.755c1.95-9.17 2.882-18.34 4.238-27.51 1.272-9.255 1.78-18.51 2.713-27.765 1.017-9.255 1.271-18.51 1.864-27.765.594-9.255 1.102-18.509 1.357-27.764.339-9.255.762-18.51 1.017-27.765.508-18.51.932-37.105 1.186-55.614.255-18.51.339-37.105.339-55.615l-.084-.679z" fill="#EBF6F8"/><path d="M58.833 422.838h40.091v2.378H58.833v-2.378zM35.354 458.16h46.11v2.377h-46.11v-2.377z" fill="#EBF6F8"/><path d="M4.925 497.641c.17 0 .339 0 .508-.084l76.624-37.105c.339-.17.509-.424.593-.764.085-.34 0-.679-.17-.934l-22.29-33.708 51.873-32.944c.509-.34.678-1.104.339-1.613-.339-.51-1.102-.68-1.61-.34l-52.89 33.538c-.255.17-.425.425-.51.764-.084.34 0 .595.17.934l22.207 33.624-75.436 36.51c-.594.254-.848 1.019-.509 1.528.254.34.678.594 1.102.594z" fill="#EBF6F8"/><path d="M59.172 497.047c.254 0 .424-.085.593-.17.509-.339.678-1.104.339-1.613l-22.631-35.491 61.62-34.812c.255-.17.51-.425.594-.764.085-.34 0-.68-.17-.934l-21.783-32.265c-.339-.51-1.102-.679-1.61-.34-.509.34-.678 1.104-.34 1.614l21.021 31.245-61.62 34.812c-.255.17-.51.425-.594.765-.085.339 0 .679.17.934l23.309 36.51c.339.254.678.509 1.102.509z" fill="#EBF6F8"/><path d="M35.27 496.877c.423-.679 45.516-67.671 58.992-106.049l-2.203-.764c-13.392 38.123-58.316 104.86-58.74 105.54l1.95 1.273zm64.078-159.201h28.734a.85.85 0 000-1.698H99.348a.85.85 0 00-.847.849c0 .425.423.849.847.849zm7.035-21.821h26.106a.85.85 0 00.848-.849.85.85 0 00-.848-.849h-26.106a.85.85 0 00-.847.849c.084.509.423.849.847.849zm5.849-21.482h23.478a.85.85 0 000-1.698h-23.478a.85.85 0 00-.848.849c0 .51.424.849.848.849z" fill="#EBF6F8"/><path d="M92.652 356.526c.17 0 .254 0 .424-.085l35.091-18.425a.639.639 0 00.423-.595c0-.254 0-.509-.254-.679l-20.258-20.972 28.31-21.906c.17-.17.339-.425.339-.679 0-.255-.084-.51-.339-.679l-19.834-16.048a.905.905 0 00-1.186.085.911.911 0 00.085 1.189l19.071 15.368-28.141 21.736c-.169.17-.339.34-.339.594 0 .255.085.425.254.595l20.173 21.057-34.158 17.83c-.424.17-.593.68-.34 1.104.086.34.425.51.679.51z" fill="#EBF6F8"/><path d="M123.081 357.205c.254 0 .509-.085.593-.255a.91.91 0 00-.084-1.189l-22.208-18.594 31.277-20.887c.17-.17.339-.34.339-.595 0-.255-.085-.509-.17-.679l-18.901-21.227 24.157-15.878c.339-.254.508-.764.254-1.103-.254-.34-.763-.51-1.102-.255l-25.004 16.472c-.17.17-.339.34-.339.594 0 .255.084.51.169.68l18.902 21.226-31.362 20.972c-.254.17-.339.425-.339.68 0 .254.085.509.255.679l23.054 19.274c.17.085.34.085.509.085z" fill="#EBF6F8"/><path d="M109.519 357.035c.17-.509 15.088-49.841 18.563-81.766l-2.373-.254c-3.476 31.755-18.309 80.831-18.478 81.341l2.288.679zm13.393-119.804h18.223v1.189h-18.223v-1.189zm1.864-13.246h16.868v1.189h-16.868v-1.189zm1.356-13.245h16.698v1.189h-16.698v-1.189zm.933-13.246h16.104v1.189h-16.104v-1.189zm7.374-125.747h11.188v1.188h-11.188v-1.188zm-.085 6.028h11.104v1.189h-11.104v-1.189zm-.339 6.962h11.358v1.19h-11.358v-1.19zm-.169 7.982h11.358v1.188h-11.358V92.72zm-.339 7.641h12.036v1.189h-12.036v-1.189zm-.339 8.916h12.205v1.188h-12.205v-1.188zm-.594 9.934h13.053v1.188h-13.053v-1.188zm-.424 9.424h12.969v1.189H132.15v-1.189zm-.339 9.595h13.223v1.189h-13.223v-1.189zm-.254 9.595h13.223v1.188h-13.223v-1.188zm-1.271 11.207h13.816v1.189h-13.816v-1.189zm-.255 12.397h13.562v1.188h-13.562v-1.188zm-1.186 12.651h14.663v1.189h-14.663v-1.189z" fill="#EBF6F8"/><path d="M120.962 253.193l20.682-15.284-15.85-13.245 17.46-13.331-14.663-13.245 15.511-13.246-13.053-12.821 13.985-11.972-12.459-11.207 13.222-9.849-12.121-9.68 12.036-9.425-11.357-9.679 11.612-9.085-10.68-7.472 10.341-8.32-9.663-6.709 10.256-5.943-11.019-5.689-.508 1.104 9.069 4.67-9.917 5.773 9.747 6.878-10.256 8.32 10.68 7.473-11.527 9 11.358 9.679-12.036 9.425 12.036 9.595-13.053 9.849 12.459 11.292-13.9 11.972 12.968 12.737-15.596 13.245 14.664 13.246-17.546 13.33 15.85 13.246-19.41 14.434.678.934z" fill="#EBF6F8"/><path d="M140.711 224.834l-14.918-13.585 15.935-13.16-13.137-13.501 14.07-12.481-12.375-12.821L143 148.333l-11.443-9.51 12.375-9.594-11.697-9.764 12.121-9.17-11.104-9.255 10.256-7.642-9.493-7.981 9.748-6.878-9.409-5.434c0-.34.085-.68 0-1.019l10.426-5.434.508 1.02-9.408 4.839 10.002 5.773-10.002 7.048 9.493 7.896-10.171 7.642 11.103 9.255-12.12 9.17 11.697 9.764-12.375 9.595 11.358 9.509-12.884 11.123 12.375 12.821-14.07 12.481 13.138 13.586-15.851 13.075 15.003 13.755-18.308 12.736 15.85 14.095-.763.849-16.952-15.113 18.308-12.737zM22.894 475.396h48.822v2.377H22.894v-2.377zM47.39 439.48h44.075v2.377H47.39v-2.377zm21.02-34.218h37.89v2.378H68.411v-2.378z" fill="#EBF6F8"/><path d="M110.452 252.175h71.707v8.83h-71.707v-8.83zm3.814 19.019h64.079v3.651h-64.079v-3.651z" fill="#EBF6F8"/><path d="M114.859 271.788v2.462h62.893v-2.462h-62.893zm-1.186-1.189h65.265v4.84h-65.265v-4.84zm56.705-7.471a.58.58 0 00.593-.595v-6.792a.58.58 0 00-.593-.595.58.58 0 00-.594.595v6.792c0 .34.255.595.594.595zm-8.137 0a.58.58 0 00.593-.595v-6.792a.58.58 0 00-.593-.595.58.58 0 00-.594.595v6.792c0 .34.255.595.594.595zm-8.137 0a.58.58 0 00.593-.595v-6.792a.58.58 0 00-.593-.595.58.58 0 00-.594.595v6.792c0 .34.255.595.594.595zm-8.137 0a.58.58 0 00.593-.595v-6.792a.58.58 0 00-.593-.595.58.58 0 00-.594.595v6.792c0 .34.254.595.594.595zm-8.137 0a.58.58 0 00.593-.595v-6.792a.58.58 0 00-.593-.595.58.58 0 00-.594.595v6.792c0 .34.339.595.594.595zm-8.137 0a.58.58 0 00.593-.595v-6.792a.58.58 0 00-.593-.595.58.58 0 00-.594.595v6.792c0 .34.339.595.594.595zm-8.137 0a.58.58 0 00.593-.595v-6.792a.58.58 0 00-.593-.595.58.58 0 00-.594.595v6.792c.085.34.339.595.594.595z" fill="#EBF6F8"/><path d="M114.266 261.26h64.079v8.83h-64.079v-8.83z" fill="#EBF6F8"/><path d="M114.859 261.854v7.642h62.893v-7.642h-62.893zm-1.186-1.104h65.265v10.019h-65.265V260.75z" fill="#EBF6F8"/><path d="M116.894 271.364l.847-.849h1.78l.678.679.678-.679h1.95l.593.594.593-.594h1.018l-1.102 1.103 1.102 1.104 1.186-1.189-1.017-1.018h1.017l.509.509.508-.509h1.018l-1.018 1.018 1.102 1.104 1.187-1.188-.932-.934h1.017l.424.424.423-.424h1.017l-.932.934 1.102 1.103 1.187-1.188-.848-.849h1.017l.339.339.339-.339h1.017l-.847.849 1.102 1.103 1.186-1.188-.763-.764h1.018l.254.254.254-.254h1.017l-.763.764 1.102 1.103 1.187-1.188-.593-.595h.932l.169.17.17-.17h1.017l-.593.595 1.102 1.104 1.186-1.189-.508-.51h1.865l-.509.51 1.102 1.104 1.186-1.189-.423-.425h1.864l-.423.425 1.102 1.104 1.186-1.189-.339-.34h1.695l-.339.34 1.102 1.104 1.187-1.189-.254-.255h1.525l-.254.255 1.102 1.104 1.186-1.189-.169-.17h1.271l-.169.17 1.102 1.104 1.186-1.189-.084-.085h1.101l-.084.085 1.102 1.104 1.186-1.189h1.187l1.017 1.019 1.017-1.019h1.356l.933.934.932-.934h1.441l.848.85.847-.85h1.695l.763.765.763-.765h1.865l.678.68.678-.68h.593v.425l-.763.764.763.764v1.698l-.847.85.424.424h-1.78l.423-.424-1.102-1.104-1.186 1.188.339.255h-1.611l.339-.255-1.101-1.103-1.187 1.188.169.17h-1.44l.169-.17-1.102-1.103-1.186 1.188.084.085h-1.186l.084-.085-1.102-1.104-1.186 1.189h-1.017l-1.102-1.104-1.102 1.104h-1.187l-1.017-1.019-1.017 1.019h-1.356l-.933-.934-.932.934h-1.61l-.848-.849-.848.849h-1.779l-.763-.764-.763.764h-1.95l-.593-.594-.593.594h-1.017l1.101-1.104-1.101-1.103-1.187 1.188 1.017 1.019h-1.017l-.509-.509-.508.509h-1.017l1.017-1.019-1.102-1.104-1.187 1.189.933.934h-1.018l-.423-.424-.424.424h-1.017l.932-.934-1.102-1.104-1.186 1.189.847.849h-1.017l-.339-.339-.339.339h-1.017l.847-.849-1.101-1.104-1.187 1.189.763.764h-1.017l-.255-.255-.254.255h-1.017l.763-.764-1.102-1.104-1.187 1.189.678.679h-1.017l-.169-.17-.17.17h-1.017l.678-.679-1.102-1.104-1.186 1.189.508.509h-1.017l-.085-.085-.084.085h-1.018l.509-.509-1.102-1.104-1.187 1.189.424.424h-1.865l.424-.424-1.102-1.104-1.186 1.189.339.339h-1.695l.339-.339-1.102-1.104-1.187 1.189.254.254h-1.525l.254-.254-1.102-1.104-1.187 1.188.17.17h-.509v-.764l1.102-1.104-1.102-1.104v-1.018l.848-.849h1.526l1.441.849zm60.688 3.141l1.187-1.189-1.102-1.103-1.187 1.188 1.102 1.104zm-.424-2.717l-1.102-1.104-1.186 1.189 1.102 1.104 1.186-1.189zm-2.882 2.887l1.187-1.189-1.102-1.104-1.186 1.189 1.101 1.104zm-.423-2.802l-1.102-1.104-1.187 1.189 1.102 1.104 1.187-1.189zm-2.882 2.887l1.186-1.189-1.101-1.104-1.187 1.189 1.102 1.104zm-.339-2.802l-1.102-1.104-1.187 1.189 1.102 1.104 1.187-1.189zm-2.882 2.887l1.187-1.189-1.102-1.104-1.187 1.189 1.102 1.104zm-.424-2.802l-1.102-1.104-1.186 1.189 1.101 1.104 1.187-1.189zm-2.882 2.887l1.187-1.189-1.102-1.104-1.187 1.189 1.102 1.104zm-.424-2.802l-1.101-1.104-1.187 1.189 1.102 1.103 1.186-1.188zm-2.881 2.887l1.186-1.189-1.102-1.104-1.186 1.189 1.102 1.104zm-.424-2.802l-1.102-1.104-1.187 1.189 1.102 1.103 1.187-1.188zm-2.882 2.887l1.187-1.189-1.102-1.104-1.187 1.189 1.102 1.104zm-.339-2.802l-1.102-1.104-1.187 1.188 1.102 1.104 1.187-1.188zm-2.882 2.886l1.187-1.188-1.102-1.104-1.187 1.189 1.102 1.103zm-.424-2.717l-1.102-1.103-1.186 1.188 1.102 1.104 1.186-1.189zm-2.882 2.887l1.187-1.188-1.102-1.104-1.186 1.188 1.101 1.104zm-.423-2.802l-1.102-1.103-1.187 1.188 1.102 1.104 1.187-1.189zm-2.882 2.887l1.186-1.189-1.101-1.103-1.187 1.188 1.102 1.104zm-1.611-1.613l1.187-1.189-1.102-1.104-1.187 1.189 1.102 1.104zm-3.305.085l1.186-1.189-1.102-1.104-1.186 1.189 1.102 1.104zm-3.221.085l1.186-1.189-1.102-1.104-1.186 1.189 1.102 1.104zm-3.306.085l1.187-1.189-1.102-1.104-1.187 1.189 1.102 1.104zm-3.306.085l1.187-1.189-1.102-1.104-1.186 1.189 1.101 1.104zm-3.305.169l1.186-1.188-1.101-1.104-1.187 1.189 1.102 1.103zm-3.306.085l1.187-1.188-1.102-1.104-1.187 1.188 1.102 1.104zm-3.221.085l1.187-1.189-1.102-1.103-1.187 1.188 1.102 1.104zm-.424-2.802l-1.102-1.104-1.186 1.189 1.102 1.104 1.186-1.189zm-2.881 2.887l1.186-1.189-1.102-1.103-1.186 1.188 1.102 1.104zm-.424-2.802l-1.102-1.104-1.187 1.189 1.102 1.104 1.187-1.189zm-2.882 2.887l1.187-1.189-1.102-1.104-1.187 1.189 1.102 1.104zm-1.611-1.613l1.187-1.189-1.102-1.104-1.186 1.189 1.101 1.104zm54.586-11.548h1.187v8.491h-1.187v-8.491zm-8.137 0h1.187v8.491h-1.187v-8.491zm-8.137 0h1.187v8.491h-1.187v-8.491zm-8.137 0h1.187v8.491h-1.187v-8.491zm-8.137 0h1.187v8.491h-1.187v-8.491zm-8.137 0h1.187v8.491h-1.187v-8.491zm-8.137 0h1.187v8.491h-1.187v-8.491z" fill="#EBF6F8"/><path d="M177.836 270.514l.848-.764-7.883-8.66-.847.849 7.882 8.575z" fill="#EBF6F8"/><path d="M170.802 270.684l7.713-8.915-.932-.764-7.713 8.915.932.764z" fill="#EBF6F8"/><path d="M169.954 270.514l.847-.764-7.882-8.66-.848.849 7.883 8.575z" fill="#EBF6F8"/><path d="M162.919 270.684l7.713-8.915-.932-.764-7.713 8.915.932.764z" fill="#EBF6F8"/><path d="M161.817 270.514l.847-.764-7.882-8.66-.848.849 7.883 8.575z" fill="#EBF6F8"/><path d="M161.597 260.984l.897.779-7.722 8.914-.896-.779 7.721-8.914z" fill="#EBF6F8"/><path d="M153.425 270.514l.848-.764-7.883-8.66-.847.849 7.882 8.575z" fill="#EBF6F8"/><path d="M146.391 270.684l7.713-8.915-.932-.764-7.713 8.915.932.764z" fill="#EBF6F8"/><path d="M145.712 270.514l.848-.764-7.883-8.66-.848.849 7.883 8.575z" fill="#EBF6F8"/><path d="M138.678 270.684l7.713-8.915-.932-.764-7.714 8.915.933.764z" fill="#EBF6F8"/><path d="M137.575 270.514l.848-.764-7.883-8.66-.847.849 7.882 8.575z" fill="#EBF6F8"/><path d="M130.456 270.684l7.713-8.915-.847-.764-7.713 8.915.847.764z" fill="#EBF6F8"/><path d="M129.608 270.515l.847-.765-7.798-8.66-.932.849 7.883 8.576z" fill="#EBF6F8"/><path d="M122.573 270.684l7.713-8.915-.932-.764-7.713 8.915.932.764z" fill="#EBF6F8"/><path d="M121.895 270.514l.847-.764-7.883-8.66-.847.849 7.883 8.575z" fill="#EBF6F8"/><path d="M114.86 270.684l7.713-8.915-.932-.764-7.713 8.915.932.764zm-31.192 92.04h125.191v15.283H83.667v-15.283z" fill="#EBF6F8"/><path d="M213.351 389.809l-4.831-14.094H84.091l-5.763 14.094H213.35z" fill="#EBF6F8"/><path d="M84.43 376.309L79.175 389.3h133.329l-4.493-12.991H84.431zm-.763-1.189H208.86l5.255 15.284H77.395l6.273-15.284zm95.441 15.284h35.091v1.188h-35.091v-1.188z" fill="#EBF6F8"/><path d="M78.667 387.602l2.797 2.802h-1.695l-1.61-1.614.508-1.188zm.254-.68l1.102-2.802 1.356-1.358-.593-.594.508-1.189.933.934 3.814-3.821-2.543-2.547.17-.425h1.017l2.119 2.123 2.119-2.123h1.695l-2.967 2.972 3.56 3.566 3.814-3.821-2.712-2.717h1.695l1.865 1.868 1.865-1.868h1.695l-2.712 2.717 3.56 3.566 3.814-3.82-2.458-2.463h1.695l1.61 1.614 1.611-1.614h1.695l-2.458 2.463 3.56 3.566 3.814-3.821-2.204-2.208h1.696l1.356 1.359 1.356-1.359h1.695l-2.204 2.208 3.56 3.566 3.815-3.821-1.865-1.868h1.695l1.102 1.104 1.102-1.104h1.695l-1.865 1.868 3.56 3.566 3.814-3.821-1.61-1.613h1.695l.848.849.847-.849h1.696l-1.611 1.613 3.56 3.567 3.814-3.821-1.356-1.359h1.695l.594.595.508-.595h1.696l-1.357 1.359 3.56 3.566 3.814-3.821-1.101-1.104h1.695l.254.255.254-.255h1.696l-1.102 1.104 3.56 3.566 3.814-3.821-.848-.849h3.391l-.848.849 3.56 3.566 3.814-3.82-.593-.595h2.882l-.594.595 3.56 3.566 3.815-3.821-.339-.34h2.373l-.339.34 3.56 3.566 3.814-3.821-.085-.085h1.865l-.085.085 3.56 3.566 3.645-3.651h2.034l3.391 3.397 3.39-3.397h2.543l3.051 3.057 1.187-1.189.424 1.274-.763.764 1.61 1.613.848 2.547-3.306-3.311-3.814 3.821 3.56 3.566 3.729-3.736.424 1.274-3.306 3.311 2.374 2.377h-1.695l-1.526-1.528-1.526 1.528h-1.695l2.373-2.377-3.56-3.566-3.814 3.821 2.034 2.038h-1.695l-1.271-1.274-1.272 1.274h-1.695l2.034-2.038-3.56-3.566-3.814 3.82 1.78 1.784h-1.695l-.932-.934-.933.934h-1.695l1.78-1.784-3.56-3.566-3.814 3.821 1.526 1.529h-1.696l-.678-.68-.678.68h-1.695l1.526-1.529-3.56-3.566-3.815 3.821 1.272 1.274h-1.695l-.424-.425-.424.425h-1.695l1.271-1.274-3.56-3.566-3.814 3.821 1.017 1.019h-1.695l-.254-.255-.255.255h-1.695l1.017-1.019-3.56-3.566-3.814 3.82.763.765h-3.221l.763-.765-3.56-3.566-3.814 3.821.508.51h-2.712l.509-.51-3.56-3.566-3.815 3.821.255.255h-2.204l.254-.255-3.56-3.566-3.814 3.821h-1.695l-3.475-3.482-3.476 3.482h-2.288l-3.221-3.227-3.221 3.227h-2.797l-2.967-2.972-2.966 2.972H98.67l-2.712-2.718-2.712 2.718H91.55l3.56-3.567-3.56-3.566-3.814 3.821 3.306 3.312h-1.695l-2.459-2.463-2.458 2.463h-1.695l3.306-3.312-3.56-3.566-3.56 3.311zm128.582-7.896l-3.56-3.566-3.815 3.821 3.56 3.566 3.815-3.821zm-8.392 8.491l3.815-3.821-3.56-3.566-3.815 3.821 3.56 3.566zm-.593-8.236l-3.56-3.566-3.814 3.82 3.56 3.567 3.814-3.821zm-8.476 8.49l3.814-3.82-3.56-3.566-3.814 3.82 3.56 3.566zm-.509-8.151l-3.56-3.566-3.814 3.821 3.56 3.566 3.814-3.821zm-8.476 8.406l3.815-3.821-3.56-3.566-3.815 3.821 3.56 3.566zm-.593-8.151l-3.56-3.566-3.814 3.821 3.56 3.566 3.814-3.821zm-8.391 8.406l3.814-3.821-3.56-3.566-3.814 3.821 3.56 3.566zm-.594-8.151l-3.56-3.566-3.814 3.821 3.56 3.566 3.814-3.821zm-8.476 8.406l3.815-3.821-3.56-3.566-3.815 3.821 3.56 3.566zm-.508-8.151l-3.56-3.567-3.814 3.821 3.56 3.566 3.814-3.82zm-8.476 8.405l3.814-3.82-3.56-3.567-3.814 3.821 3.56 3.566zm-.594-8.151l-3.56-3.566-3.814 3.821 3.56 3.566 3.814-3.821zm-8.391 8.406l3.814-3.821-3.56-3.566-3.814 3.821 3.56 3.566zm-.593-8.151l-3.56-3.566-3.814 3.821 3.56 3.566 3.814-3.821zm-8.391 8.406l3.729-3.821-3.56-3.566-3.814 3.821 3.645 3.566zm-.594-8.151l-3.56-3.566-3.814 3.82 3.56 3.567 3.814-3.821zm-8.476 8.49l3.814-3.82-3.56-3.566-3.814 3.82 3.56 3.566zm-.508-8.236l-3.56-3.566-3.815 3.821 3.56 3.566 3.815-3.821zm-8.476 8.491l3.814-3.821-3.56-3.566-3.814 3.821 3.56 3.566zm-.594-8.236l-3.56-3.566-3.814 3.821 3.56 3.566 3.814-3.821zm-8.391 8.491l3.814-3.821-3.56-3.566-3.814 3.821 3.56 3.566zm-.593-8.151l-3.56-3.566-3.815 3.821 3.56 3.566 3.815-3.821zm-8.476 8.406l3.814-3.821-3.56-3.566-3.814 3.821 3.56 3.566zm-4.323-4.416l3.814-3.82-3.56-3.566-3.814 3.82 3.56 3.566zm-9.07.255l3.815-3.821-3.56-3.566-3.815 3.821 3.56 3.566zm127.65 4.161h-.509l.424-.425.085.425zm-17.376-17.661a.58.58 0 00.593-.594v-8.321a.58.58 0 00-.593-.595.58.58 0 00-.594.595v8.321a.58.58 0 00.594.594zm-12.714 0a.58.58 0 00.593-.594v-8.321a.58.58 0 00-.593-.595.58.58 0 00-.594.595v8.321a.58.58 0 00.594.594zm-12.714 0a.58.58 0 00.593-.594v-8.321a.58.58 0 00-.593-.595.58.58 0 00-.594.595v8.321a.58.58 0 00.594.594zm-12.714 0a.58.58 0 00.593-.594v-8.321a.58.58 0 00-.593-.595.58.58 0 00-.594.595v8.321a.58.58 0 00.594.594zm-12.715 0a.58.58 0 00.594-.594v-8.321a.58.58 0 00-.594-.595.58.58 0 00-.593.595v8.321a.58.58 0 00.593.594zm-12.714 0a.58.58 0 00.594-.594v-8.321a.58.58 0 00-.594-.595.58.58 0 00-.593.595v8.321a.58.58 0 00.593.594zm-12.714 0a.58.58 0 00.594-.594v-8.321a.58.58 0 00-.594-.595.58.58 0 00-.593.595v8.321a.58.58 0 00.593.594zm-12.714 0a.58.58 0 00.594-.594v-8.321a.58.58 0 00-.594-.595.58.58 0 00-.593.595v8.321a.58.58 0 00.593.594zm-12.714 0a.58.58 0 00.594-.594v-8.321a.58.58 0 00-.594-.595.58.58 0 00-.593.595v8.321a.58.58 0 00.593.594z" fill="#EBF6F8"/><path d="M84.26 356.101h124.09v7.896H84.26v-7.896z" fill="#EBF6F8"/><path d="M84.854 356.695v6.708h122.903v-6.708H84.854zm-1.186-1.188h125.191v9.085H83.667v-9.085z" fill="#EBF6F8"/><path d="M196.229 355.846h1.187v8.321h-1.187v-8.321zm-12.714 0h1.187v8.321h-1.187v-8.321zm-12.714 0h1.187v8.321h-1.187v-8.321zm-12.714 0h1.187v8.321h-1.187v-8.321zm-12.714 0h1.187v8.321h-1.187v-8.321zm-12.714 0h1.187v8.321h-1.187v-8.321zm-12.714 0h1.187v8.321h-1.187v-8.321zm-12.714 0h1.187v8.321h-1.187v-8.321zm-12.714 0h1.187v8.321h-1.187v-8.321zm85.184 37.699l1.102-.339c-1.356-4.84-3.306-16.897-3.306-17.067l-1.186.17c.085.594 2.034 12.312 3.39 17.236zm-28.988-141.71l.848-.764-10.256-11.632 8.73-14.859L143 211.249l5.34-12.481-4.493-14.01 3.476-12.226-2.628-12.482 2.204-10.953-1.187-.255-2.204 11.208v.085l2.628 12.397-3.475 12.226 4.492 13.925-5.425 12.651.085.255 6.866 12.991-8.815 15.028 10.849 12.227z" fill="#EBF6F8"/><path d="M140.881 252.854l10.087-13.925-8.392-13.33 7.035-13.755-6.357-11.972 5.086-15.114-3.899-11.123 3.221-12.906-2.289-11.122-1.102.169 2.119 10.953-3.22 12.991 3.983 11.038-5.17 15.199 6.272 11.887-7.035 13.839 8.307 13.246-9.578 13.161.932.764zM134.185 58.67h22.885v9.596h-22.885V58.67zm0-15.282h22.885v9.594h-22.885v-9.594z" fill="#EBF6F8"/><path d="M131.048 45.68h29.158v18.085h-29.158V45.68zm20.767-.849l-5.933-13.67-5.934 13.67h11.867z" fill="#EBF6F8"/><path d="M143.593 39.737h4.577l-2.288-24.199-2.289 24.199zM144.271 0h3.136v1.783h-3.136V0z" fill="#EBF6F8"/><path d="M145.203.425h1.357v24.707h-1.357V.425zm8.816 47.972h1.526v11.887h-1.526V48.397zm-4.493 0h1.526v11.887h-1.526V48.397zm-4.492 0h1.526v11.887h-1.526V48.397zm-4.492 0h1.525v11.887h-1.525V48.397zm-4.492 0h1.525v11.887h-1.525V48.397z" fill="#EBF6F8"/><mask id="path-2-outside-1" maskUnits="userSpaceOnUse" x="-5" y="329" width="172" height="159" fill="#000"><path fill="#fff" d="M-5 329h172v159H-5z"/><path fill-rule="evenodd" clip-rule="evenodd" d="M14.825 338h5.178v5.174h5.531V338h5.178v5.174h5.532V338h5.178v5.174h5.531V338h5.179v5.174h5.531V338h5.178v5.174h5.532V338h5.178v5.174h5.414V338h5.178v5.174h5.532V338h5.178v5.174h5.532V338h5.178v5.174h5.531V338h5.179v5.174h5.531V338h5.178v5.174h5.532V338h5.178v5.174h5.531V338h5.179v5.174h2.824l-2.471 4.468v-1H14.825v.999L12 343.174h2.825V338zm0 10.642v10.522H12l2.824 4.351v-1h133.931v1l2.471-4.351h-2.824v-10.522H14.825zm133.577 15.873H14.825v47.56h-2.472l1.177 4.468v-1h48.84v1l.825-4.468h-1.883v-9.053c-.118-.823-.118-1.529-.118-2.352 0-11.288 9.18-20.459 20.478-20.459 11.18 0 20.36 9.171 20.36 20.341 0 .824 0 1.647-.117 2.352v9.171h-2.119l1.177 4.468v-1h48.723v1l.942-4.468h-2.236v-47.56zm0 53.028h-46.487v61.083H61.312v-61.083H14.825v61.083h46.487v.117h40.603v-.117h46.487v-61.083zM24.887 380.505h26.48v21.871h-26.48v-21.871zm2 2v17.871h22.48v-17.871h-22.48zm86.502-2h26.48v21.871h-26.48v-21.871zm2 2v17.871h22.48v-17.871h-22.48zm-1 40.446h-1v44.211h26.48v-44.211h-25.48zm1 42.211v-40.211h22.48v40.211h-22.48zm-90.502-42.211h26.48v44.211h-26.48v-44.211zm2 2v40.211h22.48v-40.211h-22.48zm56.197-50.559l-.1-1.995.1.995-.1-.995.002-.001h.004l.014-.001.047-.005.171-.013c.147-.011.36-.023.627-.034a27.33 27.33 0 012.891.049h18.175v15.462l-1.991.135c-.531-3.885-2.023-6.632-3.925-8.594-1.913-1.972-4.287-3.197-6.642-3.948-2.052-.655-4.064-.942-5.685-1.055h-3.588zm17.351 3.611c-1.571-1.62-3.392-2.781-5.24-3.611h7.72v6.999a15.267 15.267 0 00-2.48-3.388zm-20.194-5.606c.001 0 .002 0-.1.995l.102-.995-.101 1.995h-3.588c-1.622.113-3.633.4-5.685 1.055-2.355.751-4.73 1.976-6.642 3.948-1.902 1.962-3.394 4.709-3.925 8.594l-1.991-.135v-15.462h18.175a27.327 27.327 0 012.891-.049c.268.011.48.023.627.034l.09.007.081.006.047.005.014.001h.004l.002.001zm-12.21 1.995h-7.72v6.999a15.274 15.274 0 012.48-3.388c1.571-1.62 3.392-2.781 5.24-3.611z"/></mask><path fill-rule="evenodd" clip-rule="evenodd" d="M14.825 338h5.178v5.174h5.531V338h5.178v5.174h5.532V338h5.178v5.174h5.531V338h5.179v5.174h5.531V338h5.178v5.174h5.532V338h5.178v5.174h5.414V338h5.178v5.174h5.532V338h5.178v5.174h5.532V338h5.178v5.174h5.531V338h5.179v5.174h5.531V338h5.178v5.174h5.532V338h5.178v5.174h5.531V338h5.179v5.174h2.824l-2.471 4.468v-1H14.825v.999L12 343.174h2.825V338zm0 10.642v10.522H12l2.824 4.351v-1h133.931v1l2.471-4.351h-2.824v-10.522H14.825zm133.577 15.873H14.825v47.56h-2.472l1.177 4.468v-1h48.84v1l.825-4.468h-1.883v-9.053c-.118-.823-.118-1.529-.118-2.352 0-11.288 9.18-20.459 20.478-20.459 11.18 0 20.36 9.171 20.36 20.341 0 .824 0 1.647-.117 2.352v9.171h-2.119l1.177 4.468v-1h48.723v1l.942-4.468h-2.236v-47.56zm0 53.028h-46.487v61.083H61.312v-61.083H14.825v61.083h46.487v.117h40.603v-.117h46.487v-61.083zM24.887 380.505h26.48v21.871h-26.48v-21.871zm2 2v17.871h22.48v-17.871h-22.48zm86.502-2h26.48v21.871h-26.48v-21.871zm2 2v17.871h22.48v-17.871h-22.48zm-1 40.446h-1v44.211h26.48v-44.211h-25.48zm1 42.211v-40.211h22.48v40.211h-22.48zm-90.502-42.211h26.48v44.211h-26.48v-44.211zm2 2v40.211h22.48v-40.211h-22.48zm56.197-50.559l-.1-1.995.1.995-.1-.995.002-.001h.004l.014-.001.047-.005.171-.013c.147-.011.36-.023.627-.034a27.33 27.33 0 012.891.049h18.175v15.462l-1.991.135c-.531-3.885-2.023-6.632-3.925-8.594-1.913-1.972-4.287-3.197-6.642-3.948-2.052-.655-4.064-.942-5.685-1.055h-3.588zm17.351 3.611c-1.571-1.62-3.392-2.781-5.24-3.611h7.72v6.999a15.267 15.267 0 00-2.48-3.388zm-20.194-5.606c.001 0 .002 0-.1.995l.102-.995-.101 1.995h-3.588c-1.622.113-3.633.4-5.685 1.055-2.355.751-4.73 1.976-6.642 3.948-1.902 1.962-3.394 4.709-3.925 8.594l-1.991-.135v-15.462h18.175a27.327 27.327 0 012.891-.049c.268.011.48.023.627.034l.09.007.081.006.047.005.014.001h.004l.002.001zm-12.21 1.995h-7.72v6.999a15.274 15.274 0 012.48-3.388c1.571-1.62 3.392-2.781 5.24-3.611z" fill="#EBF6F8"/><path d="M20.003 338h9v-9h-9v9zm-5.178 0v-9h-9v9h9zm5.178 5.174h-9v9h9v-9zm5.531 0v9h9v-9h-9zm0-5.174v-9h-9v9h9zm5.178 0h9v-9h-9v9zm0 5.174h-9v9h9v-9zm5.532 0v9h9v-9h-9zm0-5.174v-9h-9v9h9zm5.178 0h9v-9h-9v9zm0 5.174h-9v9h9v-9zm5.531 0v9h9v-9h-9zm0-5.174v-9h-9v9h9zm5.179 0h9v-9h-9v9zm0 5.174h-9v9h9v-9zm5.531 0v9h9v-9h-9zm0-5.174v-9h-9v9h9zm5.178 0h9v-9h-9v9zm0 5.174h-9v9h9v-9zm5.532 0v9h9v-9h-9zm0-5.174v-9h-9v9h9zm5.178 0h9v-9h-9v9zm0 5.174h-9v9h9v-9zm5.414 0v9h9v-9h-9zm0-5.174v-9h-9v9h9zm5.178 0h9v-9h-9v9zm0 5.174h-9v9h9v-9zm5.532 0v9h9v-9h-9zm0-5.174v-9h-9v9h9zm5.178 0h9v-9h-9v9zm0 5.174h-9v9h9v-9zm5.532 0v9h9v-9h-9zm0-5.174v-9h-9v9h9zm5.178 0h9v-9h-9v9zm0 5.174h-9v9h9v-9zm5.531 0v9h9v-9h-9zm0-5.174v-9h-9v9h9zm5.179 0h9v-9h-9v9zm0 5.174h-9v9h9v-9zm5.531 0v9h9v-9h-9zm0-5.174v-9h-9v9h9zm5.178 0h9v-9h-9v9zm0 5.174h-9v9h9v-9zm5.532 0v9h9v-9h-9zm0-5.174v-9h-9v9h9zm5.178 0h9v-9h-9v9zm0 5.174h-9v9h9v-9zm5.531 0v9h9v-9h-9zm0-5.174v-9h-9v9h9zm5.179 0h9v-9h-9v9zm0 5.174h-9v9h9v-9zm2.824 0l7.876 4.356 7.388-13.356h-15.264v9zm-2.471 4.468v9h5.307l2.568-4.644-7.875-4.356zm0 0h-9v9h9v-9zm0-1h9v-9h-9v9zm-133.93 0v-9h-9v9h9zm0 .999l-7.608 4.809 16.607 26.271v-31.08h-9zM12 343.174v-9H-4.337l8.73 13.809L12 343.174zm2.825 0v9h9v-9h-9zm0 5.468v-9h-9v9h9zm0 10.522v9h9v-9h-9zm-2.825 0v-9H-4.574l9.025 13.901L12 359.164zm2.824 4.351l-7.548 4.9 16.548 25.489v-30.389h-9zm0-1v-9h-9v9h9zm133.931 0h9v-9h-9v9zm0 1h-9v9h9v-9zm0 0v9h5.238l2.587-4.555-7.825-4.445zm2.471-4.351l7.826 4.446 7.638-13.446h-15.464v9zm-2.824 0h-9v9h9v-9zm0-10.522h9v-9h-9v9zm0 15.873h9v-9h-9v9zm-133.577 0v-9h-9v9h9zm0 47.56v9h9v-9h-9zm-2.472 0v-9H.675l2.975 11.293 8.703-2.293zm1.177 4.468l-8.704 2.292 17.704-2.292h-9zm0-1v-9h-9v9h9zm48.84 0h9v-9h-9v9zm0 1h-9v9h9v-9zm0 0v9h7.493l1.359-7.368-8.851-1.632zm.825-4.468l8.85 1.632 1.96-10.632h-10.81v9zm-1.883 0h-9v9h9v-9zm0-9.053h9v-.641l-.09-.633-8.91 1.274zm40.603-.118l-8.878-1.481-.122.736v.745h9zm0 9.171v9h9v-9h-9zm-2.119 0v-9H88.118l2.975 11.293 8.703-2.293zm1.177 4.468l-8.703 2.293 1.767 6.707h6.936v-9zm0 0v9h9v-9h-9zm0-1v-9h-9v9h9zm48.723 0h9v-9h-9v9zm0 1h-9l17.807 1.855-8.807-1.855zm.942-4.468l8.806 1.856 2.288-10.856h-11.094v9zm-2.236 0h-9v9h9v-9zm-46.487 5.468v-9h-9v9h9zm46.487 0h9v-9h-9v9zm-87.09 0h9v-9h-9v9zm-46.487 0v-9h-9v9h9zm0 61.083h-9v9h9v-9zm46.487.117h-9v9h9v-9zm40.603 0v9h9v-9h-9zm46.487-.117v9h9v-9h-9zM24.887 380.505v-9h-9v9h9zm26.48 0h9v-9h-9v9zm0 21.871v9h9v-9h-9zm-26.48 0h-9v9h9v-9zm2-2h-9v9h9v-9zm0-17.871v-9h-9v9h9zm22.48 17.871v9h9v-9h-9zm0-17.871h9v-9h-9v9zm64.022-2v-9h-9v9h9zm26.48 0h9v-9h-9v9zm0 21.871v9h9v-9h-9zm-26.48 0h-9v9h9v-9zm2-2h-9v9h9v-9zm0-17.871v-9h-9v9h9zm22.48 17.871v9h9v-9h-9zm0-17.871h9v-9h-9v9zm-24.48 40.446v-9h-9v9h9zm0 44.211h-9v9h9v-9zm26.48 0v9h9v-9h-9zm0-44.211h9v-9h-9v9zm-24.48 2v-9h-9v9h9zm0 40.211h-9v9h9v-9zm22.48-40.211h9v-9h-9v9zm0 40.211v9h9v-9h-9zM24.887 422.951v-9h-9v9h9zm26.48 0h9v-9h-9v9zm0 44.211v9h9v-9h-9zm-26.48 0h-9v9h9v-9zm2-2h-9v9h9v-9zm0-40.211v-9h-9v9h9zm22.48 40.211v9h9v-9h-9zm0-40.211h9v-9h-9v9zm33.616-52.554l8.955-.906-17.943 1.359 8.988-.453zm.101 1.995l-8.989.453.432 8.547h8.557v-9zm-.1-1.995l-.89-8.956-.032.003-.032.003.954 8.95zm.002-.001l-.878-8.957-.013.002.89 8.955zm.004 0l-.856-8.959-.011.001-.01.001.877 8.957zm.014-.001l-.809-8.964-.024.002-.024.003.857 8.959zm.047-.005l-.779-8.966-.015.001-.014.002.808 8.963zm.171-.013l.642 8.977-.642-8.977zm.627-.034l-.342-8.993.342 8.993zm2.22.011l-.4 8.991.4-8.991zm.671.038l-.606 8.979.303.021h.303v-9zm18.175 0h9v-9h-9v9zm0 15.462l.611 8.979 8.389-.571v-8.408h-9zm-1.991.135l-8.917 1.22 1.14 8.331 8.389-.571-.612-8.98zm-3.925-8.594l-6.461 6.266 6.46-6.266zm-6.642-3.948l-2.736 8.574 2.736-8.574zm-5.685-1.055l.628-8.978-.314-.022h-.314v9zm8.523 0v-9l-3.689 17.209 3.689-8.209zm5.24 3.611l6.461-6.265-6.461 6.265zm2.48-3.611h9v-9h-9v9zm0 6.999l-7.917 4.28 16.917-4.28h-9zm-22.674-8.994l.955-8.95-.032-.003-.032-.003-.89 8.956zm.002 0l8.988.453-17.943-1.359 8.955.906zm-.101 1.995v9h8.557l.431-8.547-8.988-.453zm-3.588 0v-9h-.314l-.314.022.628 8.978zm-5.685 1.055l2.736 8.574-2.736-8.574zm-6.642 3.948l-6.461-6.265 6.461 6.265zm-3.925 8.594l-.612 8.98 8.389.571 1.14-8.331-8.917-1.22zm-1.991-.135h-9v8.408l8.389.571.61-8.979zm0-15.462v-9h-9v9h9zm18.175 0v9h.303l.303-.021-.606-8.979zm.671-.038l.4 8.991-.4-8.991zm2.22-.011l.342-8.993-.342 8.993zm.627.034l-.643 8.977.643-8.977zm.09.007l-.705 8.972.705-8.972zm.081.006l.809-8.963-.015-.002-.016-.001-.778 8.966zm.047.005l.856-8.96-.023-.002-.024-.002-.809 8.964zm.014.001l.88-8.957-.012-.001-.012-.001-.856 8.959zm.004 0l.891-8.955-.011-.002-.88 8.957zm-19.93 1.996v-9h-9v9h9zm7.721 0l3.689 8.209-3.689-17.209v9zm-7.72 6.999h-9l16.917 4.28-7.917-4.28zm2.48-3.388l6.461 6.265-6.46-6.265zM20.003 329h-5.178v18h5.178v-18zm9 14.174V338h-18v5.174h18zm-3.469-9h-5.531v18h5.531v-18zm-9 3.826v5.174h18V338h-18zm14.178-9h-5.178v18h5.178v-18zm9 14.174V338h-18v5.174h18zm-3.468-9h-5.532v18h5.532v-18zm-9 3.826v5.174h18V338h-18zm14.178-9h-5.178v18h5.178v-18zm9 14.174V338h-18v5.174h18zm-3.469-9h-5.53v18h5.53v-18zm-9 3.826v5.174h18V338h-18zm14.179-9h-5.179v18h5.179v-18zm9 14.174V338h-18v5.174h18zm-3.469-9h-5.531v18h5.531v-18zm-9 3.826v5.174h18V338h-18zm14.178-9h-5.178v18h5.178v-18zm9 14.174V338h-18v5.174h18zm-3.468-9h-5.532v18h5.532v-18zm-9 3.826v5.174h18V338h-18zm14.178-9h-5.178v18h5.178v-18zm9 14.174V338h-18v5.174h18zm-3.586-9H73.55v18h5.414v-18zm-9 3.826v5.174h18V338h-18zm14.178-9h-5.178v18h5.178v-18zm9 14.174V338h-18v5.174h18zm-3.468-9h-5.532v18h5.532v-18zm-9 3.826v5.174h18V338h-18zm14.178-9h-5.178v18h5.178v-18zm9 14.174V338h-18v5.174h18zm-3.468-9h-5.532v18h5.532v-18zm-9 3.826v5.174h18V338h-18zm14.178-9h-5.178v18h5.178v-18zm9 14.174V338h-18v5.174h18zm-3.469-9h-5.531v18h5.531v-18zm-9 3.826v5.174h18V338h-18zm14.179-9h-5.179v18h5.179v-18zm9 14.174V338h-18v5.174h18zm-3.469-9h-5.531v18h5.531v-18zm-9 3.826v5.174h18V338h-18zm14.178-9h-5.178v18h5.178v-18zm9 14.174V338h-18v5.174h18zm-3.468-9h-5.532v18h5.532v-18zm-9 3.826v5.174h18V338h-18zm14.178-9h-5.178v18h5.178v-18zm9 14.174V338h-18v5.174h18zm-3.469-9h-5.531v18h5.531v-18zm-9 3.826v5.174h18V338h-18zm14.179-9h-5.179v18h5.179v-18zm9 14.174V338h-18v5.174h18zm-6.176-9h-2.824v18h2.824v-18zm5.404 17.824l2.472-4.468-15.751-8.713-2.472 4.468 15.751 8.713zm-7.875 4.644v-18 18zm9-9v-1h-18v1h18zm-9-10H14.825v18h133.93v-18zm-142.93 9v.999h18v-.999h-18zm-1.432 1.341l2.824 4.467 15.215-9.618-2.825-4.468-15.214 9.619zm10.431-13.809H12v18h2.825v-18zm-9 3.826v5.174h18V338h-18zm0 10.642v10.522h18v-10.522h-18zm9 1.522H12v18h2.825v-18zM4.452 364.065l2.825 4.35 15.097-9.801-2.824-4.351-15.098 9.802zm19.373-.55v-1h-18v1h18zm-9 8h133.931v-18H14.825v18zm124.931-9v1h18v-1h-18zm9 10v-18 18zm7.825-4.555l2.472-4.35-15.651-8.891-2.472 4.35 15.651 8.891zm-5.354-17.796h-2.824v18h2.824v-18zm6.176 9v-10.522h-18v10.522h18zm-142.577-1.522h133.577v-18H14.825v18zm133.577-2.127H14.825v18h133.577v-18zm-142.578 9v.528h18v-.528h-18zm0 .528v.588h18v-.588h-18zm0 .588v46.444h18v-46.444h-18zm9 37.444h-2.471v18h2.472v-18zM3.65 414.368l1.176 4.467 17.407-4.585-1.177-4.467-17.406 4.585zm18.88 2.175v-1h-18v1h18zm-9 8h48.84v-18H13.53v18zm39.84-9v1h18v-1h-18zm9 10v-18 18zm8.852-7.368l.823-4.468-17.701-3.264-.824 4.468 17.702 3.264zm-8.027-15.1h-1.883v18h1.883v-18zm7.117 9v-9.053h-18v9.053h18zm-.09-10.327c-.015-.103-.028-.2-.028-1.078h-18c0 .769-.012 2.082.209 3.626l17.818-2.548zm-.028-1.078c0-6.309 5.143-11.459 11.478-11.459v-18c-16.26 0-29.478 13.193-29.478 29.459h18zm11.478-11.459c6.218 0 11.36 5.15 11.36 11.341h18c0-16.148-13.217-29.341-29.36-29.341v18zm11.36 11.341c0 .444 0 .686-.008.887-.007.198-.016.158.013-.016l17.755 2.962c.265-1.587.24-3.213.24-3.833h-18zm-.117 2.352v9.171h18v-9.171h-18zm9 .171h-2.119v18h2.119v-18zm-10.822 11.293l1.177 4.468 17.406-4.585-1.177-4.468-17.406 4.585zm9.88 11.175v-18 18zm-9-10v1h18v-1h-18zm57.723-9h-48.723v18h48.723v-18zm9 10v-1h-18v1h18zm-.193 1.855l.941-4.467-17.613-3.711-.941 4.467 17.613 3.711zm-7.865-15.323h-2.236v18h2.236v-18zm6.764 9v-47.032h-18v47.032h18zm0-47.032v-.528h-18v.528h18zm-55.487 61.5h46.487v-18h-46.487v18zm-9-9v61.083h18v-61.083h-18zm9 52.083H61.312v18h40.603v-18zm-31.603 9v-61.083h-18v61.083h18zm-9-70.083H14.825v18h46.487v-18zm-55.488 9v61.083h18v-61.083h-18zm9 70.083h36.72v-18h-36.72v18zm36.72 0h.588v-18h-.588v18zm.588 0h9.18v-18h-9.18v18zm.18-9v.117h18v-.117h-18zm9 9.117h40.603v-18H61.312v18zm49.603-9v-.117h-18v.117h18zm-9 8.883h9.179v-18h-9.179v18zm9.179 0h.707v-18h-.707v18zm.707 0h36.601v-18h-36.601v18zm45.601-9v-61.083h-18v61.083h18zM25.887 371.505h-1v18h1v-18zm24.48 0h-24.48v18h24.48v-18zm1 0h-1v18h1v-18zm9 10v-1h-18v1h18zm0 19.871v-19.871h-18v19.871h18zm0 1v-1h-18v1h18zm-10 9h1v-18h-1v18zm-24.48 0h24.48v-18h-24.48v18zm-1 0h1v-18h-1v18zm-9-10v1h18v-1h-18zm0-19.871v19.871h18v-19.871h-18zm0-1v1h18v-1h-18zm20 19.871v-17.871h-18v17.871h18zm13.48-9h-22.48v18h22.48v-18zm-9-8.871v17.871h18v-17.871h-18zm-13.48 9h22.48v-18h-22.48v18zm87.502-20h-1v18h1v-18zm24.48 0h-24.48v18h24.48v-18zm1 0h-1v18h1v-18zm9 10v-1h-18v1h18zm0 19.871v-19.871h-18v19.871h18zm0 1v-1h-18v1h18zm-10 9h1v-18h-1v18zm-24.48 0h24.48v-18h-24.48v18zm-1 0h1v-18h-1v18zm-9-10v1h18v-1h-18zm0-19.871v19.871h18v-19.871h-18zm0-1v1h18v-1h-18zm20 19.871v-17.871h-18v17.871h18zm13.48-9h-22.48v18h22.48v-18zm-9-8.871v17.871h18v-17.871h-18zm-13.48 9h22.48v-18h-22.48v18zm-2 40.446h1v-18h-1v18zm9-8v-1h-18v1h18zm0 42.211v-42.211h-18v42.211h18zm0 1v-1h-18v1h18zm-8-9h-1v18h1v-18zm24.48 0h-24.48v18h24.48v-18zm1 0h-1v18h1v-18zm-9 8v1h18v-1h-18zm0-42.211v42.211h18v-42.211h-18zm0-1v1h18v-1h-18zm8 9h1v-18h-1v18zm-24.48 0h24.48v-18h-24.48v18zm-8-7v40.211h18v-40.211h-18zm31.48-9h-22.48v18h22.48v-18zm9 49.211v-40.211h-18v40.211h18zm-31.48 9h22.48v-18h-22.48v18zm-89.502-60.211h-1v18h1v-18zm24.48 0h-24.48v18h24.48v-18zm1 0h-1v18h1v-18zm9 10v-1h-18v1h18zm0 42.211v-42.211h-18v42.211h18zm0 1v-1h-18v1h18zm-10 9h1v-18h-1v18zm-24.48 0h24.48v-18h-24.48v18zm-1 0h1v-18h-1v18zm-9-10v1h18v-1h-18zm0-42.211v42.211h18v-42.211h-18zm0-1v1h18v-1h-18zm20 42.211v-40.211h-18v40.211h18zm13.48-9h-22.48v18h22.48v-18zm-9-31.211v40.211h18v-40.211h-18zm-13.48 9h22.48v-18h-22.48v18zm47.108-61.101l.1 1.995 17.978-.907-.101-1.995-17.977.907zm18.043-.364l-.1-.995-17.909 1.812.1.994 17.91-1.811zm-10.008-9.039c.226-.024-1.588.064-3.423 1.086a8.996 8.996 0 00-4.603 8.456l.014.185.006.071.016.168.09.884 17.908-1.811a664.811 664.811 0 01-.091-.907l.005.054a7.569 7.569 0 01.026.427c.003.078.014.359-.002.719a8.987 8.987 0 01-.798 3.34 8.997 8.997 0 01-3.816 4.141c-1.836 1.022-3.649 1.11-3.423 1.086l-1.91-17.899zm.065-.006h-.002l1.782 17.911h.002l-1.782-17.911zm.017-.002h-.004l1.756 17.914h.004l-1.756-17.914zm.035-.003l-.014.001 1.714 17.918.014-.001-1.714-17.918zm.096-.009l-.048.004 1.617 17.927.047-.004-1.616-17.927zm.337-.027l-.308.024 1.557 17.933a.442.442 0 01.035-.003L82.58 363.4zm.927-.05c-.375.014-.687.033-.928.05l1.286 17.954a9.39 9.39 0 01.327-.017l-.685-17.987zm2.961.013a35.62 35.62 0 00-2.961-.013l.685 17.987c.325-.013.838-.02 1.477.008l.8-17.982zm.879.049a38.07 38.07 0 00-.879-.049l-.799 17.982c.15.007.304.015.465.026l1.213-17.959zm16.568-.02H86.74v18h17.175v-18zm1 0h-1v18h1v-18zm9 10v-1h-18v1h18zm0 14.462v-14.462h-18v14.462h18zm-10.379 9.115l1.99-.136-1.222-17.958-1.991.135 1.223 17.959zm-10.998-11.308c.294.303.573.68.816 1.189.246.513.504 1.265.653 2.359l17.834-2.44c-.779-5.691-3.079-10.234-6.381-13.639l-12.922 12.531zm-2.917-1.64c1.368.436 2.309 1.013 2.917 1.64l12.922-12.531c-3.217-3.318-7.026-5.191-10.367-6.257l-5.472 17.148zm-3.578-.651c1.123.078 2.39.271 3.578.651l5.472-17.148c-2.916-.931-5.672-1.311-7.793-1.459l-1.257 17.956zm-2.959.022h3.588v-18h-3.588v18zm8.422-.791c1.01.453 1.829 1.009 2.468 1.667l12.922-12.53c-2.503-2.581-5.324-4.348-8.012-5.556l-7.378 16.419zm11.409-17.209h-7.72v18h7.72v-18zm9 15.999v-6.999h-18v6.999h18zm-17.941 2.877c.38.392.725.85 1.024 1.403l15.834-8.56a24.264 24.264 0 00-3.936-5.373l-12.922 12.53zm-4.878-9.97a1134.405 1134.405 0 00.112-1.125l.014-.185a9.316 9.316 0 00.011-.976 9.025 9.025 0 00-.799-3.341 8.997 8.997 0 00-3.816-4.139c-1.835-1.021-3.648-1.109-3.422-1.085l-1.91 17.899c.227.024-1.586-.064-3.42-1.085a8.997 8.997 0 01-4.592-8.628l.005-.053-.005.049-.086.857 17.908 1.812zm-17.808-2.807l-.1.995 17.908 1.812.1-.995-17.908-1.812zm17.843 3.354l.1-1.995-17.977-.907-.1 1.995 17.977.907zm-12.577 8.547h3.588v-18h-3.588v18zm-2.949.629c1.188-.38 2.455-.573 3.577-.651l-1.256-17.956c-2.121.148-4.877.528-7.793 1.459l5.472 17.148zm-2.917 1.64c.608-.627 1.549-1.204 2.917-1.64l-5.472-17.148c-3.341 1.066-7.15 2.939-10.367 6.257l12.922 12.531zm-1.47 3.548c.15-1.094.408-1.846.654-2.359.243-.509.522-.886.816-1.189L57.766 373.13c-3.302 3.405-5.602 7.948-6.381 13.639l17.834 2.44zM57.7 396.833l1.991.136 1.223-17.959-1.99-.135-1.224 17.958zm-8.388-23.441v14.462h18v-14.462h-18zm0-1v1h18v-1h-18zm10-9h-1v18h1v-18zm17.175 0H59.31v18h17.175v-18zm.272-.029a38.1 38.1 0 00-.879.049l1.213 17.959c.16-.011.316-.019.465-.026l-.8-17.982zm2.96-.013a35.62 35.62 0 00-2.96.013l.799 17.982a18.041 18.041 0 011.477-.008l.685-17.987zm.928.05c-.24-.017-.552-.036-.927-.05l-.685 17.987c.162.006.273.013.327.017l1.285-17.954zm.153.011l-.153-.011-1.284 17.954.027.002 1.41-17.945zm.154.013l-.154-.013-1.41 17.945.008.001 1.556-17.933zm.078.007l-.047-.004-1.617 17.927.047.004 1.617-17.927zm.061.006l-.014-.002-1.712 17.919.013.001 1.713-17.918zm.028.002h-.005l-1.759 17.914h.004l1.76-17.914zm.012.002h-.001l-1.782 17.911h.001l1.782-17.911zm-20.821 19.951h7.72v-18h-7.72v18zm9-2.001v-6.999h-18v6.999h18zm-12.98-9.653a24.26 24.26 0 00-3.937 5.373l15.834 8.56a6.304 6.304 0 011.024-1.403l-12.922-12.53zm8.011-5.556c-2.688 1.208-5.509 2.975-8.012 5.556l12.922 12.53c.64-.658 1.459-1.214 2.468-1.667l-7.378-16.419z" fill="#fff" mask="url(#path-2-outside-1)"/></g><defs><clipPath id="clip0"><path fill="#fff" d="M0 0h187v467H0z"/></clipPath></defs></svg>