<svg width="50px" height="40px" xmlns="http://www.w3.org/2000/svg" viewBox="0 0 50 50"><defs><style>.cls-1{fill:#fff;}</style></defs><title>icon-wallet</title><g id="Layer_2" data-name="Layer 2"><g id="Layer_1-2" data-name="Layer 1"><path class="cls-1" d="M32.81,32.81a1,1,0,1,0,1,1A1,1,0,0,0,32.81,32.81Z"/><path class="cls-1" d="M19.53,31.84a1,1,0,0,1,0-2,1.59,1.59,0,0,1,1.06.51,1,1,0,0,0,1.38,0A1,1,0,0,0,22,29a3.88,3.88,0,0,0-1.44-.9V27a1,1,0,0,0-2,0V28.1a2.93,2.93,0,0,0,1,5.69,1,1,0,1,1,0,2A1.75,1.75,0,0,1,18.26,35a1,1,0,1,0-1.49,1.26,4,4,0,0,0,1.78,1.27v1.14a1,1,0,1,0,2,0V37.53a2.93,2.93,0,0,0-1-5.69Z"/><path class="cls-1" d="M11.72,16.21a1,1,0,0,0,1-1v-3.9a1,1,0,0,0-2,0v3.9A1,1,0,0,0,11.72,16.21Z"/><path class="cls-1" d="M46.09,23.05V15.23a4.89,4.89,0,0,0-4.88-4.88H35.74V2.93A2.93,2.93,0,0,0,32.81,0H14.65a2.93,2.93,0,0,0-2.93,2.93V6.45H8.79A2.93,2.93,0,0,0,5.86,9.38v1h-1A4.89,4.89,0,0,0,0,15.23V45.12A4.89,4.89,0,0,0,4.88,50H34.77a4.89,4.89,0,0,0,4.78-3.91h1.66a4.89,4.89,0,0,0,4.88-4.88V38.67h1A2.93,2.93,0,0,0,50,35.74V27A3.91,3.91,0,0,0,46.09,23.05Zm2,3.9a2,2,0,0,1-2,2V25A2,2,0,0,1,48.05,27ZM41.21,12.3a2.93,2.93,0,0,1,2.93,2.93V28.91H39.65V23.05a4.9,4.9,0,0,0-3.91-4.79v-6ZM13.67,2.93a1,1,0,0,1,1-1H32.81a1,1,0,0,1,1,1V18.16H29.3V9.38a2.93,2.93,0,0,0-2.93-2.93H13.67Zm9.77,15.23V8.4h2.93a1,1,0,0,1,1,1v8.78Zm-5.86,0V8.4h3.9v9.76ZM7.81,9.38a1,1,0,0,1,1-1h6.84v9.76H7.81ZM4.88,12.3h1v5.86H5.09A3,3,0,0,1,2,15.23,2.94,2.94,0,0,1,4.88,12.3ZM34.77,48.05H4.88A2.94,2.94,0,0,1,2,45.12v-26a5.28,5.28,0,0,0,3.14,1H34.77a2.93,2.93,0,0,1,2.93,2.93v5.86H30.86a2.93,2.93,0,0,0-2.93,2.93v3.9a2.93,2.93,0,0,0,2.93,2.93H37.7v6.45A2.94,2.94,0,0,1,34.77,48.05Zm9.37-6.84a2.93,2.93,0,0,1-2.93,2.93H39.65V38.67h4.49Zm2.93-4.49H30.86a1,1,0,0,1-1-1v-3.9a1,1,0,0,1,1-1H46.09a3.91,3.91,0,0,0,2-.52v5.4A1,1,0,0,1,47.07,36.72Z"/><path class="cls-1" d="M41.21,32.81H36.72a1,1,0,0,0,0,2h4.49a1,1,0,0,0,0-2Z"/></g></g></svg>