<svg width="50px" height="40px" xmlns="http://www.w3.org/2000/svg" viewBox="0 0 50 50"><defs><style>.cls-1{fill:none;}.cls-2{fill:#fff;}</style></defs><title>iocn-umbrella</title><g id="Layer_2" data-name="Layer 2"><g id="Layer_1-2" data-name="Layer 1"><rect class="cls-1" width="50" height="50"/><path class="cls-2" d="M4.11,50a.9.9,0,0,1-.9-.9V47.49a8.94,8.94,0,0,1,4.73-7.88l.71-.38-.57-.57a5.72,5.72,0,0,1,4.07-9.74,5.71,5.71,0,0,1,4.06,9.74l-.56.57.71.38a9,9,0,0,1,4.72,7.88V49.1a.9.9,0,0,1-.9.9Zm8-9.64A7.14,7.14,0,0,0,5,47.49v.71H19.28v-.71A7.14,7.14,0,0,0,12.15,40.36Zm0-9.64a3.92,3.92,0,1,0,3.92,3.92A3.93,3.93,0,0,0,12.15,30.72Z"/><path class="cls-2" d="M29.82,50a.9.9,0,0,1-.9-.9V47.49a8.93,8.93,0,0,1,4.73-7.88l.71-.38-.57-.57a5.72,5.72,0,1,1,8.13,0l-.57.57.71.38a8.94,8.94,0,0,1,4.73,7.88V49.1a.9.9,0,0,1-.9.9Zm8-9.64a7.14,7.14,0,0,0-7.13,7.13v.71H45v-.71A7.14,7.14,0,0,0,37.85,40.36Zm0-9.64a3.92,3.92,0,1,0,3.92,3.92A3.93,3.93,0,0,0,37.85,30.72Z"/><path class="cls-2" d="M21.79,40.36a.9.9,0,0,1,0-1.8,2.32,2.32,0,0,0,2.31-2.31V25.38l-.22-.18a6.37,6.37,0,0,0-4.1-1.46,6.44,6.44,0,0,0-4.59,1.9.88.88,0,0,1-.63.26.94.94,0,0,1-.64-.26,6.48,6.48,0,0,0-9.17,0A.91.91,0,0,1,3.21,25,21.77,21.77,0,0,1,23.54,3.26l.56,0V.9a.9.9,0,1,1,1.8,0V3.23l.56,0A21.79,21.79,0,0,1,46.79,25a.9.9,0,0,1-.9.9.94.94,0,0,1-.64-.26,6.48,6.48,0,0,0-9.17,0,.9.9,0,0,1-.64.26.92.92,0,0,1-.63-.26,6.49,6.49,0,0,0-8.69-.44l-.22.18V36.25A4.12,4.12,0,0,1,21.79,40.36Zm9.94-33c1.18,1.65,4,6.38,4.52,14.85l.06.89.8-.39a8.4,8.4,0,0,1,6.82-.13l1,.43L44.76,22A20.11,20.11,0,0,0,32.42,6.44l-1.9-.76ZM9.34,21.94a8.33,8.33,0,0,1,3.55.79l.8.38.06-.88c.54-8.47,3.34-13.2,4.52-14.85l1.21-1.7-1.9.76A20.11,20.11,0,0,0,5.24,22L5.08,23l1-.43A8.27,8.27,0,0,1,9.34,21.94Zm10.44,0a8.27,8.27,0,0,1,3.47.75l.85.4V5l-.82.33c-1.83.74-3.58,2.68-5,5.47a30.87,30.87,0,0,0-2.76,11.23l-.07,1,.91-.41A8.33,8.33,0,0,1,19.78,21.94Zm6.12,1.15.85-.4a8.4,8.4,0,0,1,6.85,0l.91.41-.07-1A30.91,30.91,0,0,0,31.71,10.9c-1.38-2.83-3.15-4.79-5-5.54L25.9,5Z"/></g></g></svg>