<svg xmlns="http://www.w3.org/2000/svg" width="31.031" height="24" viewBox="0 0 31.031 24">
  <defs>
    <style>
      .cls-1 {
        fill: #fff;
        fill-rule: evenodd;
      }
    </style>
  </defs>
  <path id="Forma_1" data-name="Forma 1" class="cls-1" d="M337.358,5984.2a1.164,1.164,0,0,1,0-1.68l1.669-1.68a1.147,1.147,0,0,1,1.669,0l0.119,0.12,6.558,7.08a0.573,0.573,0,0,0,.834,0l15.977-16.68H364.3a1.148,1.148,0,0,1,1.67,0l1.669,1.68a1.165,1.165,0,0,1,0,1.68h0l-19.077,19.92a1.147,1.147,0,0,1-1.669,0l-9.3-10.08Z" transform="translate(-337 -5971)"/>
</svg>
