<svg xmlns="http://www.w3.org/2000/svg" width="87" height="60.96" viewBox="0 0 87 60.96">
  <defs>
    <style>
      .cls-1 {
        fill: #fff;
        fill-rule: evenodd;
      }
    </style>
  </defs>
  <path class="cls-1" d="M1722.24,3258.1c-3.14-3.72-8.94-5.24-20.01-5.24h-40.21c-11.33,0-17.22,1.62-20.35,5.58-3.05,3.86-3.05,9.55-3.05,17.42v15c0,15.25,3.62,22.99,23.4,22.99h40.21c9.6,0,14.92-1.34,18.36-4.62,3.54-3.36,5.04-8.86,5.04-18.37v-15C1725.63,3267.56,1725.4,3261.83,1722.24,3258.1Zm-27.76,27.33-18.26,9.5a2.691,2.691,0,0,1-1.3.32,2.789,2.789,0,0,1-2.8-2.79v-18.95a2.8,2.8,0,0,1,4.1-2.48l18.25,9.44A2.787,2.787,0,0,1,1694.48,3285.43Z" transform="translate(-1638.63 -3252.88)"/>
</svg>
