<svg width="10" height="10" fill="none" xmlns="http://www.w3.org/2000/svg"><path fill-rule="evenodd" clip-rule="evenodd" d="M0 5c0 .842.565 1.5 1.5 1.5h1.537l-.014.038-.091.241-.08.212c-.096.255-.165.46-.221.664A3.19 3.19 0 0 0 2.5 8.5c0 .736.454 1.194 1.126 1.39.303.087.567.11.874.11h.24l.15-.186c.17-.212.503-.592.887-1.031.708-.81 1.59-1.817 1.938-2.324A1 1 0 0 0 8 6.5h1a1 1 0 0 0 1-1V1a1 1 0 0 0-1-1H8a.999.999 0 0 0-.827.437 2.443 2.443 0 0 0-.505-.246 3.37 3.37 0 0 0-1.185-.19H2C.622 0 0 2.028 0 5zm7 .5a.83.83 0 0 1-.07.34c-.088.204-.881 1.109-1.632 1.966-.388.443-.765.872-1.028 1.187a1.75 1.75 0 0 1-.365-.064C3.62 8.846 3.5 8.726 3.5 8.5c0-.158.032-.35.095-.579.047-.17.108-.35.194-.58a53.895 53.895 0 0 1 .172-.456c.065-.176.107-.305.137-.423.124-.5 0-.962-.598-.962h-2c-.346 0-.5-.18-.5-.5 0-2.395.492-4 1-4h3.518c.22-.004.527.03.814.133C6.774 1.29 7 1.549 7 2v3.5zM9 1v4.5H8V1h1z" fill="#C30"/></svg>