<svg width="58" height="58" fill="none" xmlns="http://www.w3.org/2000/svg"><path fill-rule="evenodd" clip-rule="evenodd" d="M51.667 29H40.333v-5.667h11.334V29zm-2.834 22.667h-8.5v-17h8.5v17zM38.33 7.167a2.814 2.814 0 0 1 2.004-.83c.756 0 1.467.294 2 .826a2.833 2.833 0 0 1 0 4.007c-1.672 1.674-4.672 2.649-7.174 3.17.521-2.502 1.499-5.502 3.17-7.174zM34.667 29H23.333v-5.667h11.334V29zm0 22.667H23.333v-17h11.334v17zM15.663 11.17a2.814 2.814 0 0 1-.83-2.003c0-.754.295-1.468.833-2.004a2.807 2.807 0 0 1 2-.827c.757 0 1.468.295 2.004.83 1.671 1.67 2.646 4.67 3.167 7.169-2.493-.525-5.51-1.502-7.173-3.165zM17.668 29H6.333v-5.667h11.334V29zm0 22.667h-8.5v-17h8.5v17zm34-34H42.84c1.278-.663 2.49-1.476 3.502-2.49 3.315-3.313 3.315-8.705 0-12.02-3.213-3.207-8.806-3.207-12.02 0C29.69 7.793 29.058 16.525 29 17.505c-.057-.98-.689-9.712-5.324-14.348-3.213-3.207-8.811-3.207-12.019 0a8.442 8.442 0 0 0-2.49 6.01c0 2.27.884 4.403 2.487 6.01C12.67 16.19 13.88 17 15.16 17.666H6.333a5.672 5.672 0 0 0-5.666 5.666v8.5A2.834 2.834 0 0 0 3.5 34.667v17a5.672 5.672 0 0 0 5.667 5.666h39.666a5.672 5.672 0 0 0 5.667-5.666v-17a2.834 2.834 0 0 0 2.833-2.834v-8.5a5.672 5.672 0 0 0-5.666-5.666z" fill="#C30"/></svg>