<svg width="24" height="24" fill="none" xmlns="http://www.w3.org/2000/svg"><path fill-rule="evenodd" clip-rule="evenodd" d="M4 4v5h5V4H4zm5 7H4c-1.103 0-2-.897-2-2V4c0-1.103.897-2 2-2h5c1.103 0 2 .897 2 2v5c0 1.103-.897 2-2 2zm-5 4v5h5v-5H4zm5 7H4c-1.103 0-2-.897-2-2v-5c0-1.103.897-2 2-2h5c1.103 0 2 .897 2 2v5c0 1.103-.897 2-2 2zm6-18v5h5V4h-5zm5 7h-5c-1.103 0-2-.897-2-2V4c0-1.103.897-2 2-2h5c1.103 0 2 .897 2 2v5c0 1.103-.897 2-2 2zm-5 4v5h5v-5h-5zm5 7h-5c-1.103 0-2-.897-2-2v-5c0-1.103.897-2 2-2h5c1.103 0 2 .897 2 2v5c0 1.103-.897 2-2 2z" fill="#389908"/></svg>