<svg width="10" height="10" fill="none" xmlns="http://www.w3.org/2000/svg"><path fill-rule="evenodd" clip-rule="evenodd" d="M10 5c0-.842-.565-1.5-1.5-1.5H6.963l.014-.038.091-.241.08-.212c.096-.255.165-.46.221-.664A3.19 3.19 0 0 0 7.5 1.5C7.5.764 7.046.306 6.374.11A2.954 2.954 0 0 0 5.5 0h-.24l-.15.186c-.17.212-.503.592-.887 1.031-.708.81-1.59 1.817-1.938 2.324A1 1 0 0 0 2 3.5H1a1 1 0 0 0-1 1V9a1 1 0 0 0 1 1h1a.999.999 0 0 0 .827-.437c.151.098.32.18.505.246.42.15.838.197 1.185.19H8c1.378 0 2-2.028 2-5zm-7-.5a.83.83 0 0 1 .07-.34c.088-.204.881-1.109 1.632-1.966.388-.443.765-.872 1.028-1.187a1.8 1.8 0 0 1 .365.064c.286.083.405.203.405.429 0 .158-.032.35-.095.579-.047.17-.108.35-.194.58l-.074.199-.098.257a4.062 4.062 0 0 0-.137.423c-.124.5 0 .962.598.962h2c.346 0 .5.18.5.5 0 2.395-.492 4-1 4H4.482a2.405 2.405 0 0 1-.814-.133C3.226 8.71 3 8.451 3 8V4.5zM1 9V4.5h1V9H1z" fill="#389908"/></svg>