<svg width="24" height="24" fill="none" xmlns="http://www.w3.org/2000/svg"><path fill-rule="evenodd" clip-rule="evenodd" d="M19 3c1.103 0 2 .898 2 2 0 1.615-1.109 3.778-2 5.214C18.108 8.78 17 6.62 17 5c0-1.102.897-2 2-2zm0 10.667l.8-1.067c.131-.174 3.2-4.305 3.2-7.6 0-2.206-1.794-4-4-4s-4 1.794-4 4c0 3.295 3.069 7.426 3.2 7.6l.8 1.067zm-7 6.252l-3-2.4V6.081l3 2.4v11.438zM3 8.535l4-2.667v11.596l-4 2.668V8.535zm16.555 10.296a.998.998 0 0 0 .445-.83v-3h-2v2.463l-4 2.667V8.001a1 1 0 0 0-.375-.782l-5-4a1.069 1.069 0 0 0-.591-.21 1.061 1.061 0 0 0-.589.16l-6 4A.999.999 0 0 0 1 8v14a.998.998 0 0 0 1.555.831l5.391-3.594 4.43 3.543c.18.145.401.22.624.22a.855.855 0 0 0 .549-.177l6.006-3.992zM19 4a1 1 0 1 1 .002 1.998A1 1 0 0 1 19 4z" fill="#389908"/></svg>