<svg width="24" height="24" fill="none" xmlns="http://www.w3.org/2000/svg"><path fill-rule="evenodd" clip-rule="evenodd" d="M8.914 15.5L2.5 9.086V5.5h9.586l6.414 6.414V15.5H8.914zM2.5 11.915L6.086 15.5H2.5v-3.585zm16-2.83L14.914 5.5H18.5v3.585zm2 7.415v-12a1 1 0 0 0-1-1h-18a1 1 0 0 0-1 1v12a1 1 0 0 0 1 1h18a1 1 0 0 0 1-1z" fill="#389908"/><path fill-rule="evenodd" clip-rule="evenodd" d="M10.5 12c-.827 0-1.5-.673-1.5-1.5S9.673 9 10.5 9s1.5.673 1.5 1.5-.673 1.5-1.5 1.5zm0-5C8.57 7 7 8.57 7 10.5S8.57 14 10.5 14s3.5-1.57 3.5-3.5S12.43 7 10.5 7z" fill="#389908"/><path fill-rule="evenodd" clip-rule="evenodd" d="M21.5 7.5v11h-17v2h18a1 1 0 0 0 1-1v-12h-2z" fill="#389908"/></svg>