<svg width="80" height="80" fill="none" xmlns="http://www.w3.org/2000/svg"><g opacity=".8" fill-rule="evenodd" clip-rule="evenodd" fill="#fff"><path d="M40 66.667c-14.703 0-26.667-11.964-26.667-26.667 0-14.703 11.964-26.667 26.667-26.667 14.703 0 26.667 11.964 26.667 26.667 0 14.703-11.964 26.667-26.667 26.667zm0-60C21.62 6.667 6.667 21.62 6.667 40S21.62 73.333 40 73.333 73.333 58.38 73.333 40 58.38 6.667 40 6.667z"/><path d="M43.333 23.333h-6.666v13.334H23.333v6.666h13.334v13.334h6.666V43.333h13.334v-6.666H43.333V23.333z"/></g></svg>