<svg width="216" height="8" fill="none" xmlns="http://www.w3.org/2000/svg"><g opacity=".5" clip-path="url(#clip0)"><path d="M0 4s2.897-2 5-2 5 2 5 2 2.897 2 5 2 5-2 5-2 2.897-2 5-2 5 2 5 2 2.897 2 5 2 5-2 5-2 2.897-2 5-2 5 2 5 2 2.897 2 5 2 5-2 5-2 2.897-2 5-2 5 2 5 2 2.897 2 5 2 5-2 5-2 2.897-2 5-2 5 2 5 2 2.897 2 5 2 5-2 5-2 2.897-2 5-2 5 2 5 2 2.897 2 5 2 5-2 5-2 2.897-2 5-2 5 2 5 2 2.897 2 5 2 5-2 5-2 2.897-2 5-2 5 2 5 2 2.897 2 5 2 5-2 5-2 2.897-2 5-2 5 2 5 2 2.897 2 5 2 5-2 5-2 2.897-2 5-2 5 2 5 2 2.897 2 5 2 5-2 5-2 2.897-2 5-2 5 2 5 2 2.897 2 5 2 5-2 5-2 2.897-2 5-2 5 2 5 2 2.897 2 5 2 5-2 5-2 2.897-2 5-2 5 2 5 2 2.897 2 5 2 5-2 5-2 2.897-2 5-2 5 2 5 2 2.897 2 5 2 5-2 5-2 2.897-2 5-2 5 2 5 2 2.897 2 5 2 5-2 5-2 2.897-2 5-2 5 2 5 2 2.897 2 5 2 5-2 5-2 2.897-2 5-2 5 2 5 2 2.897 2 5 2 5-2 5-2 2.897-2 5-2 5 2 5 2 2.897 2 5 2 5-2 5-2 2.897-2 5-2 5 2 5 2 2.897 2 5 2 5-2 5-2 2.897-2 5-2 5 2 5 2 2.897 2 5 2 5-2 5-2 2.897-2 5-2 5 2 5 2 2.897 2 5 2 5-2 5-2 2.897-2 5-2 5 2 5 2 2.897 2 5 2 5-2 5-2 2.897-2 5-2 5 2 5 2 2.897 2 5 2 5-2 5-2 2.897-2 5-2 5 2 5 2 2.897 2 5 2 5-2 5-2 2.897-2 5-2 5 2 5 2 2.897 2 5 2 5-2 5-2 2.897-2 5-2 5 2 5 2 2.897 2 5 2 5-2 5-2 2.897-2 5-2 5 2 5 2 2.897 2 5 2 5-2 5-2 2.897-2 5-2 5 2 5 2 2.897 2 5 2 5-2 5-2 2.897-2 5-2 5 2 5 2 2.897 2 5 2 5-2 5-2 2.897-2 5-2 5 2 5 2 2.897 2 5 2 5-2 5-2 2.897-2 5-2 5 2 5 2 2.897 2 5 2 5-2 5-2 2.897-2 5-2 5 2 5 2 2.897 2 5 2 5-2 5-2 2.897-2 5-2 5 2 5 2 2.897 2 5 2 5-2 5-2 2.897-2 5-2 5 2 5 2 2.897 2 5 2 5-2 5-2 2.897-2 5-2 5 2 5 2 2.897 2 5 2 5-2 5-2" stroke="#2C2C2C" stroke-width="2"/></g><defs><clipPath id="clip0"><path fill="#fff" d="M0 0h216v8H0z"/></clipPath></defs></svg>