<svg width="272" height="6" fill="none" xmlns="http://www.w3.org/2000/svg"><path d="M0 3s2.897-2 5-2 5 2 5 2 2.897 2 5 2 5-2 5-2 2.897-2 5-2 5 2 5 2 2.897 2 5 2 5-2 5-2 2.897-2 5-2 5 2 5 2 2.897 2 5 2 5-2 5-2 2.897-2 5-2 5 2 5 2 2.897 2 5 2 5-2 5-2 2.897-2 5-2 5 2 5 2 2.897 2 5 2 5-2 5-2 2.897-2 5-2 5 2 5 2 2.897 2 5 2 5-2 5-2 2.897-2 5-2 5 2 5 2 2.897 2 5 2 5-2 5-2 2.897-2 5-2 5 2 5 2 2.897 2 5 2 5-2 5-2 2.897-2 5-2 5 2 5 2 2.897 2 5 2 5-2 5-2 2.897-2 5-2 5 2 5 2 2.897 2 5 2 5-2 5-2 2.897-2 5-2 5 2 5 2 2.897 2 5 2 5-2 5-2 2.897-2 5-2 5 2 5 2 2.897 2 5 2 5-2 5-2 2.897-2 5-2 5 2 5 2 2.897 2 5 2 5-2 5-2 2.897-2 5-2 5 2 5 2 2.897 2 5 2 5-2 5-2 2.897-2 5-2 5 2 5 2 2.897 2 5 2 5-2 5-2 2.897-2 5-2 5 2 5 2 2.897 2 5 2 5-2 5-2 2.897-2 5-2 5 2 5 2 2.897 2 5 2 5-2 5-2 2.897-2 5-2 5 2 5 2 2.897 2 5 2 5-2 5-2 2.897-2 5-2 5 2 5 2 2.897 2 5 2 5-2 5-2 2.897-2 5-2 5 2 5 2 2.897 2 5 2 5-2 5-2 2.897-2 5-2 5 2 5 2 2.897 2 5 2 5-2 5-2 2.897-2 5-2 5 2 5 2 2.897 2 5 2 5-2 5-2 2.897-2 5-2 5 2 5 2 2.897 2 5 2 5-2 5-2 2.897-2 5-2 5 2 5 2 2.897 2 5 2 5-2 5-2 2.897-2 5-2 5 2 5 2 2.897 2 5 2 5-2 5-2 2.897-2 5-2 5 2 5 2 2.897 2 5 2 5-2 5-2 2.897-2 5-2 5 2 5 2 2.897 2 5 2 5-2 5-2 2.897-2 5-2 5 2 5 2 2.897 2 5 2 5-2 5-2 2.897-2 5-2 5 2 5 2 2.897 2 5 2 5-2 5-2 2.897-2 5-2 5 2 5 2 2.897 2 5 2 5-2 5-2 2.897-2 5-2 5 2 5 2 2.897 2 5 2 5-2 5-2 2.897-2 5-2 5 2 5 2 2.897 2 5 2 5-2 5-2 2.897-2 5-2 5 2 5 2 2.897 2 5 2 5-2 5-2 2.897-2 5-2 5 2 5 2 2.897 2 5 2 5-2 5-2 2.897-2 5-2 5 2 5 2 2.897 2 5 2 5-2 5-2" stroke="#fff" stroke-width="2"/></svg>