<svg xmlns="http://www.w3.org/2000/svg" width="20" height="20.003" viewBox="0 0 20 20.003">
  <path id="search-solid" d="M19.728,17.294,15.833,13.4a.937.937,0,0,0-.664-.273h-.637A8.127,8.127,0,0,0,8.126,0C6.191,0,4.81-.025,2.778,2.006S0,5.572,0,8.126c0,1.836,1.829,5.137,1.829,5.137s3.644,2.988,6.3,2.988a8.086,8.086,0,0,0,5-1.719v.637a.937.937,0,0,0,.273.664l3.895,3.895a.934.934,0,0,0,1.324,0l1.106-1.106A.942.942,0,0,0,19.728,17.294Zm-11.6-4.168a5,5,0,1,1,5-5A5,5,0,0,1,8.126,13.126Z" fill="#757575"/>
</svg>
