<svg width="1920" height="1594" viewBox="0 0 1920 1594" fill="none" xmlns="http://www.w3.org/2000/svg">
<path d="M1116.51 1594H4761L1124.87 116.74C1093.02 103.799 1058.37 99.2877 1024.26 103.642L-1661 446.5L1039.19 1578.45C1063.68 1588.71 1089.96 1594 1116.51 1594Z" fill="#44B3CB"/>
<path opacity="0.15" d="M1006.55 547C1006.55 572.711 985.711 593.554 960 593.554C934.289 593.554 913.446 572.711 913.446 547C913.446 521.289 934.289 500.446 960 500.446C985.711 500.446 1006.55 521.289 1006.55 547ZM960 594.554C986.263 594.554 1007.55 573.263 1007.55 547C1007.55 520.737 986.263 499.446 960 499.446C933.737 499.446 912.446 520.737 912.446 547C912.446 573.263 933.737 594.554 960 594.554ZM1030.08 547C1030.08 585.705 998.705 617.081 960 617.081C921.296 617.081 889.919 585.705 889.919 547C889.919 508.296 921.296 476.919 960 476.919C998.705 476.919 1030.08 508.296 1030.08 547ZM960 618.081C999.257 618.081 1031.08 586.257 1031.08 547C1031.08 507.743 999.257 475.919 960 475.919C920.743 475.919 888.919 507.743 888.919 547C888.919 586.257 920.743 618.081 960 618.081ZM1053.61 547C1053.61 598.698 1011.7 640.608 960 640.608C908.302 640.608 866.392 598.698 866.392 547C866.392 495.302 908.302 453.392 960 453.392C1011.7 453.392 1053.61 495.302 1053.61 547ZM960 641.608C1012.25 641.608 1054.61 599.25 1054.61 547C1054.61 494.75 1012.25 452.392 960 452.392C907.75 452.392 865.392 494.75 865.392 547C865.392 599.25 907.75 641.608 960 641.608ZM1077.13 547C1077.13 611.692 1024.69 664.134 960 664.134C895.308 664.134 842.866 611.692 842.866 547C842.866 482.308 895.308 429.866 960 429.866C1024.69 429.866 1077.13 482.308 1077.13 547ZM960 665.134C1025.24 665.134 1078.13 612.244 1078.13 547C1078.13 481.756 1025.24 428.866 960 428.866C894.756 428.866 841.866 481.756 841.866 547C841.866 612.244 894.756 665.134 960 665.134ZM1100.66 547C1100.66 624.685 1037.69 687.661 960 687.661C882.315 687.661 819.339 624.685 819.339 547C819.339 469.315 882.315 406.339 960 406.339C1037.69 406.339 1100.66 469.315 1100.66 547ZM960 688.661C1038.24 688.661 1101.66 625.237 1101.66 547C1101.66 468.763 1038.24 405.339 960 405.339C881.763 405.339 818.339 468.763 818.339 547C818.339 625.237 881.763 688.661 960 688.661ZM1124.19 547C1124.19 637.679 1050.68 711.188 960 711.188C869.321 711.188 795.812 637.679 795.812 547C795.812 456.321 869.321 382.812 960 382.812C1050.68 382.812 1124.19 456.321 1124.19 547ZM960 712.188C1051.23 712.188 1125.19 638.231 1125.19 547C1125.19 455.769 1051.23 381.812 960 381.812C868.769 381.812 794.812 455.769 794.812 547C794.812 638.231 868.769 712.188 960 712.188ZM1147.72 547C1147.72 650.672 1063.67 734.715 960 734.715C856.328 734.715 772.285 650.672 772.285 547C772.285 443.328 856.328 359.285 960 359.285C1063.67 359.285 1147.72 443.328 1147.72 547ZM960 735.715C1064.22 735.715 1148.72 651.224 1148.72 547C1148.72 442.776 1064.22 358.285 960 358.285C855.776 358.285 771.285 442.776 771.285 547C771.285 651.224 855.776 735.715 960 735.715ZM1171.24 547C1171.24 663.666 1076.67 758.242 960 758.242C843.334 758.242 748.758 663.666 748.758 547C748.758 430.334 843.334 335.758 960 335.758C1076.67 335.758 1171.24 430.334 1171.24 547ZM960 759.242C1077.22 759.242 1172.24 664.218 1172.24 547C1172.24 429.782 1077.22 334.758 960 334.758C842.782 334.758 747.758 429.782 747.758 547C747.758 664.218 842.782 759.242 960 759.242ZM1194.77 547C1194.77 676.659 1089.66 781.769 960 781.769C830.341 781.769 725.231 676.659 725.231 547C725.231 417.341 830.341 312.231 960 312.231C1089.66 312.231 1194.77 417.341 1194.77 547ZM960 782.769C1090.21 782.769 1195.77 677.212 1195.77 547C1195.77 416.788 1090.21 311.231 960 311.231C829.788 311.231 724.231 416.788 724.231 547C724.231 677.212 829.788 782.769 960 782.769ZM1241.82 547C1241.82 702.646 1115.65 828.823 960 828.823C804.354 828.823 678.177 702.646 678.177 547C678.177 391.354 804.354 265.177 960 265.177C1115.65 265.177 1241.82 391.354 1241.82 547ZM960 829.823C1116.2 829.823 1242.82 703.199 1242.82 547C1242.82 390.801 1116.2 264.177 960 264.177C803.801 264.177 677.177 390.801 677.177 547C677.177 703.199 803.801 829.823 960 829.823ZM1265.35 547C1265.35 715.64 1128.64 852.35 960 852.35C791.36 852.35 654.651 715.64 654.651 547C654.651 378.36 791.36 241.651 960 241.651C1128.64 241.651 1265.35 378.36 1265.35 547ZM960 853.35C1129.19 853.35 1266.35 716.192 1266.35 547C1266.35 377.808 1129.19 240.651 960 240.651C790.808 240.651 653.651 377.808 653.651 547C653.651 716.192 790.808 853.35 960 853.35ZM1288.88 547C1288.88 728.633 1141.63 875.876 960 875.876C778.367 875.876 631.124 728.633 631.124 547C631.124 365.367 778.367 218.124 960 218.124C1141.63 218.124 1288.88 365.367 1288.88 547ZM960 876.876C1142.19 876.876 1289.88 729.186 1289.88 547C1289.88 364.814 1142.19 217.124 960 217.124C777.814 217.124 630.124 364.814 630.124 547C630.124 729.186 777.814 876.876 960 876.876ZM1312.4 547C1312.4 741.627 1154.63 899.403 960 899.403C765.373 899.403 607.597 741.627 607.597 547C607.597 352.373 765.373 194.597 960 194.597C1154.63 194.597 1312.4 352.373 1312.4 547ZM960 900.403C1155.18 900.403 1313.4 742.179 1313.4 547C1313.4 351.821 1155.18 193.597 960 193.597C764.821 193.597 606.597 351.821 606.597 547C606.597 742.179 764.821 900.403 960 900.403ZM1335.93 547C1335.93 754.621 1167.62 922.93 960 922.93C752.38 922.93 584.07 754.621 584.07 547C584.07 339.38 752.38 171.07 960 171.07C1167.62 171.07 1335.93 339.38 1335.93 547ZM960 923.93C1168.17 923.93 1336.93 755.173 1336.93 547C1336.93 338.827 1168.17 170.07 960 170.07C751.827 170.07 583.07 338.827 583.07 547C583.07 755.173 751.827 923.93 960 923.93ZM1359.46 547C1359.46 767.614 1180.61 946.457 960 946.457C739.386 946.457 560.543 767.614 560.543 547C560.543 326.386 739.386 147.543 960 147.543C1180.61 147.543 1359.46 326.386 1359.46 547ZM960 947.457C1181.17 947.457 1360.46 768.166 1360.46 547C1360.46 325.834 1181.17 146.543 960 146.543C738.834 146.543 559.543 325.834 559.543 547C559.543 768.166 738.834 947.457 960 947.457ZM1382.98 547C1382.98 780.608 1193.61 969.984 960 969.984C726.392 969.984 537.016 780.608 537.016 547C537.016 313.392 726.392 124.016 960 124.016C1193.61 124.016 1382.98 313.392 1382.98 547ZM960 970.984C1194.16 970.984 1383.98 781.16 1383.98 547C1383.98 312.84 1194.16 123.016 960 123.016C725.84 123.016 536.016 312.84 536.016 547C536.016 781.16 725.84 970.984 960 970.984ZM1430.04 547C1430.04 806.595 1219.59 1017.04 960 1017.04C700.405 1017.04 489.962 806.595 489.962 547C489.962 287.405 700.405 76.9624 960 76.9624C1219.59 76.9624 1430.04 287.405 1430.04 547ZM960 1018.04C1220.15 1018.04 1431.04 807.147 1431.04 547C1431.04 286.853 1220.15 75.9624 960 75.9624C699.853 75.9624 488.962 286.853 488.962 547C488.962 807.147 699.853 1018.04 960 1018.04ZM1453.56 547C1453.56 819.588 1232.59 1040.56 960 1040.56C687.412 1040.56 466.435 819.588 466.435 547C466.435 274.412 687.412 53.4355 960 53.4355C1232.59 53.4355 1453.56 274.412 1453.56 547ZM960 1041.56C1233.14 1041.56 1454.56 820.14 1454.56 547C1454.56 273.86 1233.14 52.4355 960 52.4355C686.86 52.4355 465.435 273.86 465.435 547C465.435 820.14 686.86 1041.56 960 1041.56ZM1477.09 547C1477.09 832.582 1245.58 1064.09 960 1064.09C674.418 1064.09 442.909 832.582 442.909 547C442.909 261.418 674.418 29.9086 960 29.9086C1245.58 29.9086 1477.09 261.418 1477.09 547ZM960 1065.09C1246.13 1065.09 1478.09 833.134 1478.09 547C1478.09 260.866 1246.13 28.9086 960 28.9086C673.866 28.9086 441.909 260.866 441.909 547C441.909 833.134 673.866 1065.09 960 1065.09ZM1506.5 547C1506.5 848.824 1261.82 1093.5 960 1093.5C658.176 1093.5 413.5 848.824 413.5 547C413.5 245.176 658.176 0.5 960 0.5C1261.82 0.5 1506.5 245.176 1506.5 547Z" stroke="#E6EAF7"/>
</svg>
