<svg width="120" height="40" viewBox="0 0 120 40" fill="none" xmlns="http://www.w3.org/2000/svg">
<path d="M48.3645 30.2992C47.8805 30.2992 47.4933 30.1625 47.2029 29.889C46.9286 29.5995 46.7914 29.2214 46.7914 28.7549V15.725H42.3868C41.4188 15.725 40.9348 15.2987 40.9348 14.4462C40.9348 13.5936 41.4188 13.1673 42.3868 13.1673H54.318C55.2861 13.1673 55.7701 13.5936 55.7701 14.4462C55.7701 15.2987 55.2861 15.725 54.318 15.725H49.9134V28.7549C49.9134 29.2214 49.7682 29.5995 49.4778 29.889C49.2035 30.1625 48.8324 30.2992 48.3645 30.2992Z" fill="#5C59EB"/>
<path d="M58.8504 30.3234C58.4148 30.3234 58.0518 30.2027 57.7614 29.9614C57.4871 29.704 57.35 29.3421 57.35 28.8756V19.5616C57.35 19.0951 57.4871 18.7412 57.7614 18.4999C58.0518 18.2586 58.4148 18.138 58.8504 18.138C59.2861 18.138 59.6491 18.2586 59.9395 18.4999C60.2299 18.7412 60.3751 19.0951 60.3751 19.5616V28.8756C60.3751 29.3421 60.2299 29.704 59.9395 29.9614C59.6491 30.2027 59.2861 30.3234 58.8504 30.3234ZM58.8504 15.9904C58.3019 15.9904 57.8663 15.8457 57.5436 15.5561C57.2209 15.2505 57.0595 14.8564 57.0595 14.3738C57.0595 13.8912 57.2209 13.5051 57.5436 13.2156C57.8663 12.926 58.3019 12.7812 58.8504 12.7812C59.3829 12.7812 59.8104 12.926 60.1331 13.2156C60.4719 13.5051 60.6413 13.8912 60.6413 14.3738C60.6413 14.8564 60.48 15.2505 60.1573 15.5561C59.8346 15.8457 59.399 15.9904 58.8504 15.9904Z" fill="#5C59EB"/>
<path d="M77.5557 18.0897C78.8464 18.0897 79.8306 18.4758 80.5082 19.2479C81.202 20.004 81.5489 21.2346 81.5489 22.9397V28.8756C81.5489 29.3421 81.4037 29.704 81.1133 29.9614C80.839 30.2027 80.476 30.3234 80.0242 30.3234C79.5886 30.3234 79.2256 30.2027 78.9351 29.9614C78.6609 29.704 78.5237 29.3421 78.5237 28.8756V22.9397C78.5237 22.055 78.3624 21.4276 78.0397 21.0576C77.7331 20.6716 77.2572 20.4785 76.6118 20.4785C75.8213 20.4785 75.192 20.752 74.7241 21.2989C74.2563 21.8298 74.0223 22.5617 74.0223 23.4947V28.8756C74.0223 29.3421 73.8771 29.704 73.5867 29.9614C73.3124 30.2027 72.9575 30.3234 72.5218 30.3234C72.0862 30.3234 71.7232 30.2027 71.4328 29.9614C71.1424 29.704 70.9972 29.3421 70.9972 28.8756V22.9397C70.9972 22.055 70.8358 21.4276 70.5131 21.0576C70.2066 20.6716 69.7306 20.4785 69.0853 20.4785C68.2947 20.4785 67.6655 20.752 67.1976 21.2989C66.7458 21.8298 66.5199 22.5617 66.5199 23.4947V28.8756C66.5199 29.3421 66.3747 29.704 66.0843 29.9614C65.7939 30.2027 65.4309 30.3234 64.9953 30.3234C64.5596 30.3234 64.1966 30.2027 63.9062 29.9614C63.6319 29.704 63.4948 29.3421 63.4948 28.8756V19.5375C63.4948 19.0871 63.64 18.7412 63.9304 18.4999C64.2208 18.2586 64.5838 18.138 65.0195 18.138C65.439 18.138 65.7778 18.2586 66.0359 18.4999C66.3102 18.7251 66.4473 19.0549 66.4473 19.4892V20.0683C66.8184 19.4249 67.3105 18.9342 67.9236 18.5964C68.5528 18.2586 69.2708 18.0897 70.0775 18.0897C71.8523 18.0897 73.0381 18.8297 73.6351 20.3096C73.99 19.634 74.5144 19.0951 75.2082 18.6929C75.9019 18.2908 76.6844 18.0897 77.5557 18.0897Z" fill="#5C59EB"/>
<path d="M93.9894 26.9452C94.2637 26.9452 94.4815 27.0498 94.6428 27.2589C94.8203 27.468 94.909 27.7495 94.909 28.1034C94.909 28.6021 94.6106 29.0204 94.0136 29.3582C93.465 29.6638 92.8439 29.9132 92.1501 30.1062C91.4564 30.2831 90.7949 30.3716 90.1656 30.3716C88.2618 30.3716 86.7533 29.8247 85.64 28.7308C84.5267 27.6369 83.9701 26.1409 83.9701 24.2427C83.9701 23.0363 84.2121 21.9665 84.6962 21.0335C85.1802 20.1005 85.8578 19.3766 86.7291 18.8619C87.6164 18.3471 88.6168 18.0897 89.73 18.0897C90.7949 18.0897 91.7226 18.323 92.5131 18.7895C93.3037 19.256 93.9168 19.9155 94.3524 20.7681C94.788 21.6207 95.0059 22.6261 95.0059 23.7843C95.0059 24.476 94.6993 24.8218 94.0862 24.8218H86.9469C87.0437 25.9318 87.3583 26.7522 87.8907 27.283C88.4231 27.7978 89.1976 28.0552 90.214 28.0552C90.7303 28.0552 91.1821 27.9908 91.5693 27.8621C91.9726 27.7335 92.4244 27.5565 92.9246 27.3313C93.4086 27.0739 93.7635 26.9452 93.9894 26.9452ZM89.8026 20.2131C88.9798 20.2131 88.3183 20.4705 87.8181 20.9852C87.3341 21.5 87.0437 22.24 86.9469 23.2052H92.4163C92.3841 22.2239 92.1421 21.4839 91.6903 20.9852C91.2385 20.4705 90.6093 20.2131 89.8026 20.2131Z" fill="#5C59EB"/>
<path d="M101.764 30.3716C100.005 30.3716 98.5856 30.0258 97.5046 29.334C96.9883 29.0284 96.7302 28.5941 96.7302 28.0311C96.7302 27.7093 96.8189 27.4519 96.9964 27.2589C97.1739 27.0498 97.3917 26.9452 97.6498 26.9452C97.9241 26.9452 98.3033 27.0739 98.7873 27.3313C99.3036 27.5726 99.7715 27.7576 100.191 27.8863C100.627 28.015 101.175 28.0793 101.837 28.0793C102.514 28.0793 103.039 27.9667 103.41 27.7415C103.797 27.5163 103.991 27.2026 103.991 26.8005C103.991 26.527 103.91 26.3098 103.749 26.149C103.603 25.9881 103.329 25.8433 102.926 25.7146C102.538 25.5698 101.942 25.409 101.135 25.232C99.6989 24.9425 98.6663 24.5323 98.0371 24.0014C97.424 23.4706 97.1174 22.7387 97.1174 21.8056C97.1174 21.0979 97.3271 20.4624 97.7466 19.8994C98.1661 19.3203 98.7389 18.8779 99.4649 18.5723C100.207 18.2506 101.046 18.0897 101.982 18.0897C102.659 18.0897 103.313 18.1782 103.942 18.3551C104.571 18.516 105.136 18.7573 105.636 19.079C106.153 19.4007 106.411 19.827 106.411 20.3579C106.411 20.6796 106.322 20.9531 106.144 21.1783C105.967 21.3874 105.749 21.492 105.491 21.492C105.314 21.492 105.136 21.4598 104.959 21.3954C104.797 21.315 104.588 21.2024 104.329 21.0576C103.861 20.8163 103.458 20.6394 103.119 20.5268C102.78 20.3981 102.361 20.3338 101.861 20.3338C101.264 20.3338 100.788 20.4544 100.433 20.6957C100.094 20.937 99.9247 21.2668 99.9247 21.685C99.9247 22.0872 100.102 22.3928 100.457 22.6019C100.812 22.811 101.498 23.0202 102.514 23.2293C103.595 23.4545 104.442 23.7119 105.055 24.0014C105.668 24.291 106.104 24.6529 106.362 25.0873C106.637 25.5216 106.774 26.0766 106.774 26.7522C106.774 27.8461 106.314 28.7228 105.394 29.3823C104.491 30.0418 103.281 30.3716 101.764 30.3716Z" fill="#5C59EB"/>
<path d="M117.314 19.0066C117.443 18.7171 117.612 18.508 117.822 18.3793C118.048 18.2345 118.29 18.1621 118.548 18.1621C118.919 18.1621 119.25 18.2908 119.54 18.5482C119.847 18.7895 120 19.0951 120 19.4651C120 19.642 119.952 19.827 119.855 20.0201L113.248 33.8221C112.974 34.3691 112.546 34.6425 111.965 34.6425C111.594 34.6425 111.263 34.5219 110.973 34.2806C110.699 34.0554 110.562 33.7658 110.562 33.4119C110.562 33.235 110.61 33.0339 110.707 32.8087L112.352 29.3582L107.851 20.0201C107.77 19.8592 107.73 19.6742 107.73 19.4651C107.73 19.0951 107.883 18.7814 108.19 18.524C108.513 18.2667 108.876 18.138 109.279 18.138C109.553 18.138 109.803 18.2104 110.029 18.3551C110.255 18.4838 110.432 18.6929 110.562 18.9825L113.95 26.4385L117.314 19.0066Z" fill="#5C59EB"/>
<path d="M11.6956 0H23.3913V3.80952H11.6956V0Z" fill="#5C59EB"/>
<path d="M14.3854 18.4377C14.3854 19.6252 15.3002 20.3877 18.1447 21.1252C20.9893 21.8627 24.0343 23.0752 24.0343 26.6252C24.0343 29.1877 22.092 30.6002 19.6485 31.0627V33.7502H15.8891V31.0377C13.4832 30.5252 11.4281 28.9877 11.2777 26.2502H14.0345C14.1724 27.7252 15.1874 28.8752 17.7688 28.8752C20.5382 28.8752 21.1522 27.5002 21.1522 26.6377C21.1522 25.4752 20.5256 24.3752 17.3929 23.6252C13.8967 22.7877 11.5033 21.3502 11.5033 18.4627C11.5033 16.0502 13.4581 14.4752 15.8891 13.9502V11.2502H19.6485V13.9877C22.2674 14.6252 23.5832 16.6002 23.6709 18.7502H20.9016C20.8264 17.1877 19.9993 16.1252 17.7688 16.1252C15.651 16.1252 14.3854 17.0752 14.3854 18.4377Z" fill="#5C59EB"/>
<path fill-rule="evenodd" clip-rule="evenodd" d="M34.0148 9.46667L31.2469 12.1714C33.6445 15.1048 35.0869 18.819 35.0869 22.8571C35.0869 32.3238 27.2508 40 17.5435 40C7.83608 40 0 32.3238 0 22.8571C0 13.3905 7.85557 5.71429 17.5435 5.71429C21.6759 5.71429 25.477 7.12381 28.4984 9.48571L31.2663 6.78095C32.2605 7.58095 33.1766 8.49524 34.0148 9.46667ZM3.89855 22.8571C3.89855 30.2286 9.99977 36.1905 17.5435 36.1905C25.0871 36.1905 31.1884 30.2286 31.1884 22.8571C31.1884 15.4857 25.0871 9.52381 17.5435 9.52381C9.99977 9.52381 3.89855 15.4857 3.89855 22.8571Z" fill="#5C59EB"/>
</svg>
