<svg width="114" height="38" viewBox="0 0 114 38" fill="none" xmlns="http://www.w3.org/2000/svg">
<path d="M45.9463 28.7843C45.4865 28.7843 45.1186 28.6544 44.8427 28.3946C44.5822 28.1195 44.4519 27.7604 44.4519 27.3172V14.9388H40.2675C39.3478 14.9388 38.888 14.5338 38.888 13.7239C38.888 12.9139 39.3478 12.5089 40.2675 12.5089H51.6021C52.5218 12.5089 52.9816 12.9139 52.9816 13.7239C52.9816 14.5338 52.5218 14.9388 51.6021 14.9388H47.4177V27.3172C47.4177 27.7604 47.2798 28.1195 47.0039 28.3946C46.7433 28.6544 46.3908 28.7843 45.9463 28.7843Z" fill="white"/>
<path d="M55.9079 28.8072C55.4941 28.8072 55.1492 28.6926 54.8733 28.4633C54.6127 28.2188 54.4825 27.875 54.4825 27.4318V18.5835C54.4825 18.1403 54.6127 17.8041 54.8733 17.5749C55.1492 17.3457 55.4941 17.2311 55.9079 17.2311C56.3218 17.2311 56.6666 17.3457 56.9425 17.5749C57.2184 17.8041 57.3564 18.1403 57.3564 18.5835V27.4318C57.3564 27.875 57.2184 28.2188 56.9425 28.4633C56.6666 28.6926 56.3218 28.8072 55.9079 28.8072ZM55.9079 15.1909C55.3868 15.1909 54.9729 15.0534 54.6664 14.7783C54.3598 14.488 54.2066 14.1135 54.2066 13.6551C54.2066 13.1966 54.3598 12.8299 54.6664 12.5548C54.9729 12.2797 55.3868 12.1422 55.9079 12.1422C56.4137 12.1422 56.8199 12.2797 57.1264 12.5548C57.4483 12.8299 57.6093 13.1966 57.6093 13.6551C57.6093 14.1135 57.456 14.488 57.1494 14.7783C56.8429 15.0534 56.429 15.1909 55.9079 15.1909Z" fill="white"/>
<path d="M73.6779 17.1852C74.9041 17.1852 75.8391 17.552 76.4828 18.2855C77.1419 19.0038 77.4714 20.1729 77.4714 21.7927V27.4318C77.4714 27.875 77.3335 28.2188 77.0576 28.4633C76.797 28.6926 76.4521 28.8072 76.023 28.8072C75.6091 28.8072 75.2643 28.6926 74.9884 28.4633C74.7278 28.2188 74.5975 27.875 74.5975 27.4318V21.7927C74.5975 20.9522 74.4443 20.3562 74.1377 20.0048C73.8465 19.638 73.3943 19.4546 72.7812 19.4546C72.0302 19.4546 71.4324 19.7144 70.9879 20.234C70.5434 20.7383 70.3212 21.4336 70.3212 22.32V27.4318C70.3212 27.875 70.1832 28.2188 69.9073 28.4633C69.6468 28.6926 69.3096 28.8072 68.8957 28.8072C68.4819 28.8072 68.137 28.6926 67.8611 28.4633C67.5852 28.2188 67.4473 27.875 67.4473 27.4318V21.7927C67.4473 20.9522 67.294 20.3562 66.9875 20.0048C66.6963 19.638 66.2441 19.4546 65.631 19.4546C64.88 19.4546 64.2822 19.7144 63.8377 20.234C63.4085 20.7383 63.1939 21.4336 63.1939 22.32V27.4318C63.1939 27.875 63.056 28.2188 62.7801 28.4633C62.5042 28.6926 62.1593 28.8072 61.7455 28.8072C61.3317 28.8072 60.9868 28.6926 60.7109 28.4633C60.4503 28.2188 60.3201 27.875 60.3201 27.4318V18.5606C60.3201 18.1327 60.458 17.8041 60.7339 17.5749C61.0098 17.3457 61.3547 17.2311 61.7685 17.2311C62.167 17.2311 62.4889 17.3457 62.7341 17.5749C62.9947 17.7889 63.125 18.1021 63.125 18.5148V19.0649C63.4775 18.4536 63.945 17.9875 64.5274 17.6666C65.1252 17.3457 65.8073 17.1852 66.5736 17.1852C68.2597 17.1852 69.3862 17.8882 69.9533 19.2941C70.2905 18.6523 70.7887 18.1403 71.4478 17.7583C72.1068 17.3762 72.8502 17.1852 73.6779 17.1852Z" fill="white"/>
<path d="M89.2899 25.598C89.5505 25.598 89.7574 25.6973 89.9107 25.896C90.0793 26.0946 90.1636 26.3621 90.1636 26.6983C90.1636 27.172 89.88 27.5693 89.3129 27.8903C88.7918 28.1806 88.2017 28.4175 87.5426 28.6009C86.8835 28.769 86.2551 28.853 85.6573 28.853C83.8487 28.853 82.4156 28.3334 81.358 27.2943C80.3004 26.2551 79.7716 24.8339 79.7716 23.0306C79.7716 21.8844 80.0015 20.8682 80.4613 19.9818C80.9212 19.0955 81.5649 18.4078 82.3926 17.9188C83.2356 17.4297 84.1859 17.1852 85.2435 17.1852C86.2551 17.1852 87.1364 17.4068 87.8875 17.85C88.6385 18.2932 89.221 18.9197 89.6348 19.7297C90.0486 20.5396 90.2556 21.4947 90.2556 22.5951C90.2556 23.2522 89.9643 23.5807 89.3819 23.5807H82.5995C82.6915 24.6352 82.9904 25.4146 83.4962 25.9189C84.002 26.4079 84.7377 26.6524 85.7033 26.6524C86.1938 26.6524 86.623 26.5913 86.9908 26.469C87.374 26.3468 87.8032 26.1787 88.2783 25.9647C88.7381 25.7202 89.0754 25.598 89.2899 25.598ZM85.3125 19.2024C84.5308 19.2024 83.9024 19.447 83.4272 19.936C82.9674 20.425 82.6915 21.128 82.5995 22.0449H87.7955C87.7649 21.1127 87.5349 20.4097 87.1058 19.936C86.6766 19.447 86.0788 19.2024 85.3125 19.2024Z" fill="white"/>
<path d="M96.6758 28.853C95.0051 28.853 93.6563 28.5245 92.6294 27.8673C92.1389 27.577 91.8937 27.1644 91.8937 26.6295C91.8937 26.3239 91.978 26.0793 92.1466 25.896C92.3152 25.6973 92.5221 25.598 92.7673 25.598C93.0279 25.598 93.3881 25.7202 93.8479 25.9647C94.3384 26.194 94.7829 26.3697 95.1814 26.492C95.5953 26.6142 96.1164 26.6753 96.7448 26.6753C97.3886 26.6753 97.8867 26.5684 98.2392 26.3544C98.6071 26.1405 98.791 25.8425 98.791 25.4604C98.791 25.2006 98.7144 24.9943 98.5611 24.8415C98.4232 24.6887 98.1626 24.5511 97.7794 24.4289C97.4115 24.2914 96.8444 24.1385 96.0781 23.9704C94.7139 23.6954 93.733 23.3057 93.1352 22.8014C92.5528 22.2971 92.2615 21.6017 92.2615 20.7154C92.2615 20.043 92.4608 19.4393 92.8593 18.9044C93.2578 18.3543 93.8019 17.934 94.4917 17.6437C95.1967 17.338 95.9938 17.1852 96.8827 17.1852C97.5265 17.1852 98.1473 17.2693 98.745 17.4374C99.3428 17.5902 99.8793 17.8194 100.354 18.1251C100.845 18.4307 101.09 18.8357 101.09 19.34C101.09 19.6456 101.006 19.9054 100.837 20.1194C100.669 20.318 100.462 20.4174 100.216 20.4174C100.048 20.4174 99.8793 20.3868 99.7107 20.3257C99.5574 20.2493 99.3581 20.1423 99.1129 20.0048C98.6684 19.7755 98.2852 19.6074 97.9633 19.5004C97.6415 19.3782 97.2429 19.3171 96.7678 19.3171C96.2007 19.3171 95.7485 19.4317 95.4113 19.6609C95.0894 19.8901 94.9285 20.2034 94.9285 20.6008C94.9285 20.9828 95.0971 21.2732 95.4343 21.4718C95.7715 21.6705 96.4229 21.8692 97.3886 22.0678C98.4155 22.2818 99.2202 22.5263 99.8026 22.8014C100.385 23.0764 100.799 23.4203 101.044 23.8329C101.305 24.2455 101.435 24.7727 101.435 25.4146C101.435 26.4538 100.998 27.2866 100.124 27.9132C99.2662 28.5397 98.1166 28.853 96.6758 28.853Z" fill="white"/>
<path d="M111.448 18.0563C111.571 17.7812 111.732 17.5826 111.931 17.4603C112.145 17.3228 112.375 17.254 112.621 17.254C112.973 17.254 113.287 17.3762 113.563 17.6208C113.854 17.85 114 18.1404 114 18.4918C114 18.6599 113.954 18.8357 113.862 19.0191L107.585 32.131C107.325 32.6506 106.919 32.9104 106.367 32.9104C106.014 32.9104 105.7 32.7958 105.424 32.5666C105.164 32.3526 105.033 32.0775 105.033 31.7413C105.033 31.5732 105.079 31.3822 105.171 31.1683L106.735 27.8903L102.458 19.0191C102.382 18.8662 102.343 18.6905 102.343 18.4918C102.343 18.1404 102.489 17.8424 102.78 17.5978C103.087 17.3533 103.432 17.2311 103.815 17.2311C104.075 17.2311 104.313 17.2998 104.528 17.4374C104.742 17.5596 104.911 17.7583 105.033 18.0334L108.252 25.1166L111.448 18.0563Z" fill="white"/>
<path d="M11.1109 0H22.2217V3.61905H11.1109V0Z" fill="white"/>
<path d="M13.6661 17.5158C13.6661 18.6439 14.5352 19.3683 17.2375 20.0689C19.9398 20.7695 22.8326 21.9214 22.8326 25.2939C22.8326 27.7283 20.9874 29.0702 18.666 29.5095V32.0627H15.0947V29.4858C12.809 28.9989 10.8567 27.5383 10.7138 24.9377H13.3328C13.4638 26.3389 14.428 27.4314 16.8804 27.4314C19.5112 27.4314 20.0946 26.1252 20.0946 25.3058C20.0946 24.2014 19.4993 23.1564 16.5232 22.4439C13.2019 21.6483 10.9281 20.2827 10.9281 17.5395C10.9281 15.2477 12.7852 13.7514 15.0947 13.2527V10.6877H18.666V13.2883C21.1541 13.8939 22.404 15.7702 22.4874 17.8127H19.8565C19.7851 16.3283 18.9994 15.3189 16.8804 15.3189C14.8685 15.3189 13.6661 16.2214 13.6661 17.5158Z" fill="white"/>
<path fill-rule="evenodd" clip-rule="evenodd" d="M32.3141 8.99333L29.6845 11.5629C31.9622 14.3495 33.3326 17.8781 33.3326 21.7143C33.3326 30.7076 25.8883 38 16.6663 38C7.44427 38 0 30.7076 0 21.7143C0 12.721 7.46279 5.42857 16.6663 5.42857C20.5921 5.42857 24.2032 6.76762 27.0735 9.01143L29.703 6.4419C30.6475 7.2019 31.5178 8.07048 32.3141 8.99333ZM3.70362 21.7143C3.70362 28.7171 9.49978 34.381 16.6663 34.381C23.8328 34.381 29.629 28.7171 29.629 21.7143C29.629 14.7114 23.8328 9.04762 16.6663 9.04762C9.49978 9.04762 3.70362 14.7114 3.70362 21.7143Z" fill="white"/>
</svg>
