<svg xmlns="http://www.w3.org/2000/svg" width="60.031" height="53.35" viewBox="0 0 60.031 53.35">
  <defs>
    <style>
      .cls-1 {
        fill: #7fcdc7;
        fill-rule: evenodd;
      }
    </style>
  </defs>
  <path id="Forma_1" data-name="Forma 1" class="cls-1" d="M475.212,3900.48a2.393,2.393,0,0,0-1.752-.77h-0.2a10.285,10.285,0,0,0-4.715-14.53,10.128,10.128,0,0,0-20.256,0,2.711,2.711,0,0,0-.637-0.08,2.753,2.753,0,0,0-2.267,1.19l-0.253.36a0.732,0.732,0,0,1-.924.25l-0.4-.18a2.746,2.746,0,0,0-2.553.11,2.817,2.817,0,0,0-1.377,2.18l-0.039.44a2.608,2.608,0,0,1-.174.62,0.765,0.765,0,0,1-.422-0.62l-0.04-.44a2.767,2.767,0,0,0-1.184-2.03l3.19-4.58a4.151,4.151,0,0,0-.979-5.72,4.031,4.031,0,0,0-5.65.99l-5.839,8.39a3.93,3.93,0,0,0-.457.9,0.657,0.657,0,0,1-.3-0.06l-0.4-.18a2.746,2.746,0,0,0-2.553.11,2.818,2.818,0,0,0-1.376,2.18l-0.039.44a0.759,0.759,0,0,1-.677.69l-0.436.04a2.767,2.767,0,0,0-2.153,1.39,2.849,2.849,0,0,0-.115,2.59l0.183,0.4a0.752,0.752,0,0,1-.248.93l-0.358.26a2.811,2.811,0,0,0-1.177,2.3,2.841,2.841,0,0,0,.56,1.66h-0.953a2.4,2.4,0,0,0-1.753.77,2.46,2.46,0,0,0-.647,1.84c0.6,8.97,6.24,13.48,14.525,17.48a4.8,4.8,0,0,1,2.151,2.1,3.139,3.139,0,0,1-.2,3,2.325,2.325,0,0,0-.032,2.35,2.274,2.274,0,0,0,2.007,1.18h23.1a2.274,2.274,0,0,0,2.007-1.18,2.342,2.342,0,0,0-.042-2.37,3.126,3.126,0,0,1-.187-2.98,4.788,4.788,0,0,1,2.151-2.1c8.283-4,13.924-8.5,14.525-17.48A2.465,2.465,0,0,0,475.212,3900.48Zm-2.6-5.9a8.258,8.258,0,0,1-1.792,5.13h-5.3v-4.11a1.014,1.014,0,1,0-2.027,0v4.11H459.91a3.822,3.822,0,0,0,.217-0.36s0.007-.01.01-0.01a3.016,3.016,0,0,0,.2-0.55c0.013-.05.024-0.1,0.034-0.15a2.752,2.752,0,0,0,.071-0.59,2.813,2.813,0,0,0-1.176-2.3l-0.233-.17a1.91,1.91,0,0,0,.239-0.02c0.122-.01.244-0.02,0.364-0.04a5.89,5.89,0,0,0,.593-0.09c0.116-.02.232-0.04,0.347-0.07,0.211-.04.418-0.1,0.624-0.16,0.093-.03.186-0.05,0.277-0.08a8.331,8.331,0,0,0,.848-0.31c0.078-.04.15-0.07,0.226-0.11,0.2-.09.4-0.18,0.594-0.29l0.319-.18c0.155-.1.309-0.19,0.459-0.29,0.111-.07.221-0.15,0.329-0.22,0.137-.1.272-0.21,0.4-0.31,0.108-.09.216-0.17,0.32-0.26,0.125-.11.244-0.22,0.363-0.34,0.1-.09.206-0.19,0.3-0.29s0.217-.24.324-0.36c0.2-.23.392-0.46,0.573-0.71,0.064-.09.132-0.17,0.194-0.26,0.111-.16.212-0.33,0.313-0.5,0.051-.08.1-0.16,0.152-0.25,0.1-.18.2-0.36,0.288-0.55,0.036-.07.071-0.15,0.106-0.22,0.094-.21.182-0.41,0.263-0.62,0.017-.05.034-0.09,0.05-0.14a10.423,10.423,0,0,0,.445-1.54A8.214,8.214,0,0,1,472.612,3894.58Zm-14.191-17.44a8.165,8.165,0,0,1,8.109,8.2c0,0.16-.013.31-0.022,0.46l0,0.01a8.315,8.315,0,0,1-.755,3.03,0.039,0.039,0,0,0-.013.02,6.479,6.479,0,0,1-.325.62c-0.014.03-.027,0.05-0.041,0.08-0.109.18-.227,0.36-0.349,0.53-0.027.04-.052,0.08-0.078,0.12-0.115.15-.237,0.3-0.363,0.45a1.555,1.555,0,0,1-.119.14c-0.118.14-.244,0.27-0.372,0.4-0.052.05-.1,0.1-0.159,0.15a4.27,4.27,0,0,1-.378.33,2.566,2.566,0,0,1-.2.17c-0.124.1-.253,0.19-0.383,0.28-0.078.05-.155,0.11-0.236,0.16-0.127.08-.258,0.15-0.388,0.23l-0.27.15-0.39.18c-0.1.04-.2,0.09-0.3,0.13-0.129.05-.261,0.09-0.393,0.14-0.11.04-.219,0.08-0.331,0.11-0.128.04-.26,0.07-0.39,0.1s-0.241.06-.363,0.08l-0.383.06c-0.131.02-.261,0.04-0.393,0.05h-0.078c0-.01,0-0.03,0-0.04a2.728,2.728,0,0,0,.041-0.56c0-.06-0.008-0.12-0.013-0.18a3.2,3.2,0,0,0-.071-0.44c-0.015-.05-0.026-0.11-0.044-0.17a2.9,2.9,0,0,0-.236-0.56,2.768,2.768,0,0,0-2.153-1.39l-0.437-.04a0.732,0.732,0,0,1-.607-0.43l2.166-2.19a1.033,1.033,0,0,0,0-1.45,1.006,1.006,0,0,0-1.433,0l-1.447,1.46a2.838,2.838,0,0,0-.771-0.7,3.089,3.089,0,0,0-.646-0.27,1.742,1.742,0,0,0-.227-0.03,2.356,2.356,0,0,0-.456-0.06c-0.02,0-.039-0.01-0.058-0.01a2.039,2.039,0,0,0-.347.04,0.781,0.781,0,0,0-.215.02,2.683,2.683,0,0,0-.6.2l-0.4.18a0.589,0.589,0,0,1-.318.06h-0.017a0.589,0.589,0,0,1-.31-0.09,8.253,8.253,0,0,1-.148-1.53A8.165,8.165,0,0,1,458.421,3877.14Zm-16.558,12.5,0.04-.44a0.74,0.74,0,0,1,.371-0.59,0.7,0.7,0,0,1,.687-0.03l0.4,0.19a2.768,2.768,0,0,0,3.433-.94l0.252-.36a0.767,0.767,0,0,1,1.223,0l0.252,0.36a2.719,2.719,0,0,0,2.186,1.18h0.03c0.122,0,.246,0,0.369-0.01l0.172-.03c0.083-.02.165-0.03,0.248-0.05a2.346,2.346,0,0,0,.429-0.16l0.4-.18a0.7,0.7,0,0,1,.687.03,0.739,0.739,0,0,1,.37.58l0.039,0.44a2.79,2.79,0,0,0,2.514,2.55l0.436,0.04a0.727,0.727,0,0,1,.581.38,0.741,0.741,0,0,1,.032.69l-0.187.41a0.215,0.215,0,0,0-.018.05,2.827,2.827,0,0,0,.142,2.52l0.018,0.03a2.519,2.519,0,0,0,.178.27c0.036,0.05.075,0.09,0.114,0.14a1.67,1.67,0,0,0,.152.17,3.289,3.289,0,0,0,.336.29l0.359,0.26a0.749,0.749,0,0,1,.317.62,0.731,0.731,0,0,1-.317.61l-0.361.26s0,0-.009.01a2.288,2.288,0,0,0-.365.32,1.455,1.455,0,0,0-.124.15,2.1,2.1,0,0,0-.174.22c-0.02.03-.046,0.06-0.065,0.09H443.691a4.062,4.062,0,0,0,.218-0.36s0.006-.01.009-0.01a2.858,2.858,0,0,0,.206-0.56,1.321,1.321,0,0,0,.033-0.14,2.753,2.753,0,0,0,.072-0.59h0a2.879,2.879,0,0,0-.046-0.39,2.673,2.673,0,0,0-.034-0.28,3.143,3.143,0,0,0-1.1-1.63l-0.359-.25a0.768,0.768,0,0,1-.247-0.94l0.185-.4a2.812,2.812,0,0,0,.2-0.61c0.013-.07.013-0.13,0.021-0.19a2.8,2.8,0,0,0,.033-0.44c0-.08-0.015-0.16-0.023-0.23a2.83,2.83,0,0,0-.063-0.4c-0.022-.08-0.05-0.16-0.078-0.24s-0.037-.14-0.065-0.21a0.754,0.754,0,0,0-.067-0.1c-0.026-.06-0.039-0.11-0.067-0.17a2.356,2.356,0,0,0-.191-0.25,1.986,1.986,0,0,0-.158-0.21,2.691,2.691,0,0,0-.408-0.37c-0.044-.03-0.076-0.08-0.122-0.11A4.321,4.321,0,0,0,441.863,3889.64Zm-5.62-10.78a2.012,2.012,0,0,1,2.825-.5,2.08,2.08,0,0,1,.49,2.86l-3.954,5.68h0l-1.884,2.71a2.027,2.027,0,0,1-2.824.49h0a2.034,2.034,0,0,1-.377-0.37,0.641,0.641,0,0,1-.081-0.1,2.3,2.3,0,0,1-.242-0.43c0-.01-0.01-0.02-0.014-0.03a2.017,2.017,0,0,1-.116-0.51c-0.005-.04-0.008-0.09-0.011-0.13a2.083,2.083,0,0,1,.033-0.53,2.06,2.06,0,0,1,.322-0.76Zm-14.9,20.06-0.359-.26a0.755,0.755,0,0,1,0-1.23l0.357-.26a2.828,2.828,0,0,0,.921-3.48l-0.183-.4a0.742,0.742,0,0,1,.03-0.69,0.73,0.73,0,0,1,.581-0.38l0.435-.04a2.789,2.789,0,0,0,2.515-2.54l0.039-.45a0.744,0.744,0,0,1,.37-0.58,0.7,0.7,0,0,1,.688-0.03l0.4,0.19a2.637,2.637,0,0,0,.909.23,0.515,0.515,0,0,0,.017.07c0,0.02,0,.04,0,0.05,0.02,0.12.063,0.23,0.092,0.34,0.034,0.13.061,0.27,0.107,0.4a4.039,4.039,0,0,0,.2.43,3.007,3.007,0,0,0,.143.29,3.617,3.617,0,0,0,.343.46c0.051,0.06.092,0.13,0.147,0.19a4.011,4.011,0,0,0,.619.55,4.074,4.074,0,0,0,.63.36,1.662,1.662,0,0,0,.209.08,2.784,2.784,0,0,0,.474.16l0.244,0.06a4.5,4.5,0,0,0,.52.06,1.3,1.3,0,0,0,.2.02h0.05a4.194,4.194,0,0,0,.705-0.06,4.032,4.032,0,0,0,2.622-1.67l1.491-2.15a0.736,0.736,0,0,1,.323.55l0.039,0.44a2.79,2.79,0,0,0,2.514,2.55l0.436,0.04a0.765,0.765,0,0,1,.26.09c0.039,0.02.079,0.04,0.114,0.06a1.385,1.385,0,0,1,.141.15,1.035,1.035,0,0,1,.076.11,0.779,0.779,0,0,1,.088.3c0,0.01,0,.01,0,0.02a0.778,0.778,0,0,1-.066.34l-0.186.4a2.829,2.829,0,0,0-.245,1.44,0.049,0.049,0,0,1,0,.02,2.833,2.833,0,0,0,.08.45,2.8,2.8,0,0,0,1.081,1.57l0.247,0.17,0.112,0.08a0.777,0.777,0,0,1,.319.63,0.724,0.724,0,0,1-.083.34,0.387,0.387,0,0,1-.068.08,0.709,0.709,0,0,1-.168.19l-0.013.01-0.347.25a2.461,2.461,0,0,0-.384.34c-0.036.04-.066,0.08-0.1,0.12a2.825,2.825,0,0,0-.217.28c-0.011.02-.026,0.03-0.036,0.05h-18.7A2.772,2.772,0,0,0,421.347,3898.92Zm39.115,19.03a6.814,6.814,0,0,0-3.078,3.01,5.2,5.2,0,0,0,.26,4.99,0.279,0.279,0,0,1,0,.29,0.271,0.271,0,0,1-.242.14h-23.1a0.272,0.272,0,0,1-.242-0.14,0.3,0.3,0,0,1,.014-0.31,5.181,5.181,0,0,0,.25-4.97,6.812,6.812,0,0,0-3.077-3.01c-7.862-3.8-12.841-7.76-13.376-15.77a0.409,0.409,0,0,1,.106-0.3,0.346,0.346,0,0,1,.272-0.12h55.209a0.346,0.346,0,0,1,.271.12,0.4,0.4,0,0,1,.106.3C473.3,3910.19,468.322,3914.15,460.462,3917.95Zm-7.11,1.25h-8.826a1.025,1.025,0,0,0,0,2.05h8.826A1.025,1.025,0,0,0,453.352,3919.2Zm-15.2,2.05h3.432a1.025,1.025,0,0,0,0-2.05h-3.432A1.025,1.025,0,0,0,438.147,3921.25Zm15.2,1.03h-15.2a1.025,1.025,0,0,0,0,2.05h15.2A1.025,1.025,0,0,0,453.352,3922.28Zm2.919-37.66a1.006,1.006,0,0,0,1.433,0,1.033,1.033,0,0,0,0-1.45l-2.868-2.9a1.006,1.006,0,0,0-1.433,0,1.033,1.033,0,0,0,0,1.45Zm5.733,5.8a1.006,1.006,0,0,0,1.433,0,1.032,1.032,0,0,0,0-1.45l-2.867-2.9a1.007,1.007,0,0,0-1.434,0,1.033,1.033,0,0,0,0,1.45Zm-2.15-5.5a1.007,1.007,0,0,0,.717-0.3l2.867-2.9a1.032,1.032,0,0,0,0-1.45,1.006,1.006,0,0,0-1.433,0l-2.868,2.9a1.033,1.033,0,0,0,0,1.45A1,1,0,0,0,459.854,3884.92Zm5.662,8.63a1.021,1.021,0,0,0,1.014,1.03h4.055a1.025,1.025,0,0,0,0-2.05H466.53A1.013,1.013,0,0,0,465.516,3893.55Zm-18.753.51a1,1,0,0,0,.717-0.3l1.52-1.54a1.032,1.032,0,0,0,0-1.45,1.006,1.006,0,0,0-1.433,0l-1.521,1.54a1.033,1.033,0,0,0,0,1.45A1.007,1.007,0,0,0,446.763,3894.06Zm4.859,2.27a1.006,1.006,0,0,0,1.433,0,1.032,1.032,0,0,0,0-1.45l-1.014-1.03a1.006,1.006,0,0,0-1.433,0,1.033,1.033,0,0,0,0,1.45Zm-4.055-.43-1.014,1.03a1.033,1.033,0,0,0,0,1.45,1.007,1.007,0,0,0,1.434,0l1.013-1.03a1.032,1.032,0,0,0,0-1.45A1.006,1.006,0,0,0,447.567,3895.9Z" transform="translate(-415.844 -3875.09)"/>
</svg>
