<svg xmlns="http://www.w3.org/2000/svg" width="50.157" height="60" viewBox="0 0 50.157 60">
  <defs>
    <style>
      .cls-1 {
        fill: #7fcdc7;
        fill-rule: evenodd;
      }
    </style>
  </defs>
  <path id="Forma_1" data-name="Forma 1" class="cls-1" d="M510.838,3999.8a1.008,1.008,0,0,0-.188-0.27c-0.821-3.64-3.289-5.71-5.185-7.29l-0.816-.69-0.022-.02a1.325,1.325,0,0,1-.437-1.07,1.986,1.986,0,0,1,.813-1.47c0.04-.03.068-0.07,0.106-0.1a2.771,2.771,0,0,0,.39-0.37,1.74,1.74,0,0,0,.144-0.17,3.109,3.109,0,0,0,.294-0.45c0.033-.06.069-0.11,0.1-0.17a3.513,3.513,0,0,0,.2-0.55c0.015-.05.037-0.1,0.05-0.16a3.451,3.451,0,0,0,.089-0.74v-1.13a3.41,3.41,0,0,0-3.419-3.4H490.418a3.41,3.41,0,0,0-3.419,3.4v1.13a3.291,3.291,0,0,0,.093.75c0.013,0.06.035,0.11,0.052,0.17a3.649,3.649,0,0,0,.207.55c0.028,0.05.059,0.11,0.089,0.16a3,3,0,0,0,.334.49c0.034,0.04.066,0.09,0.1,0.13a3.819,3.819,0,0,0,.539.49,0.011,0.011,0,0,1,.012.01,2.085,2.085,0,0,1,.871,1.37,1.2,1.2,0,0,1-.274.95,1.855,1.855,0,0,1-.206.2c-0.252.22-.516,0.44-0.788,0.66-0.681.56-1.424,1.18-2.14,1.89-0.7-.71-1.422-1.31-2.076-1.86l-0.817-.69-0.023-.02a1.327,1.327,0,0,1-.436-1.07,1.982,1.982,0,0,1,.812-1.47c0.04-.03.069-0.07,0.106-0.1a2.771,2.771,0,0,0,.39-0.37,1.9,1.9,0,0,0,.145-0.17,3.286,3.286,0,0,0,.294-0.45c0.033-.06.068-0.11,0.1-0.17a3.509,3.509,0,0,0,.2-0.55,1.6,1.6,0,0,0,.05-0.16,3.389,3.389,0,0,0,.089-0.74v-1.13a3.41,3.41,0,0,0-3.419-3.4H468.765a3.409,3.409,0,0,0-3.418,3.4v1.13a3.291,3.291,0,0,0,.092.75c0.014,0.06.035,0.11,0.052,0.17a3.445,3.445,0,0,0,.207.55c0.027,0.05.058,0.11,0.088,0.16a2.935,2.935,0,0,0,.334.49c0.035,0.04.066,0.09,0.1,0.13a3.875,3.875,0,0,0,.539.49,0.011,0.011,0,0,1,.012.01,2.082,2.082,0,0,1,.871,1.37,1.2,1.2,0,0,1-.273.95,1.956,1.956,0,0,1-.207.2c-0.259.22-.532,0.45-0.812,0.68-2.348,1.93-5.564,4.57-5.564,9.89v7c0,0.04,0,.07,0,0.11v27.1a5.438,5.438,0,0,0,5.449,5.41H483.83a5.383,5.383,0,0,0,2.05-.41,5.218,5.218,0,0,0,2.008.41h17.6a5.436,5.436,0,0,0,5.447-5.41v-34.21a12.094,12.094,0,0,0-.091-1.44A1.116,1.116,0,0,0,510.838,3999.8Zm-2.2,11.38h-3.419a1.13,1.13,0,1,0,0,2.26h3.419v5.66h-5.7a1.135,1.135,0,1,0,0,2.27h5.7v2.26h-3.419a1.13,1.13,0,1,0,0,2.26h3.419v2.27H498.385v-19.24h10.257v2.26Zm-19.363-26.03a1.14,1.14,0,0,1,1.139-1.14h12.536a1.141,1.141,0,0,1,1.14,1.14v1.13a1.065,1.065,0,0,1-.113.47c-0.018.04-.049,0.07-0.072,0.11a1.2,1.2,0,0,1-.235.28,1.147,1.147,0,0,1-.72.27H490.418a1.107,1.107,0,0,1-.724-0.28,0.7,0.7,0,0,1-.113-0.1,1.31,1.31,0,0,1-.193-0.28,0.689,0.689,0,0,0-.03-0.08,1.106,1.106,0,0,1-.079-0.39v-1.13Zm-1.921,10.68c0.676-.68,1.41-1.29,2.125-1.88,0.283-.23.559-0.46,0.824-0.68a5.142,5.142,0,0,0,.452-0.46,3.433,3.433,0,0,0,.8-2.69,4.088,4.088,0,0,0-.109-0.45h10.574a4.121,4.121,0,0,0-.112.68,3.566,3.566,0,0,0,1.2,2.87l0.031,0.03c0.272,0.23.559,0.47,0.853,0.72,1.7,1.42,3.562,3,4.307,5.65a13.694,13.694,0,0,1-8.454.74,36.287,36.287,0,0,1-3.484-1.14,18.308,18.308,0,0,0-7.99-1.57c-0.052-.12-0.106-0.24-0.163-0.36-0.006-.01-0.011-0.03-0.018-0.04a10.766,10.766,0,0,0-.831-1.4A0.152,0.152,0,0,0,487.358,3995.83Zm-19.732-10.68a1.141,1.141,0,0,1,1.139-1.14H481.3a1.141,1.141,0,0,1,1.14,1.14v1.13a1.051,1.051,0,0,1-.113.47c-0.018.04-.049,0.07-0.072,0.11a1.219,1.219,0,0,1-.234.28,1.152,1.152,0,0,1-.721.27H468.765a1.1,1.1,0,0,1-.723-0.28,0.67,0.67,0,0,1-.114-0.1,1.31,1.31,0,0,1-.193-0.28c-0.011-.03-0.019-0.06-0.029-0.08a1.085,1.085,0,0,1-.08-0.39v-1.13Zm0.179,8.82c0.292-.24.576-0.47,0.849-0.7a5.01,5.01,0,0,0,.452-0.46,3.433,3.433,0,0,0,.8-2.69,4.088,4.088,0,0,0-.109-0.45h10.574a3.878,3.878,0,0,0-.111.69,3.556,3.556,0,0,0,1.2,2.86l0.031,0.03c0.271,0.23.558,0.47,0.853,0.72a16.765,16.765,0,0,1,3.135,3.15,0.216,0.216,0,0,0,.036.05,8.883,8.883,0,0,1,.529.89c0.029,0.05.057,0.1,0.085,0.16a7.96,7.96,0,0,1,.433,1.05c0.01,0.03.019,0.06,0.03,0.1a8.177,8.177,0,0,1,.294,1.25,0.08,0.08,0,0,0,0,.02,10.171,10.171,0,0,1,.109,1.49v5.23c-4.678-1.55-8.343-.76-12.556,1.03-4.125,1.74-7,1.76-11.376.02v-6.29C463.067,3997.86,465.584,3995.8,467.805,3993.97Zm-4.738,42.36v-25.5a16.7,16.7,0,0,0,5.733,1.16,16.527,16.527,0,0,0,6.537-1.52c4.719-2,7.773-2.19,11.662-.7v26.56a2.989,2.989,0,0,1-.109.77c-0.011.05-.029,0.09-0.042,0.14a3.211,3.211,0,0,1-.3.68h0a3.216,3.216,0,0,1-1.229,1.16l-0.294.16a3.163,3.163,0,0,1-1.193.24H466.236A3.167,3.167,0,0,1,463.067,4036.33Zm42.416,3.15H488.244a5.812,5.812,0,0,0,.306-0.5c0.065-.11.13-0.22,0.186-0.34,0.07-.15.131-0.29,0.188-0.45a4.916,4.916,0,0,0,.164-0.52c0.032-.12.069-0.24,0.091-0.37a5.231,5.231,0,0,0,.1-0.97h0v-34.21a12.222,12.222,0,0,0-.111-1.62c-0.007-.05-0.01-0.1-0.017-0.15-0.024-.16-0.055-0.32-0.086-0.47a17.3,17.3,0,0,1,6.513,1.46,35.741,35.741,0,0,0,3.71,1.21,14.084,14.084,0,0,0,3.532.45,17.487,17.487,0,0,0,5.816-1.1c0,0.08.016,0.15,0.016,0.22v4.53H496.106v23.77h12.546v5.91A3.168,3.168,0,0,1,505.483,4039.48Z" transform="translate(-460.781 -3981.75)"/>
</svg>
