<svg xmlns="http://www.w3.org/2000/svg" width="60.032" height="55.56" viewBox="0 0 60.032 55.56">
  <defs>
    <style>
      .cls-1 {
        fill: #7fcdc7;
        fill-rule: evenodd;
      }
    </style>
  </defs>
  <path id="Forma_1" data-name="Forma 1" class="cls-1" d="M988.964,3768.77c-0.877-9.6-7.7-16.56-16.246-16.56a16.173,16.173,0,0,0-13.835,7.93,15.566,15.566,0,0,0-13.5-7.93c-8.542,0-15.37,6.96-16.245,16.56a17.034,17.034,0,0,0,.511,6.3,26.982,26.982,0,0,0,8.311,13.81l20.912,18.89,21.272-18.89a26.982,26.982,0,0,0,8.311-13.81A17.072,17.072,0,0,0,988.964,3768.77Zm-2.76,5.77a24.659,24.659,0,0,1-7.607,12.63l-19.714,17.51-19.375-17.51a24.64,24.64,0,0,1-7.615-12.63,14.856,14.856,0,0,1-.48-5.4l0.017-.12c0.751-8.41,6.617-14.52,13.95-14.52a13.528,13.528,0,0,1,12.434,8.64l1.064,2.51,1.063-2.51a13.948,13.948,0,0,1,12.778-8.63c7.332,0,13.2,6.1,13.965,14.62A14.853,14.853,0,0,1,986.2,3774.54Zm-38.7-15.35a11.534,11.534,0,0,0-11.545,11.49,1.155,1.155,0,0,0,2.309,0,9.229,9.229,0,0,1,9.236-9.19A1.15,1.15,0,1,0,947.505,3759.19Z" transform="translate(-929.031 -3752.22)"/>
</svg>
