<svg xmlns="http://www.w3.org/2000/svg" width="57.845" height="60.04" viewBox="0 0 57.845 60.04">
  <defs>
    <style>
      .cls-1 {
        fill: #7fcdc7;
        fill-rule: evenodd;
      }
    </style>
  </defs>
  <path id="Forma_1" data-name="Forma 1" class="cls-1" d="M1001.1,3884.29l3.76,2.15a0.938,0.938,0,0,0,.48.13,0.96,0.96,0,0,0,.49-1.79l-3.77-2.15A0.959,0.959,0,1,0,1001.1,3884.29ZM990.223,3889a0.961,0.961,0,0,0-.966.95v4.31a0.967,0.967,0,0,0,1.933,0v-4.31A0.962,0.962,0,0,0,990.223,3889Zm14.637,8.78-3.76,2.15a0.957,0.957,0,0,0,.48,1.79,0.912,0.912,0,0,0,.48-0.13l3.77-2.16a0.94,0.94,0,0,0,.35-1.3A0.963,0.963,0,0,0,1004.86,3897.78Zm19.57,5.34a3.566,3.566,0,0,0-2.46.99l-6.79-3.88a3.491,3.491,0,0,0,.1-0.86,3.531,3.531,0,0,0-2.57-3.38v-7.77a3.51,3.51,0,0,0,2.57-3.37,3.435,3.435,0,0,0-.1-0.86l6.79-3.89a3.474,3.474,0,1,0-.97-1.65l-6.79,3.88a3.572,3.572,0,0,0-2.47-.99,3.529,3.529,0,0,0-2.46.99l-6.79-3.88a3.54,3.54,0,0,0-2.47-4.24v-11.15a0.968,0.968,0,0,0-1.936,0v11.15a3.5,3.5,0,0,0-2.469,4.24l-6.79,3.88a3.568,3.568,0,0,0-4.933,0l-6.79-3.88a3.56,3.56,0,1,0-.968,1.65l6.79,3.89a3.388,3.388,0,0,0-.108.86,3.509,3.509,0,0,0,2.576,3.37v7.77a3.53,3.53,0,0,0-2.576,3.38,3.447,3.447,0,0,0,.108.86l-6.79,3.88a3.566,3.566,0,0,0-2.467-.99,3.51,3.51,0,1,0,3.543,3.51,3.447,3.447,0,0,0-.108-0.86l6.79-3.88a3.568,3.568,0,0,0,4.933,0l6.79,3.88a3.494,3.494,0,0,0-.108.86,3.531,3.531,0,0,0,2.577,3.38v11.14a0.968,0.968,0,0,0,1.936,0v-11.14a3.531,3.531,0,0,0,2.57-3.38,3.491,3.491,0,0,0-.1-0.86l6.79-3.88a3.529,3.529,0,0,0,2.46.99,3.572,3.572,0,0,0,2.47-.99l6.79,3.88A3.548,3.548,0,1,0,1024.43,3903.12Zm0-27.13a1.6,1.6,0,1,1-1.61,1.6A1.607,1.607,0,0,1,1024.43,3875.99Zm-50.763,3.19a1.6,1.6,0,1,1,1.61-1.59A1.6,1.6,0,0,1,973.667,3879.18Zm0,29.05a1.6,1.6,0,1,1,1.61-1.6A1.609,1.609,0,0,1,973.667,3908.23Zm38.073-24.98a1.6,1.6,0,1,1-1.61,1.6A1.607,1.607,0,0,1,1011.74,3883.25Zm-12.69-7.26a1.6,1.6,0,1,1-1.611,1.6A1.608,1.608,0,0,1,999.05,3875.99Zm-14.3,8.86a1.611,1.611,0,1,1,1.61,1.59A1.608,1.608,0,0,1,984.748,3884.85Zm1.61,16.12a1.6,1.6,0,1,1,1.611-1.6A1.608,1.608,0,0,1,986.358,3900.97Zm12.692,7.26a1.6,1.6,0,1,1,1.61-1.6A1.609,1.609,0,0,1,999.05,3908.23Zm9.15-8.86a3.5,3.5,0,0,0,.11.86l-6.79,3.88a3.573,3.573,0,0,0-4.937,0l-6.79-3.88a3.447,3.447,0,0,0,.108-0.86,3.53,3.53,0,0,0-2.576-3.38v-7.77a3.509,3.509,0,0,0,2.576-3.37,3.388,3.388,0,0,0-.108-0.86l6.79-3.89a3.547,3.547,0,0,0,4.937,0l6.79,3.89a3.434,3.434,0,0,0-.11.86,3.507,3.507,0,0,0,2.58,3.37v7.77A3.528,3.528,0,0,0,1008.2,3899.37Zm3.54,1.6a1.6,1.6,0,1,1,1.61-1.6A1.607,1.607,0,0,1,1011.74,3900.97Zm12.69,7.26a1.6,1.6,0,1,1,1.61-1.6A1.613,1.613,0,0,1,1024.43,3908.23Z" transform="translate(-970.125 -3862.09)"/>
</svg>
