<svg xmlns="http://www.w3.org/2000/svg" width="56.969" height="60" viewBox="0 0 56.969 60">
  <defs>
    <style>
      .cls-1 {
        fill: #7fcdc7;
        fill-rule: evenodd;
      }
    </style>
  </defs>
  <path class="cls-1" d="M987.822,4035.47a1.111,1.111,0,0,0-.731-0.56c-0.079-.01-6.433-1.42-14.531-2.54a0.933,0.933,0,0,0-.035-0.11c-3.57-8.34-4.753-8.34-5.388-8.34-0.766,0-4.57.78-7.667,1.45v-8.03c0.046,0,.092-0.01.138-0.01a12.571,12.571,0,0,0,3.207.42,12.425,12.425,0,0,0,11.824-16.17,1.107,1.107,0,0,0-.716-0.72,12.381,12.381,0,0,0-12.51,3.07,12.246,12.246,0,0,0-1.372,1.64,15.018,15.018,0,0,0-19.4-12.44,1.111,1.111,0,0,0-.716.72,15.018,15.018,0,0,0,14.288,19.54,15.158,15.158,0,0,0,3.062-.32v12.77c-0.424.1-.8,0.18-1.109,0.25-2.291-.44-6.062-0.93-7.333.34l-2.008,2.01-3.04,1.02c-3.693,1.23-4.959,6.7-5.1,7.35a24.465,24.465,0,0,1-3.682-2.74,1.1,1.1,0,0,0-.733-0.28c-2.426,0-3.286,1.18-3.286,2.19,0,0.32,0,.91,2.3,3.58a53.95,53.95,0,0,0,5.33,5.34c3.942,3.44,9.809,7.54,15.37,7.54a47.056,47.056,0,0,0,14.334-2.34,17.945,17.945,0,0,1,4.287-.95,82.9,82.9,0,0,0,10.038-1.12,1.075,1.075,0,0,0,.837-0.67l4.382-10.97A1.1,1.1,0,0,0,987.822,4035.47Zm-24.86-29.99a5.669,5.669,0,1,1-1.784,9.94c0.889-1.48,2.139-3.17,3.163-3.68a1.1,1.1,0,0,0-.98-1.96,10.37,10.37,0,0,0-3.382,3.44A10.214,10.214,0,0,1,962.962,4005.48Zm-10.672-.39c2.873,1.92,3.911,5.87,3.927,5.93,0,0.01,0,.01,0,0.01a7.485,7.485,0,1,1,1.645-1.97,12.554,12.554,0,0,0-4.36-5.8A1.1,1.1,0,0,0,952.29,4005.09Zm-11.462,32.21c0.27-1.36,1.452-5.02,3.653-5.76l3.286-1.1a1.049,1.049,0,0,0,.429-0.26l2.173-2.18c0.538-.33,3.193-0.2,5.6.28a1.146,1.146,0,0,0,.452,0c4.355-.97,9.189-1.98,10.465-2.14a34.007,34.007,0,0,1,3.15,5.9c-1.271-.16-2.571-0.31-3.885-0.44-10.881-1.09-17.144-.15-18.614,2.8a1.771,1.771,0,0,0,.052,1.76c0.907,1.47,4.127,2.02,11.881,2.02,1.1,0,1.616.29,1.719,0.54a0.891,0.891,0,0,1-.269.84c-0.56.33-4.252,1.4-9.57,1.07a28.669,28.669,0,0,1-10.8-2.8A1.145,1.145,0,0,0,940.828,4037.3Zm40.858,8.67a77.865,77.865,0,0,1-9.072.98,18.612,18.612,0,0,0-4.905,1.05,45.587,45.587,0,0,1-13.716,2.24c-4.736,0-9.959-3.6-13.506-6.63a44.261,44.261,0,0,1-7.12-7.5,3.491,3.491,0,0,1,.524-0.1,29.081,29.081,0,0,0,17.718,6.83c4.974,0.25,9.818-.68,10.826-1.69a3.071,3.071,0,0,0,.778-3.27c-0.292-.71-1.168-1.9-3.743-1.9-6.824,0-9.084-.47-9.806-0.84,0.693-.79,3.683-2.61,16.269-1.36,8.5,0.86,16.424,2.39,19.42,3.01Z" transform="translate(-931 -3992.44)"/>
</svg>
