<svg xmlns="http://www.w3.org/2000/svg" xmlns:xlink="http://www.w3.org/1999/xlink" width="76.562" height="276" viewBox="0 0 76.562 276">
  <defs>
    <style>
      .cls-1 {
        fill-rule: evenodd;
        filter: url(#filter);
      }
    </style>
    <filter id="filter" x="823.438" y="3757" width="76.562" height="276" filterUnits="userSpaceOnUse">
      <feFlood result="flood" flood-color="#fff"/>
      <feComposite result="composite" operator="in" in2="SourceGraphic"/>
      <feBlend result="blend" in2="SourceGraphic"/>
    </filter>
  </defs>
  <path id="Ellipse_1_copy_18_копия" data-name="Ellipse 1 copy 18 копия" class="cls-1" d="M899.99,3894.35a4.542,4.542,0,1,1-4.541-4.6A4.571,4.571,0,0,1,899.99,3894.35Zm-1.3-17.09a4.542,4.542,0,1,1-4.542-4.6A4.572,4.572,0,0,1,898.693,3877.26Zm-2.6-17.08a4.542,4.542,0,1,1-4.541-4.6A4.571,4.571,0,0,1,896.1,3860.18Zm-3.893-17.09a4.542,4.542,0,1,1-4.541-4.6A4.571,4.571,0,0,1,892.2,3843.09Zm-6.488-15.77a4.542,4.542,0,1,1-4.542-4.6A4.571,4.571,0,0,1,885.716,3827.32Zm-7.786-15.77a4.542,4.542,0,1,1-4.542-4.6A4.571,4.571,0,0,1,877.93,3811.55Zm-10.381-14.46a4.542,4.542,0,1,1-4.542-4.6A4.571,4.571,0,0,1,867.549,3797.09Zm-10.381-13.14a4.542,4.542,0,1,1-4.542-4.6A4.572,4.572,0,0,1,857.168,3783.95Zm-11.679-13.14a4.542,4.542,0,1,1-4.542-4.6A4.572,4.572,0,0,1,845.489,3770.81Zm-12.977-9.2a4.542,4.542,0,1,1-4.542-4.6A4.571,4.571,0,0,1,832.512,3761.61Zm66.181,151.14a4.542,4.542,0,1,0-4.542,4.6A4.572,4.572,0,0,0,898.693,3912.75Zm-2.6,17.08a4.542,4.542,0,1,0-4.541,4.6A4.571,4.571,0,0,0,896.1,3929.83Zm-3.893,17.09a4.542,4.542,0,1,0-4.541,4.6A4.571,4.571,0,0,0,892.2,3946.92Zm-6.488,15.77a4.542,4.542,0,1,0-4.542,4.6A4.571,4.571,0,0,0,885.716,3962.69Zm-7.786,15.77a4.542,4.542,0,1,0-4.542,4.6A4.571,4.571,0,0,0,877.93,3978.46Zm-10.381,14.46a4.542,4.542,0,1,0-4.542,4.6A4.571,4.571,0,0,0,867.549,3992.92Zm-10.381,13.14a4.542,4.542,0,1,0-4.542,4.6A4.572,4.572,0,0,0,857.168,4006.06Zm-11.679,13.14a4.542,4.542,0,1,0-4.542,4.6A4.572,4.572,0,0,0,845.489,4019.2Zm-12.977,9.2a4.542,4.542,0,1,0-4.542,4.6A4.571,4.571,0,0,0,832.512,4028.4Z" transform="translate(-823.438 -3757)"/>
</svg>
