<svg xmlns="http://www.w3.org/2000/svg" width="45.5" height="60" viewBox="0 0 45.5 60">
  <defs>
    <style>
      .cls-1 {
        fill: #7fcdc7;
        fill-rule: evenodd;
      }
    </style>
  </defs>
  <path id="Forma_1" data-name="Forma 1" class="cls-1" d="M505.532,3781.43a51.014,51.014,0,0,0-7.632-11.68,61.211,61.211,0,0,0-11.087-10.19,0.971,0.971,0,0,0-1.083,0,61.2,61.2,0,0,0-11.088,10.19,50.975,50.975,0,0,0-7.631,11.68,36.184,36.184,0,0,0-3.493,15.23,22.754,22.754,0,0,0,45.507,0A36.2,36.2,0,0,0,505.532,3781.43Zm-19.261,36.04a20.835,20.835,0,0,1-20.808-20.81,34.222,34.222,0,0,1,3.3-14.38,48.814,48.814,0,0,1,7.321-11.22,61.844,61.844,0,0,1,10.187-9.5,61.36,61.36,0,0,1,10.151,9.46,48.917,48.917,0,0,1,7.343,11.23,34.25,34.25,0,0,1,3.314,14.41A20.836,20.836,0,0,1,486.271,3817.47Zm17.368-17.6a0.968,0.968,0,0,0-1.174.71,16.725,16.725,0,0,1-8.355,10.78,0.974,0.974,0,0,0,.46,1.83,0.953,0.953,0,0,0,.458-0.12,18.652,18.652,0,0,0,9.327-12.03A0.966,0.966,0,0,0,503.639,3799.87Zm1.157-5.35a0.972,0.972,0,1,0-1.939.14c0.049,0.67.074,1.34,0.074,2a0.973,0.973,0,1,0,1.945,0C504.876,3795.95,504.849,3795.23,504.8,3794.52Zm-22.674-7.12a0.968,0.968,0,0,0-.972.97v5.25H474.8v-5.25a0.972,0.972,0,0,0-1.944,0v12.44a0.972,0.972,0,0,0,1.944,0v-5.25h6.353v5.25a0.973,0.973,0,0,0,1.945,0v-12.44A0.968,0.968,0,0,0,482.122,3787.4Zm17.568,9.26v-4.14a5.121,5.121,0,0,0-10.242,0v4.14A5.121,5.121,0,0,0,499.69,3796.66Zm-8.3,0v-4.14a3.177,3.177,0,1,1,6.353,0v4.14A3.177,3.177,0,1,1,491.392,3796.66Zm-4.6,8.23h0.518a2.525,2.525,0,1,0,0-5.05h-1.037a2.011,2.011,0,0,0-2.009,2.01,0.972,0.972,0,0,0,1.944,0,0.067,0.067,0,0,1,.065-0.07h1.037a0.591,0.591,0,0,1,.584.59,0.583,0.583,0,0,1-.584.58H486.79a2.529,2.529,0,0,0-2.528,2.53v1.55a0.977,0.977,0,0,0,.972.98h3.63a0.975,0.975,0,0,0,0-1.95h-2.658v-0.58A0.591,0.591,0,0,1,486.79,3804.89Z" transform="translate(-463.531 -3759.41)"/>
</svg>
