<svg xmlns="http://www.w3.org/2000/svg" xmlns:xlink="http://www.w3.org/1999/xlink" width="76.563" height="276" viewBox="0 0 76.563 276">
  <defs>
    <style>
      .cls-1 {
        fill-rule: evenodd;
        filter: url(#filter);
      }
    </style>
    <filter id="filter" x="540" y="3757" width="76.563" height="276" filterUnits="userSpaceOnUse">
      <feFlood result="flood" flood-color="#fff"/>
      <feComposite result="composite" operator="in" in2="SourceGraphic"/>
      <feBlend result="blend" in2="SourceGraphic"/>
    </filter>
  </defs>
  <path id="Ellipse_1_copy_18_копия" data-name="Ellipse 1 copy 18 копия" class="cls-1" d="M540.01,3894.35a4.542,4.542,0,1,0,4.541-4.6A4.571,4.571,0,0,0,540.01,3894.35Zm1.3-17.09a4.542,4.542,0,1,0,4.542-4.6A4.572,4.572,0,0,0,541.307,3877.26Zm2.6-17.08a4.542,4.542,0,1,0,4.542-4.6A4.572,4.572,0,0,0,543.9,3860.18Zm3.893-17.09a4.542,4.542,0,1,0,4.542-4.6A4.572,4.572,0,0,0,547.795,3843.09Zm6.489-15.77a4.542,4.542,0,1,0,4.542-4.6A4.571,4.571,0,0,0,554.284,3827.32Zm7.786-15.77a4.542,4.542,0,1,0,4.542-4.6A4.571,4.571,0,0,0,562.07,3811.55Zm10.381-14.46a4.542,4.542,0,1,0,4.542-4.6A4.571,4.571,0,0,0,572.451,3797.09Zm10.381-13.14a4.542,4.542,0,1,0,4.542-4.6A4.572,4.572,0,0,0,582.832,3783.95Zm11.679-13.14a4.542,4.542,0,1,0,4.542-4.6A4.571,4.571,0,0,0,594.511,3770.81Zm12.977-9.2a4.542,4.542,0,1,0,4.541-4.6A4.571,4.571,0,0,0,607.488,3761.61Zm-66.181,151.14a4.542,4.542,0,1,1,4.542,4.6A4.572,4.572,0,0,1,541.307,3912.75Zm2.6,17.08a4.542,4.542,0,1,1,4.542,4.6A4.572,4.572,0,0,1,543.9,3929.83Zm3.893,17.09a4.542,4.542,0,1,1,4.542,4.6A4.572,4.572,0,0,1,547.795,3946.92Zm6.489,15.77a4.542,4.542,0,1,1,4.542,4.6A4.571,4.571,0,0,1,554.284,3962.69Zm7.786,15.77a4.542,4.542,0,1,1,4.542,4.6A4.571,4.571,0,0,1,562.07,3978.46Zm10.381,14.46a4.542,4.542,0,1,1,4.542,4.6A4.571,4.571,0,0,1,572.451,3992.92Zm10.381,13.14a4.542,4.542,0,1,1,4.542,4.6A4.572,4.572,0,0,1,582.832,4006.06Zm11.679,13.14a4.542,4.542,0,1,1,4.542,4.6A4.571,4.571,0,0,1,594.511,4019.2Zm12.977,9.2a4.542,4.542,0,1,1,4.541,4.6A4.571,4.571,0,0,1,607.488,4028.4Z" transform="translate(-540 -3757)"/>
</svg>
