<svg xmlns="http://www.w3.org/2000/svg" viewBox="0 0 71.71 56.9"><defs><style>.cls-1{fill:#18aea1}</style></defs><g id="Слой_2" data-name="Слой 2"><g id="Слой_1-2" data-name="Слой 1"><path class="cls-1" d="M57.8 38.72A13.87 13.87 0 0144 24.87C44 17.51 56.51 1 57.1.34a1 1 0 011.41-.09l.1.09c.54.7 13.1 17.17 13.1 24.54a13.87 13.87 0 01-13.9 13.84zm0-36.22c-2.7 3.71-11.94 16.62-11.94 22.37a11.95 11.95 0 0023.89 0c0-5.75-9.21-18.66-12-22.37z"/><path class="cls-1" d="M58.55 35.09a1 1 0 01-.29-1.86 12 12 0 007.84-8.09.93.93 0 011.15-.66 1 1 0 01.66 1.18A13.8 13.8 0 0158.82 35a.71.71 0 01-.29 0z"/><path d="M29.74 1.79l-1.94.01.08 16.36-23.51.11-.08-16.35H2.35l.17 34.99 1.94-.01-.08-16.69 23.51-.12.08 16.7 1.94-.01-.17-34.99zM42 40.33h-5.8l3-3.31a8.42 8.42 0 001.44-1.86 3.71 3.71 0 00.54-1.81 2.73 2.73 0 00-1-2.21 4 4 0 00-2.52-.77 5.1 5.1 0 00-2 .43A5.49 5.49 0 0034.1 32l-.3.31.92 1.13.38-.44a4.24 4.24 0 011.26-.87 3.53 3.53 0 011.39-.32 2.18 2.18 0 011.52.43 1.4 1.4 0 01.49 1.14c0 .46-.26 1.3-1.53 2.67L34 40.62v1.19h8z" fill="#12100e"/><path d="M2.57 48.45a2.79 2.79 0 011.77.64.08.08 0 010 .09.07.07 0 01-.11 0 2.53 2.53 0 00-1.61-.55A2.22 2.22 0 00.3 50.74v.12a2.25 2.25 0 002.26 2.24 2.43 2.43 0 001.7-.73h.09l.06.06v.07a2.64 2.64 0 01-1.86.82A2.44 2.44 0 01.1 50.89a2.4 2.4 0 012.39-2.41zM6 45.18a.09.09 0 010-.08h.1a.09.09 0 01.08.08v7.93a.08.08 0 01-.08.08.08.08 0 01-.1-.08zm4 7.92a2.62 2.62 0 001.57-.5h.09v.15a2.84 2.84 0 01-1.69.54A2.27 2.27 0 017.66 51a1.41 1.41 0 010-.2 2.24 2.24 0 012.07-2.39H10a2 2 0 012.15 1.84 1.4 1.4 0 010 .29 1 1 0 010 .35H8a2 2 0 001.84 2.21zm1.88-2.33a.67.67 0 000-.2 1.84 1.84 0 00-1.75-1.91H10a2 2 0 00-2.1 1.94v.16zm3.32-.61a4.5 4.5 0 011.36.27V50c0-.91-.3-1.34-1.28-1.34a2.78 2.78 0 00-1.41.35h-.1v-.15a3 3 0 011.53-.38c1.13 0 1.49.5 1.49 1.55v3.11a.08.08 0 01-.08.08.08.08 0 01-.08-.08v-.54a2.85 2.85 0 01-1.79.72 1.51 1.51 0 01-1.61-1.4v-.16c-.07-.92.77-1.6 1.97-1.6zm-.43 2.94a2.49 2.49 0 001.79-.8v-1.66a5.29 5.29 0 00-1.36-.27c-1.11 0-1.83.58-1.83 1.38a1.31 1.31 0 001.24 1.36zm3.83-4.45a.09.09 0 01.08-.08.09.09 0 01.08.08v.64a2.52 2.52 0 011.8-.83c1.25 0 1.92.75 1.92 2.15v2.51a.08.08 0 01-.08.08.08.08 0 01-.08-.08V50.6c0-1.26-.6-1.94-1.71-1.94a2.45 2.45 0 00-1.8 1v3.5a.08.08 0 01-.08.08.08.08 0 01-.08-.08zM24.22 46a.23.23 0 01.22-.24.25.25 0 01.23.24.23.23 0 11-.46 0zm.12 2.7a.09.09 0 01.08-.08.09.09 0 01.08.08v4.46a.08.08 0 01-.08.08.08.08 0 01-.08-.08zm2.07-.05a.09.09 0 01.08-.08.09.09 0 01.08.08v.64a2.52 2.52 0 011.8-.83c1.25 0 1.92.75 1.92 2.15v2.51a.08.08 0 01-.08.08.08.08 0 01-.08-.08V50.6c0-1.26-.6-1.94-1.71-1.94a2.45 2.45 0 00-1.8 1v3.5a.08.08 0 01-.08.08.08.08 0 01-.08-.08zm6 2.83a1.91 1.91 0 01-.31-1.17 1.83 1.83 0 011.78-1.86H36a.09.09 0 01.08.08.08.08 0 01-.08.08h-1a1.68 1.68 0 01.92 1.65 1.85 1.85 0 01-1.79 1.88H34a1.87 1.87 0 01-1.43-.54 1.1 1.1 0 00-.67 1 .75.75 0 00.73.79h2.16c1 0 1.69.43 1.69 1.48a2.1 2.1 0 01-2.26 1.93h-.1a2 2 0 01-2.26-1.7V55a1.62 1.62 0 01.79-1.35 1 1 0 01-.95-1 1.28 1.28 0 01.71-1.17zm1.69 5.09c1.32 0 2.13-.8 2.13-1.69s-.59-1.28-1.48-1.28H33.1A1.46 1.46 0 0032 55c0 .66.67 1.57 2.1 1.57zm1.55-6.25a1.52 1.52 0 00-1.34-1.65H34a1.63 1.63 0 00-1.71 1.53v.12A1.57 1.57 0 0033.7 52a1.31 1.31 0 00.3 0 1.62 1.62 0 001.69-1.56v-.11zm4.06 2.39l.06-.08h.1a2.1 2.1 0 001.4.47c.83 0 1.46-.46 1.46-1.06s-.69-.9-1.56-1.14-1.53-.6-1.53-1.25.47-1.19 1.56-1.19a2.55 2.55 0 011.32.37.08.08 0 010 .09V49s0 .06-.1 0a2.32 2.32 0 00-1.2-.34c-.95 0-1.34.55-1.34 1s.46.8 1.35 1S43 51.19 43 52s-.75 1.27-1.69 1.27a2.29 2.29 0 01-1.53-.52s-.08-.01-.07-.04zm6.61.39a2.62 2.62 0 001.57-.5.06.06 0 01.08 0v.15a2.84 2.84 0 01-1.69.54A2.27 2.27 0 0144 51a1.41 1.41 0 010-.2 2.24 2.24 0 012.07-2.39h.21a2 2 0 012.1 1.9 1.62 1.62 0 010 .22 1 1 0 010 .35.09.09 0 01-.07 0h-4a2 2 0 001.8 2.19zm1.88-2.33a.67.67 0 000-.2 1.84 1.84 0 00-1.75-1.91h-.15a2 2 0 00-2.06 1.94v.16zm1.69-2.12a.09.09 0 01.08-.08.09.09 0 01.08.08v.61a1.9 1.9 0 011.5-.81 1.61 1.61 0 01.86.21.09.09 0 010 .1v.06a.07.07 0 01-.1 0 1.45 1.45 0 00-.74-.18 1.84 1.84 0 00-1.5 1v3.5a.08.08 0 01-.08.08.08.08 0 01-.08-.08zm3-.02v-.09h.16L55 53l1.94-4.43s0-.06.08 0h.08v.09l-2 4.68a.07.07 0 11-.14 0zM58.1 46a.23.23 0 01.22-.24.25.25 0 01.23.24.23.23 0 01-.46 0zm.12 2.7a.09.09 0 01.08-.08.09.09 0 01.08.08v4.46a.08.08 0 01-.08.08.08.08 0 01-.08-.08zm4.21-.25a2.79 2.79 0 011.77.64.08.08 0 010 .09.07.07 0 01-.11 0 2.53 2.53 0 00-1.61-.55 2.22 2.22 0 00-2.28 2.14v.06a2.25 2.25 0 002.26 2.24 2.43 2.43 0 001.7-.73h.09l.06.06v.07a2.64 2.64 0 01-1.86.82A2.44 2.44 0 0160 50.86a2.41 2.41 0 012.41-2.39zm5.33 4.65a2.62 2.62 0 001.57-.5.06.06 0 01.08 0v.15a2.84 2.84 0 01-1.69.54A2.27 2.27 0 0165.44 51a1.41 1.41 0 010-.2 2.24 2.24 0 012.07-2.39h.21a2 2 0 012.1 1.9 1.62 1.62 0 010 .22 1 1 0 010 .35.09.09 0 01-.07 0h-4a2 2 0 001.8 2.19zm1.88-2.33a.67.67 0 000-.2 1.84 1.84 0 00-1.75-1.91h-.15a2 2 0 00-2.06 1.94v.16z" stroke="#000" stroke-miterlimit="10" stroke-width=".2"/></g></g></svg>