<svg xmlns="http://www.w3.org/2000/svg" width="13" height="13" viewBox="0 0 13 13">
  <defs>
    <style>
      .cls-1 {
        fill-rule: evenodd;
      }
    </style>
  </defs>
  <path class="cls-1" d="M1369.44,3152.01v0.98a0.852,0.852,0,0,0,.03.23,1.049,1.049,0,0,0,2.07-.08,1.34,1.34,0,0,0,.01-0.2v-0.93h3.9V3153a1.055,1.055,0,0,0,2.09.21,1.635,1.635,0,0,0,.02-0.22v-0.97a0.037,0.037,0,0,1,.03-0.01c0.42,0,.84-0.02,1.26,0a1.227,1.227,0,0,1,1.15,1.19v9.52a1.234,1.234,0,0,1-.88,1.22,1.03,1.03,0,0,1-.35.06h-10.54a1.245,1.245,0,0,1-1.23-1.21v-9.51a1.222,1.222,0,0,1,1.24-1.27c0.38-.01.76,0,1.14,0h0.06Zm-1.45,3.53v6.81a0.619,0.619,0,0,0,.66.66h9.7a0.619,0.619,0,0,0,.66-0.66v-6.81h-11.02Zm3-3.3c0,0.25,0,.51-0.01.76a0.484,0.484,0,0,1-.4.48,0.5,0.5,0,0,1-.55-0.34,0.784,0.784,0,0,1-.02-0.14v-1.51a0.478,0.478,0,0,1,.42-0.48,0.465,0.465,0,0,1,.53.34,0.44,0.44,0,0,1,.02.16C1370.99,3151.75,1370.99,3152,1370.99,3152.24Zm6,0.01v0.73a0.481,0.481,0,0,1-.49.5,0.493,0.493,0,0,1-.49-0.5v-1.47a0.5,0.5,0,0,1,.5-0.51,0.487,0.487,0,0,1,.48.51v0.74Zm0.77,8.38v1.11h-1.49v-1.11h1.49Zm-7.03,1.11h-1.49v-1.11h1.49v1.11Zm0.86-1.11h1.48v1.11h-1.48v-1.11Zm3.83,0v1.11h-1.49v-1.11h1.49Zm-1.49-.8v-1.11h1.48v1.11h-1.48Zm-0.86-1.11v1.11h-1.48v-1.11h1.48Zm3.2,0h1.49v1.11h-1.49v-1.11Zm-5.54,1.11h-1.49v-1.11h1.49v1.11Zm-1.49-3.02h1.49v1.1h-1.49v-1.1Zm6.18,0v1.1h-1.49v-1.1h1.49Zm2.34,0v1.1h-1.49v-1.1h1.49Zm-6.18,0h1.49v1.1h-1.49v-1.1Z" transform="translate(-1367 -3151)"/>
</svg>
