<svg xmlns="http://www.w3.org/2000/svg" width="15" height="15" viewBox="0 0 15 15">
  <defs>
    <style>
      .cls-1 {
        fill: #888;
        fill-rule: evenodd;
      }
    </style>
  </defs>
  <path class="cls-1" d="M644,3366.6a6.239,6.239,0,0,1,.934-2.88,13.937,13.937,0,0,1,1.353-1.78c1.208-1.31,2.456-2.57,3.687-3.86a1.509,1.509,0,0,1,.151-0.14,0.546,0.546,0,0,1,.861-0.03,0.721,0.721,0,0,1-.086.98c-1.313,1.39-2.634,2.76-3.94,4.15a6.437,6.437,0,0,0-1.592,2.66,3.6,3.6,0,0,0,.084,2.35,4.643,4.643,0,0,0,1.956,2.34,1.7,1.7,0,0,0,1.824.06,7.267,7.267,0,0,0,1.642-1.24c2.04-2.2,4.044-4.44,6.04-6.7a5.547,5.547,0,0,0,.765-1.24,1.23,1.23,0,0,0-.182-1.37,14.208,14.208,0,0,0-.987-1.1,1.187,1.187,0,0,0-1.654-.21,7.28,7.28,0,0,0-1.343,1.14c-1.69,1.84-3.356,3.71-5.026,5.57a4.184,4.184,0,0,0-.526.71,1.152,1.152,0,0,0,.085,1.31,0.881,0.881,0,0,0,1.168.32,2.885,2.885,0,0,0,.754-0.59q2.528-2.745,5.035-5.51c0.095-.11.19-0.21,0.29-0.31a0.5,0.5,0,0,1,.77-0.01,0.609,0.609,0,0,1,0,.88c-1.236,1.41-2.476,2.8-3.723,4.19-0.628.7-1.254,1.41-1.917,2.06a2.142,2.142,0,0,1-3.573-.65,2.74,2.74,0,0,1,.455-2.91c0.738-.87,1.5-1.71,2.268-2.56,1.14-1.26,2.265-2.55,3.444-3.76a6.8,6.8,0,0,1,1.619-1.21,1.935,1.935,0,0,1,2.3.27,10.41,10.41,0,0,1,1.548,1.66,5.413,5.413,0,0,1,.515,1.26v0.52a4.7,4.7,0,0,1-1.15,2.36c-2.093,2.33-4.181,4.67-6.3,6.97a7.378,7.378,0,0,1-1.542,1.21,2.812,2.812,0,0,1-2.852.19,5.775,5.775,0,0,1-3-3.76,7.587,7.587,0,0,1-.158-0.9v-0.44Z" transform="translate(-644 -3357)"/>
</svg>
