<svg xmlns="http://www.w3.org/2000/svg" width="4" height="15" viewBox="0 0 4 15">
  <defs>
    <style>
      .cls-1 {
        fill: #007ff2;
        fill-rule: evenodd;
      }
    </style>
  </defs>
  <path id="i" class="cls-1" d="M923.4,3153.27a1.807,1.807,0,0,0,.6-1.35,1.838,1.838,0,0,0-.6-1.35,1.951,1.951,0,0,0-1.395-.57,1.975,1.975,0,0,0-1.414.57,1.841,1.841,0,0,0-.594,1.35,1.809,1.809,0,0,0,.594,1.35,1.944,1.944,0,0,0,1.414.58A1.921,1.921,0,0,0,923.4,3153.27Zm0.4,11.73v-9.43H920.2V3165H923.8Z" transform="translate(-920 -3150)"/>
</svg>
