<?xml version="1.0" encoding="utf-8"?><svg xmlns="http://www.w3.org/2000/svg" xmlns:xlink="http://www.w3.org/1999/xlink"><symbol viewBox="0 0 11 7" id="icons--arrow" xmlns="http://www.w3.org/2000/svg"><path d="M11.008 1.33L6.801 5.67l-1.3 1.34-1.3-1.34-4.206-4.34 1.3-1.34 4.206 4.35L9.707-.01z" fill-rule="evenodd"/></symbol><symbol viewBox="0 0 13 13" id="icons--calendar" xmlns="http://www.w3.org/2000/svg"><path d="M2.44 1.01v.98a.852.852 0 00.03.23 1.049 1.049 0 002.07-.08 1.34 1.34 0 00.01-.2v-.93h3.9V2a1.055 1.055 0 002.09.21 1.635 1.635 0 00.02-.22v-.97a.037.037 0 01.03-.01c.42 0 .84-.02 1.26 0A1.227 1.227 0 0113 2.2v9.52a1.234 1.234 0 01-.88 1.22 1.03 1.03 0 01-.35.06H1.23A1.245 1.245 0 010 11.79V2.28a1.222 1.222 0 011.24-1.27c.38-.01.76 0 1.14 0h.06zM.99 4.54v6.81a.619.619 0 00.66.66h9.7a.619.619 0 00.66-.66V4.54H.99zm3-3.3c0 .25 0 .51-.01.76a.484.484 0 01-.4.48.5.5 0 01-.55-.34.784.784 0 01-.02-.14V.49a.478.478 0 01.42-.48.465.465 0 01.53.34.44.44 0 01.02.16c.01.24.01.49.01.73zm6 .01v.73a.481.481 0 01-.49.5.493.493 0 01-.49-.5V.51a.5.5 0 01.5-.51.487.487 0 01.48.51v.74zm.77 8.38v1.11H9.27V9.63h1.49zm-7.03 1.11H2.24V9.63h1.49v1.11zm.86-1.11h1.48v1.11H4.59V9.63zm3.83 0v1.11H6.93V9.63h1.49zm-1.49-.8V7.72h1.48v1.11H6.93zm-.86-1.11v1.11H4.59V7.72h1.48zm3.2 0h1.49v1.11H9.27V7.72zM3.73 8.83H2.24V7.72h1.49v1.11zM2.24 5.81h1.49v1.1H2.24v-1.1zm6.18 0v1.1H6.93v-1.1h1.49zm2.34 0v1.1H9.27v-1.1h1.49zm-6.18 0h1.49v1.1H4.58v-1.1z" fill-rule="evenodd"/></symbol><symbol viewBox="0 0 15 15" id="icons--file" xmlns="http://www.w3.org/2000/svg"><path d="M0 9.6a6.239 6.239 0 01.934-2.88 13.937 13.937 0 011.353-1.78c1.208-1.31 2.456-2.57 3.687-3.86a1.509 1.509 0 01.151-.14.546.546 0 01.861-.03.721.721 0 01-.086.98C5.587 3.28 4.266 4.65 2.96 6.04A6.437 6.437 0 001.368 8.7a3.6 3.6 0 00.084 2.35 4.643 4.643 0 001.956 2.34 1.7 1.7 0 001.824.06 7.267 7.267 0 001.642-1.24c2.04-2.2 4.044-4.44 6.04-6.7a5.547 5.547 0 00.765-1.24 1.23 1.23 0 00-.182-1.37 14.208 14.208 0 00-.987-1.1 1.187 1.187 0 00-1.654-.21 7.28 7.28 0 00-1.343 1.14C7.823 4.57 6.157 6.44 4.487 8.3a4.184 4.184 0 00-.526.71 1.152 1.152 0 00.085 1.31.881.881 0 001.168.32 2.885 2.885 0 00.754-.59q2.528-2.745 5.035-5.51c.095-.11.19-.21.29-.31a.5.5 0 01.77-.01.609.609 0 010 .88A486.92 486.92 0 018.34 9.29c-.628.7-1.254 1.41-1.917 2.06a2.142 2.142 0 01-3.573-.65 2.74 2.74 0 01.455-2.91c.738-.87 1.5-1.71 2.268-2.56 1.14-1.26 2.265-2.55 3.444-3.76A6.8 6.8 0 0110.636.26a1.935 1.935 0 012.3.27 10.41 10.41 0 011.548 1.66 5.413 5.413 0 01.515 1.26v.52a4.7 4.7 0 01-1.15 2.36c-2.093 2.33-4.181 4.67-6.3 6.97a7.378 7.378 0 01-1.542 1.21 2.812 2.812 0 01-2.852.19 5.775 5.775 0 01-3-3.76 7.587 7.587 0 01-.158-.9V9.6z" fill-rule="evenodd"/></symbol><symbol viewBox="0 0 900 600" id="icons--flags--Austria" xmlns="http://www.w3.org/2000/svg"><path d="M0 0h900v600H0z"/><path d="M0 200h900v200H0z"/></symbol><symbol viewBox="0 0 1200 600" id="icons--flags--Azerbaijan" xmlns="http://www.w3.org/2000/svg"><path d="M0 0h1200v600H0z"/><path d="M0 0h1200v400H0z"/><path d="M0 0h1200v200H0z"/><circle cx="580" cy="300" r="90"/><circle cx="600" cy="300" r="75"/><path d="M680 250l9.567 26.903 25.788-12.258-12.258 25.788L730 300l-26.903 9.567 12.258 25.788-25.788-12.258L680 350l-9.567-26.903-25.788 12.258 12.258-25.788L630 300l26.903-9.567-12.258-25.788 25.788 12.258L680 250z"/></symbol><symbol viewBox="0 0 900 600" id="icons--flags--Belgium" xmlns="http://www.w3.org/2000/svg"><path d="M0 0h900v600H0z"/><path d="M0 0h600v600H0z"/><path d="M0 0h300v600H0z"/></symbol><symbol viewBox="0 0 4 15" id="icons--i" xmlns="http://www.w3.org/2000/svg"><path d="M3.4 3.27A1.807 1.807 0 004 1.92 1.838 1.838 0 003.4.57 1.951 1.951 0 002.005 0 1.975 1.975 0 00.591.57a1.841 1.841 0 00-.594 1.35 1.809 1.809 0 00.594 1.35 1.944 1.944 0 001.414.58A1.921 1.921 0 003.4 3.27zM3.8 15V5.57H.2V15h3.6z" fill-rule="evenodd"/></symbol><symbol viewBox="0 0 5 5" id="icons--slider" xmlns="http://www.w3.org/2000/svg"><path d="M0 0h1v5H0V0zm2 0h1v5H2V0zm2 0h1v5H4V0z" fill-rule="evenodd"/></symbol><symbol viewBox="0 0 0 0" id="sprite" xmlns="http://www.w3.org/2000/svg"/></svg>