<svg width="50px" height="40px" xmlns="http://www.w3.org/2000/svg" viewBox="0 0 50 50"><defs><style>.cls-1{fill:none;}.cls-2{fill:#fff;}</style></defs><title>icon-car</title><g id="Layer_2" data-name="Layer 2"><g id="Layer_1-2" data-name="Layer 1"><rect class="cls-1" width="50" height="50"/><path class="cls-2" d="M36.42,26.08l-2.5-2.5a.82.82,0,0,0-.59-.25H16.67a.82.82,0,0,0-.59.25l-2.5,2.5a.83.83,0,0,0-.2.87l3.34,9.17a.83.83,0,0,0,.78.55h15a.83.83,0,0,0,.78-.55L36.62,27A.83.83,0,0,0,36.42,26.08ZM18.08,35l-2.95-8.12,1.73-1.73L19,35Zm2.59,0L18.53,25h2.36l.72,10Zm3.5,0h-.89l-.72-10h1.61Zm2.55,0h-.89V25h1.61Zm1.68,0,.71-10h2.36L29.33,35Zm3.52,0H31l2.11-9.85,1.73,1.73Z"/><path class="cls-2" d="M14.94,35.52l-1.67-4.16a.82.82,0,0,0-.77-.53H4.17a.85.85,0,0,0-.84.84v4.16a.85.85,0,0,0,.84.84h10a.84.84,0,0,0,.83-.84A.85.85,0,0,0,14.94,35.52ZM5,35V32.5h6.94l1,2.5Z"/><path class="cls-2" d="M45.83,30.83H37.5a.82.82,0,0,0-.77.53l-1.67,4.16a.84.84,0,0,0,.46,1.09.85.85,0,0,0,.31.06h10a.85.85,0,0,0,.84-.84V31.67A.85.85,0,0,0,45.83,30.83ZM45,35H37.06l1-2.5H45Z"/><path class="cls-2" d="M45.83,23.33H42.26A4.16,4.16,0,0,0,38.39,26L37.56,28A.84.84,0,0,0,38,29.11a.85.85,0,0,0,.31.06h5.84a2.5,2.5,0,0,0,2.5-2.5v-2.5A.85.85,0,0,0,45.83,23.33ZM45,26.67a.83.83,0,0,1-.83.83H39.56l.38-.93A2.48,2.48,0,0,1,42.26,25H45Z"/><path class="cls-2" d="M12.44,28,11.61,26a4.16,4.16,0,0,0-3.87-2.62H4.17a.85.85,0,0,0-.84.84v2.5a2.5,2.5,0,0,0,2.5,2.5h5.84a.84.84,0,0,0,.83-.84A.85.85,0,0,0,12.44,28ZM5.83,27.5A.83.83,0,0,1,5,26.67V25H7.74a2.48,2.48,0,0,1,2.32,1.57l.38.93Z"/><path class="cls-2" d="M40.77,17.19,37.44,8.86a.83.83,0,0,0-.77-.53H13.33a.83.83,0,0,0-.77.53L9.23,17.19a.83.83,0,0,0,.46,1.08.81.81,0,0,0,.31.06H40a.83.83,0,0,0,.83-.83A.81.81,0,0,0,40.77,17.19Zm-29.54-.52L13.9,10H36.1l2.67,6.67Z"/><path class="cls-2" d="M45.35,17.5H47.5a2.5,2.5,0,0,0,0-5H45.83a2.48,2.48,0,0,0-2.36,1.73L39.54,6.38A2.49,2.49,0,0,0,37.3,5H11.93A2.49,2.49,0,0,0,9.64,6.52L6.44,14A2.49,2.49,0,0,0,4.17,12.5H2.5a2.5,2.5,0,0,0,0,5H4.65L.73,21.42A2.51,2.51,0,0,0,0,23.19V35.83a4.18,4.18,0,0,0,3.33,4.09V42.5A2.5,2.5,0,0,0,5.83,45H9.17a2.5,2.5,0,0,0,2.5-2.5V40H38.33v2.5a2.5,2.5,0,0,0,2.5,2.5h3.34a2.5,2.5,0,0,0,2.5-2.5V39.92A4.18,4.18,0,0,0,50,35.83V23.19a2.51,2.51,0,0,0-.73-1.77ZM45,15a.83.83,0,0,1,.83-.83H47.5a.83.83,0,0,1,0,1.66H45Zm-42.5.83a.83.83,0,0,1,0-1.66H4.17A.83.83,0,0,1,5,15v.83ZM10,42.5a.83.83,0,0,1-.83.83H5.83A.83.83,0,0,1,5,42.5V40h5Zm35,0a.83.83,0,0,1-.83.83H40.83A.83.83,0,0,1,40,42.5V40h5Zm3.33-6.67a2.5,2.5,0,0,1-2.5,2.5H4.17a2.5,2.5,0,0,1-2.5-2.5V23.19a.82.82,0,0,1,.24-.59L6.54,18,11.17,7.17a.83.83,0,0,1,.76-.5H37.3a.82.82,0,0,1,.75.46L43.48,18l4.61,4.61a.82.82,0,0,1,.24.59Z"/></g></g></svg>