<svg xmlns="http://www.w3.org/2000/svg" viewBox="0 0 427.11 158.79"><defs><style>.cls-1,.cls-2{fill:#fff;}.cls-1{opacity:0.4;}.cls-3,.cls-5{fill:none;stroke:#fff;stroke-width:2px;}.cls-3{stroke-miterlimit:2.61;fill-rule:evenodd;}.cls-4{fill:#fa2005;}.cls-5{stroke-linecap:round;stroke-linejoin:round;}</style></defs><title>icon-rout</title><g id="Layer_2" data-name="Layer 2"><g id="Layer_1-2" data-name="Layer 1"><circle class="cls-1" cx="8" cy="150.79" r="8"/><circle class="cls-2" cx="8" cy="150.79" r="4"/><path class="cls-3" d="M8,150.79s39.37-71,160.48-37.42c189.5,52.55,248.3-77.28,248.3-77.28"/><circle class="cls-1" cx="417.22" cy="35.55" r="8"/><circle class="cls-2" cx="417.22" cy="35.55" r="4"/><circle class="cls-4" cx="155.58" cy="110.2" r="4.5"/><circle class="cls-2" cx="155.58" cy="110.2" r="3"/><circle class="cls-4" cx="335.48" cy="109.46" r="4.5"/><circle class="cls-2" cx="335.48" cy="109.46" r="3"/><circle class="cls-4" cx="299.51" cy="121.27" r="4.5"/><circle class="cls-2" cx="299.51" cy="121.27" r="3"/><path class="cls-5" d="M426.11,10c0,7-9,13-9,13s-9-6-9-13a9,9,0,0,1,18,0Z"/><circle class="cls-5" cx="417.11" cy="10" r="3"/></g></g></svg>