<svg width="50px" height="40px" xmlns="http://www.w3.org/2000/svg" viewBox="0 0 50 50"><defs><style>.cls-1{fill:#fff;}</style></defs><title>icon-clock</title><g id="Layer_2" data-name="Layer 2"><g id="Layer_1-2" data-name="Layer 1"><path class="cls-1" d="M25,0A25,25,0,1,0,50,25,25,25,0,0,0,25,0Zm0,48.33A23.33,23.33,0,1,1,48.33,25,23.32,23.32,0,0,1,25,48.33Z"/><path class="cls-1" d="M25,3.33A21.67,21.67,0,1,0,46.67,25,21.67,21.67,0,0,0,25,3.33ZM25,45A20,20,0,1,1,45,25,20,20,0,0,1,25,45Z"/><path class="cls-1" d="M25,11.67a.84.84,0,0,0,.83-.84V7.5a.83.83,0,1,0-1.66,0v3.33A.84.84,0,0,0,25,11.67Z"/><path class="cls-1" d="M25,38.33a.84.84,0,0,0-.83.84V42.5a.83.83,0,0,0,1.66,0V39.17A.84.84,0,0,0,25,38.33Z"/><path class="cls-1" d="M10.83,24.17H7.5a.83.83,0,1,0,0,1.66h3.33a.83.83,0,1,0,0-1.66Z"/><path class="cls-1" d="M42.5,24.17H39.17a.83.83,0,1,0,0,1.66H42.5a.83.83,0,0,0,0-1.66Z"/><path class="cls-1" d="M35,15a.82.82,0,0,0-1.17,0l-7.16,7.15a3.31,3.31,0,0,0-3.36,0L19.7,18.52a.83.83,0,0,0-1.18,1.18l3.62,3.62a3.32,3.32,0,1,0,5.72,0L35,16.17A.84.84,0,0,0,35,15ZM26.18,26.18a1.67,1.67,0,1,1,0-2.36h0a1.67,1.67,0,0,1,0,2.36Z"/></g></g></svg>