<svg width="24" height="24" fill="none" xmlns="http://www.w3.org/2000/svg"><path d="M20.473 17.836h-.267a1.575 1.575 0 0 0-.313-1.582 1.575 1.575 0 0 0 .313-1.582h.267a.527.527 0 0 0 .527-.527 3.344 3.344 0 0 0-3.34-3.34h-3.878l.085-1.407h.207a.527.527 0 0 0 .528-.527v-2.11a.527.527 0 0 0-.528-.527h-4.3l1.422-2.18h1.824a.527.527 0 1 0 0-1.054h-2.11a.527.527 0 0 0-.441.24L8.514 6.233H3.527A.527.527 0 0 0 3 6.762v2.11c0 .29.236.526.527.526h.207l.673 11.107a.527.527 0 0 0 .527.495h13.43A2.64 2.64 0 0 0 21 18.363a.527.527 0 0 0-.527-.527zm-10.02-.527c0-.291.237-.528.527-.528h7.735a.528.528 0 0 1 0 1.055H10.98a.528.528 0 0 1-.527-.527zm8.79-2.11a.53.53 0 0 1-.528.528H10.98a.528.528 0 0 1 0-1.055h7.735c.29 0 .527.236.527.527zm.64-1.582H9.812a2.29 2.29 0 0 1 2.224-1.758h5.625a2.29 2.29 0 0 1 2.224 1.758zM4.056 7.29h9.492v1.055H4.055V7.289zm.934 5.384a1.584 1.584 0 0 1 1.702 1.577c0 .848-.671 1.543-1.51 1.58l-.192-3.157zm.255 4.21a2.64 2.64 0 0 0 2.502-2.633 2.64 2.64 0 0 0-2.82-2.63L4.79 9.398h8.02l-.085 1.407h-.69a3.344 3.344 0 0 0-3.34 3.34c0 .29.235.527.527.527h.266a1.575 1.575 0 0 0 .314 1.582 1.576 1.576 0 0 0-.314 1.582h-.266a.527.527 0 0 0-.528.527c0 .593.197 1.141.529 1.582H5.43l-.186-3.062zm13.12 3.062h-7.032c-.688 0-1.274-.44-1.492-1.054h10.015a1.585 1.585 0 0 1-1.492 1.054z" fill="#2C2C2C"/></svg>