<svg width="24" height="24" fill="none" xmlns="http://www.w3.org/2000/svg"><g clip-path="url(#clip0)" fill="#2C2C2C"><path d="M19.373 13.732h-.713a1.74 1.74 0 0 0 .009-.644 1.696 1.696 0 0 0-.603-1.026 1.695 1.695 0 0 0-.198-1.173 1.695 1.695 0 0 0-.917-.759 1.694 1.694 0 0 0-.72-1.134l2.444-3.47a.527.527 0 1 0-.863-.608l-2.61 3.709a1.7 1.7 0 0 0-.78-.668l1.495-4.257a.527.527 0 0 0-.995-.35l-1.589 4.522a1.576 1.576 0 0 0-.187.06 1.695 1.695 0 0 0-1.116-.416c-.42 0-.821.156-1.115.416a1.696 1.696 0 0 0-1.19-.01 1.695 1.695 0 0 0-.906.773A1.703 1.703 0 0 0 7.11 10.13a1.696 1.696 0 0 0-.917.759c-.21.364-.276.79-.198 1.173-.307.244-.53.612-.603 1.026a1.72 1.72 0 0 0 .01.644h-.715a.528.528 0 0 0-.527.528A6.748 6.748 0 0 0 10.9 21h2.26a6.748 6.748 0 0 0 6.74-6.741.527.527 0 0 0-.527-.527zm-12.85 0c-.237-.34-.026-.842.266-.917a.528.528 0 0 0 .298-.818c-.233-.325.122-.926.513-.888a.527.527 0 0 0 .56-.666c-.107-.38.425-.831.784-.66a.528.528 0 0 0 .754-.434c.03-.398.687-.632.963-.35.26.265.704.185.857-.152.165-.364.863-.358 1.024 0a.528.528 0 0 0 .858.151c.28-.286.933-.04.963.351.028.37.42.595.754.435.355-.17.892.276.784.658-.1.357.19.704.56.667.393-.04.743.566.512.888a.528.528 0 0 0 .298.818c.283.072.509.564.267.917H6.522zm6.637 6.213H10.9a5.693 5.693 0 0 1-5.661-5.159h13.583a5.694 5.694 0 0 1-5.662 5.159z"/><path d="M9.733 12a.527.527 0 1 1-1.054 0 .527.527 0 0 1 1.054 0zm1.695-1.13a.527.527 0 1 1-1.055 0 .527.527 0 0 1 1.055 0zm3.954 1.695a.527.527 0 1 1-1.055 0 .527.527 0 0 1 1.055 0z"/></g><defs><clipPath id="clip0"><path fill="#2C2C2C" transform="translate(3 3)" d="M0 0h18v18H0z"/></clipPath></defs></svg>