<svg width="24" height="24" fill="none" xmlns="http://www.w3.org/2000/svg"><path d="M20.473 9.363h-.401a2.425 2.425 0 0 0-.308-1.494 2.438 2.438 0 0 0-2.07-1.212 2.439 2.439 0 0 0-1.212-2.07 2.438 2.438 0 0 0-2.398-.014A2.438 2.438 0 0 0 12 3.387a2.44 2.44 0 0 0-2.084 1.186 2.438 2.438 0 0 0-2.398.015 2.438 2.438 0 0 0-1.212 2.07 2.438 2.438 0 0 0-2.07 1.211 2.425 2.425 0 0 0-.308 1.494h-.4A.527.527 0 0 0 3 9.891v.668a9.01 9.01 0 0 0 4.377 7.722v1.805c0 .291.236.527.527.527h8.192a.527.527 0 0 0 .527-.527V18.28A9.01 9.01 0 0 0 21 10.56v-.67a.527.527 0 0 0-.527-.528zM5.15 8.396c.322-.558 1-.818 1.611-.618a.527.527 0 0 0 .666-.665c-.2-.612.06-1.29.618-1.612a1.376 1.376 0 0 1 1.705.27.527.527 0 0 0 .909-.243A1.376 1.376 0 0 1 12 4.441c.645 0 1.209.457 1.341 1.087a.527.527 0 0 0 .909.244 1.376 1.376 0 0 1 1.705-.27c.559.321.818 1 .618 1.611a.527.527 0 0 0 .666.665 1.37 1.37 0 1 1 1.766 1.585H4.994a1.371 1.371 0 0 1 .155-.967zM15.569 19.56H8.43v-1.055h7.138v1.055zm4.376-9a7.954 7.954 0 0 1-3.988 6.89H8.043a7.954 7.954 0 0 1-3.988-6.89v-.141h15.89v.14z" fill="#2C2C2C"/></svg>