<svg width="24" height="24" fill="none" xmlns="http://www.w3.org/2000/svg"><path d="M20.66 7.88a.275.275 0 0 0-.388.003l-2.938 2.992a3.72 3.72 0 0 0-.057-.349l-.004-.018a3.756 3.756 0 0 0-3.657-2.95c-1.277 0-2.44.637-3.128 1.687l-.975-5.183-.123-.654a.275.275 0 1 0-.54.102l1.043 5.547a2.372 2.372 0 0 0-.119-.037L7.128 3.748a.275.275 0 1 0-.492.246L9.114 8.93a2.38 2.38 0 0 0-1.672.687 2.38 2.38 0 0 0-.689 1.346l-3.025-3.08a.275.275 0 1 0-.392.386l3.092 3.148 1.6 9.172a.275.275 0 0 0 .27.227h7.404a.275.275 0 0 0 .27-.227l1.6-9.172 3.092-3.148a.275.275 0 0 0-.004-.389zm-7.044.228a3.174 3.174 0 0 1 1.302.279 3.22 3.22 0 0 1 1.534 1.452c.185.357.304.753.342 1.172h-.527a2.675 2.675 0 0 0-2.651-2.377 2.674 2.674 0 0 0-2.406 1.518 2.4 2.4 0 0 0-.347-.47 3.178 3.178 0 0 1 2.753-1.574zm.554 2.903a.624.624 0 0 0-.554-.343.624.624 0 0 0-.555.343h-.507c.128-.466.557-.81 1.062-.81.504 0 .933.344 1.061.81h-.507zm1.07 0a1.657 1.657 0 0 0-1.624-1.36c-.808 0-1.486.589-1.625 1.36h-.472a2.124 2.124 0 0 1 2.097-1.828c1.066 0 1.954.798 2.096 1.828h-.472zM9.12 9.479c.905 0 1.669.665 1.82 1.532h-.445a1.402 1.402 0 0 0-1.374-1.096c-.674 0-1.234.464-1.375 1.096h-.444a1.856 1.856 0 0 1 1.819-1.532zm.801 1.532H8.32a.855.855 0 0 1 .8-.546c.366 0 .677.225.801.546zm5.55 9.256H8.528L7.011 11.56h9.978l-1.519 8.707z" fill="#2C2C2C"/><path fill-rule="evenodd" clip-rule="evenodd" d="M20.795 8.397a.459.459 0 0 0-.654-.642l-2.685 2.733A3.937 3.937 0 0 0 13.8 7.379l.224.202a3.74 3.74 0 0 0-.309-.021l-.22-.183a3.905 3.905 0 0 0-2.904 1.42l-.856-4.55-.221-.185-.123-.654.225.203-.045-.237a.458.458 0 1 0-.901.17l.862 4.582-2.24-4.46a.458.458 0 1 0-.819.41l2.353 4.687a2.562 2.562 0 0 0-1.512.723 2.566 2.566 0 0 0-.666 1.107L3.86 7.755a.458.458 0 1 0-.654.642l3.052 3.108 1.59 9.115c.038.22.229.38.451.38h7.404c.222 0 .413-.16.451-.38l1.59-9.115 3.052-3.108zM9.513 4.062l.975 5.183a3.723 3.723 0 0 1 3.226-1.686l.821.684a3.174 3.174 0 0 0-.92-.135 3.177 3.177 0 0 0-2.752 1.574 2.414 2.414 0 0 1 .347.47 2.672 2.672 0 0 1 2.406-1.518 2.675 2.675 0 0 1 2.65 2.377h.528a3.168 3.168 0 0 0-.342-1.171l.825.686a3.739 3.739 0 0 1 .056.35l.164-.167 2.775-2.825a.275.275 0 1 1 .392.385l-3.092 3.148-1.6 9.172a.275.275 0 0 1-.27.227H8.298a.275.275 0 0 1-.27-.227l-1.6-9.172L3.336 8.27a.275.275 0 0 1 .392-.386l3.025 3.08A2.392 2.392 0 0 1 9.114 8.93L6.636 3.994a.275.275 0 1 1 .492-.246L9.774 9.02c.04.011.08.024.12.037L8.848 3.51l.664.552zm7.76 6.446a3.756 3.756 0 0 0-3.25-2.927l.895.806a3.164 3.164 0 0 0-.383-.144l.466.388a2.984 2.984 0 0 0-1.385-.34 2.994 2.994 0 0 0-2.524 1.37c.036.044.072.089.105.134a2.854 2.854 0 0 1 2.419-1.345 2.859 2.859 0 0 1 2.81 2.377h.16a2.997 2.997 0 0 0-.601-1.377l.467.39a3.186 3.186 0 0 0-.077-.141l.898.809zM15 8.63l.984.82A3.035 3.035 0 0 0 15 8.63zm1.375 1.07a3.22 3.22 0 0 0-1.457-1.312L16.375 9.7zm.898.809l.004.018.22.183-.224-.201zm-2.874.32h-.126a.805.805 0 0 0-1.315 0h-.126a.92.92 0 0 1 .784-.444.92.92 0 0 1 .783.443zm-1.845.183a1.105 1.105 0 0 1 1.062-.81 1.104 1.104 0 0 1 1.061.81h-.507a.624.624 0 0 0-.554-.343.624.624 0 0 0-.555.343h-.507zm2.936-.184h-.103a1.84 1.84 0 0 0-1.771-1.36c-.845 0-1.561.579-1.772 1.36h-.103a1.94 1.94 0 0 1 1.875-1.46c.9 0 1.661.623 1.874 1.46zm-3.971.184a2.124 2.124 0 0 1 2.097-1.827 2.124 2.124 0 0 1 2.096 1.827h-.472a1.657 1.657 0 0 0-1.624-1.36c-.808 0-1.486.589-1.625 1.36h-.472zM9.12 9.663c.736 0 1.371.491 1.585 1.164h-.07A1.586 1.586 0 0 0 9.12 9.731c-.709 0-1.307.456-1.515 1.096h-.07A1.673 1.673 0 0 1 9.12 9.663zm1.818 1.348A1.857 1.857 0 0 0 9.12 9.479a1.857 1.857 0 0 0-1.818 1.532h.444a1.402 1.402 0 0 1 1.375-1.096c.673 0 1.233.464 1.374 1.096h.444zm-1.116-.184a.81.81 0 0 1 .098.184h-1.6a.853.853 0 0 1 .8-.546c.292 0 .548.142.703.362zm-.702-.179a.67.67 0 0 1 .459.18H8.66a.673.673 0 0 1 .46-.18zm7.65 1.096l-1.455 8.339H8.684L7.23 11.744h9.54zm-1.3 8.523H8.528L7.011 11.56h9.978l-1.519 8.707z" fill="#2C2C2C"/><path d="M9.513 4.062l.221.184-.12-.635-.224-.203.123.654zm4.51 3.518l-.224-.201a3.956 3.956 0 0 0-.305-.002l.22.183c.104.002.207.01.309.02zm.895.807a3.164 3.164 0 0 0-.383-.144l.466.388c.383.2.719.48.984.82l.467.388a3.186 3.186 0 0 0-.077-.14l-1.457-1.312z" fill="#2C2C2C"/></svg>