<svg width="24" height="24" fill="none" xmlns="http://www.w3.org/2000/svg"><path d="M19.925 16.05h-.787a2.68 2.68 0 0 0-2.347-2.762 2.685 2.685 0 0 0-2.13-2.816v-.017a2.685 2.685 0 0 0-2.132-2.633v-.845h2.93c.292 0 .529-.24.529-.534V3.534a.532.532 0 0 0-.53-.534H12c-.292 0-.53.24-.53.534v4.288a2.685 2.685 0 0 0-2.132 2.633v.017a2.686 2.686 0 0 0-2.123 2.899 2.687 2.687 0 0 0-1.933 2.68H4.075c-.865 0-1.375.981-.883 1.7A3.405 3.405 0 0 0 6 19.235h.51l.196 1.31c.04.26.261.454.524.454h9.54a.531.531 0 0 0 .524-.455l.196-1.309H18c1.12 0 2.17-.556 2.808-1.486.492-.717-.018-1.7-.883-1.7zM18 18.169H6a2.35 2.35 0 0 1-1.94-1.032c0-.004.004-.014.008-.016.001-.001 15.863-.002 15.864 0 .004.002.009.012.009.016 0 .036-.669 1.032-1.941 1.032zm-1.685 1.764h-8.63l-.104-.696h8.838l-.104.695zm-8.373-5.595c.91 0 1.652.772 1.6 1.714h-3.2a1.612 1.612 0 0 1 1.6-1.714zm2.455-3.882c0-.895.723-1.618 1.603-1.618s1.603.723 1.603 1.618v.019A2.663 2.663 0 0 0 12 11.504a2.663 2.663 0 0 0-1.603-1.03v-.019zm1.83 3.882c.922.012 1.639.79 1.587 1.714h-3.2a1.609 1.609 0 0 1 1.614-1.714zm5.852 1.714h-3.2c-.057-1.011.794-1.754 1.622-1.713.898.012 1.63.776 1.578 1.713zm-2.364-2.67a2.669 2.669 0 0 0-1.368.968 2.658 2.658 0 0 0-1.803-1.06 1.614 1.614 0 0 1 1.592-1.801c.991 0 1.75.904 1.58 1.894zm-5.851-1.893c1 0 1.75.914 1.578 1.896a2.67 2.67 0 0 0-1.364.97 2.658 2.658 0 0 0-1.806-1.064 1.614 1.614 0 0 1 1.592-1.802zm2.665-5.58v-.385h2.4v.386h-2.4zm2.4-1.454h-2.4v-.386h2.4v.386z" fill="#2C2C2C"/></svg>