<svg width="24" height="25" fill="none" xmlns="http://www.w3.org/2000/svg"><path d="M20.14 14.814A16.273 16.273 0 0 0 9.153 3.651L8.648 3.5l-4.93 16.585 4.489-1.292v1.084c0 .895.728 1.623 1.623 1.623.894 0 1.622-.728 1.622-1.623v-.038h.487c.94 0 1.704-.764 1.704-1.704v-.906l6.64-1.91-.143-.505zM10.397 8.01v.028a1.296 1.296 0 0 1-2.255.866l.502-1.69c.606.222 1.191.489 1.753.796zm2.191 8.426v1.7a.65.65 0 0 1-.649.65h-.487v-1.058h-1.055v2.15a.569.569 0 0 1-1.135 0v-2.485l-3.984 1.146 2.537-8.535a2.353 2.353 0 0 0 3.567-1.398 13.363 13.363 0 0 1 5.204 6.68l-3.998 1.15zm5.013-1.442a14.33 14.33 0 0 0-3.333-5.378A14.336 14.336 0 0 0 8.946 6.2l.409-1.377c4.54 1.534 8.16 5.213 9.62 9.776l-1.374.395z" fill="#2C2C2C"/><path d="M10.805 12.374a1.79 1.79 0 0 0-1.788 1.788 1.79 1.79 0 0 0 1.788 1.788 1.79 1.79 0 0 0 1.788-1.787 1.79 1.79 0 0 0-1.788-1.789zm0 2.522a.734.734 0 1 1 .001-1.468.734.734 0 0 1-.001 1.468zm-4.05 1.281l1.509-.843.515.92-1.509.844-.515-.92zm6.58-2.984l1.047-.127.207 1.716-1.047.127-.207-1.716zm-2.417-2.734l1.728-.035.021 1.055-1.728.035-.02-1.055zm-2.727.719h1.086v1.087H8.191v-1.087z" fill="#2C2C2C"/></svg>