<svg width="24" height="24" fill="none" xmlns="http://www.w3.org/2000/svg"><mask id="a" maskUnits="userSpaceOnUse" x="12.588" y="5.277" width="3" height="3" fill="#000"><path fill="#2C2C2C" d="M12.588 5.277h3v3h-3z"/><path d="M14.432 7.048a.352.352 0 0 0-.04-.496l-.224-.19a.352.352 0 1 0-.456.534l.224.191a.35.35 0 0 0 .496-.04z"/></mask><path d="M14.432 7.048a.352.352 0 0 0-.04-.496l-.224-.19a.352.352 0 1 0-.456.534l.224.191a.35.35 0 0 0 .496-.04z" fill="#2C2C2C"/><path d="M14.432 7.048l-.152-.13.152.13zm-.04-.496l-.13.152.13-.152zm-.224-.19l.13-.153-.13.152zm-.495.039l-.153-.13.152.13zm.04.495l.129-.152-.13.152zm.223.191l-.13.153.13-.153zm.648.09a.552.552 0 0 0-.062-.777l-.26.304c.064.055.072.15.018.214l.304.26zm-.062-.777l-.224-.191-.26.304.224.191.26-.304zm-.224-.191a.552.552 0 0 0-.778.062l.305.26a.152.152 0 0 1 .214-.018l.259-.304zm-.778.062a.552.552 0 0 0 .063.778l.259-.305a.152.152 0 0 1-.017-.214l-.305-.259zm.062.778l.224.19.26-.304-.224-.19-.26.304zm.225.19a.55.55 0 0 0 .357.132v-.4a.15.15 0 0 1-.098-.036l-.26.305zm.357.132a.55.55 0 0 0 .42-.194l-.304-.26a.151.151 0 0 1-.116.054v.4z" fill="#2C2C2C" mask="url(#a)"/><path d="M15.103 9.18a.452.452 0 0 0-.051-.637h0l-.224-.19h0a.451.451 0 0 0-.637.05l.076.065m.836.712a.45.45 0 0 1-.637.051s0 0 0 0 0 0 0 0l-.224-.19s0 0 0 0a.452.452 0 0 1-.05-.638l.075.065m.836.712s0 0 0 0l-.076-.065.076.065s0 0 0 0zm-.836-.712a.352.352 0 0 0 .04.496l.456-.535a.352.352 0 0 0-.496.04z" fill="#2C2C2C" stroke="#2C2C2C" stroke-width=".2"/><path d="M7.198 7.734h0a3.431 3.431 0 0 1 3.324-.727 13.633 13.633 0 0 1 1.682-1.817 3.432 3.432 0 0 1 4.598 0c.745.67 1.417 1.424 1.999 2.244a.452.452 0 0 1-.107.63s0 0 0 0l-11.496-.33zm0 0a13.616 13.616 0 0 0-2.69 3.322 13.61 13.61 0 0 0-1.532 3.99 3.433 3.433 0 0 0 2.299 3.983l.03-.092-.03.092c1.363.444 2.784.669 4.222.669 1.438 0 2.86-.225 4.222-.669a3.43 3.43 0 0 0 2.108-1.939c.986-.096 1.96-.299 2.898-.605a3.432 3.432 0 0 0 2.3-3.982 13.638 13.638 0 0 0-.802-2.531l-.092.04M7.198 7.733L20.13 10.01m0 0l.092-.04a.452.452 0 0 0-.593-.237m.501.277l-.5-.277M5.554 18.17h0c.246.08.494.152.745.217V15.15a.82.82 0 0 1 .818-.818h4.758a.82.82 0 0 1 .819.818v3.236c.25-.065.499-.137.745-.217m-7.885 0l7.916.095m-7.916-.095a2.53 2.53 0 0 1-1.696-2.936 12.826 12.826 0 0 1 3.943-6.829 2.53 2.53 0 0 1 3.39 0 12.826 12.826 0 0 1 3.943 6.829l.087-.019-.087.019c.092.436.067.87-.055 1.27M5.555 18.17l9.525-1.666m-1.64 1.666l.03.095m-.03-.095s0 0 0 0l.03.095m-.03-.095a2.53 2.53 0 0 0 1.627-1.627m-1.596 1.722a2.63 2.63 0 0 0 1.691-1.693m-.095-.029v.003l.095.026m-.095-.029a.437.437 0 0 1 .013-.039m-.013.04v-.003l.095.031m0 0l-.082-.068m4.55-6.77a.452.452 0 0 0-.237.593l.237-.593zm.51 2.957a12.749 12.749 0 0 0-.747-2.364l.748 2.364zm0 0a2.53 2.53 0 0 1-1.694 2.936m1.695-2.937l-1.695 2.937m0 0c-.246.08-.495.152-.745.217m.745-.217l-.745.217m0 0v-3.236a.82.82 0 0 0-.819-.819h-2.001a13.675 13.675 0 0 0-2.018-2.983l.078-.064h0l-.063-.077m4.823 7.18L12.93 8.17m-.052.495a.352.352 0 0 0 .053-.495m-.053.495l-.083.066.083-.066zm.053-.495l.077-.063m-.078.063l.078-.063s0 0 0 0m0 0a.452.452 0 0 0-.635-.068m.635.068l-.635-.068M11.361 7.4c.439-.552.924-1.068 1.447-1.538a2.53 2.53 0 0 1 3.39 0c.696.625 1.323 1.33 1.866 2.094 0 0 0 0 0 0l.082-.057L11.36 7.4zm0 0c.151.098.297.21.435.334l-.435-.334zm1.013.64l-.136.11.136-.11zm.32 10.45l-.1.025v-.103l.1.078zm3.325-3.443h0a13.59 13.59 0 0 0-.728-2.354h1.506v3.35c-.24.044-.483.081-.726.111.042-.36.027-.734-.052-1.107zm-8.816 3.538v-3.349h4.588v3.349a12.895 12.895 0 0 1-4.588 0z" fill="#2C2C2C" stroke="#2C2C2C" stroke-width=".2"/><path d="M9.502 9.656a.451.451 0 0 0-.05-.637l-.225-.19h0a.452.452 0 0 0-.636.05l.076.065-.076-.065a.451.451 0 0 0 .05.637h0l.224.19m.637-.05a.45.45 0 0 1-.637.05m.637-.05s0 0 0 0l-.076-.065.076.065s0 0 0 0zm-.637.05l.065-.075-.064.076h0zm.81 1.803h0a.45.45 0 0 1 .051.636l-.05-.636zm0 0l-.224-.191m.224.19l-.224-.19m-.362.878h0l-.224-.19s0 0 0 0a.452.452 0 0 1-.05-.637l.274.827zm0 0a.45.45 0 0 0 .293.108m-.293-.108l.293.108m.07-.986s0 0 0 0m0 0h0m0 0a.451.451 0 0 0-.637.05l.636-.05zm-.07.986a.45.45 0 0 0 .344-.159l-.344.159zm-2.335-1.451h0a.452.452 0 0 1 .566.704s0 0 0 0l-.221.178h0l-.063-.077a.35.35 0 0 1-.494-.053.352.352 0 0 1 .053-.495l.159-.257zm0 0l-.222.18m.222-.18l-.222.18m0 0s0 0 0 0h0zm12.681-1.826h0a.455.455 0 0 0 0-.64h0a.454.454 0 0 0-.639 0h0a.454.454 0 0 0 0 .64.454.454 0 0 0 .639 0z" fill="#2C2C2C" stroke="#2C2C2C" stroke-width=".2"/></svg>