<svg width="24" height="24" fill="none" xmlns="http://www.w3.org/2000/svg"><path d="M20.843 3.157a.538.538 0 0 0-.76 0L18.75 4.49a2.607 2.607 0 0 0-3.228.34 2.606 2.606 0 0 0-.34 3.228l-.354.354-1.159-1.16a1.845 1.845 0 0 0-2.584 0 1.845 1.845 0 0 0 0 2.585l1.16 1.16-.523.522-.855-.855a.537.537 0 0 0-.76 0l-2.47 2.47c-.21.21-.21.55 0 .76l.854.855-.874.874-.494-.494a.543.543 0 0 0-.76 0l-1.406 1.406-1.444 1.445a1.79 1.79 0 0 0 0 2.508 1.792 1.792 0 0 0 2.508 0l2.85-2.85c.21-.21.21-.55 0-.76l-.494-.494.874-.875.855.855a.543.543 0 0 0 .76 0l2.47-2.47c.21-.21.21-.55 0-.76l-.854-.855.522-.522 1.16 1.159c.754.754 2.03.689 2.706-.136a1.846 1.846 0 0 0-.122-2.449l-1.16-1.16.354-.353a2.606 2.606 0 0 0 3.404-.534 2.607 2.607 0 0 0 .164-3.034l1.333-1.332c.21-.21.21-.55 0-.76-.21-.21.21.21 0 0zM5.26 19.728a.7.7 0 0 1-.988 0 .705.705 0 0 1 0-.988l1.064-1.064.988.988-1.064 1.064zm1.824-1.824l-.988-.988.646-.646.988.988-.646.646zm3.401-2.68l-1.71-1.71 1.71-1.71 1.71 1.71-1.71 1.71zm5.502-3.069a.76.76 0 0 1-1.064 0l-3.079-3.078c-.686-.687.378-1.75 1.064-1.064l3.079 3.078a.753.753 0 0 1 0 1.064c.293-.293-.143.143 0 0zm2.422-4.437c-.94.94-2.597.23-2.567-1.098.032-1.446 1.984-2 2.769-.78a1.52 1.52 0 0 1-.202 1.878c.587-.587-.586.587 0 0z" fill="#2C2C2C"/></svg>