<svg width="24" height="24" fill="none" xmlns="http://www.w3.org/2000/svg"><mask id="a" maskUnits="userSpaceOnUse" x="6.781" y="2" width="10" height="20" fill="#000"><path fill="#2C2C2C" d="M6.781 2h10v20h-10z"/><path d="M15.993 7.788c.209-.49.336-1.322-.293-1.951-.186-.186-.43-.3-.694-.406l.194-.388a.546.546 0 0 0-.244-.732l-.633-.317a.544.544 0 0 0-.721.223l-.066.119a1.898 1.898 0 0 1-.04-.103C13.137 3.214 12.486 3 12.002 3c-.566 0-.876.216-1.15.407-.247.173-.443.31-.834.31-1.485 0-1.656.935-1.672 1.222-.012.194.023.369.055.523.062.307.103.51-.176.82-.48.53-.398 1.104-.213 1.487a.541.541 0 0 0-.23.446v11.958c0 .456.37.827.827.827h6.763a.828.828 0 0 0 .828-.827V8.215a.54.54 0 0 0-.207-.427zm-2.99 3.88a18.163 18.163 0 0 1 2.67 3.503v2.504c-1.795-1.294-3.668-2.128-4.964-2.61a20.42 20.42 0 0 0-2.4-.74v-6.11c0-.004 0-.01.008-.015a.018.018 0 0 1 .02 0c.745.37 2.239 1.212 3.864 2.692a.263.263 0 1 0 .355-.39l-.161-.145c1.393-1.163 2.623-1.847 3.25-2.158a.02.02 0 0 1 .02 0c.007.006.007.012.007.016v5.952a18.743 18.743 0 0 0-2.29-2.866.264.264 0 0 0-.378.368zm-1.876-4.672c0-.156.06-.302.17-.412l.153-.152a.296.296 0 0 1 .229-.088.297.297 0 0 1 .217.112l.579.724a1.667 1.667 0 0 0 .066 2.38c-.18.142-.364.29-.55.447a18.35 18.35 0 0 0-.732-.585 1.248 1.248 0 0 0-.132-1.989v-.437zm3.665 1.059a17.64 17.64 0 0 0-1.821 1.18 1.147 1.147 0 1 1 1.82-1.18zm-4.957-.673l-.527-1.055a.3.3 0 0 1 .056-.346l.249-.249a.016.016 0 0 1 .017-.005c.01.003.011.009.013.012l.566 1.51c-.133.024-.26.07-.374.133zm.605.373a.724.724 0 0 1 .377 1.34 18.07 18.07 0 0 0-1.09-.725.718.718 0 0 1 .713-.615zm4.887-1.545c.59.59.174 1.398.117 1.501a11.682 11.682 0 0 0-.178.088 1.669 1.669 0 0 0-.94-1.007l.444-.888c.233.092.432.18.557.306zm-1.24-1.744l.633.317a.018.018 0 0 1 .009.024l-.931 1.861a1.663 1.663 0 0 0-.903.193l-.094-.117 1.262-2.271a.018.018 0 0 1 .024-.007zm-5.215.504c.028-.475.424-.726 1.146-.726.557 0 .864-.215 1.136-.404.24-.168.448-.313.848-.313.686 0 .92.663.996.881.06.172.14.331.234.474L12.445 6.3l-.137-.172a.824.824 0 0 0-.06-.067l.333-1.332a.264.264 0 1 0-.512-.128l-.306 1.223a.833.833 0 0 0-.25.007l-.33-.953a.264.264 0 1 0-.498.173l.36 1.04-.12.121a1.102 1.102 0 0 0-.312.613l-.476-1.27a.543.543 0 0 0-.897-.195l-.249.25a.233.233 0 0 0-.026.028 3.034 3.034 0 0 0-.047-.28 1.523 1.523 0 0 1-.046-.387zm-.255 1.664a1.67 1.67 0 0 0 .164-.213.832.832 0 0 0 .055.142l.59 1.18a1.246 1.246 0 0 0-.175.347 14.142 14.142 0 0 0-.623-.334.258.258 0 0 0-.02-.026c-.048-.057-.461-.575.009-1.096zm6.755 13.839H8.61a.3.3 0 0 1-.3-.3v-5.305c1.028.254 4.388 1.21 7.363 3.463v1.842a.3.3 0 0 1-.3.3z"/></mask><path d="M15.993 7.788c.209-.49.336-1.322-.293-1.951-.186-.186-.43-.3-.694-.406l.194-.388a.546.546 0 0 0-.244-.732l-.633-.317a.544.544 0 0 0-.721.223l-.066.119a1.898 1.898 0 0 1-.04-.103C13.137 3.214 12.486 3 12.002 3c-.566 0-.876.216-1.15.407-.247.173-.443.31-.834.31-1.485 0-1.656.935-1.672 1.222-.012.194.023.369.055.523.062.307.103.51-.176.82-.48.53-.398 1.104-.213 1.487a.541.541 0 0 0-.23.446v11.958c0 .456.37.827.827.827h6.763a.828.828 0 0 0 .828-.827V8.215a.54.54 0 0 0-.207-.427zm-2.99 3.88a18.163 18.163 0 0 1 2.67 3.503v2.504c-1.795-1.294-3.668-2.128-4.964-2.61a20.42 20.42 0 0 0-2.4-.74v-6.11c0-.004 0-.01.008-.015a.018.018 0 0 1 .02 0c.745.37 2.239 1.212 3.864 2.692a.263.263 0 1 0 .355-.39l-.161-.145c1.393-1.163 2.623-1.847 3.25-2.158a.02.02 0 0 1 .02 0c.007.006.007.012.007.016v5.952a18.743 18.743 0 0 0-2.29-2.866.264.264 0 0 0-.378.368zm-1.876-4.672c0-.156.06-.302.17-.412l.153-.152a.296.296 0 0 1 .229-.088.297.297 0 0 1 .217.112l.579.724a1.667 1.667 0 0 0 .066 2.38c-.18.142-.364.29-.55.447a18.35 18.35 0 0 0-.732-.585 1.248 1.248 0 0 0-.132-1.989v-.437zm3.665 1.059a17.64 17.64 0 0 0-1.821 1.18 1.147 1.147 0 1 1 1.82-1.18zm-4.957-.673l-.527-1.055a.3.3 0 0 1 .056-.346l.249-.249a.016.016 0 0 1 .017-.005c.01.003.011.009.013.012l.566 1.51c-.133.024-.26.07-.374.133zm.605.373a.724.724 0 0 1 .377 1.34 18.07 18.07 0 0 0-1.09-.725.718.718 0 0 1 .713-.615zm4.887-1.545c.59.59.174 1.398.117 1.501a11.682 11.682 0 0 0-.178.088 1.669 1.669 0 0 0-.94-1.007l.444-.888c.233.092.432.18.557.306zm-1.24-1.744l.633.317a.018.018 0 0 1 .009.024l-.931 1.861a1.663 1.663 0 0 0-.903.193l-.094-.117 1.262-2.271a.018.018 0 0 1 .024-.007zm-5.215.504c.028-.475.424-.726 1.146-.726.557 0 .864-.215 1.136-.404.24-.168.448-.313.848-.313.686 0 .92.663.996.881.06.172.14.331.234.474L12.445 6.3l-.137-.172a.824.824 0 0 0-.06-.067l.333-1.332a.264.264 0 1 0-.512-.128l-.306 1.223a.833.833 0 0 0-.25.007l-.33-.953a.264.264 0 1 0-.498.173l.36 1.04-.12.121a1.102 1.102 0 0 0-.312.613l-.476-1.27a.543.543 0 0 0-.897-.195l-.249.25a.233.233 0 0 0-.026.028 3.034 3.034 0 0 0-.047-.28 1.523 1.523 0 0 1-.046-.387zm-.255 1.664a1.67 1.67 0 0 0 .164-.213.832.832 0 0 0 .055.142l.59 1.18a1.246 1.246 0 0 0-.175.347 14.142 14.142 0 0 0-.623-.334.258.258 0 0 0-.02-.026c-.048-.057-.461-.575.009-1.096zm6.755 13.839H8.61a.3.3 0 0 1-.3-.3v-5.305c1.028.254 4.388 1.21 7.363 3.463v1.842a.3.3 0 0 1-.3.3z" fill="#2C2C2C"/><path d="M15.993 7.788c.209-.49.336-1.322-.293-1.951-.186-.186-.43-.3-.694-.406l.194-.388a.546.546 0 0 0-.244-.732l-.633-.317a.544.544 0 0 0-.721.223l-.066.119a1.898 1.898 0 0 1-.04-.103C13.137 3.214 12.486 3 12.002 3c-.566 0-.876.216-1.15.407-.247.173-.443.31-.834.31-1.485 0-1.656.935-1.672 1.222-.012.194.023.369.055.523.062.307.103.51-.176.82-.48.53-.398 1.104-.213 1.487a.541.541 0 0 0-.23.446v11.958c0 .456.37.827.827.827h6.763a.828.828 0 0 0 .828-.827V8.215a.54.54 0 0 0-.207-.427v0zm-2.99 3.88a18.163 18.163 0 0 1 2.67 3.503v2.504c-1.795-1.294-3.668-2.128-4.964-2.61a20.42 20.42 0 0 0-2.4-.74v-6.11c0-.004 0-.01.008-.015a.018.018 0 0 1 .02 0c.745.37 2.239 1.212 3.864 2.692a.263.263 0 1 0 .355-.39l-.161-.145c1.393-1.163 2.623-1.847 3.25-2.158a.02.02 0 0 1 .02 0c.007.006.007.012.007.016v5.952a18.743 18.743 0 0 0-2.29-2.866.264.264 0 0 0-.378.368v0zm-1.876-4.672c0-.156.06-.302.17-.412l.153-.152a.296.296 0 0 1 .229-.088.297.297 0 0 1 .217.112l.579.724a1.667 1.667 0 0 0 .066 2.38c-.18.142-.364.29-.55.447a18.35 18.35 0 0 0-.732-.585 1.248 1.248 0 0 0-.132-1.989v-.437zm3.665 1.059a17.64 17.64 0 0 0-1.821 1.18 1.147 1.147 0 1 1 1.82-1.18zm-4.957-.673l-.527-1.055a.3.3 0 0 1 .056-.346l.249-.249a.016.016 0 0 1 .017-.005c.01.003.011.009.013.012l.566 1.51c-.133.024-.26.07-.374.133zm.605.373a.724.724 0 0 1 .377 1.34 18.07 18.07 0 0 0-1.09-.725.718.718 0 0 1 .713-.615zm4.887-1.545c.59.59.174 1.398.117 1.501a11.682 11.682 0 0 0-.178.088 1.669 1.669 0 0 0-.94-1.007l.444-.888c.233.092.432.18.557.306zm-1.24-1.744l.633.317a.018.018 0 0 1 .009.024l-.931 1.861a1.663 1.663 0 0 0-.903.193l-.094-.117 1.262-2.271a.018.018 0 0 1 .024-.007zm-5.215.504c.028-.475.424-.726 1.146-.726.557 0 .864-.215 1.136-.404.24-.168.448-.313.848-.313.686 0 .92.663.996.881.06.172.14.331.234.474L12.445 6.3l-.137-.172a.824.824 0 0 0-.06-.067l.333-1.332a.264.264 0 1 0-.512-.128l-.306 1.223a.833.833 0 0 0-.25.007l-.33-.953a.264.264 0 1 0-.498.173l.36 1.04-.12.121a1.102 1.102 0 0 0-.312.613l-.476-1.27a.543.543 0 0 0-.897-.195l-.249.25a.233.233 0 0 0-.026.028 3.034 3.034 0 0 0-.047-.28 1.523 1.523 0 0 1-.046-.387zm-.255 1.664a1.67 1.67 0 0 0 .164-.213.832.832 0 0 0 .055.142l.59 1.18a1.246 1.246 0 0 0-.175.347 14.142 14.142 0 0 0-.623-.334.258.258 0 0 0-.02-.026c-.048-.057-.461-.575.009-1.096zm6.755 13.839H8.61a.3.3 0 0 1-.3-.3v-5.305c1.028.254 4.388 1.21 7.363 3.463v1.842a.3.3 0 0 1-.3.3z" stroke="#2C2C2C" stroke-width=".6" mask="url(#a)"/></svg>