<svg width="24" height="24" fill="none" xmlns="http://www.w3.org/2000/svg"><path d="M8.407 7.54c-.111-.95.437-1.438.879-1.832.385-.34.622-.569.617-.956 0-.842-1.026-1-1.07-1a.28.28 0 1 1 .075-.555c.535.069 1.55.493 1.55 1.55 0 .642-.419 1.022-.784 1.354l-.023.021c-.417.37-.776.691-.698 1.354.126 1.062 1.177 1.083 1.222 1.083a.278.278 0 0 1 0 .555c-.548-.004-1.622-.337-1.768-1.573zM7.394 9.43a.278.278 0 0 0 .218-.45c-1.382-1.747.147-3.1.213-3.157a.278.278 0 0 0-.36-.423c-.021.017-2.007 1.754-.29 3.925a.278.278 0 0 0 .219.106zm4.167 4.62a.282.282 0 0 0-.555.096v.001c.015.083.323 1.753 1.42 2.972a.278.278 0 1 0 .413-.37c-.985-1.105-1.276-2.684-1.278-2.7zm2.899-4.18c-.002.02-.131 2.058 1.411 3.293h-.002a.276.276 0 0 1 .043.39.278.278 0 0 1-.39.043c-1.703-1.361-1.627-3.49-1.618-3.747l.001-.022a.278.278 0 1 1 .555.043z" fill="#2C2C2C"/><path fill-rule="evenodd" clip-rule="evenodd" d="M17.182 12.002a3.859 3.859 0 0 1-1.733-3.24.278.278 0 0 0-.278-.277h-2.943a.278.278 0 0 0-.278.277c0 .484-.117.96-.34 1.389H8.831a.278.278 0 0 0-.277.278 3.856 3.856 0 0 1-1.739 3.24c-1.17.771-1.84 1.891-1.84 3.074 0 2.24 2.388 4.062 5.323 4.062 1.807 0 3.406-.692 4.369-1.746h.057c2.49-.392 4.299-2.058 4.299-3.99 0-1.182-.672-2.302-1.842-3.067zm-6.883 8.24c-2.63 0-4.767-1.573-4.767-3.506 0-.992.579-1.944 1.59-2.61a4.406 4.406 0 0 0 1.973-3.42h.758c-.036.654-.215 2.805-1.063 3.655a.28.28 0 1 0 .398.392c1.009-1.009 1.194-3.37 1.227-4.047h1.087a4.407 4.407 0 0 0 1.973 3.418c1.011.666 1.59 1.618 1.59 2.61 0 1.933-2.137 3.508-4.766 3.508zm4.854-1.85a3.251 3.251 0 0 0 .468-1.667c0-1.183-.67-2.303-1.84-3.075a3.855 3.855 0 0 1-1.731-3.162 3.51 3.51 0 0 0 .444-1.448h2.407a4.406 4.406 0 0 0 1.975 3.418c1.011.666 1.59 1.618 1.59 2.61.002 1.52-1.366 2.858-3.313 3.33v-.007z" fill="#2C2C2C"/><path fill-rule="evenodd" clip-rule="evenodd" d="M9.708 4.755c.004.285-.154.458-.55.807l-.01.008c-.44.393-1.058.943-.935 1.993.08.68.42 1.12.818 1.388a2.16 2.16 0 0 0 1.142.358h.002a.472.472 0 1 0 0-.945h-.012a.844.844 0 0 1-.147-.017 1.28 1.28 0 0 1-.337-.106c-.235-.115-.479-.334-.533-.788a.954.954 0 0 1 .135-.66c.115-.181.286-.336.5-.525l.024-.023.015-.013c.356-.324.833-.757.833-1.485 0-.6-.292-1.024-.65-1.3a2.322 2.322 0 0 0-1.07-.443.475.475 0 1 0-.104.943h-.005l.032.006a1.49 1.49 0 0 1 .434.155c.227.125.418.32.418.644v.003zm-.876-.807H8.83zM8.6 3.546a.28.28 0 0 1 .31-.349c.534.069 1.549.493 1.549 1.55 0 .642-.419 1.022-.784 1.354l-.023.021c-.417.37-.776.691-.698 1.354.126 1.062 1.177 1.083 1.222 1.083a.278.278 0 0 1 0 .555c-.548-.004-1.622-.337-1.768-1.573-.111-.95.437-1.439.879-1.833.385-.34.622-.569.617-.956 0-.842-1.026-1-1.07-1a.28.28 0 0 1-.234-.206zm-.928 5.577a.278.278 0 0 0-.059-.142c-1.382-1.748.147-3.101.213-3.158a.278.278 0 0 0-.36-.423c-.021.017-2.007 1.754-.29 3.925a.278.278 0 0 0 .496-.202zm.445-3.475a.472.472 0 0 1-.164.322 2.376 2.376 0 0 0-.595.868c-.195.505-.237 1.206.408 2.022a.472.472 0 1 1-.742.586C6.116 8.3 6.18 7.247 6.487 6.482c.293-.728.8-1.186.85-1.23a.472.472 0 0 1 .779.396zm7.252 2.918a.278.278 0 0 1 .081.196 3.86 3.86 0 0 0 1.733 3.24c1.17.765 1.842 1.885 1.842 3.068 0 1.93-1.809 3.597-4.299 3.99h-.057c-.963 1.053-2.562 1.745-4.37 1.745-2.934 0-5.322-1.822-5.322-4.062 0-1.183.67-2.303 1.84-3.075a3.856 3.856 0 0 0 1.739-3.24.278.278 0 0 1 .277-.277h2.777a3.002 3.002 0 0 0 .341-1.389.278.278 0 0 1 .278-.277h2.943c.074 0 .145.029.197.081zm.709 1.944c.287.537.704.994 1.212 1.33 1.213.793 1.93 1.969 1.93 3.23 0 2.064-1.92 3.781-4.464 4.182C13.745 20.316 12.118 21 10.299 21c-1.506 0-2.88-.467-3.88-1.23-1-.764-1.638-1.833-1.638-3.027 0-1.26.715-2.437 1.928-3.237A3.663 3.663 0 0 0 8.36 10.43v-.001a.473.473 0 0 1 .472-.473h2.657c.175-.373.266-.78.266-1.194a.472.472 0 0 1 .473-.472h2.943a.472.472 0 0 1 .473.472v.001c-.003.61.146 1.21.433 1.747zm-.261 6.216v-.001c0-1.261-.715-2.437-1.928-3.238a3.66 3.66 0 0 1-1.642-2.95 3.76 3.76 0 0 0 .424-1.302h2.051a4.603 4.603 0 0 0 2.048 3.385c.97.64 1.503 1.536 1.503 2.448.002 1.288-1.08 2.485-2.745 3.023.188-.43.287-.894.289-1.365zm-3.293-4.442a3.87 3.87 0 0 0 1.258 1.366c1.17.772 1.84 1.892 1.84 3.075a3.251 3.251 0 0 1-.468 1.666v.008l.009-.003.021-.005c.077-.019.153-.04.229-.061 1.809-.524 3.056-1.81 3.055-3.262 0-.992-.58-1.944-1.59-2.61A4.407 4.407 0 0 1 14.9 9.04h-2.407a3.542 3.542 0 0 1-.444 1.448c.009.628.171 1.245.473 1.796zm-.77 1.732l.002.01v.006c.011.051.084.413.26.892.19.521.498 1.165.966 1.692a.472.472 0 1 1-.703.63c-1.132-1.26-1.447-2.971-1.463-3.064l-.001-.003a.477.477 0 0 1 .94-.162zm.76 3.175a.278.278 0 0 1-.087-.072c-1.097-1.219-1.405-2.89-1.42-2.972a.282.282 0 0 1 .555-.097c.002.015.293 1.594 1.278 2.699a.278.278 0 0 1-.327.442zm3.358-4.026v-.001l-.002-.001h.002l-.002-.002c-.05-.04-.1-.082-.147-.125-.999-.896-1.214-2.137-1.256-2.766a3.26 3.26 0 0 1-.006-.4.279.279 0 0 0-.555-.043v.022a1.372 1.372 0 0 0-.003.107c-.007.511.064 2.396 1.62 3.64a.276.276 0 0 0 .39-.042.276.276 0 0 0-.04-.39zm.122-.154a.474.474 0 0 1-.07.783.472.472 0 0 1-.524-.046c-1.768-1.414-1.7-3.611-1.69-3.899v-.007l.001-.013v-.017a.473.473 0 1 1 .945.072v.004c-.002.016-.012.206.016.496.017.178.048.395.105.631.154.64.49 1.414 1.217 1.996z" fill="#2C2C2C"/><path fill-rule="evenodd" clip-rule="evenodd" d="M15.368 8.566a.278.278 0 0 1 .081.196 3.86 3.86 0 0 0 1.733 3.24c1.17.765 1.842 1.885 1.842 3.068 0 1.93-1.809 3.597-4.299 3.99h-.057c-.963 1.053-2.562 1.745-4.37 1.745-2.934 0-5.322-1.822-5.322-4.062 0-1.183.67-2.303 1.84-3.075a3.856 3.856 0 0 0 1.739-3.24.278.278 0 0 1 .277-.277h2.777a3.002 3.002 0 0 0 .341-1.389.278.278 0 0 1 .278-.277h2.943c.074 0 .145.029.197.081zM13.78 13.65a3.855 3.855 0 0 1-1.731-3.162 3.517 3.517 0 0 0 .444-1.448H14.9a4.404 4.404 0 0 0 1.975 3.418c1.011.666 1.59 1.618 1.59 2.61.002 1.452-1.245 2.738-3.054 3.262a6.164 6.164 0 0 1-.229.061l-.021.005-.01.002v-.007a3.246 3.246 0 0 0 .47-1.666c0-1.183-.671-2.303-1.841-3.075zm-5.129.573v.001a.475.475 0 0 0 .674.667c.546-.546.854-1.436 1.032-2.244a12.08 12.08 0 0 0 .241-1.746h.723a4.602 4.602 0 0 0 2.046 3.386c.97.639 1.503 1.535 1.503 2.447 0 .89-.492 1.714-1.318 2.322-.827.609-1.977.992-3.254.992s-2.428-.383-3.254-.99c-.827-.609-1.319-1.433-1.319-2.322 0-.912.533-1.808 1.503-2.448a4.601 4.601 0 0 0 2.046-3.387h.37a12.4 12.4 0 0 1-.08.77c-.032.235-.074.49-.13.748-.154.723-.402 1.423-.783 1.804zm3.103-.197l-.002-.01a.476.476 0 1 0-.939.163v.003c.018.093.332 1.804 1.464 3.064a.474.474 0 1 0 .703-.63c-.468-.527-.776-1.171-.967-1.692a6.263 6.263 0 0 1-.258-.892l-.001-.006z" fill="#2C2C2C"/></svg>