<svg width="24" height="24" fill="none" xmlns="http://www.w3.org/2000/svg"><path d="M7.909 11.59a.409.409 0 1 0-.818 0c0 1.075 1.185 2.55 1.32 2.715a.41.41 0 0 0 .633-.52c-.439-.534-1.135-1.602-1.135-2.194zm8.591-.408a.409.409 0 0 0-.41.409c0 .59-.695 1.66-1.134 2.195a.41.41 0 0 0 .633.52c.135-.166 1.32-1.64 1.32-2.715a.409.409 0 0 0-.409-.41zm-4.5 0a.409.409 0 0 0-.41.409v2.454a.409.409 0 1 0 .82 0v-2.454a.409.409 0 0 0-.41-.41z" fill="#2C2C2C"/><path d="M16.5 4.636c-.248 0-.507.033-.776.083A4.896 4.896 0 0 0 12 3c-1.49 0-2.823.669-3.724 1.72a4.29 4.29 0 0 0-.776-.084 4.505 4.505 0 0 0-4.5 4.5c0 1.7.959 3.246 2.464 4.01l-.008 6.183c0 .446.173.866.488 1.181.316.316.735.49 1.181.49h9.751c.92 0 1.67-.749 1.67-1.67v-6.19A4.5 4.5 0 0 0 21 9.137c0-2.48-2.019-4.5-4.5-4.5zm1.227 14.695a.852.852 0 0 1-.85.85H7.124a.846.846 0 0 1-.602-.249.845.845 0 0 1-.249-.602l.002-1.603h11.451v1.604zm.253-6.827a.403.403 0 0 0-.249.319.393.393 0 0 0-.004.068v4.018H6.277l.006-4.012a.422.422 0 0 0-.069-.237.405.405 0 0 0-.186-.152 3.681 3.681 0 0 1-2.21-3.372A3.686 3.686 0 0 1 7.5 5.455c.08 0 .163.01.245.016a4.873 4.873 0 0 0-.654 2.438.409.409 0 1 0 .818 0A4.096 4.096 0 0 1 12 3.82a4.096 4.096 0 0 1 4.09 4.09.409.409 0 1 0 .82 0 4.87 4.87 0 0 0-.655-2.438c.082-.007.166-.016.245-.016a3.686 3.686 0 0 1 3.682 3.681 3.682 3.682 0 0 1-2.201 3.368z" fill="#2C2C2C"/></svg>