<svg  viewBox="-48 0 480 480" width="55" heigth="55" fill="#0084ff" xmlns="http://www.w3.org/2000/svg"><path d="m384.03125 8c0-4.417969-3.582031-8-8-8h-288c-.167969 0-.320312.0898438-.496094.0976562-.707031.0429688-1.402344.1835938-2.070312.4140628-.257813.089843-.496094.152343-.746094.265625-.871094.386718-1.664062.929687-2.34375 1.597656l-80 80c-.667969.679688-1.210938 1.472656-1.597656 2.34375-.113282.242188-.175782.496094-.265625.746094-.230469.667968-.371094 1.363281-.4140628 2.070312 0 .175782-.0976562.328125-.0976562.496094v255.96875h16v-248h72c4.417969 0 8-3.582031 8-8v-72h272.03125v328h16zm-304 72h-52.6875l52.6875-52.6875zm0 0"/><path d="m384.03125 368c0-4.417969-3.582031-8-8-8h-368c-4.417969 0-8 3.582031-8 8v104c0 4.417969 3.582031 8 8 8h368c4.417969 0 8-3.582031 8-8zm-16 96h-352v-88h352zm0 0"/><path d="m64.03125 208h80v16h-80zm0 0"/><path d="m64.03125 304h48v16h-48zm0 0"/><path d="m160.03125 208h160v16h-160zm0 0"/><path d="m240.03125 256h80v16h-80zm0 0"/><path d="m64.03125 256h160v16h-160zm0 0"/><path d="m192.03125 160h128v16h-128zm0 0"/><path d="m112.03125 112h144v16h-144zm0 0"/><path d="m64.03125 160h112v16h-112zm0 0"/><path d="m272.03125 112h48v16h-48zm0 0"/><path d="m128.03125 304h192v16h-192zm0 0"/><path d="m152.03125 439.761719c4.992188-5.355469 7.554688-12.53125 7.082031-19.832031.453125-6.773438-1.992187-13.417969-6.730469-18.28125-5.308593-4.507813-12.160156-6.773438-19.109374-6.328126h-17.753907v51.398438h16.625c7.292969.449219 14.460938-2.0625 19.886719-6.957031zm-22.65625-33.234375h4c3.207031-.242188 6.34375 1.019531 8.488281 3.417968 2.101563 3.070313 3.089844 6.769532 2.800781 10.480469.296876 3.957031-.742187 7.898438-2.953124 11.199219-2.347657 2.609375-5.78125 3.96875-9.277344 3.671875h-3.097656zm0 0"/><path d="m195.054688 447.425781c6.886718.484375 13.65625-1.96875 18.632812-6.753906 8.460938-11.789063 8.460938-27.660156 0-39.449219-4.96875-4.761718-11.722656-7.203125-18.589844-6.710937-6.898437-.476563-13.671875 1.980469-18.65625 6.769531-8.5625 11.726562-8.542968 27.652344.046875 39.359375 4.949219 4.785156 11.695313 7.253906 18.566407 6.785156zm.074218-41.523437c3.035156-.191406 5.953125 1.199218 7.71875 3.671875 1.964844 3.453125 2.863282 7.414062 2.578125 11.378906.292969 3.929687-.597656 7.859375-2.554687 11.277344-1.808594 2.472656-4.761719 3.84375-7.816406 3.625-6.933594 0-10.398438-4.96875-10.398438-14.902344.019531-10.03125 3.511719-15.050781 10.472656-15.050781zm0 0"/><path d="m255.078125 447.425781c5 .082031 9.957031-.890625 14.554687-2.851562v-11.773438c-2.09375.875-4.230468 1.636719-6.402343 2.289063-2.144531.628906-4.371094.949218-6.605469.941406-7.53125 0-11.292969-4.941406-11.289062-14.832031-.214844-3.925781.753906-7.828125 2.777343-11.199219 1.6875-2.617188 4.621094-4.160156 7.734375-4.0625 2.074219-.015625 4.140625.296875 6.121094.917969 1.941406.628906 3.839844 1.382812 5.6875 2.257812l4.253906-10.945312c-4.964844-2.394531-10.410156-3.632813-15.925781-3.625-4.632813-.109375-9.210937 1.015625-13.265625 3.257812-3.753906 2.15625-6.769531 5.398438-8.648438 9.304688-2.082031 4.375-3.113281 9.175781-3.007812 14.023437-.484375 7.054688 1.730469 14.03125 6.203125 19.511719 4.679687 4.726563 11.175781 7.199219 17.8125 6.785156zm0 0"/></svg>