<?xml version="1.0" encoding="iso-8859-1"?>
<!-- Generator: Adobe Illustrator 17.1.0, SVG Export Plug-In . SVG Version: 6.00 Build 0)  -->
<!DOCTYPE svg PUBLIC "-//W3C//DTD SVG 1.1//EN" "http://www.w3.org/Graphics/SVG/1.1/DTD/svg11.dtd">
<svg version="1.1" id="Capa_1" width="55" heigth="55" fill="#0084ff" xmlns="http://www.w3.org/2000/svg" xmlns:xlink="http://www.w3.org/1999/xlink" x="0px" y="0px"
	 viewBox="0 0 462 462" style="enable-background:new 0 0 462 462;" xml:space="preserve">
<g>
	<path d="M438.197,291.095c4.822-0.804,8.356-4.976,8.356-9.864V10c0-2.939-1.293-5.73-3.536-7.63
		c-2.243-1.901-5.211-2.715-8.107-2.234L231,34.121L27.09,0.136c-2.896-0.481-5.865,0.333-8.107,2.234
		c-2.243,1.899-3.536,4.69-3.536,7.63v271.231c0,4.889,3.534,9.061,8.356,9.864L221,323.962v19.402L27.09,311.046
		c-5.437-0.907-10.6,2.773-11.508,8.221c-0.907,5.447,2.772,10.6,8.221,11.508L221,363.64v20.403L27.09,351.724
		c-5.446-0.905-10.6,2.772-11.508,8.221c-0.907,5.447,2.772,10.6,8.221,11.508l205.554,34.259c0.126,0.021,0.252,0.031,0.379,0.047
		c0.112,0.014,0.222,0.031,0.335,0.042c0.309,0.029,0.619,0.047,0.93,0.047s0.62-0.018,0.93-0.047
		c0.113-0.01,0.224-0.028,0.335-0.042c0.126-0.016,0.253-0.026,0.379-0.047l28.618-4.77c5.448-0.908,9.128-6.061,8.221-11.508
		c-0.908-5.448-6.069-9.127-11.508-8.221L241,384.043V363.64l42.877-7.146V452c0,3.496,1.826,6.739,4.816,8.552
		c2.99,1.812,6.711,1.93,9.81,0.314l21.639-11.29l21.638,11.29c1.452,0.757,3.04,1.134,4.626,1.134c1.799,0,3.595-0.485,5.184-1.448
		c2.99-1.813,4.816-5.056,4.816-8.552V344.406l81.792-13.632c5.448-0.908,9.128-6.061,8.221-11.508
		c-0.908-5.448-6.067-9.13-11.508-8.221L241,343.364v-19.402L438.197,291.095z M336.405,435.503l-11.638-6.072
		c-2.898-1.512-6.354-1.513-9.252,0l-11.639,6.073v-82.343l32.528-5.421V435.503z M426.554,272.761L241,303.687V52.73
		l185.554-30.926V272.761z M35.446,272.761V21.804L221,52.73v250.957L35.446,272.761z"/>
	<path d="M63.8,135.347l125.558,20.926c0.557,0.093,1.109,0.138,1.655,0.138c4.8,0,9.037-3.467,9.853-8.358
		c0.907-5.447-2.772-10.6-8.221-11.508L67.087,115.619c-5.446-0.905-10.6,2.772-11.508,8.221
		C54.672,129.287,58.351,134.439,63.8,135.347z"/>
	<path d="M270.988,164.781c0.546,0,1.1-0.045,1.655-0.138l125.553-20.926c5.448-0.908,9.128-6.061,8.221-11.508
		c-0.908-5.448-6.065-9.131-11.508-8.221l-125.553,20.926c-5.448,0.908-9.128,6.061-8.221,11.508
		C261.951,161.314,266.187,164.781,270.988,164.781z"/>
	<path d="M63.803,81.261l125.55,20.926c0.557,0.093,1.11,0.138,1.656,0.138c4.8,0,9.037-3.467,9.853-8.358
		c0.907-5.447-2.772-10.6-8.221-11.508L67.091,61.533c-5.45-0.907-10.601,2.773-11.509,8.221
		C54.675,75.201,58.354,80.353,63.803,81.261z"/>
	<path d="M270.989,106.511c0.546,0,1.1-0.045,1.655-0.138l125.553-20.926c5.448-0.908,9.128-6.061,8.221-11.508
		c-0.908-5.448-6.066-9.134-11.508-8.221L269.357,86.644c-5.448,0.908-9.128,6.061-8.221,11.508
		C261.952,103.044,266.188,106.511,270.989,106.511z"/>
	<path d="M63.802,189.433l125.551,20.925c0.557,0.093,1.109,0.138,1.655,0.138c4.8,0,9.037-3.467,9.853-8.358
		c0.907-5.447-2.772-10.6-8.221-11.508L67.089,169.705c-5.448-0.907-10.6,2.773-11.508,8.221
		C54.674,183.373,58.353,188.525,63.802,189.433z"/>
	<path d="M270.988,223.051c0.546,0,1.1-0.045,1.655-0.138l125.554-20.925c5.448-0.908,9.128-6.061,8.221-11.508
		c-0.908-5.448-6.066-9.133-11.508-8.221l-125.554,20.925c-5.448,0.908-9.128,6.061-8.221,11.508
		C261.951,219.584,266.187,223.051,270.988,223.051z"/>
	<path d="M192.644,244.715L67.094,223.79c-5.448-0.904-10.6,2.773-11.508,8.221c-0.907,5.447,2.772,10.6,8.221,11.508
		l125.551,20.925c0.557,0.093,1.109,0.138,1.655,0.138c4.8,0,9.037-3.467,9.853-8.358
		C201.772,250.775,198.093,245.623,192.644,244.715z"/>
	<path d="M332.134,240.529l-62.777,10.463c-5.448,0.908-9.128,6.061-8.221,11.508c0.815,4.892,5.052,8.358,9.853,8.358
		c0.546,0,1.1-0.045,1.655-0.138l62.777-10.463c5.448-0.908,9.128-6.061,8.221-11.508
		C342.733,243.302,337.573,239.62,332.134,240.529z"/>
	<path d="M434.909,351.724l-55.89,9.315c-5.447,0.908-9.127,6.061-8.22,11.509c0.815,4.891,5.052,8.357,9.853,8.357
		c0.546,0,1.1-0.045,1.656-0.138l55.89-9.315c5.447-0.908,9.127-6.061,8.22-11.509C445.51,354.497,440.36,350.815,434.909,351.724z"
		/>
</g>
<g>
</g>
<g>
</g>
<g>
</g>
<g>
</g>
<g>
</g>
<g>
</g>
<g>
</g>
<g>
</g>
<g>
</g>
<g>
</g>
<g>
</g>
<g>
</g>
<g>
</g>
<g>
</g>
<g>
</g>
</svg>
