<svg viewBox="0 -3 472.00007 472" width="55" heigth="55" fill="#0084ff" xmlns="http://www.w3.org/2000/svg"><path d="m236 97.929688c27.871094 0 50.542969-21.964844 50.542969-48.964844s-22.671875-48.964844-50.542969-48.964844-50.542969 21.964844-50.542969 48.964844 22.671875 48.964844 50.542969 48.964844zm0-81.929688c19.046875 0 34.542969 14.789062 34.542969 32.964844 0 18.175781-15.5 32.964844-34.542969 32.964844s-34.542969-14.785157-34.542969-32.964844c0-18.179688 15.496094-32.964844 34.542969-32.964844zm0 0"/><path d="m236 379.5c23.613281 0 42.820312-18.628906 42.820312-41.527344 0-22.902344-19.207031-41.53125-42.820312-41.53125s-42.820312 18.632813-42.820312 41.53125c0 22.898438 19.207031 41.527344 42.820312 41.527344zm0-67.058594c14.789062 0 26.820312 11.453125 26.820312 25.53125 0 14.074219-12.03125 25.527344-26.820312 25.527344s-26.820312-11.449219-26.820312-25.527344 12.03125-25.53125 26.820312-25.53125zm0 0"/><path d="m175.910156 465.84375h120.179688c4.429687-.082031 7.964844-3.726562 7.910156-8.15625v-10.257812c0-36.316407-30.453125-65.859376-68-65.859376s-68 29.542969-68 65.859376v10.257812c-.054688 4.429688 3.480469 8.074219 7.910156 8.15625zm8.089844-18.414062c0-27.492188 23.277344-49.859376 52-49.859376s52 22.367188 52 49.859376v2.414062h-104zm0 0"/><path d="m361.089844 337.972656c0 22.898438 19.210937 41.527344 42.820312 41.527344 23.613282 0 42.820313-18.628906 42.820313-41.527344 0-22.902344-19.207031-41.53125-42.820313-41.53125-23.609375 0-42.820312 18.628906-42.820312 41.53125zm69.640625 0c0 14.078125-12.03125 25.527344-26.820313 25.527344-14.789062 0-26.820312-11.449219-26.820312-25.527344s12.03125-25.53125 26.820312-25.53125c14.789063 0 26.820313 11.453125 26.820313 25.53125zm0 0"/><path d="m336 447.429688v10.257812c-.046875 2.117188.753906 4.167969 2.21875 5.699219 1.46875 1.53125 3.484375 2.414062 5.601562 2.457031h120.179688c4.449219-.074219 8.011719-3.707031 8-8.15625v-10.257812c0-36.316407-30.453125-65.859376-68-65.859376s-68 29.542969-68 65.859376zm120 0v2.414062h-104v-2.414062c0-27.492188 23.277344-49.859376 52-49.859376s52 22.367188 52 49.859376zm0 0"/><path d="m68.089844 379.5c23.609375 0 42.820312-18.628906 42.820312-41.527344 0-22.902344-19.210937-41.53125-42.820312-41.53125s-42.820313 18.632813-42.820313 41.53125c0 22.898438 19.207031 41.527344 42.820313 41.527344zm0-67.058594c14.789062 0 26.820312 11.453125 26.820312 25.53125 0 14.074219-12.03125 25.527344-26.820312 25.527344-14.789063 0-26.820313-11.449219-26.820313-25.527344s12.03125-25.53125 26.820313-25.53125zm0 0"/><path d="m8 465.84375h120.179688c2.117187-.042969 4.132812-.925781 5.601562-2.457031 1.464844-1.53125 2.265625-3.582031 2.21875-5.699219v-10.257812c0-36.316407-30.453125-65.859376-68-65.859376s-68 29.542969-68 65.859376v10.257812c-.0117188 4.449219 3.550781 8.082031 8 8.15625zm8-18.414062c0-27.492188 23.277344-49.859376 52-49.859376s52 22.367188 52 49.859376v2.414062h-104zm0 0"/><path d="m362.820312 317.972656c0-22.902344-19.207031-41.53125-42.820312-41.53125s-42.820312 18.628906-42.820312 41.53125c0 22.898438 19.207031 41.527344 42.820312 41.527344s42.820312-18.628906 42.820312-41.527344zm-69.640624 0c0-14.078125 12.03125-25.53125 26.820312-25.53125s26.820312 11.453125 26.820312 25.53125c0 14.074219-12.03125 25.527344-26.820312 25.527344s-26.820312-11.449219-26.820312-25.527344zm0 0"/><path d="m152 276.441406c-23.613281 0-42.820312 18.632813-42.820312 41.53125 0 22.898438 19.207031 41.53125 42.820312 41.53125s42.820312-18.632812 42.820312-41.53125c0-22.902344-19.207031-41.53125-42.820312-41.53125zm0 67.0625c-14.789062 0-26.820312-11.453125-26.820312-25.53125s12.03125-25.53125 26.820312-25.53125 26.820312 11.453125 26.820312 25.53125-12.03125 25.527344-26.820312 25.527344zm0 0"/><path d="m60.5 243.84375h351c4.417969 0 7.5-3.738281 7.5-8.15625v-45c0-4.417969-3.082031-7.84375-7.5-7.84375h-58.5v-38.800781c10.03125-3.363281 16.246094-13.390625 14.796875-23.867188-1.449219-10.480469-10.148437-18.445312-20.714844-18.964843-10.566406-.519532-20.003906 6.558593-22.472656 16.84375-2.464844 10.289062 2.738281 20.875 12.390625 25.203124v39.585938h-20v-5.035156c0-43.390625-36.109375-78.691406-81-78.691406s-81 35.300781-81 78.691406v5.035156h-94.5c-4.417969 0-8.5 3.425781-8.5 7.84375v45c0 4.417969 4.082031 8.15625 8.5 8.15625zm285.5-126.65625c3.3125 0 6 2.683594 6 6 0 3.3125-2.6875 6-6 6s-6-2.6875-6-6c.003906-3.3125 2.6875-5.996094 6-6zm-175 60.621094c0-34.566406 28.929688-62.691406 65-62.691406s65 28.125 65 62.691406v5.035156h-130zm-103 21.035156h275.425781c.507813 0 1.035157.15625 1.574219.15625s1.066406-.15625 1.574219-.15625h56.425781v29h-335zm0 0"/></svg>