<svg id="OBJECTS" xmlns="http://www.w3.org/2000/svg" width="55" heigth="55" viewBox="0 0 449.94 492.1"><defs><style>.cls-1{fill:#0283ff;}</style></defs><title>112161-OOYIXA-546</title><path class="cls-1" d="M26,407.06c5.32-9.29,10.85-18.47,15.94-27.89q77.75-143.66,155.37-287.4,22-40.74,44-81.49c2-3.79,5-6.31,9.42-6.33,4.63,0,7.6,2.52,9.76,6.52q71.09,131.7,142.26,263.35,35.5,65.7,71.15,131.32c.7,1.3,1.36,2.61,2,3.92v3c-1.65,2.44-3.11,5-5,7.31-17.13,20.76-34.26,41.52-51.59,62.11a11.83,11.83,0,0,1-6.73,3.63c-15.9,2.44-31.86,4.47-47.78,6.79-8.33,1.22-16.61,2.76-24.91,4.15h-6c-4.91-2.56-7.33-6.51-8.26-12.09-3.29-19.64-7.06-39.2-10.5-58.82-.55-3.18-1.73-4.57-5.16-4.38-5.81.33-11.64.3-17.46.29q-50.16-.09-100.33-.3c-3.58,0-5.11.77-5.78,4.69-3.29,19.31-7.22,38.52-10.43,57.85-.95,5.7-3,10-8.06,12.76h-6a10.74,10.74,0,0,0-2.3-.87c-22.52-3.16-45-6.39-67.59-9.35-4.74-.62-8.36-2.24-11.41-6.08-7.45-9.38-15.31-18.42-22.91-27.68-10.64-13-21.18-26-31.77-39ZM362.6,242.42c-1.89.75-3.42,1.32-4.9,2-15.11,6.46-30.13,13.13-45.35,19.29-4.3,1.74-5.14,3.75-4.33,8.11q11.52,61.73,22.5,123.55c.73,4.15,2.15,5.09,6,5.08,35.16-.12,70.32-.09,105.48-.11,1.61,0,3.21-.13,5.8-.25C419.19,347.16,391,295,362.6,242.42Zm-52,157.67c-7.63-42-15.19-83.51-22.81-125.43a42.38,42.38,0,0,0-4.11,1.27c-23.9,10.26-47.76,20.64-71.74,30.72-3.46,1.46-4.7,3.53-5.29,6.89-2.79,16-5.72,32-8.62,48-2.29,12.71-4.59,25.4-7,38.5ZM228.22,81.25l-1.68-.63c-46,85.15-92,170.3-138.56,256.38a24.33,24.33,0,0,0,2.58-.54Q138.8,315.9,187,295.21a6.22,6.22,0,0,0,3.12-4c4.17-22.34,8.12-44.73,12.18-67.1Q212,170.51,221.82,116.9,225.06,99.08,228.22,81.25ZM251.45,76l-1.44.09c-12.55,69.07-25.1,138.14-37.81,208.05,2.19-.71,3-.9,3.74-1.22,21-9,42-18.12,63.08-26.89,4.06-1.69,4.9-3.71,4.16-7.74q-14.62-79.8-29-159.61C253.36,84.41,252.35,80.2,251.45,76ZM185.07,319a26,26,0,0,0-4,.91q-43.62,18.66-87.21,37.35c-2.67,1.13-3.13,2.62-2.86,5.39,1.09,11.07,2,22.17,2.66,33.28.22,3.36,1.39,4.52,4.82,4.48,14.82-.16,29.63-.06,44.44-.05h27.39C175.21,373.24,180.09,346.42,185.07,319ZM275.31,81l-1.72.63c9.87,54.37,19.74,108.73,29.74,163.79l49.42-21.23ZM166.51,421.18H95.9c1.31,15.29,2.58,30.11,3.84,44.85l57.14,8.1C160.15,456.16,163.3,438.81,166.51,421.18ZM345,474l54.67-7.89c-2.6-15.55-5.06-30.23-7.53-44.93H335.34C338.57,439,341.71,456.21,345,474ZM418,451.28l25-30.06H412.92C414.6,431.1,416.18,440.46,418,451.28ZM70.83,372.06l-1-.32L54.65,399.81H73.07C72.31,390.37,71.57,381.21,70.83,372.06Zm4.54,49.22H58.6l17.05,20.17,1.37-.69C76.47,434.28,75.92,427.8,75.37,421.28Z" transform="translate(-26.03 -3.95)"/></svg>