<svg viewBox="-10 0 472 472.00998" width="55" heigth="55" fill="#0084ff" xmlns="http://www.w3.org/2000/svg"><path d="m8.003906 399.003906c-4.421875.015625-7.99999975 3.605469-7.99999975 8.03125v57.292969c.01562495 2.089844.87109375 4.082031 2.37890575 5.53125 1.507813 1.445313 3.535157 2.21875 5.621094 2.144531h53.945313c2.09375.074219 4.128906-.695312 5.644531-2.140625 1.515625-1.445312 2.386719-3.441406 2.410156-5.535156v-20.324219h312v20.324219c.027344 2.09375.894532 4.089844 2.410156 5.535156 1.515626 1.445313 3.550782 2.214844 5.644532 2.140625h53.945312c2.089844.074219 4.117188-.699218 5.625-2.144531 1.503906-1.449219 2.363282-3.441406 2.375-5.53125v-57.292969c.003906-4.425781-3.574218-8.015625-8-8.03125h-19v-326h19c4.425782-.011718 8.003906-3.605468 8-8.027344v-57.296874c-.011718-2.085938-.871094-4.082032-2.375-5.527344-1.507812-1.445313-3.535156-2.2187502-5.625-2.14843775h-53.945312c-2.09375-.07421875-4.128906.69921875-5.644532 2.14453175-1.515624 1.445312-2.382812 3.4375-2.410156 5.53125v20.324218h-312v-20.324218c-.023437-2.09375-.894531-4.085938-2.410156-5.53125-1.515625-1.445313-3.550781-2.2187505-5.644531-2.14453175h-53.945313c-2.085937-.07031245-4.113281.70312475-5.621094 2.14843775-1.507812 1.445312-2.3632808 3.441406-2.37890575 5.527344v57.296874c0 4.421876 3.57812475 8.015626 7.99999975 8.027344h19v326zm46 57h-38v-41h38zm382 0h-38v-41h38zm-38-440h38v41h-38zm-382 0h38v41h-38zm27 57h18.945313c4.4375-.007812 8.03125-3.59375 8.054687-8.027344v-20.972656h312v20.972656c.023438 4.433594 3.621094 8.019532 8.054688 8.027344h18.945312v326h-18.945312c-4.433594.011719-8.03125 3.597656-8.054688 8.03125v20.96875h-312v-20.96875c-.023437-4.433594-3.617187-8.019531-8.054687-8.03125h-18.945313zm0 0"/><path d="m138.003906 139.003906h80v195h-35c-4.417968 0-8 3.582032-8 8 0 4.417969 3.582032 8 8 8h86c4.417969 0 8-3.582031 8-8 0-4.417968-3.582031-8-8-8h-35v-195h80c4.417969 0 8-3.582031 8-8 0-4.417968-3.582031-8-8-8h-176c-4.417968 0-8 3.582032-8 8 0 4.417969 3.582032 8 8 8zm0 0"/></svg>