<?xml version="1.0" standalone="no"?>
<!DOCTYPE svg PUBLIC "-//W3C//DTD SVG 1.1//EN" "http://www.w3.org/Graphics/SVG/1.1/DTD/svg11.dtd" >
<svg xmlns="http://www.w3.org/2000/svg" xmlns:xlink="http://www.w3.org/1999/xlink" version="1.1">
<metadata></metadata>
<defs>
<font id="colgate_ready_cyrilliclight" horiz-adv-x="1226" >
<font-face units-per-em="2048" ascent="1520" descent="-528" />
<missing-glyph horiz-adv-x="450" />
<glyph horiz-adv-x="0" />
<glyph horiz-adv-x="0" />
<glyph horiz-adv-x="682" />
<glyph unicode="&#xd;" horiz-adv-x="450" />
<glyph unicode=" "  horiz-adv-x="450" />
<glyph unicode="&#x09;" horiz-adv-x="450" />
<glyph unicode="&#xa0;" horiz-adv-x="450" />
<glyph unicode="!" horiz-adv-x="550" d="M190 1403h170l-28 -1038h-117zM193 0v150l161 40v-190h-161z" />
<glyph unicode="&#x22;" horiz-adv-x="753" d="M135 1477l152 45l-15 -510h-125zM467 1477l151 45l-14 -510h-125z" />
<glyph unicode="#" d="M-6 422v119h252l55 321h-238v119h259l69 403h129l-69 -403h376l70 403h131l-70 -403h275l-45 -119h-250l-55 -321h286l-45 -119h-262l-71 -422h-132l72 422h-375l-71 -422h-131l71 422h-231zM377 541h375l55 321h-377z" />
<glyph unicode="$" d="M164 86l26 133q85 -49 197 -80t211 -33v551q-206 58 -307 153t-101 243q0 99 56 175.5t146.5 118.5t205.5 54v194h123v-192q162 -6 323 -60l-16 -135q-180 62 -307 68v-504q84 -25 141 -47.5t110.5 -54.5t85 -70t50 -92t18.5 -123q0 -164 -113.5 -268.5t-291.5 -128.5 v-181h-123v173q-240 7 -434 106zM346 1063q0 -90 58 -149.5t194 -104.5v463q-120 -15 -186 -71.5t-66 -137.5zM721 115q122 21 187 90t65 164q0 93 -57.5 151.5t-194.5 102.5v-508z" />
<glyph unicode="%" horiz-adv-x="1779" d="M133 1069q0 152 87.5 244t240.5 92t240 -92t87 -244q0 -150 -87 -242t-240 -92t-240.5 92t-87.5 242zM276 1069q0 -99 49.5 -160t135.5 -61t135 61t49 160q0 106 -48 164.5t-136 58.5t-136.5 -58.5t-48.5 -164.5zM338 51l993 1391l119 -66l-997 -1396zM991 313 q0 152 87.5 244t240.5 92t240.5 -92t87.5 -244q0 -150 -87.5 -241.5t-240.5 -91.5t-240.5 91.5t-87.5 241.5zM1135 313q0 -99 49 -160t135 -61t135 61t49 160q0 106 -48 165t-136 59t-136 -59t-48 -165z" />
<glyph unicode="&#x26;" horiz-adv-x="1480" d="M80 346q0 118 78 211.5t245 181.5q-124 126 -170.5 203.5t-46.5 159.5q0 128 111 215.5t307 87.5q159 0 272 -86t113 -209q0 -103 -70.5 -184.5t-216.5 -161.5l-77 -43l383 -373q140 170 211 393h157q-112 -289 -278 -481l67 -63q39 -36 65 -51t56 -15h144l-39 -131h-109 q-68 0 -113.5 18.5t-97.5 69.5l-76 72q-200 -180 -440 -180q-226 0 -350.5 103.5t-124.5 262.5zM233 356q0 -104 86.5 -177t237.5 -73q187 0 350 140l-411 403q-143 -73 -203 -140t-60 -153zM340 1104q0 -66 44.5 -129t147.5 -164l86 45q123 66 170.5 121.5t47.5 124.5 q0 80 -71.5 128t-168.5 48q-117 0 -186.5 -48.5t-69.5 -125.5z" />
<glyph unicode="'" horiz-adv-x="421" d="M135 1477l152 45l-15 -510h-125z" />
<glyph unicode="(" horiz-adv-x="710" d="M76 569q0 240 110 471t303 404h166q-205 -167 -318.5 -405.5t-113.5 -469.5q0 -228 105.5 -452t326.5 -426h-170q-409 388 -409 878z" />
<glyph unicode=")" horiz-adv-x="710" d="M55 -309q221 202 326.5 426t105.5 452q0 231 -113.5 469.5t-318.5 405.5h166q193 -173 303.5 -404t110.5 -471q0 -489 -410 -878h-170z" />
<glyph unicode="*" horiz-adv-x="792" d="M59 1202l56 115l225 -103l-10 242h135l-14 -242l227 105l53 -115l-250 -100l185 -209l-105 -74l-164 211l-168 -213l-106 80l188 205z" />
<glyph unicode="+" horiz-adv-x="1241" d="M195 473v127h333v344h142v-344h377l-50 -127h-327v-348h-142v348h-333z" />
<glyph unicode="," horiz-adv-x="479" d="M41 -260q163 108 166 260h-103v203l211 51v-215q0 -128 -52.5 -216t-153.5 -151z" />
<glyph unicode="-" horiz-adv-x="653" d="M100 465v141h467l-65 -141h-402z" />
<glyph unicode="." horiz-adv-x="466" d="M127 0v203l211 51v-254h-211z" />
<glyph unicode="/" horiz-adv-x="751" d="M45 -41l508 1468h154l-508 -1468h-154z" />
<glyph unicode="0" d="M76 692q0 332 143 522.5t399 190.5q255 0 394 -189.5t139 -523.5q0 -333 -141.5 -522.5t-397.5 -189.5t-396 189.5t-140 522.5zM231 692q0 -285 108 -435.5t277 -150.5q166 0 272.5 150.5t106.5 435.5q0 287 -105 436.5t-276 149.5q-169 0 -276 -150.5t-107 -435.5z" />
<glyph unicode="1" horiz-adv-x="884" d="M74 1090l465 294h108v-1384h-149v1194l-373 -227z" />
<glyph unicode="2" d="M129 0v115q0 237 127 370q110 115 352 199q98 34 157 65t97 72q68 74 68 199q0 116 -88.5 186t-241.5 70q-201 0 -397 -98l-29 127q200 100 442 100q216 0 342.5 -103.5t126.5 -271.5q0 -163 -90 -272q-50 -59 -124.5 -103t-200.5 -88q-115 -41 -180 -73t-115 -80 q-99 -96 -99 -242v-41h838l-59 -131h-926z" />
<glyph unicode="3" d="M92 82l21 123q211 -103 428 -103q170 0 276.5 79t106.5 212q0 130 -91.5 194t-287.5 64h-135v125h118q169 0 255.5 71.5t86.5 196.5q0 102 -76 167t-216 65q-201 0 -400 -92l-24 123q89 42 208.5 70t235.5 28q206 0 320 -98t114 -244q0 -125 -65.5 -211.5t-184.5 -120.5 v-4q137 -22 217 -108t80 -224q0 -188 -149 -301.5t-377 -113.5q-136 0 -257.5 29t-203.5 73z" />
<glyph unicode="4" d="M39 362v78l780 944h146v-890h247l-57 -132h-190v-362h-150v362h-776zM252 494h563v684z" />
<glyph unicode="5" d="M117 86l26 129q92 -52 211 -82.5t236 -30.5q165 0 266.5 87.5t101.5 228.5q0 140 -75 209q-48 45 -126 63.5t-204 18.5h-338l47 675h795l-58 -131h-608l-31 -411h222q166 0 262 -29t162 -94q108 -105 108 -281q0 -137 -69.5 -242.5t-186 -160.5t-260.5 -55 q-130 0 -258.5 29.5t-222.5 76.5z" />
<glyph unicode="6" d="M104 657q0 153 50 289.5t139 238t220 161t284 59.5q123 0 245 -35l-18 -135q-107 43 -223 43q-214 0 -365.5 -153.5t-173.5 -397.5q81 76 190.5 123t235.5 47q215 0 346 -124.5t131 -313.5q0 -134 -70 -244.5t-186 -172.5t-250 -62q-260 0 -407.5 179t-147.5 498z M262 580q15 -228 119.5 -351t280.5 -123q141 0 244.5 95.5t103.5 244.5q0 102 -47.5 176.5t-123 110t-167.5 35.5q-113 0 -221.5 -51t-188.5 -137z" />
<glyph unicode="7" d="M78 1384h1057v-84l-742 -1300h-174l723 1253h-813z" />
<glyph unicode="8" d="M90 377q0 103 56 189t167 145q-90 49 -137 128t-47 177q0 165 139 277t359 112q212 0 342.5 -104t130.5 -265q0 -201 -209 -329q119 -38 181.5 -123.5t62.5 -186.5q0 -182 -143.5 -299.5t-366.5 -117.5q-241 0 -388 111t-147 286zM246 385q0 -123 104.5 -202t276.5 -79 q161 0 256.5 78t95.5 201q0 107 -62.5 159.5t-193.5 75.5l-297 52q-180 -103 -180 -285zM283 1020q0 -90 54 -151t165 -81l272 -47q88 57 130 127t42 160q0 113 -88.5 182.5t-230.5 69.5q-161 0 -252.5 -74t-91.5 -186z" />
<glyph unicode="9" d="M82 942q0 137 69.5 243.5t186.5 163t260 56.5q248 0 392.5 -177.5t144.5 -494.5q0 -125 -22 -235.5t-69.5 -206.5t-117.5 -164.5t-171.5 -107.5t-226.5 -39q-196 0 -331 59l22 133q138 -66 303 -66q210 0 324.5 142.5t130.5 392.5q-81 -73 -187 -115.5t-215 -42.5 q-237 0 -365 127.5t-128 331.5zM238 944q0 -150 94 -240t252 -90q109 0 212.5 46t180.5 126q-13 238 -117.5 365t-271.5 127q-141 0 -245.5 -91.5t-104.5 -242.5z" />
<glyph unicode=":" horiz-adv-x="466" d="M127 0v203l211 51v-254h-211zM127 852v203l211 51v-254h-211z" />
<glyph unicode=";" horiz-adv-x="501" d="M39 -260q163 108 166 260h-103v203l211 51v-215q0 -128 -53 -215.5t-154 -151.5zM127 852v203l211 51v-254h-211z" />
<glyph unicode="&#x3c;" horiz-adv-x="1241" d="M217 489v95l746 399l63 -125l-614 -319v-4l614 -320l-63 -125z" />
<glyph unicode="=" horiz-adv-x="1241" d="M195 260v127h852l-50 -127h-802zM195 680v127h852l-50 -127h-802z" />
<glyph unicode="&#x3e;" horiz-adv-x="1241" d="M217 215l614 320v4l-614 319l64 125l745 -399v-95l-745 -399z" />
<glyph unicode="?" horiz-adv-x="985" d="M70 1315q76 39 179.5 64.5t213.5 25.5q203 0 323.5 -96.5t120.5 -245.5q0 -120 -59.5 -199.5t-198.5 -169.5q-106 -69 -145 -122.5t-39 -131.5v-75h-125v79q0 111 47.5 182.5t175.5 155.5q106 69 148.5 130t42.5 143q0 100 -84.5 160.5t-223.5 60.5q-167 0 -356 -82z M319 0v150l162 40v-190h-162z" />
<glyph unicode="@" horiz-adv-x="1865" d="M133 627q0 164 66.5 309t183 250t283.5 166t360 61q104 0 205.5 -25t192 -76t159.5 -123t109.5 -172.5t40.5 -217.5q0 -94 -27 -181.5t-76.5 -156t-125.5 -109.5t-167 -41q-95 0 -152.5 40t-76.5 104h-8q-90 -131 -262 -131q-133 0 -215 84t-82 223q0 187 120 307.5 t281 120.5q72 0 134 -28t98 -75l18 62h129l-61 -301q-25 -123 -25 -182q0 -52 29.5 -84.5t81.5 -32.5q112 0 176.5 104.5t64.5 261.5q0 233 -166 370.5t-428 137.5q-197 0 -358.5 -89t-251.5 -239.5t-90 -328.5q0 -261 163.5 -403t440.5 -142q102 0 213 17t193 45l20 -111 q-83 -32 -205 -51t-231 -19q-178 0 -321 49t-237.5 136.5t-145 207.5t-50.5 263zM684 643q0 -95 47 -148t135 -53q89 0 156 60t84 157l33 183q-63 102 -199 102q-105 0 -180.5 -87.5t-75.5 -213.5z" />
<glyph unicode="A" horiz-adv-x="1325" d="M45 0l567 1389h101l567 -1389h-160l-145 360h-625l-145 -360h-160zM403 492h519l-252 630h-15z" />
<glyph unicode="B" horiz-adv-x="1273" d="M184 0v1384h475q130 0 212 -21.5t137 -70.5q100 -86 100 -256q0 -216 -186 -301v-4q125 -24 197.5 -113t72.5 -210q0 -207 -124.5 -307.5t-352.5 -100.5h-531zM334 131h389q154 0 233.5 63t79.5 203q0 120 -80 187q-42 36 -99.5 51.5t-151.5 15.5h-371v-520zM334 782h352 q127 0 197 58q73 61 73 184q0 113 -63 170q-64 59 -217 59h-342v-471z" />
<glyph unicode="C" horiz-adv-x="1351" d="M115 684q0 209 88.5 372t256.5 256t390 93q120 0 234.5 -28.5t195.5 -71.5l-18 -134q-188 105 -416 105q-263 0 -419.5 -164t-156.5 -426q0 -258 158.5 -417.5t407.5 -159.5q231 0 421 96l17 -127q-201 -98 -443 -98q-165 0 -301.5 54t-226.5 149t-139 223.5t-49 277.5z " />
<glyph unicode="D" horiz-adv-x="1538" d="M184 0v1384h502q199 0 333.5 -44t233.5 -144q170 -175 170 -483q0 -356 -198 -539q-96 -88 -234 -131t-340 -43h-467zM334 131h342q299 0 442 137q82 78 116 181t34 258q0 264 -135 399q-76 78 -189.5 112.5t-290.5 34.5h-319v-1122z" />
<glyph unicode="E" horiz-adv-x="1114" d="M180 258v1126h885l-57 -131h-678v-520h588l-7 -131h-581v-323q0 -79 31 -113.5t106 -34.5h598l-57 -131h-559q-144 0 -206.5 62t-62.5 196z" />
<glyph unicode="F" horiz-adv-x="1060" d="M184 0v1384h865l-58 -131h-657v-520h592l-8 -131h-584v-602h-150z" />
<glyph unicode="G" horiz-adv-x="1503" d="M115 684q0 214 95 378.5t265.5 253.5t388.5 89q124 0 243 -27.5t202 -70.5l-17 -136q-199 105 -428 105q-269 0 -431.5 -160.5t-162.5 -427.5q0 -178 82 -311.5t214 -200.5t292 -67q232 0 356 69v475l154 41v-585q-81 -55 -218.5 -92t-297.5 -37q-221 0 -389 89.5 t-258 249t-90 365.5z" />
<glyph unicode="H" horiz-adv-x="1472" d="M184 0v1384h150v-610h805v610h149v-1384h-149v643h-805v-643h-150z" />
<glyph unicode="I" horiz-adv-x="526" d="M188 0v1384h150v-1384h-150z" />
<glyph unicode="J" horiz-adv-x="788" d="M61 131h185q213 0 213 240v1013h149v-999q0 -192 -95.5 -288.5t-266.5 -96.5h-127z" />
<glyph unicode="K" horiz-adv-x="1275" d="M184 0v1384h150v-610h198l484 610h180l-549 -675v-7l381 -512q24 -33 53.5 -46t73.5 -13h111l-56 -131h-92q-74 0 -121 24.5t-94 88.5l-371 499q-12 18 -25.5 24.5t-37.5 6.5h-135v-643h-150z" />
<glyph unicode="L" horiz-adv-x="1099" d="M180 258v1126h150v-1105q0 -80 30 -114t105 -34h588l-58 -131h-546q-144 0 -206.5 62t-62.5 196z" />
<glyph unicode="M" horiz-adv-x="1757" d="M184 0v1384h123l567 -993h9l567 993h123v-1384h-141v1065l-517 -879h-79l-510 879v-1065h-142z" />
<glyph unicode="N" horiz-adv-x="1495" d="M184 0v1384h123l862 -1108v1108h142v-1384h-107l-878 1133v-1133h-142z" />
<glyph unicode="O" horiz-adv-x="1615" d="M115 680q0 135 37 252t102.5 203t154.5 147.5t194.5 92t221.5 30.5q140 0 262.5 -47.5t214.5 -135t145.5 -220.5t53.5 -295q0 -171 -54.5 -310t-149.5 -229.5t-221 -139t-271 -48.5t-270.5 48t-219 136t-147 221t-53.5 295zM270 684q0 -139 43 -250.5t117 -182 t170.5 -108t206.5 -37.5q109 0 205 37t171 107.5t119 185t44 258.5t-44.5 258t-119.5 183.5t-169 106t-198 36.5q-103 0 -199.5 -38.5t-174 -111t-124.5 -188t-47 -256.5z" />
<glyph unicode="P" horiz-adv-x="1181" d="M184 0v1384h461q255 0 373 -104q119 -104 119 -319q0 -72 -14 -134.5t-49.5 -121.5t-90 -100.5t-141.5 -67t-199 -25.5h-309v-512h-150zM334 643h299q178 0 262 72q86 74 86 246q0 144 -74 215q-80 77 -260 77h-313v-610z" />
<glyph unicode="Q" horiz-adv-x="1615" d="M115 680q0 135 37 252t102.5 203t154.5 147.5t194.5 92t221.5 30.5q140 0 262.5 -47.5t214.5 -135t145.5 -220.5t53.5 -295q0 -146 -41.5 -270.5t-114.5 -212.5t-169 -146t-209 -82l178 -186q22 -22 41 -29.5t51 -7.5h197l-58 -131h-168q-58 0 -95 17t-77 60l-250 261 q-142 3 -264 52t-212.5 137t-142.5 219.5t-52 291.5zM270 684q0 -139 43 -250.5t117 -182t170.5 -108t206.5 -37.5q109 0 205 37t171 107.5t119 185t44 258.5t-44.5 258t-119.5 183.5t-169 106t-198 36.5q-103 0 -199.5 -38.5t-174 -111t-124.5 -188t-47 -256.5z" />
<glyph unicode="R" horiz-adv-x="1261" d="M184 0v1384h461q231 0 360.5 -98.5t129.5 -304.5q0 -175 -93 -284t-278 -132l248 -375q24 -35 44 -47t50 -12h119l-37 -131h-119q-58 0 -96 23t-76 81l-276 414q-12 18 -26 24.5t-40 6.5h-221v-549h-150zM334 680h315q163 0 246.5 80.5t83.5 210.5q0 150 -84 216t-248 66 h-313v-573z" />
<glyph unicode="S" horiz-adv-x="1134" d="M74 86l26 133q90 -51 203.5 -82t212.5 -31q177 0 266.5 72.5t89.5 196.5q0 106 -66 160.5t-261 115.5q-233 72 -329.5 160.5t-96.5 241.5q0 110 64 191t169.5 121t237.5 40q176 0 364 -62l-16 -135q-185 70 -342 70q-159 0 -240.5 -59t-81.5 -160q0 -55 14.5 -92 t55.5 -69t97.5 -56.5t158.5 -59.5q81 -27 133.5 -47.5t105.5 -47.5t84 -54.5t56.5 -65t36 -84t10.5 -106.5q0 -185 -141 -291t-367 -106q-234 0 -444 106z" />
<glyph unicode="T" horiz-adv-x="1189" d="M12 1253v131h1178l-57 -131h-476v-1253h-149v1253h-496z" />
<glyph unicode="U" horiz-adv-x="1441" d="M180 500v884h150v-886q0 -106 22 -175.5t74 -119.5q105 -97 295 -97t295 97q52 50 74 119.5t22 175.5v886h150v-884q0 -264 -144 -396q-136 -124 -397 -124t-397 124q-144 132 -144 396z" />
<glyph unicode="V" horiz-adv-x="1318" d="M12 1384h170l477 -1140h11l469 1140h168l-586 -1384h-115z" />
<glyph unicode="W" horiz-adv-x="1984" d="M12 1384h160l381 -1130h10l371 1130h117l370 -1130h11l380 1130h160l-483 -1384h-125l-367 1096h-10l-366 -1096h-125z" />
<glyph unicode="X" horiz-adv-x="1275" d="M29 1384h182l420 -559l397 559h184l-491 -671l526 -713h-186l-430 590l-412 -590h-180l500 698z" />
<glyph unicode="Y" horiz-adv-x="1169" d="M12 1384h172l402 -710h8l393 710h170l-493 -862v-522h-150v528z" />
<glyph unicode="Z" horiz-adv-x="1193" d="M37 0v78l876 1175h-780l-51 131h1059v-73l-891 -1180h915l-49 -131h-1079z" />
<glyph unicode="[" horiz-adv-x="716" d="M164 -295v1700h491v-117h-348v-1466h348v-117h-491z" />
<glyph unicode="\" horiz-adv-x="825" d="M82 1427h154l507 -1468h-153z" />
<glyph unicode="]" horiz-adv-x="716" d="M61 -178h349v1466h-349v117h492v-1700h-492v117z" />
<glyph unicode="^" horiz-adv-x="1241" d="M252 627l297 460h141l297 -460l-117 -64l-249 359h-5l-247 -359z" />
<glyph unicode="_" horiz-adv-x="1120" d="M49 -199h1022v-96h-1022v96z" />
<glyph unicode="`" horiz-adv-x="663" d="M139 1423l82 129l430 -252l-63 -98z" />
<glyph unicode="a" horiz-adv-x="1128" d="M109 328q0 127 91 197.5t263 70.5h170q78 0 184 -8v98q0 147 -70 214t-215 67q-159 0 -319 -47l-16 114q164 53 360 53q198 0 303 -93.5t105 -278.5v-445q0 -98 4 -270h-123l-19 133h-4q-91 -153 -331 -153q-167 0 -275 94t-108 254zM262 326q0 -107 72 -166.5t182 -59.5 q137 0 219 71t82 198v108h-375q-85 0 -132.5 -34t-47.5 -117z" />
<glyph unicode="b" horiz-adv-x="1271" d="M164 82v1376l147 43v-569h11q57 68 152.5 111.5t217.5 43.5q213 0 348.5 -140t135.5 -390q0 -264 -149 -420.5t-400 -156.5q-261 0 -463 102zM311 160q139 -60 312 -60q188 0 293.5 116t105.5 329q0 202 -95 312t-255 110q-149 0 -255 -92.5t-106 -231.5v-483z" />
<glyph unicode="c" horiz-adv-x="1042" d="M96 539q0 166 75 292t200.5 191t279.5 65q183 0 314 -59l-25 -119q-127 58 -283 58q-185 0 -296 -119.5t-111 -306.5q0 -91 23.5 -168t71.5 -139.5t131.5 -98t193.5 -35.5q143 0 288 66l23 -113q-159 -73 -332 -73q-251 0 -402 149t-151 410z" />
<glyph unicode="d" horiz-adv-x="1284" d="M96 526q0 167 74.5 296.5t196.5 197t266 67.5q113 0 202 -39t134 -96h4v506l147 43v-1231q0 -98 4 -270h-123q-7 38 -18 147h-4q-59 -74 -155 -120.5t-212 -46.5q-232 0 -374 151t-142 395zM250 530q0 -200 106 -315t271 -115q115 0 204.5 55.5t141.5 141.5v350 q0 136 -91 228t-249 92q-170 0 -276.5 -122t-106.5 -315z" />
<glyph unicode="e" horiz-adv-x="1130" d="M96 532q0 118 34.5 219.5t99 176t163 117t219.5 42.5q111 0 195.5 -34.5t135.5 -96t76.5 -140.5t27.5 -175q0 -73 -9 -149h-790q6 -185 104 -288.5t301 -103.5q70 0 155.5 19t152.5 49l22 -113q-169 -75 -350 -75q-251 0 -394 137.5t-143 414.5zM248 610h647q2 18 2 56 q-1 64 -16.5 116t-48.5 95.5t-91.5 67.5t-138.5 24q-159 0 -252 -99.5t-102 -259.5z" />
<glyph unicode="f" horiz-adv-x="792" d="M164 0v1128q0 191 105 291.5t286 100.5q144 0 256 -39l-20 -113q-109 31 -222 31q-131 0 -194.5 -64t-63.5 -194v-92h445l-54 -123h-391v-926h-147z" />
<glyph unicode="g" horiz-adv-x="1277" d="M96 535q0 126 44.5 231t120.5 174.5t175.5 108t210.5 38.5q101 0 193.5 -41.5t136.5 -101.5l18 125h119v-981q0 -278 -122 -427.5t-369 -149.5q-193 0 -324 55l10 117q145 -52 303 -52q180 0 272.5 105.5t92.5 314.5v92q-54 -67 -147.5 -110t-206.5 -43q-156 0 -277 72 t-185.5 195.5t-64.5 277.5zM250 532q0 -190 111 -305.5t280 -115.5q98 0 188 44t138 113v430q0 112 -90.5 190.5t-231.5 78.5q-171 0 -283 -119.5t-112 -315.5z" />
<glyph unicode="h" horiz-adv-x="1216" d="M164 0v1458l147 43v-526q180 112 402 112q173 0 264 -98q86 -92 86 -272v-717h-148v702q0 128 -51 191q-30 38 -76 56t-120 18q-90 0 -188 -33t-169 -84v-850h-147z" />
<glyph unicode="i" horiz-adv-x="487" d="M164 1270v160l160 43v-203h-160zM170 0v1069h147v-1069h-147z" />
<glyph unicode="j" horiz-adv-x="487" d="M-186 -457l8 115q76 -27 158 -27q108 0 152 70.5t44 239.5v1128h148v-1122q0 -221 -78 -328.5t-248 -107.5q-106 0 -184 32zM170 1270v160l160 43v-203h-160z" />
<glyph unicode="k" horiz-adv-x="1105" d="M164 0v1458l147 43v-864h152l391 432h188l-450 -481l256 -389q30 -46 57.5 -61t73.5 -15h100l-53 -123h-108q-108 0 -175 106l-251 379q-12 18 -22.5 23.5t-31.5 5.5h-127v-514h-147z" />
<glyph unicode="l" horiz-adv-x="487" d="M170 0v1458l147 43v-1501h-147z" />
<glyph unicode="m" horiz-adv-x="1855" d="M164 0v1069h133l12 -96q77 52 170.5 83t186.5 31q90 0 164.5 -34.5t121.5 -94.5q81 58 187.5 93.5t206.5 35.5q165 0 260.5 -94.5t95.5 -285.5v-707h-148v649q0 142 -43 221q-57 97 -202 97q-73 0 -166.5 -32.5t-153.5 -82.5q17 -70 17 -170v-682h-148v649q0 153 -37 221 q-57 97 -194 97q-86 0 -171.5 -34.5t-144.5 -82.5v-850h-147z" />
<glyph unicode="n" horiz-adv-x="1216" d="M164 0v1069h133l12 -98q83 53 186 84.5t203 31.5q188 0 279 -98q86 -92 86 -272v-717h-148v702q0 128 -51 191q-30 38 -76 56t-120 18q-90 0 -184.5 -32t-172.5 -85v-850h-147z" />
<glyph unicode="o" horiz-adv-x="1253" d="M96 532q0 117 35.5 217.5t102.5 176t171.5 118.5t233.5 43q122 0 221 -43t163.5 -118.5t99 -176t34.5 -217.5q0 -90 -21.5 -171.5t-65.5 -151t-107 -120.5t-151.5 -80t-193.5 -29q-162 0 -282 74t-180 198t-60 280zM250 535q0 -200 104.5 -319.5t272.5 -119.5 q172 0 274.5 118.5t102.5 320.5q0 201 -103.5 318.5t-273.5 117.5t-273.5 -117.5t-103.5 -318.5z" />
<glyph unicode="p" horiz-adv-x="1286" d="M164 -471v1540h135l10 -164q64 86 164 134t219 48q99 0 188.5 -37t158.5 -104.5t110 -172t41 -230.5q0 -127 -40 -233t-109.5 -178t-165.5 -112t-207 -40q-110 0 -204 37t-153 98v-543zM311 266q59 -75 153.5 -120.5t203.5 -45.5q120 0 204.5 60.5t124 158t39.5 220.5 q0 203 -103.5 315.5t-264.5 112.5q-146 0 -251.5 -96t-105.5 -226v-379z" />
<glyph unicode="q" horiz-adv-x="1288" d="M96 537q0 127 46.5 233.5t122.5 174t169 105t189 37.5q122 0 215.5 -44.5t142.5 -118.5l18 145h125v-1497l-149 -43v604q-132 -153 -359 -153q-230 0 -375 149.5t-145 407.5zM250 537q0 -192 103 -314.5t278 -122.5q112 0 203.5 53t142.5 140v360q0 58 -24 114 t-66.5 100.5t-109.5 72t-146 27.5q-75 0 -143.5 -29.5t-121.5 -83t-84.5 -136t-31.5 -181.5z" />
<glyph unicode="r" horiz-adv-x="724" d="M164 0v1069h135l12 -154q65 67 167 115t214 57l-8 -143q-94 -3 -197.5 -44t-175.5 -101v-799h-147z" />
<glyph unicode="s" horiz-adv-x="921" d="M100 57l15 125q158 -82 331 -82q117 0 181.5 47.5t64.5 133.5q0 67 -28 102q-22 29 -61 48t-146 58q-180 65 -254 137.5t-74 186.5q0 126 104 200t273 74q141 0 274 -47l-16 -120q-132 47 -254 47q-112 0 -174 -40t-62 -112q0 -65 50 -112t194 -95q107 -36 164.5 -68.5 t93.5 -74.5q55 -67 55 -170q0 -150 -107 -232.5t-278 -82.5q-188 0 -346 77z" />
<glyph unicode="t" horiz-adv-x="735" d="M158 287v1018l147 43v-299h385l-51 -123h-334v-617q0 -109 39.5 -154.5t140.5 -45.5q103 0 193 22l10 -111q-89 -28 -211 -28q-161 0 -240 71.5t-79 223.5z" />
<glyph unicode="u" horiz-adv-x="1204" d="M154 399v670h147v-674q0 -142 84 -218.5t229 -76.5q143 0 216 78t73 217v674h148v-670q0 -194 -115 -306.5t-326 -112.5q-103 0 -184.5 23.5t-143.5 72.5t-95 131t-33 192z" />
<glyph unicode="v" horiz-adv-x="1105" d="M31 1069h162l358 -852h4l358 852h162l-477 -1069h-90z" />
<glyph unicode="w" horiz-adv-x="1632" d="M27 1069h161l269 -844h8l293 844h102l307 -844h9l268 844h162l-377 -1069h-115l-303 803h-6l-291 -803h-115z" />
<glyph unicode="x" horiz-adv-x="1089" d="M45 0l414 549l-396 520h173l309 -410h8l297 410h174l-389 -522l420 -547h-172l-334 440h-8l-322 -440h-174z" />
<glyph unicode="y" horiz-adv-x="1085" d="M31 1069h162l360 -852h4l336 852h162l-660 -1552l-135 41l221 491z" />
<glyph unicode="z" horiz-adv-x="1054" d="M72 0v57l694 889h-614l-54 123h885v-65l-690 -881h694l-53 -123h-862z" />
<glyph unicode="{" horiz-adv-x="794" d="M70 506v98q50 4 83.5 14.5t62 35t42.5 69t14 111.5v282q0 133 73 211t218 78h170v-117h-147q-101 0 -135.5 -44.5t-34.5 -133.5v-274q0 -119 -28.5 -183.5t-92.5 -95.5v-4q66 -29 93.5 -88t27.5 -191v-292q0 -82 38.5 -121t131.5 -39h147v-117h-170q-144 0 -217.5 69.5 t-73.5 200.5v301q0 64 -14 108.5t-41.5 69.5t-62.5 37t-84 15z" />
<glyph unicode="|" horiz-adv-x="507" d="M182 0v1495h144v-1495h-144z" />
<glyph unicode="}" horiz-adv-x="794" d="M61 -178h148q93 0 131.5 39t38.5 121v292q0 132 27.5 191t93.5 88v4q-64 31 -92.5 95.5t-28.5 183.5v274q0 89 -34.5 133.5t-135.5 44.5h-148v117h170q145 0 218 -78t73 -211v-282q0 -67 14 -112t43 -69t62.5 -34.5t83.5 -14.5v-98q-49 -3 -84 -15t-63 -37t-42 -69.5 t-14 -108.5v-301q0 -131 -73.5 -200.5t-217.5 -69.5h-170v117z" />
<glyph unicode="~" horiz-adv-x="1241" d="M139 477q127 219 307 219q41 0 84 -18t78.5 -43.5t70 -51t71 -43.5t69.5 -18q115 0 189 166l94 -84q-47 -101 -123 -161t-166 -60q-50 0 -97.5 17.5t-84.5 42.5t-70.5 50t-67 42.5t-63.5 17.5q-56 0 -108 -41.5t-93 -108.5z" />
<glyph unicode="&#xa2;" d="M106 539q0 221 129 365.5t332 174.5v191h125v-183q160 -6 283 -59l-25 -119q-122 52 -258 58v-867q138 3 277 66l22 -113q-148 -67 -299 -73v-173h-125v179q-213 27 -337 172t-124 381zM260 541q0 -79 17.5 -147t53 -126.5t96 -99.5t140.5 -57v843 q-144 -30 -225.5 -141.5t-81.5 -271.5z" />
<glyph unicode="&#xa3;" d="M141 662v118h195v205q0 197 114.5 308.5t327.5 111.5q164 0 299 -55l-16 -131q-51 26 -132.5 42.5t-146.5 16.5q-299 0 -299 -295v-203h465l-45 -118h-420v-228q0 -215 -131 -303h774l-57 -131h-915v104q88 42 135 124t47 186v248h-195z" />
<glyph unicode="&#xa5;" d="M55 1384h172l406 -710h8l389 710h170l-334 -581h277l-45 -119h-299l-90 -156h407l-45 -118h-364v-410h-150v410h-373v118h373l-92 156h-301v119h231z" />
<glyph unicode="&#xa8;" horiz-adv-x="745" d="M72 1276v166l194 49v-215h-194zM477 1276v166l195 49v-215h-195z" />
<glyph unicode="&#xa9;" horiz-adv-x="1806" d="M133 694q0 147 56 280t154.5 233t244.5 159t315 59t315 -59t244.5 -159t154.5 -233t56 -280t-56 -280.5t-154.5 -234.5t-244.5 -160.5t-315 -59.5t-315 59.5t-244.5 160.5t-154.5 234.5t-56 280.5zM264 692q0 -124 46 -237t127.5 -198.5t203 -136t262.5 -50.5t262.5 50.5 t203 136t127.5 198.5t46 237q0 99 -29 192t-85 171t-132.5 136.5t-178 91t-214.5 32.5t-214.5 -32.5t-178 -91t-132.5 -136.5t-85 -171t-29 -192zM551 705q0 167 101 268.5t276 101.5q131 0 227 -47l-10 -119q-104 52 -219 52q-103 0 -172.5 -68.5t-69.5 -187.5 q0 -121 69 -192t177 -71q123 0 215 47l10 -114q-92 -47 -229 -47q-176 0 -275.5 107t-99.5 270z" />
<glyph unicode="&#xab;" horiz-adv-x="1128" d="M16 516l453 404l94 -74l-346 -330l346 -336l-94 -78zM543 516l452 404l92 -74l-344 -330l344 -336l-92 -78z" />
<glyph unicode="&#xad;" horiz-adv-x="653" d="M100 465v141h467l-65 -141h-402z" />
<glyph unicode="&#xae;" horiz-adv-x="1806" d="M133 694q0 147 56 280t154.5 233t244.5 159t315 59t315 -59t244.5 -159t154.5 -233t56 -280t-56 -280.5t-154.5 -234.5t-244.5 -160.5t-315 -59.5t-315 59.5t-244.5 160.5t-154.5 234.5t-56 280.5zM264 692q0 -124 46 -237t127.5 -198.5t203 -136t262.5 -50.5t262.5 50.5 t203 136t127.5 198.5t46 237q0 99 -29 192t-85 171t-132.5 136.5t-178 91t-214.5 32.5t-214.5 -32.5t-178 -91t-132.5 -136.5t-85 -171t-29 -192zM639 338v727h258q291 0 291 -221q0 -176 -158 -226l84 -131q14 -19 24.5 -25.5t28.5 -6.5h64l-39 -117h-78q-52 0 -86 51 l-117 180q-17 25 -47 25h-98v-256h-127zM766 709h162q127 0 127 129q0 63 -34.5 87.5t-119.5 24.5h-135v-241z" />
<glyph unicode="&#xb4;" horiz-adv-x="745" d="M143 1300l430 252l82 -129l-448 -221z" />
<glyph unicode="&#xb8;" horiz-adv-x="745" d="M197 -467l4 113q83 -27 157 -27q63 0 98.5 23.5t35.5 60.5q0 80 -136 80h-139l55 217h121l-26 -113h51q92 0 151.5 -44t59.5 -126q0 -85 -66 -145.5t-180 -60.5q-112 0 -186 22z" />
<glyph unicode="&#xbb;" horiz-adv-x="1128" d="M41 180l344 336l-344 330l92 74l453 -404l-453 -414zM565 180l346 336l-346 330l94 74l453 -404l-453 -414z" />
<glyph unicode="&#x2c6;" horiz-adv-x="745" d="M55 1253l244 314h147l244 -314l-110 -49l-197 217h-21l-196 -217z" />
<glyph unicode="&#x2da;" horiz-adv-x="745" d="M162 1413q0 84 63 143.5t150 59.5q88 0 149.5 -58.5t61.5 -144.5t-61.5 -145.5t-149.5 -59.5q-87 0 -150 60.5t-63 144.5zM283 1411q0 -38 27.5 -65t64.5 -27t63.5 27.5t26.5 64.5t-26.5 64.5t-63.5 27.5t-64.5 -27t-27.5 -65z" />
<glyph unicode="&#x2dc;" horiz-adv-x="745" d="M14 1309q31 100 93.5 155.5t128.5 55.5q48 0 105.5 -30t108 -59.5t82.5 -29.5q36 0 60 28.5t43 83.5l96 -47q-22 -89 -76 -143.5t-127 -54.5q-52 0 -110 28.5t-106.5 57t-78.5 28.5q-37 0 -68 -31t-50 -89z" />
<glyph unicode="&#x400;" horiz-adv-x="1114" d="M180 258v1126h885l-57 -131h-678v-520h588l-7 -131h-581v-323q0 -79 31 -113.5t106 -34.5h598l-57 -131h-559q-144 0 -206.5 62t-62.5 196zM338 1722l82 129l430 -252l-64 -98z" />
<glyph unicode="&#x401;" horiz-adv-x="1114" d="M180 258v1126h885l-57 -131h-678v-520h588l-7 -131h-581v-323q0 -79 31 -113.5t106 -34.5h598l-57 -131h-559q-144 0 -206.5 62t-62.5 196zM332 1532v166l194 49v-215h-194zM737 1532v166l195 49v-215h-195z" />
<glyph unicode="&#x402;" horiz-adv-x="1486" d="M12 1253v131h1002l-58 -131h-454v-465q51 31 95.5 51.5t130.5 41t183 20.5q237 0 349 -118t112 -349v-49q0 -73 -13 -131.5t-34.5 -98t-53.5 -69t-64 -45.5t-72.5 -25.5t-73.5 -12.5t-72 -3h-106l-58 131h164q58 0 97.5 10t72.5 36t48.5 77.5t15.5 130.5v39 q0 182 -80 266t-260 84q-202 0 -381 -117v-657h-150v1253h-340z" />
<glyph unicode="&#x403;" horiz-adv-x="1060" d="M184 0v1384h865l-58 -131h-657v-1253h-150zM408 1599l430 252l82 -129l-449 -221z" />
<glyph unicode="&#x404;" horiz-adv-x="1351" d="M115 684q0 209 88.5 372t256.5 256t390 93q120 0 234.5 -28.5t195.5 -71.5l-18 -134q-188 105 -416 105q-246 0 -399.5 -143.5t-174.5 -380.5h689l-58 -131h-631q22 -231 177 -371.5t387 -140.5q231 0 421 96l17 -127q-201 -98 -443 -98q-165 0 -301.5 54t-226.5 149 t-139 223.5t-49 277.5z" />
<glyph unicode="&#x405;" horiz-adv-x="1134" d="M74 86l26 133q90 -51 203.5 -82t212.5 -31q177 0 266.5 72.5t89.5 196.5q0 106 -66 160.5t-261 115.5q-233 72 -329.5 160.5t-96.5 241.5q0 110 64 191t169.5 121t237.5 40q176 0 364 -62l-16 -135q-185 70 -342 70q-159 0 -240.5 -59t-81.5 -160q0 -55 14.5 -92 t55.5 -69t97.5 -56.5t158.5 -59.5q81 -27 133.5 -47.5t105.5 -47.5t84 -54.5t56.5 -65t36 -84t10.5 -106.5q0 -185 -141 -291t-367 -106q-234 0 -444 106z" />
<glyph unicode="&#x406;" horiz-adv-x="526" d="M188 0v1384h150v-1384h-150z" />
<glyph unicode="&#x407;" horiz-adv-x="526" d="M-37 1532v166l195 49v-215h-195zM188 0v1384h150v-1384h-150zM369 1532v166l194 49v-215h-194z" />
<glyph unicode="&#x408;" horiz-adv-x="788" d="M61 131h185q213 0 213 240v1013h149v-999q0 -192 -95.5 -288.5t-266.5 -96.5h-127z" />
<glyph unicode="&#x409;" horiz-adv-x="2140" d="M37 131h131q73 0 97.5 30.5t37.5 117.5l176 1105h756v-602h321q118 0 206.5 -19.5t156.5 -63t103.5 -120t35.5 -184.5q0 -395 -491 -395h-482v1253h-471l-157 -995q-11 -69 -27.5 -113.5t-46.5 -79t-79 -50t-120 -15.5h-90zM1235 131h319q79 0 137 11t108.5 38.5t77 81.5 t26.5 133q0 50 -12 90t-30.5 66.5t-47.5 45.5t-57 29.5t-67 16t-67.5 7t-67.5 1.5h-319v-520z" />
<glyph unicode="&#x40a;" horiz-adv-x="2097" d="M184 0v1384h150v-602h708v602h150v-602h321q118 0 206.5 -19.5t156.5 -63t103.5 -120t35.5 -184.5q0 -395 -491 -395h-482v651h-708v-651h-150zM1192 131h319q79 0 137 11t108.5 38.5t77 81.5t26.5 133q0 50 -12 90t-30.5 66.5t-47.5 45.5t-57 29.5t-67 16t-67.5 7 t-67.5 1.5h-319v-520z" />
<glyph unicode="&#x40b;" horiz-adv-x="1525" d="M12 1253v131h1002l-58 -131h-454v-465q51 31 95.5 51.5t130.5 41t183 20.5q237 0 349 -118t112 -349v-434h-149v424q0 182 -80 266t-260 84q-202 0 -381 -117v-657h-150v1253h-340z" />
<glyph unicode="&#x40c;" horiz-adv-x="1202" d="M184 0v1384h150v-610h135q43 0 67.5 14.5t51.5 59.5l252 424q38 64 87.5 88t127.5 24h127l-58 -131h-39q-56 0 -81 -12t-46 -47l-229 -385q-32 -55 -55 -76t-47 -26v-5q14 -5 32.5 -23.5t30.5 -34.5l39 -52l442 -592h-184l-455 612q-16 22 -27 26.5t-36 4.5h-135v-643 h-150zM381 1599l430 252l82 -129l-449 -221z" />
<glyph unicode="&#x40d;" horiz-adv-x="1495" d="M184 0v1384h142v-1122l862 1122h123v-1384h-142v1143l-878 -1143h-107zM492 1722l81 129l431 -252l-64 -98z" />
<glyph unicode="&#x40e;" horiz-adv-x="1185" d="M29 1384h172l401 -710h8l394 710h170l-728 -1271q-23 -40 -49 -64.5t-59 -34t-57 -12t-66 -2.5h-80l-57 131h123q51 0 81 15.5t56 62.5l186 326zM281 1786l137 12q47 -158 186 -158q140 0 187 158l137 -12q-25 -124 -112.5 -196t-211.5 -72t-211 72t-112 196z" />
<glyph unicode="&#x40f;" horiz-adv-x="1429" d="M184 0v1384h150v-1253h762v1253h149v-1384h-459v-324l-143 -34v358h-459z" />
<glyph unicode="&#x410;" horiz-adv-x="1325" d="M45 0l567 1389h101l567 -1389h-160l-145 360h-625l-145 -360h-160zM403 492h519l-252 630h-15z" />
<glyph unicode="&#x411;" horiz-adv-x="1239" d="M184 0v1384h865l-58 -131h-657v-471h321q118 0 206.5 -19.5t156.5 -63t103.5 -120t35.5 -184.5q0 -395 -491 -395h-482zM334 131h319q62 0 110.5 6.5t94.5 23.5t76.5 46t48.5 76.5t18 111.5q0 50 -12 90t-30 66.5t-47.5 45.5t-57 29.5t-66.5 16t-67.5 7t-67.5 1.5h-319 v-520z" />
<glyph unicode="&#x412;" horiz-adv-x="1273" d="M184 0v1384h475q130 0 212 -21.5t137 -70.5q100 -86 100 -256q0 -216 -186 -301v-4q125 -24 197.5 -113t72.5 -210q0 -207 -124.5 -307.5t-352.5 -100.5h-531zM334 131h389q154 0 233.5 63t79.5 203q0 120 -80 187q-42 36 -99.5 51.5t-151.5 15.5h-371v-520zM334 782h352 q127 0 197 58q73 61 73 184q0 113 -63 170q-64 59 -217 59h-342v-471z" />
<glyph unicode="&#x413;" horiz-adv-x="1060" d="M184 0v1384h865l-58 -131h-657v-1253h-150z" />
<glyph unicode="&#x414;" horiz-adv-x="1402" d="M37 139h61q83 0 108.5 27.5t39.5 120.5l176 1097h756v-1245h139v-463l-143 -34v366h-994v-332l-143 -34v497zM354 139h674v1114h-471l-158 -987q-17 -112 -45 -127z" />
<glyph unicode="&#x415;" horiz-adv-x="1114" d="M180 258v1126h885l-57 -131h-678v-520h588l-7 -131h-581v-323q0 -79 31 -113.5t106 -34.5h598l-57 -131h-559q-144 0 -206.5 62t-62.5 196z" />
<glyph unicode="&#x416;" horiz-adv-x="1775" d="M29 1384h131q80 0 133.5 -25t81.5 -87l190 -424q19 -41 46 -57.5t73 -16.5h131v610h146v-610h135q46 0 72.5 16.5t45.5 57.5l191 424q28 62 81.5 87t133.5 25h127l-57 -131h-39q-57 0 -84.5 -12.5t-42.5 -46.5l-168 -385q-21 -47 -48.5 -71.5t-52.5 -30.5v-5 q24 -8 46 -33.5t55 -76.5l381 -592h-181l-393 612q-13 20 -25 25.5t-38 5.5h-139v-643h-146v643h-135q-26 0 -38.5 -5.5t-25.5 -25.5l-393 -612h-184l381 592q33 52 54.5 77t45.5 33v5q-62 14 -100 102l-168 385q-15 34 -42.5 46.5t-84.5 12.5h-39z" />
<glyph unicode="&#x417;" horiz-adv-x="1122" d="M74 82l22 129q215 -105 426 -105q168 0 265.5 76.5t97.5 210.5q0 131 -82 190.5t-277 59.5h-147l-41 131h182q176 0 259 61.5t83 208.5q0 101 -81 166.5t-222 65.5q-181 0 -397 -100l-27 131q88 42 206.5 70t227.5 28q209 0 327 -95.5t118 -246.5q0 -278 -223 -342v-4 q249 -56 249 -322q0 -190 -140 -302.5t-365 -112.5q-136 0 -257.5 29t-203.5 73z" />
<glyph unicode="&#x418;" horiz-adv-x="1495" d="M184 0v1384h142v-1122l862 1122h123v-1384h-142v1143l-878 -1143h-107z" />
<glyph unicode="&#x419;" horiz-adv-x="1495" d="M184 0v1384h142v-1122l862 1122h123v-1384h-142v1143l-878 -1143h-107zM424 1786l137 12q47 -158 187 -158q139 0 186 158l137 -12q-25 -124 -112 -196t-211 -72t-211.5 72t-112.5 196z" />
<glyph unicode="&#x41a;" horiz-adv-x="1202" d="M184 0v1384h150v-610h135q43 0 67.5 14.5t51.5 59.5l252 424q38 64 87.5 88t127.5 24h127l-58 -131h-39q-56 0 -81 -12t-46 -47l-229 -385q-32 -55 -55 -76t-47 -26v-5q14 -5 32.5 -23.5t30.5 -34.5l39 -52l442 -592h-184l-455 612q-16 22 -27 26.5t-36 4.5h-135v-643 h-150z" />
<glyph unicode="&#x41b;" horiz-adv-x="1419" d="M37 131h131q73 0 97.5 30.5t37.5 117.5l176 1105h756v-1384h-150v1253h-471l-157 -995q-11 -69 -27.5 -113.5t-46.5 -79t-79 -50t-120 -15.5h-90z" />
<glyph unicode="&#x41c;" horiz-adv-x="1757" d="M184 0v1384h123l567 -993h9l567 993h123v-1384h-141v1065l-517 -879h-79l-510 879v-1065h-142z" />
<glyph unicode="&#x41d;" horiz-adv-x="1472" d="M184 0v1384h150v-610h805v610h149v-1384h-149v643h-805v-643h-150z" />
<glyph unicode="&#x41e;" horiz-adv-x="1615" d="M115 680q0 135 37 252t102.5 203t154.5 147.5t194.5 92t221.5 30.5q140 0 262.5 -47.5t214.5 -135t145.5 -220.5t53.5 -295q0 -171 -54.5 -310t-149.5 -229.5t-221 -139t-271 -48.5t-270.5 48t-219 136t-147 221t-53.5 295zM270 684q0 -139 43 -250.5t117 -182 t170.5 -108t206.5 -37.5q109 0 205 37t171 107.5t119 185t44 258.5t-44.5 258t-119.5 183.5t-169 106t-198 36.5q-103 0 -199.5 -38.5t-174 -111t-124.5 -188t-47 -256.5z" />
<glyph unicode="&#x41f;" horiz-adv-x="1449" d="M184 0v1384h1082v-1384h-150v1253h-782v-1253h-150z" />
<glyph unicode="&#x420;" horiz-adv-x="1181" d="M184 0v1384h461q255 0 373 -104q119 -104 119 -319q0 -72 -14 -134.5t-49.5 -121.5t-90 -100.5t-141.5 -67t-199 -25.5h-309v-512h-150zM334 643h299q178 0 262 72q86 74 86 246q0 144 -74 215q-80 77 -260 77h-313v-610z" />
<glyph unicode="&#x421;" horiz-adv-x="1351" d="M115 684q0 209 88.5 372t256.5 256t390 93q120 0 234.5 -28.5t195.5 -71.5l-18 -134q-188 105 -416 105q-263 0 -419.5 -164t-156.5 -426q0 -258 158.5 -417.5t407.5 -159.5q231 0 421 96l17 -127q-201 -98 -443 -98q-165 0 -301.5 54t-226.5 149t-139 223.5t-49 277.5z " />
<glyph unicode="&#x422;" horiz-adv-x="1189" d="M12 1253v131h1178l-57 -131h-476v-1253h-149v1253h-496z" />
<glyph unicode="&#x423;" horiz-adv-x="1185" d="M29 1384h172l401 -710h8l394 710h170l-728 -1271q-23 -40 -49 -64.5t-59 -34t-57 -12t-66 -2.5h-80l-57 131h123q51 0 81 15.5t56 62.5l186 326z" />
<glyph unicode="&#x424;" horiz-adv-x="1509" d="M115 684q0 137 46.5 252t126.5 192.5t181.5 124.5t216.5 60v180h137v-178q114 -9 216 -53t182 -119t127 -188.5t47 -249.5q0 -140 -46.5 -256.5t-126 -194.5t-182 -124.5t-217.5 -57.5v-178h-137v176q-117 10 -219 55.5t-181 121t-125 188.5t-46 249zM270 686 q0 -116 34 -208t93 -149.5t131.5 -90.5t157.5 -43v995q-80 -11 -151.5 -46t-132 -94.5t-96.5 -153t-36 -210.5zM823 195q66 8 125 29.5t113 62t93 96t62 136t23 177.5q0 96 -23.5 176.5t-63 135.5t-94 95t-113 61t-122.5 28v-997z" />
<glyph unicode="&#x425;" horiz-adv-x="1275" d="M29 1384h182l420 -559l397 559h184l-491 -671l526 -713h-186l-430 590l-412 -590h-180l500 698z" />
<glyph unicode="&#x426;" horiz-adv-x="1470" d="M184 0v1384h150v-1253h762v1253h149v-1253h139v-455l-143 -34v358h-1057z" />
<glyph unicode="&#x427;" horiz-adv-x="1339" d="M74 995v389h149v-391q0 -106 22 -175.5t74 -119.5q104 -96 295 -96q234 0 392 133v649h149v-1384h-149v600q-164 -125 -400 -125q-252 0 -389 125q-143 131 -143 395z" />
<glyph unicode="&#x428;" horiz-adv-x="1757" d="M184 0v1384h150v-1253h471v1253h149v-1253h469v1253h150v-1384h-1389z" />
<glyph unicode="&#x429;" horiz-adv-x="1798" d="M184 0v1384h150v-1253h471v1253h149v-1253h469v1253h150v-1253h139v-455l-143 -34v358h-1385z" />
<glyph unicode="&#x42a;" horiz-adv-x="1404" d="M37 1384h463v-602h321q118 0 206.5 -19.5t156.5 -63t103.5 -120t35.5 -184.5q0 -395 -492 -395h-481v1253h-262zM500 131h319q62 0 110.5 6.5t94.5 23.5t76.5 46t48.5 76.5t18 111.5q0 50 -12 90t-30 66.5t-47.5 45.5t-57 29.5t-66.5 16t-67.5 7t-67.5 1.5h-319v-520z " />
<glyph unicode="&#x42b;" horiz-adv-x="1695" d="M184 0v1384h150v-602h321q118 0 206.5 -19.5t156.5 -63t103.5 -120t35.5 -184.5q0 -395 -491 -395h-482zM334 131h319q62 0 110.5 6.5t94.5 23.5t76.5 46t48.5 76.5t18 111.5q0 50 -12 90t-30 66.5t-47.5 45.5t-57 29.5t-66.5 16t-67.5 7t-67.5 1.5h-319v-520zM1362 0 v1384h149v-1384h-149z" />
<glyph unicode="&#x42c;" horiz-adv-x="1239" d="M184 0v1384h150v-602h321q118 0 206.5 -19.5t156.5 -63t103.5 -120t35.5 -184.5q0 -395 -491 -395h-482zM334 131h319q62 0 110.5 6.5t94.5 23.5t76.5 46t48.5 76.5t18 111.5q0 50 -12 90t-30 66.5t-47.5 45.5t-57 29.5t-66.5 16t-67.5 7t-67.5 1.5h-319v-520z" />
<glyph unicode="&#x42d;" horiz-adv-x="1345" d="M72 78l16 127q190 -96 422 -96q231 0 386 140.5t175 371.5h-627l-57 131h686q-19 239 -164 381.5t-389 142.5q-228 0 -416 -105l-18 134q81 43 195.5 71.5t234.5 28.5q167 0 302.5 -54t225.5 -150t138.5 -228t48.5 -289q0 -149 -49 -277.5t-139.5 -223.5t-227 -149 t-301.5 -54q-241 0 -442 98z" />
<glyph unicode="&#x42e;" horiz-adv-x="2244" d="M184 0v1384h150v-610h414q20 195 121 340t252.5 218t332.5 73q140 0 262.5 -47.5t214.5 -135t145.5 -220.5t53.5 -295q0 -171 -54.5 -310t-149.5 -229.5t-221 -139t-271 -48.5q-189 0 -341.5 77t-247 229t-102.5 357h-409v-643h-150zM899 684q0 -139 43 -250.5t117 -182 t170.5 -108t206.5 -37.5q109 0 204.5 37t171 107.5t119 185t43.5 258.5q0 116 -29 213t-79 164.5t-118 115t-144.5 69.5t-159.5 22q-103 0 -199.5 -38.5t-174 -111t-124.5 -188t-47 -256.5z" />
<glyph unicode="&#x42f;" horiz-adv-x="1261" d="M37 131h115q30 0 50.5 12.5t43.5 46.5l241 367q-360 52 -360 404q0 423 489 423h461v-1384h-149v549h-221q-26 0 -40 -6.5t-26 -24.5l-276 -414q-38 -58 -75.5 -81t-96.5 -23h-103zM283 963q0 -150 84 -216.5t247 -66.5h314v573h-316q-170 0 -249.5 -71t-79.5 -219z" />
<glyph unicode="&#x430;" horiz-adv-x="1128" d="M109 328q0 127 91 197.5t263 70.5h170q78 0 184 -8v98q0 147 -70 214t-215 67q-159 0 -319 -47l-16 114q164 53 360 53q198 0 303 -93.5t105 -278.5v-445q0 -98 4 -270h-123l-19 133h-4q-91 -153 -331 -153q-167 0 -275 94t-108 254zM262 326q0 -107 72 -166.5t182 -59.5 q137 0 219 71t82 198v108h-375q-85 0 -132.5 -34t-47.5 -117z" />
<glyph unicode="&#x431;" horiz-adv-x="1234" d="M106 627q0 173 26 309t68.5 229t113.5 159.5t142.5 104t174.5 58.5t191 27t210 6l-10 -127q-65 0 -113 -1.5t-110.5 -7t-108.5 -15t-100.5 -27.5t-94 -43t-79.5 -62.5t-67.5 -84.5t-48.5 -110t-30 -139h4q20 27 48.5 52t72.5 52t108 43.5t138 16.5q242 0 370 -147 t128 -388q0 -114 -31.5 -212t-93 -175t-162.5 -121t-231 -44q-133 0 -233.5 48.5t-161.5 136.5t-90.5 203.5t-29.5 258.5zM272 535q0 -203 96 -321t261 -118q170 0 263 117t93 322q0 201 -93 308t-263 107t-263.5 -107t-93.5 -308z" />
<glyph unicode="&#x432;" horiz-adv-x="1087" d="M164 0v1069h414q59 0 106 -6t95 -24t79.5 -48t51.5 -81t20 -119q0 -83 -36.5 -143t-84.5 -85v-2q89 -22 135.5 -83t46.5 -154q0 -164 -97 -244t-276 -80h-454zM311 123h314q213 0 213 192q0 55 -18.5 91.5t-53 54.5t-71 24.5t-85.5 6.5h-299v-369zM311 614h285 q182 0 182 170q0 162 -190 162h-277v-332z" />
<glyph unicode="&#x433;" horiz-adv-x="851" d="M164 0v1069h682l-51 -123h-484v-946h-147z" />
<glyph unicode="&#x434;" horiz-adv-x="1171" d="M25 131h75q52 0 67.5 19t25.5 81l131 838h643v-938h131v-369l-140 -34v280h-794v-246l-139 -34v403zM311 131h508v815h-358l-117 -739q-11 -64 -33 -76z" />
<glyph unicode="&#x435;" horiz-adv-x="1130" d="M96 532q0 118 34.5 219.5t99 176t163 117t219.5 42.5q111 0 195.5 -34.5t135.5 -96t76.5 -140.5t27.5 -175q0 -73 -9 -149h-790q6 -185 104 -288.5t301 -103.5q70 0 155.5 19t152.5 49l22 -113q-169 -75 -350 -75q-251 0 -394 137.5t-143 414.5zM248 610h647q2 18 2 56 q-1 64 -16.5 116t-48.5 95.5t-91.5 67.5t-138.5 24q-159 0 -252 -99.5t-102 -259.5z" />
<glyph unicode="&#x436;" horiz-adv-x="1384" d="M33 0l309 481q22 35 35 49.5t29 20.5v4q-19 5 -39 23.5t-33 48.5l-129 284q-10 22 -26 28.5t-52 6.5h-39l-55 123h114q135 0 177 -94l143 -316q20 -45 70 -45h84v455h143v-455h84q50 0 70 45l143 316q42 94 176 94h115l-52 -123h-43q-36 0 -51.5 -6.5t-25.5 -28.5 l-129 -284q-13 -30 -33 -48.5t-39 -23.5v-4q16 -6 28.5 -20t34.5 -50l310 -481h-174l-306 479q-9 13 -30 13h-78v-492h-143v492h-78q-22 0 -31 -13l-305 -479h-174z" />
<glyph unicode="&#x437;" horiz-adv-x="970" d="M74 70l20 118q187 -88 357 -88q118 0 194 56.5t76 154.5q0 96 -56 138.5t-192 42.5h-139l-53 122h188q64 0 103 6.5t71 25.5t45.5 56.5t13.5 98.5q0 83 -60.5 125.5t-164.5 42.5q-71 0 -166 -24t-168 -60l-24 116q74 35 178 60.5t188 25.5q168 0 268.5 -75.5 t100.5 -200.5q0 -106 -37.5 -169.5t-103.5 -84.5v-4q161 -45 161 -240q0 -154 -117.5 -243.5t-297.5 -89.5q-104 0 -210 26.5t-175 63.5z" />
<glyph unicode="&#x438;" horiz-adv-x="1204" d="M164 0v1069h139v-815l625 815h112v-1069h-139v819l-629 -819h-108z" />
<glyph unicode="&#x439;" horiz-adv-x="1204" d="M164 0v1069h139v-815l625 815h112v-1069h-139v819l-629 -819h-108zM289 1503l137 13q47 -158 186 -158q140 0 187 158l137 -13q-25 -124 -112.5 -196t-211.5 -72t-211 72t-112 196z" />
<glyph unicode="&#x43a;" horiz-adv-x="1036" d="M164 0v1069h147v-455h131q45 0 72 48l186 315q32 54 73 73t106 19h127l-52 -123h-55q-35 0 -50 -7t-28 -30l-164 -270q-19 -31 -41.5 -55t-35.5 -27v-4q25 -8 79 -82l353 -471h-181l-346 471q-15 21 -43 21h-131v-492h-147z" />
<glyph unicode="&#x43b;" horiz-adv-x="1146" d="M25 123h122q41 0 56 18.5t24 77.5l135 850h621v-1069h-147v946h-342l-117 -739q-18 -114 -66.5 -160.5t-163.5 -46.5h-69z" />
<glyph unicode="&#x43c;" horiz-adv-x="1400" d="M164 0v1069h112l422 -737h4l422 737h113v-1069h-133v778l-371 -641h-69l-367 641v-778h-133z" />
<glyph unicode="&#x43d;" d="M164 0v1069h147v-455h604v455h148v-1069h-148v492h-604v-492h-147z" />
<glyph unicode="&#x43e;" horiz-adv-x="1253" d="M96 532q0 117 35.5 217.5t102.5 176t171.5 118.5t233.5 43q122 0 221 -43t163.5 -118.5t99 -176t34.5 -217.5q0 -90 -21.5 -171.5t-65.5 -151t-107 -120.5t-151.5 -80t-193.5 -29q-162 0 -282 74t-180 198t-60 280zM250 535q0 -200 104.5 -319.5t272.5 -119.5 q172 0 274.5 118.5t102.5 320.5q0 201 -103.5 318.5t-273.5 117.5t-273.5 -117.5t-103.5 -318.5z" />
<glyph unicode="&#x43f;" horiz-adv-x="1206" d="M164 0v1069h878v-1069h-147v946h-584v-946h-147z" />
<glyph unicode="&#x440;" horiz-adv-x="1286" d="M164 -471v1540h135l10 -164q64 86 164 134t219 48q99 0 188.5 -37t158.5 -104.5t110 -172t41 -230.5q0 -127 -40 -233t-109.5 -178t-165.5 -112t-207 -40q-110 0 -204 37t-153 98v-543zM311 266q59 -75 153.5 -120.5t203.5 -45.5q120 0 204.5 60.5t124 158t39.5 220.5 q0 203 -103.5 315.5t-264.5 112.5q-146 0 -251.5 -96t-105.5 -226v-379z" />
<glyph unicode="&#x441;" horiz-adv-x="1042" d="M96 539q0 166 75 292t200.5 191t279.5 65q183 0 314 -59l-25 -119q-127 58 -283 58q-185 0 -296 -119.5t-111 -306.5q0 -91 23.5 -168t71.5 -139.5t131.5 -98t193.5 -35.5q143 0 288 66l23 -113q-159 -73 -332 -73q-251 0 -402 149t-151 410z" />
<glyph unicode="&#x442;" horiz-adv-x="919" d="M-4 946v123h917l-51 -123h-346v-946h-147v946h-373z" />
<glyph unicode="&#x443;" horiz-adv-x="1085" d="M31 1069h162l360 -852h4l336 852h162l-660 -1552l-135 41l221 491z" />
<glyph unicode="&#x444;" horiz-adv-x="1363" d="M96 532q0 234 139 387.5t375 178.5v360l144 43v-403q232 -19 373 -174t141 -392q0 -229 -139 -384t-375 -179v-397l-144 -43v440q-232 20 -373 173.5t-141 389.5zM250 535q0 -194 101 -311t259 -140v897q-159 -23 -259.5 -138t-100.5 -308zM754 84q160 23 260 139.5 t100 311.5q0 193 -100.5 308t-259.5 138v-897z" />
<glyph unicode="&#x445;" horiz-adv-x="1089" d="M45 0l414 549l-396 520h173l309 -410h8l297 410h174l-389 -522l420 -547h-172l-334 440h-8l-322 -440h-174z" />
<glyph unicode="&#x446;" d="M164 0v1069h147v-946h563v946h148v-946h131v-361l-139 -34v272h-850z" />
<glyph unicode="&#x447;" horiz-adv-x="1118" d="M115 760v309h147v-309q0 -156 68 -221q66 -66 205 -66q166 0 272 86v510h147v-1069h-147v428q-127 -76 -279 -76q-196 0 -303 101q-110 98 -110 307z" />
<glyph unicode="&#x448;" horiz-adv-x="1400" d="M164 0v1069h147v-946h316v946h147v-946h316v946h147v-1069h-1073z" />
<glyph unicode="&#x449;" horiz-adv-x="1441" d="M164 0v1069h147v-946h316v946h147v-946h316v946h147v-946h131v-361l-139 -34v272h-1065z" />
<glyph unicode="&#x44a;" horiz-adv-x="1191" d="M41 1069h375v-387h227q65 0 116 -4.5t105.5 -17t94 -37t72 -60.5t49 -91.5t16.5 -127.5q0 -89 -29.5 -154.5t-73 -101t-108 -56.5t-117.5 -26.5t-119 -5.5h-381v946h-174zM416 123h225q53 0 89.5 3t79.5 16t69 35.5t43.5 65t17.5 101.5q0 43 -10 77t-25.5 56t-40.5 38 t-48 24.5t-55 13t-53.5 5.5t-52.5 1h-239v-436z" />
<glyph unicode="&#x44b;" horiz-adv-x="1482" d="M156 0v1069h147v-387h227q65 0 116 -4.5t105.5 -17t94 -37t72 -60.5t49 -91.5t16.5 -127.5q0 -89 -29.5 -154.5t-72.5 -101t-107.5 -56.5t-117.5 -26.5t-119 -5.5h-381zM303 123h225q53 0 89.5 3t79.5 16t69 35.5t43.5 65t17.5 101.5q0 43 -10 77t-25.5 56t-40.5 38 t-47.5 24.5t-54.5 13t-53.5 5.5t-52.5 1h-240v-436zM1171 0v1069h148v-1069h-148z" />
<glyph unicode="&#x44c;" horiz-adv-x="1079" d="M156 0v1069h147v-387h227q65 0 116 -4.5t105.5 -17t94 -37t72 -60.5t49 -91.5t16.5 -127.5q0 -89 -29.5 -154.5t-72.5 -101t-107.5 -56.5t-117.5 -26.5t-119 -5.5h-381zM303 123h225q53 0 89.5 3t79.5 16t69 35.5t43.5 65t17.5 101.5q0 43 -10 77t-25.5 56t-40.5 38 t-47.5 24.5t-54.5 13t-53.5 5.5t-52.5 1h-240v-436z" />
<glyph unicode="&#x44d;" horiz-adv-x="1054" d="M74 53l22 113q145 -66 289 -66q103 0 182 31t127.5 86t75.5 123.5t33 151.5h-465l-53 122h516q-21 160 -120.5 256.5t-262.5 96.5q-156 0 -283 -58l-24 119q131 59 313 59q154 0 274.5 -65.5t190 -191t69.5 -291.5q0 -261 -150.5 -410t-401.5 -149q-173 0 -332 73z" />
<glyph unicode="&#x44e;" horiz-adv-x="1746" d="M164 0v1069h147v-459h283q12 103 52.5 189.5t107 151t163.5 100.5t216 36q122 0 221 -43t163.5 -118.5t99 -176t34.5 -217.5q0 -90 -21.5 -171.5t-65.5 -151t-107 -120.5t-151.5 -80t-193.5 -29q-232 0 -370 143t-150 369h-281v-492h-147zM743 535q0 -200 104.5 -319.5 t272.5 -119.5q172 0 274.5 118.5t102.5 320.5q0 201 -103.5 318.5t-273.5 117.5t-273.5 -117.5t-103.5 -318.5z" />
<glyph unicode="&#x44f;" horiz-adv-x="1007" d="M25 123h98q13 0 19.5 1.5t17.5 10.5t24 27l176 260q-124 19 -193 100.5t-69 210.5q0 336 383 336h363v-1069h-148v414h-135q-29 0 -43 -21l-209 -307q-36 -51 -64 -68.5t-79 -17.5h-88zM254 739q0 -202 227 -202h215v409h-217q-225 0 -225 -207z" />
<glyph unicode="&#x450;" horiz-adv-x="1130" d="M96 532q0 118 34.5 219.5t99 176t163 117t219.5 42.5q111 0 195.5 -34.5t135.5 -96t76.5 -140.5t27.5 -175q0 -73 -9 -149h-790q6 -185 104 -288.5t301 -103.5q70 0 155.5 19t152.5 49l22 -113q-169 -75 -350 -75q-251 0 -394 137.5t-143 414.5zM248 610h647q2 18 2 56 q-1 64 -16.5 116t-48.5 95.5t-91.5 67.5t-138.5 24q-159 0 -252 -99.5t-102 -259.5zM309 1423l82 129l430 -252l-63 -98z" />
<glyph unicode="&#x451;" horiz-adv-x="1130" d="M96 532q0 118 34.5 219.5t99 176t163 117t219.5 42.5q111 0 195.5 -34.5t135.5 -96t76.5 -140.5t27.5 -175q0 -73 -9 -149h-790q6 -185 104 -288.5t301 -103.5q70 0 155.5 19t152.5 49l22 -113q-169 -75 -350 -75q-251 0 -394 137.5t-143 414.5zM248 610h647q2 18 2 56 q-1 64 -16.5 116t-48.5 95.5t-91.5 67.5t-138.5 24q-159 0 -252 -99.5t-102 -259.5zM299 1276v166l195 49v-215h-195zM705 1276v166l194 49v-215h-194z" />
<glyph unicode="&#x452;" horiz-adv-x="1236" d="M23 1214v115h161v129l148 43v-172h272l-49 -115h-223v-239q180 112 401 112q173 0 264 -98q86 -92 86 -272v-574q0 -221 -77.5 -328.5t-247.5 -107.5q-104 0 -185 33l9 115q76 -27 157 -27q108 0 152.5 70.5t44.5 238.5v565q0 128 -51 191q-59 74 -197 74 q-90 0 -187.5 -33t-168.5 -84v-850h-148v1214h-161z" />
<glyph unicode="&#x453;" horiz-adv-x="851" d="M164 0v1069h682l-51 -123h-484v-946h-147zM266 1300l430 252l82 -129l-448 -221z" />
<glyph unicode="&#x454;" horiz-adv-x="1042" d="M96 539q0 166 75 292t200.5 191t279.5 65q183 0 314 -59l-25 -119q-127 58 -283 58q-166 0 -273.5 -97.5t-129.5 -255.5h514l-49 -122h-467q5 -83 31.5 -151.5t75.5 -123.5t128.5 -86t182.5 -31q143 0 288 66l23 -113q-159 -73 -332 -73q-251 0 -402 149t-151 410z" />
<glyph unicode="&#x455;" horiz-adv-x="921" d="M100 57l15 125q158 -82 331 -82q117 0 181.5 47.5t64.5 133.5q0 67 -28 102q-22 29 -61 48t-146 58q-180 65 -254 137.5t-74 186.5q0 126 104 200t273 74q141 0 274 -47l-16 -120q-132 47 -254 47q-112 0 -174 -40t-62 -112q0 -65 50 -112t194 -95q107 -36 164.5 -68.5 t93.5 -74.5q55 -67 55 -170q0 -150 -107 -232.5t-278 -82.5q-188 0 -346 77z" />
<glyph unicode="&#x456;" horiz-adv-x="487" d="M164 1270v160l160 43v-203h-160zM170 0v1069h147v-1069h-147z" />
<glyph unicode="&#x457;" horiz-adv-x="487" d="M-55 1276v166l194 49v-215h-194zM170 0v1069h147v-1069h-147zM350 1276v166l195 49v-215h-195z" />
<glyph unicode="&#x458;" horiz-adv-x="487" d="M-186 -457l8 115q76 -27 158 -27q108 0 152 70.5t44 239.5v1128h148v-1122q0 -221 -78 -328.5t-248 -107.5q-106 0 -184 32zM170 1270v160l160 43v-203h-160z" />
<glyph unicode="&#x459;" horiz-adv-x="1759" d="M25 123h122q41 0 56 18.5t24 77.5l135 850h621v-387h227q65 0 116 -4.5t105.5 -17t94 -37t72 -60.5t49 -91.5t16.5 -127.5q0 -89 -29.5 -154.5t-72.5 -101t-107.5 -56.5t-117.5 -26.5t-119 -5.5h-381v946h-342l-117 -739q-18 -114 -66.5 -160.5t-163.5 -46.5h-69z M983 123h225q53 0 89.5 3t79.5 16t69 35.5t43.5 65t17.5 101.5q0 43 -10 77t-25.5 56t-40.5 38t-47.5 24.5t-54.5 13t-53.5 5.5t-52.5 1h-240v-436z" />
<glyph unicode="&#x45a;" horiz-adv-x="1724" d="M164 0v1069h147v-455h490v455h147v-387h228q79 0 138.5 -6.5t121.5 -27.5t101.5 -57t65 -98.5t25.5 -148.5q0 -89 -29.5 -154.5t-72.5 -101t-107.5 -56.5t-117.5 -26.5t-119 -5.5h-381v492h-490v-492h-147zM948 123h226q53 0 89.5 3t79.5 16t69 35.5t43.5 65t17.5 101.5 q0 43 -10 77t-25.5 56t-40.5 38t-48 24.5t-55 13t-53.5 5.5t-52.5 1h-240v-436z" />
<glyph unicode="&#x45b;" horiz-adv-x="1236" d="M23 1214v115h161v129l148 43v-172h272l-49 -115h-223v-239q180 112 401 112q173 0 264 -98q86 -92 86 -272v-717h-147v702q0 128 -51 191q-59 74 -197 74q-90 0 -187.5 -33t-168.5 -84v-850h-148v1214h-161z" />
<glyph unicode="&#x45c;" horiz-adv-x="1032" d="M164 0v1069h147v-455h131q45 0 72 48l186 315q32 54 73 73t106 19h127l-52 -123h-55q-35 0 -50 -7t-28 -30l-164 -270q-19 -31 -41.5 -55t-35.5 -27v-4q25 -8 79 -82l353 -471h-181l-346 471q-15 21 -43 21h-131v-492h-147zM289 1300l430 252l82 -129l-449 -221z" />
<glyph unicode="&#x45d;" horiz-adv-x="1204" d="M164 0v1069h139v-815l625 815h112v-1069h-139v819l-629 -819h-108zM336 1423l82 129l430 -252l-64 -98z" />
<glyph unicode="&#x45e;" horiz-adv-x="1085" d="M31 1069h162l360 -852h4l336 852h162l-660 -1552l-135 41l221 491zM231 1503l138 13q47 -158 186 -158t186 158l138 -13q-25 -124 -112.5 -196t-211.5 -72t-211.5 72t-112.5 196z" />
<glyph unicode="&#x45f;" horiz-adv-x="1185" d="M164 0v1069h147v-946h563v946h148v-1069h-360v-238l-140 -34v272h-358z" />
<glyph unicode="&#x490;" horiz-adv-x="1060" d="M184 0v1384h725v328l140 35v-494h-715v-1253h-150z" />
<glyph unicode="&#x491;" horiz-adv-x="851" d="M164 0v1069h543v236l139 41v-400h-535v-946h-147z" />
<glyph unicode="&#x492;" horiz-adv-x="1179" d="M25 602v131h278v651h864l-57 -131h-657v-520h591l-8 -131h-583v-602h-150v602h-278z" />
<glyph unicode="&#x493;" horiz-adv-x="872" d="M-25 457v118h209v494h682l-51 -123h-483v-371h442l-8 -118h-434v-457h-148v457h-209z" />
<glyph unicode="&#x49a;" horiz-adv-x="1275" d="M184 0v1384h150v-610h198l484 610h180l-549 -675v-7l381 -512q24 -33 53.5 -46t73.5 -13h111v-455l-144 -34v358h-4q-74 0 -121 24.5t-94 88.5l-371 499q-12 18 -25.5 24.5t-37.5 6.5h-135v-643h-150z" />
<glyph unicode="&#x49b;" horiz-adv-x="1107" d="M164 0v1069h147v-467h152l391 467h188l-450 -516l256 -354q35 -49 60 -62.5t71 -13.5h80v-361l-139 -34v272h-2q-56 0 -93 22t-82 84l-251 345q-11 18 -22 23t-32 5h-127v-479h-147z" />
<glyph unicode="&#x4a2;" horiz-adv-x="1513" d="M184 0v1384h150v-610h805v610h149v-1253h139v-455l-143 -34v358h-145v643h-805v-643h-150z" />
<glyph unicode="&#x4a3;" horiz-adv-x="1243" d="M164 0v1069h147v-455h604v455h148v-946h131v-361l-139 -34v272h-140v492h-604v-492h-147z" />
<glyph unicode="&#x4ae;" horiz-adv-x="1169" d="M12 1384h172l402 -710h8l393 710h170l-493 -862v-522h-150v528z" />
<glyph unicode="&#x4af;" horiz-adv-x="1085" d="M31 1069h162l352 -891h4l344 891h162l-439 -1069v-428l-147 -43v471z" />
<glyph unicode="&#x4b0;" horiz-adv-x="1169" d="M12 1384h172l402 -710h8l393 710h170l-434 -747h260l-8 -131h-311v-506h-150v506h-311v131h250z" />
<glyph unicode="&#x4b1;" horiz-adv-x="1085" d="M31 1069h162l352 -891h4l344 891h162l-402 -940h236l-49 -123h-224v-434l-147 -43v477h-244v123h207z" />
<glyph unicode="&#x4ba;" horiz-adv-x="1357" d="M184 0v1384h150v-596q51 31 95.5 51.5t130.5 41t183 20.5q237 0 349 -118t112 -349v-434h-149v424q0 182 -80 266t-260 84q-202 0 -381 -117v-657h-150z" />
<glyph unicode="&#x4bb;" horiz-adv-x="1216" d="M164 0v1458l147 43v-526q180 112 402 112q173 0 264 -98q86 -92 86 -272v-717h-148v702q0 128 -51 191q-30 38 -76 56t-120 18q-90 0 -188 -33t-169 -84v-850h-147z" />
<glyph unicode="&#x4d8;" horiz-adv-x="1501" d="M115 571q0 101 10 179h1104q-18 241 -154.5 383.5t-378.5 142.5q-245 0 -436 -107l-18 136q79 42 203.5 71t246.5 29q166 0 298.5 -53.5t218.5 -150t131.5 -228t45.5 -289.5q0 -121 -24.5 -226t-76.5 -193.5t-128.5 -151.5t-185 -98t-240.5 -35t-243.5 37.5t-195 109.5 t-130.5 185.5t-47 258.5zM270 571q0 -211 120 -336.5t337 -125.5q227 0 357 138t145 376h-957q-2 -27 -2 -52z" />
<glyph unicode="&#x4d9;" horiz-adv-x="1142" d="M96 426q0 81 8 149h791q-3 81 -24.5 148.5t-64.5 124t-118.5 88t-177.5 31.5q-182 0 -328 -68l-22 113q169 75 350 75q251 0 394 -137.5t143 -414.5q0 -160 -54 -283.5t-168 -197.5t-274 -74q-111 0 -198.5 34.5t-142.5 95.5t-83.5 141t-30.5 175zM246 401 q2 -132 80.5 -217.5t234.5 -85.5q157 0 240.5 98t93.5 261h-647q-2 -18 -2 -56z" />
<glyph unicode="&#x4e8;" horiz-adv-x="1615" d="M115 680q0 135 37 252t102.5 203t154.5 147.5t194.5 92t221.5 30.5q140 0 262.5 -47.5t214.5 -135t145.5 -220.5t53.5 -295q0 -171 -54.5 -310t-149.5 -229.5t-221 -139t-271 -48.5t-270.5 48t-219 136t-147 221t-53.5 295zM272 623q10 -125 56.5 -224.5t119 -163 t164 -96.5t195.5 -33q101 0 192 32.5t164.5 95t120.5 162.5t57 227h-1069zM272 750h1071q-8 130 -55.5 233t-121 166t-163 96t-188.5 33q-98 0 -189.5 -34.5t-167 -98.5t-125.5 -166.5t-61 -228.5z" />
<glyph unicode="&#x4e9;" horiz-adv-x="1253" d="M96 532q0 117 35.5 217.5t102.5 176t171.5 118.5t233.5 43q122 0 221 -43t163.5 -118.5t99 -176t34.5 -217.5q0 -90 -21.5 -171.5t-65.5 -151t-107 -120.5t-151.5 -80t-193.5 -29q-162 0 -282 74t-180 198t-60 280zM250 494q12 -184 114.5 -291t262.5 -107 q163 0 263.5 106t110.5 292h-751zM254 612h745q-20 167 -120 263t-252 96q-153 0 -253 -96t-120 -263z" />
<glyph unicode="&#x2000;" horiz-adv-x="925" />
<glyph unicode="&#x2001;" horiz-adv-x="1851" />
<glyph unicode="&#x2002;" horiz-adv-x="925" />
<glyph unicode="&#x2003;" horiz-adv-x="1851" />
<glyph unicode="&#x2004;" horiz-adv-x="617" />
<glyph unicode="&#x2005;" horiz-adv-x="462" />
<glyph unicode="&#x2006;" horiz-adv-x="308" />
<glyph unicode="&#x2007;" horiz-adv-x="308" />
<glyph unicode="&#x2008;" horiz-adv-x="231" />
<glyph unicode="&#x2009;" horiz-adv-x="370" />
<glyph unicode="&#x200a;" horiz-adv-x="102" />
<glyph unicode="&#x2010;" horiz-adv-x="653" d="M100 465v141h467l-65 -141h-402z" />
<glyph unicode="&#x2011;" horiz-adv-x="653" d="M100 465v141h467l-65 -141h-402z" />
<glyph unicode="&#x2012;" horiz-adv-x="653" d="M100 465v141h467l-65 -141h-402z" />
<glyph unicode="&#x2013;" horiz-adv-x="1024" d="M100 465v141h838l-66 -141h-772z" />
<glyph unicode="&#x2014;" horiz-adv-x="2048" d="M100 465v141h1862l-66 -141h-1796z" />
<glyph unicode="&#x2018;" horiz-adv-x="411" d="M104 930v215q0 127 53 214.5t154 151.5l68 -67q-163 -108 -166 -260h102v-203z" />
<glyph unicode="&#x2019;" horiz-adv-x="411" d="M33 1014q163 108 166 260h-103v203l211 51v-215q0 -128 -53 -215.5t-154 -151.5z" />
<glyph unicode="&#x201a;" horiz-adv-x="411" d="M33 -260q163 108 166 260h-103v203l211 51v-215q0 -128 -53 -215.5t-154 -151.5z" />
<glyph unicode="&#x201c;" horiz-adv-x="823" d="M104 930v215q0 127 53 214.5t154 151.5l68 -67q-163 -108 -166 -260h102v-203zM516 930v215q0 127 53 214.5t154 151.5l68 -67q-163 -108 -166 -260h102v-203z" />
<glyph unicode="&#x201d;" horiz-adv-x="823" d="M33 1014q163 108 166 260h-103v203l211 51v-215q0 -128 -53 -215.5t-154 -151.5zM444 1014q163 108 166 260h-102v203l211 51v-215q0 -128 -53 -215.5t-154 -151.5z" />
<glyph unicode="&#x201e;" horiz-adv-x="823" d="M33 -260q163 108 166 260h-103v203l211 51v-215q0 -128 -53 -215.5t-154 -151.5zM444 -260q163 108 166 260h-102v203l211 51v-215q0 -128 -53 -215.5t-154 -151.5z" />
<glyph unicode="&#x2022;" horiz-adv-x="1083" d="M205 598q0 127 99 221t237 94q139 0 238.5 -94t99.5 -221t-99.5 -221t-238.5 -94q-138 0 -237 94t-99 221z" />
<glyph unicode="&#x2026;" horiz-adv-x="1400" d="M127 0v203l211 51v-254h-211zM594 0v203l211 51v-254h-211zM1061 0v203l211 51v-254h-211z" />
<glyph unicode="&#x202f;" horiz-adv-x="370" />
<glyph unicode="&#x2039;" horiz-adv-x="602" d="M16 516l453 404l92 -74l-344 -330l344 -336l-92 -78z" />
<glyph unicode="&#x203a;" horiz-adv-x="602" d="M41 180l344 336l-344 330l92 74l453 -404l-453 -414z" />
<glyph unicode="&#x205f;" horiz-adv-x="462" />
<glyph unicode="&#x20ac;" d="M16 477v119h160q-2 29 -2 88q0 47 2 70h-160v118h172q42 248 195.5 390.5t419.5 142.5q100 0 202 -23.5t164 -58.5l-18 -133q-145 86 -354 86q-385 0 -453 -404h610l-45 -118h-577q-2 -23 -2 -68q0 -61 4 -90h573l-45 -119h-510q44 -175 163 -271.5t308 -96.5 q88 0 186.5 25.5t170.5 66.5l14 -129q-147 -92 -383 -92q-260 0 -416 133.5t-202 363.5h-177z" />
<glyph unicode="&#x2122;" horiz-adv-x="1478" d="M41 1282v102h563l-45 -102h-182v-483h-131v483h-205zM715 799v585h151l193 -362h2l194 362h152v-585h-125v397l-188 -340h-70l-186 338v-395h-123z" />
<glyph unicode="&#x25fc;" horiz-adv-x="1064" d="M0 0v1065h1065v-1065h-1065z" />
</font>
</defs>
</svg>
