<?xml version="1.0" standalone="no"?>
<!DOCTYPE svg PUBLIC "-//W3C//DTD SVG 1.1//EN" "http://www.w3.org/Graphics/SVG/1.1/DTD/svg11.dtd" >
<svg xmlns="http://www.w3.org/2000/svg">
<metadata>Generated by IcoMoon</metadata>
<defs>
<font id="icomoon" horiz-adv-x="1024">
<font-face units-per-em="1024" ascent="960" descent="-64" />
<missing-glyph horiz-adv-x="1024" />
<glyph unicode="&#x20;" horiz-adv-x="512" d="" />
<glyph unicode="&#xe900;" glyph-name="arrow-right" horiz-adv-x="640" d="M0 55.488l121.088-119.488 518.912 512-518.912 512-121.088-119.488 397.824-392.512-397.824-392.512z" />
<glyph unicode="&#xe901;" glyph-name="arrow-up" horiz-adv-x="1638" d="M1447.219-64l191.181 193.741-819.2 830.259-819.2-830.259 191.181-193.741 628.019 636.518 628.019-636.518z" />
<glyph unicode="&#xe902;" glyph-name="check" horiz-adv-x="1195" d="M1195.349 759.893l-761.259-824.832-434.688 470.955 185.088 200.533 249.6-270.421 576.085 624.128 185.173-200.363z" />
<glyph unicode="&#xe903;" glyph-name="close" d="M1023.104 50.496l-113.6-113.6-397.504 397.504-397.568-397.504-113.536 113.6 397.504 397.504-397.504 397.568 113.536 113.536 397.568-397.504 397.504 397.504 113.6-113.536-397.568-397.568 397.568-397.504z" />
<glyph unicode="&#xe904;" glyph-name="comments" horiz-adv-x="1088" d="M544.32 960.064c-299.904 0-543.936-202.176-543.936-450.688 0-134.528 72.896-262.080 196.8-347.328-16.832-64.064-52.8-101.824-52.928-101.952-18.624-18.688-25.408-46.912-17.792-73.728 0.576-2.176 1.344-4.224 2.24-6.336 11.52-26.752 37.952-43.968 67.328-43.968 119.104 0 217.472 64.768 283.648 125.888 22.272-2.176 43.968-3.2 64.64-3.2 299.968 0 544 202.112 544 450.624-0.064 248.512-244.032 450.688-544 450.688zM544.32 162.816c-23.936 0-49.664 1.792-76.352 5.248-16.064 1.92-32.192-3.392-43.648-14.784-38.848-38.784-94.528-83.136-160.128-102.848 17.792 32.192 35.584 75.84 42.752 129.536 2.752 20.608-7.104 41.024-25.152 51.712-112.448 66.432-177.024 167.744-177.024 277.696 0 191.104 197.184 346.56 439.552 346.56 242.432 0 439.616-155.456 439.616-346.56s-197.184-346.56-439.616-346.56z" />
<glyph unicode="&#xe905;" glyph-name="dislike" horiz-adv-x="960" d="M926.144 510.144c21.696-26.112 34.048-69.376 34.048-110.528 0-27.2-5.632-51.008-16.32-68.864-13.888-23.232-36.096-36.032-62.528-36.032h-128.192c69.76-132.672 87.424-232.576 52.416-297.344-24.448-45.056-69.184-61.056-100.096-61.056-12.224 0-22.656 9.472-24.256 22.144-8.768 67.584-58.176 148.16-135.488 221.12-74.112 69.888-165.184 125.76-258.752 159.232-11.776-26.048-37.12-44.032-66.368-44.032h-146.88c-40.448 0-73.408 34.432-73.408 76.8v460.8c0 42.304 32.96 76.8 73.408 76.8h146.88c31.040 0 57.536-20.224 68.352-48.768 96 12.608 132.096 32.768 167.104 52.352 43.776 24.448 85.12 47.616 220.416 47.616 35.264 0 68.416-9.664 93.504-27.072 24.448-17.088 40.128-41.024 45.312-68.8 19.52-8.256 36.864-27.456 50.112-55.872 12.928-27.712 21.312-63.104 21.312-90.176 0-5.056-0.32-9.728-0.832-14.016 12.416-9.536 23.488-24.256 32.64-43.584 13.248-27.904 21.184-62.912 21.184-93.504 0-21.696-3.904-39.808-11.456-53.824-0.64-1.088-1.28-2.24-1.92-3.328l-0.192-0.064zM173.504 808.768h-52.864c-13.504 0-24.512-11.456-24.512-25.6v-362.496c0-14.144 11.008-25.6 24.512-25.6h52.864c13.504 0 24.512 11.456 24.512 25.6v362.496c0 14.144-11.008 25.6-24.512 25.6zM850.944 462.336c-7.36 15.552-14.848 21.184-18.112 21.184-13.504 0-24.448 11.52-24.448 25.6 0 14.144 10.944 25.6 24.448 25.6 2.048 0 3.52 0 5.76 4.032 3.2 5.952 5.056 16.384 5.056 28.544 0 22.784-6.144 49.856-16.064 70.784-9.664 20.416-19.52 27.84-23.808 27.84-13.504 0-24.512 11.456-24.512 25.6 0 9.088 4.544 17.024 11.328 21.632 1.536 16.192-5.696 84.224-24.512 112.512-7.104 10.688-14.592-7.744-20.48-7.744-13.504 0-24.448 11.456-24.448 25.6 0 45.056-0.64 16.448-44.8 16.448-123.008 0-157.504-19.264-197.376-41.6-37.312-20.8-79.232-44.288-185.088-58.048v-320.832c102.848-35.328 203.264-96.128 284.48-172.736 78.016-73.536 129.216-128.384 146.56-201.984 13.312 4.416 4.864-10.752 14.528 7.040 16.704 32.576 7.168 71.872-96.448 236.352-4.672 6.912 18.688 65.92 23.040 73.984 4.352 8 35.968 12.992 44.8 12.992h123.52c9.728 0 16 3.584 21.056 11.968 5.696 9.6 8.832-0.128 8.832 17.152 0 21.696-4.992 20.608-13.312 38.144v-0.064z" />
<glyph unicode="&#xe906;" glyph-name="like" horiz-adv-x="960" d="M926.208 385.856c21.696 26.176 33.984 69.376 33.984 110.592 0 27.136-5.632 50.944-16.256 68.8-13.952 23.296-36.16 36.096-62.592 36.096h-128.128c69.76 132.608 87.36 232.576 52.352 297.28-24.448 45.12-69.184 61.12-100.096 61.12-12.224 0-22.592-9.472-24.256-22.208-8.768-67.52-58.112-148.096-135.488-221.056-74.112-69.888-165.12-125.76-258.752-159.232-11.776 25.984-37.12 44.032-66.368 44.032h-146.816c-40.512 0-73.472-34.496-73.472-76.8v-460.8c0-42.368 32.96-76.8 73.472-76.8h146.816c31.040 0 57.6 20.224 68.352 48.704 96-12.544 132.096-32.768 167.104-52.288 43.84-24.448 85.12-47.616 220.416-47.616 35.264 0 68.416 9.6 93.504 27.072 24.448 17.024 40.128 41.024 45.312 68.736 19.52 8.32 36.864 27.456 50.112 55.936 12.928 27.712 21.312 63.104 21.312 90.176 0 5.056-0.256 9.728-0.832 14.016 12.416 9.536 23.488 24.256 32.64 43.584 13.248 27.904 21.184 62.848 21.184 93.504 0 21.696-3.904 39.744-11.456 53.76-0.64 1.152-1.28 2.304-1.92 3.392h-0.128zM173.568 87.296h-52.928c-13.504 0-24.448 11.456-24.448 25.6v362.432c0 14.144 10.944 25.664 24.448 25.664h52.928c13.504 0 24.448-11.52 24.448-25.664v-362.432c0-14.144-10.944-25.6-24.448-25.6zM850.944 433.664c-7.36-15.552-14.848-21.184-18.112-21.184-13.504 0-24.448-11.456-24.448-25.6s10.944-25.6 24.448-25.6c2.112 0 3.584 0 5.76-3.968 3.2-6.016 5.056-16.384 5.056-28.608 0-22.72-6.144-49.856-16-70.72-9.728-20.416-19.584-27.84-23.872-27.84-13.504 0-24.448-11.456-24.448-25.6 0-9.088 4.48-17.088 11.264-21.632 1.536-16.256-5.696-84.224-24.512-112.512-7.104-10.752-14.592 7.68-20.48 7.68-13.504 0-24.448-11.456-24.448-25.6 0-45.056-0.576-16.384-44.8-16.384-123.008 0-157.504 19.264-197.376 41.536-37.312 20.864-79.232 44.288-185.088 58.112v320.832c102.848 35.264 203.264 96.128 284.48 172.672 78.016 73.536 129.216 128.448 146.56 202.048 13.312-4.48 4.864 10.688 14.528-7.040 16.704-32.64 7.168-71.872-96.448-236.416-4.672-6.848 18.688-65.92 23.040-73.92 4.416-8.064 35.968-12.992 44.8-12.992h123.52c9.728 0 16-3.584 21.056-11.968 5.76-9.6 8.896 0.128 8.896-17.152 0-21.76-5.056-20.608-13.376-38.144v0z" />
<glyph unicode="&#xe907;" glyph-name="load" d="M953.6 198.4c-89.6-153.6-256-262.4-448-262.4-256 0-473.6 198.4-505.6 448h128c32-179.2 192-320 377.6-320 160 0 294.4 96 352 230.4l-96 89.6h262.4v-256l-70.4 70.4zM512 832c-153.6 0-288-96-345.6-230.4l89.6-89.6h-256v256l70.4-70.4c83.2 160 249.6 262.4 441.6 262.4 262.4 0 473.6-198.4 505.6-448h-128c-32 179.2-185.6 320-377.6 320z" />
<glyph unicode="&#xe908;" glyph-name="menu" horiz-adv-x="1344" d="M0-64v128h1344v-128h-1344zM0 512h1344v-128h-1344v128zM0 960h1344v-128h-1344v128z" />
<glyph unicode="&#xe909;" glyph-name="message" horiz-adv-x="1106" d="M1096.008-56.545c-5.489-4.915-12.452-7.455-19.456-7.455-5.161 0-10.281 1.352-14.909 4.096l-220.856 131.727h-570.86c-30.72 0-55.747 24.986-55.747 55.665v219.3l-170.557-101.745c-4.628-2.744-9.789-4.096-14.909-4.096-7.004 0-13.967 2.54-19.456 7.455-9.462 8.52-12.288 22.2-6.963 33.792l79.585 172.237v449.208c0 31.089 25.313 56.361 56.402 56.361h717.824c31.13 0 56.402-25.272 56.402-56.361v-265.175h57.221c30.72 0 55.706-24.986 55.706-55.665v-437.78l77.537-167.772c5.325-11.592 2.499-25.272-6.963-33.792zM854.344 901.878h-714.26v-453.837c0-4.219-0.942-8.356-2.703-12.206l-42.844-92.733 152.863 91.177c4.506 2.703 9.667 4.137 14.909 4.137h592.036v463.462zM969.933 126.423c-1.761 3.85-2.662 7.987-2.662 12.206v441.713h-54.764v-143.729c0-31.048-25.272-56.361-56.402-56.361h-583.721v-250.307h576.43c5.243 0 10.404-1.434 14.909-4.096l147.005-87.695-40.796 88.269zM711.229 242.668h-355.123c-16.056 0-29.082 12.984-29.082 29.041s13.025 29.082 29.082 29.082h355.123c16.056 0 29.082-13.025 29.082-29.082s-13.025-29.041-29.082-29.041zM204.964 607.089c0 16.056 13.025 29.041 29.082 29.041h355.123c16.056 0 29.082-12.984 29.082-29.041s-13.025-29.082-29.082-29.082h-355.123c-16.056 0-29.082 13.025-29.082 29.082zM204.964 766.136c0 16.056 13.025 29.082 29.082 29.082h535.429c16.097 0 29.123-13.025 29.123-29.082s-13.025-29.041-29.123-29.041h-535.429c-16.056 0-29.082 12.984-29.082 29.041z" />
<glyph unicode="&#xe90a;" glyph-name="notification" horiz-adv-x="942" d="M942.080 246.313c0 18.637-12.575 31.048-31.416 31.048-50.258 0-94.208 43.418-94.208 93.061v124.15c0 175.677-139.919 323.625-314.040 339.722v94.7c0 18.596-12.534 31.007-31.375 31.007s-31.416-12.411-31.416-31.007v-94.7c-174.080-16.097-314.040-164.045-314.040-339.722v-124.15c0-49.644-43.95-93.061-94.208-93.061-18.842 0-31.375-12.411-31.375-31.048 0-76.268 128.123-123.167 284.508-143.401 9.421-95.724 86.467-166.912 186.532-166.912 100.024 0 177.111 71.188 186.532 166.912 156.385 20.234 284.508 67.133 284.508 143.401zM471.040-1.905c-60.047 0-110.469 42.189-122.675 98.058 40.509-3.318 81.92-4.997 122.675-4.997s82.207 1.679 122.675 4.997c-12.206-55.869-62.628-98.058-122.675-98.058zM471.040 153.252c-213.524 0-339.149 37.233-389.407 68.239 62.792 24.822 106.783 80.691 106.783 148.931v124.15c0 155.116 125.624 279.265 282.624 279.265s282.624-124.15 282.624-279.265v-124.15c0-68.239 43.95-130.294 106.742-148.931-50.217-31.007-175.841-68.239-389.366-68.239z" />
<glyph unicode="&#xe90b;" glyph-name="search" d="M1010.688 9.728l-235.072 229.696c69.504 76.608 113.088 176.192 113.088 286.4-0.064 239.424-199.36 434.112-444.352 434.112-244.928 0-444.224-194.688-444.224-434.112 0-239.296 199.296-433.984 444.224-433.984 100.416 0 192.064 33.856 266.56 88.896l237.312-232c8.704-8.384 19.968-12.608 31.232-12.608 11.328 0 22.592 4.224 31.232 12.608 17.216 16.832 17.216 44.096 0 60.992zM88.384 525.824c0 191.808 159.744 347.904 356.032 347.904 196.352 0 356.032-156.096 356.032-347.904s-159.68-347.776-356.032-347.776c-196.288 0-356.032 155.968-356.032 347.776z" />
<glyph unicode="&#xe90c;" glyph-name="user" horiz-adv-x="832" d="M781.44-63.232h-50.112c0 174.848-141.568 317.056-315.712 317.056s-315.712-142.272-315.712-317.056h-100.032c0 232.064 186.56 420.672 415.744 420.672 229.248 0 415.744-188.608 415.744-420.672h-49.92zM415.616 391.040c-151.232 0-274.304 127.616-274.304 284.288s123.072 284.16 274.304 284.16c151.36 0 274.496-127.424 274.496-284.16 0-156.672-123.136-284.288-274.496-284.288zM415.616 855.872c-96.128 0-174.336-80.96-174.336-180.544s78.208-180.608 174.336-180.608c96.256 0 174.4 81.024 174.4 180.608s-78.272 180.544-174.4 180.544z" />
<glyph unicode="&#xe90d;" glyph-name="add" horiz-adv-x="1075" d="M921.6 89.6v-153.6h-102.4v153.6h-153.6v102.4h153.6v153.6h102.4v-153.6h153.6v-102.4h-153.6zM819.2 857.6h-716.8v-665.6h358.4v-102.4h-460.8v870.4h921.6v-409.6h-102.4v307.2zM256 448h307.2v-102.4h-307.2v102.4zM256 704h409.6v-102.4h-409.6v102.4z" />
<glyph unicode="&#xe90e;" glyph-name="arrow-left" horiz-adv-x="640" d="M640 840.512l-121.088 119.488-518.912-512 518.912-512 121.088 119.488-397.824 392.512 397.824 392.512z" />
<glyph unicode="&#xe90f;" glyph-name="options" horiz-adv-x="4096" d="M512.683 959.317c-282.795 0-512-229.035-512-511.488s229.205-511.488 512-511.488c282.624 0 511.829 229.035 511.829 511.488s-229.205 511.488-511.829 511.488zM2048.171 959.317c-282.624 0-511.829-229.035-511.829-511.488s229.205-511.488 511.829-511.488c282.795 0 512 229.035 512 511.488s-229.205 511.488-512 511.488zM3583.659 959.317c-282.624 0-511.829-229.035-511.829-511.488s229.205-511.488 511.829-511.488c282.795 0 512 229.035 512 511.488s-229.205 511.488-512 511.488z" />
<glyph unicode="&#xe910;" glyph-name="write" d="M921.6 38.4h-819.2v819.2h409.664v102.4h-512.064v-1024h1024v460.864h-102.4v-358.464zM281.6 217.6h246.464l495.936 499.136-246.464 243.264-495.936-499.072v-243.328z" />
<glyph unicode="&#xe911;" glyph-name="video_mini" d="M874.048 86.016c-96.704-96.704-225.28-150.016-362.048-150.016-136.704 0-265.28 53.312-361.984 150.016s-150.016 225.28-150.016 362.048c0 136.704 53.312 265.28 150.016 361.984s225.28 149.952 361.984 149.952c136.768 0 265.344-53.248 362.048-149.952s149.952-225.28 149.952-361.984c0-136.768-53.248-265.344-149.952-362.048zM672 460.608l-227.008 176-28.992-12.608v-351.936l28.992-12.608 227.008 176v25.152z" />
<glyph unicode="&#xe912;" glyph-name="upload" horiz-adv-x="896" d="M896 448.384c0-9.664-4.608-32.256-47.36-32.256h-196.608v-429.888c0.32-1.664 0.576-4.032 0.576-6.784 0-11.008-4.416-21.184-12.48-28.736-10.368-9.728-26.24-14.72-47.168-14.72h-302.144c-41.792 0-52.864 28.352-52.864 43.392v423.68h-180.16c-50.304 0-57.856 22.912-57.856 36.544 0 21.888 21.824 43.776 26.176 47.936 11.584 14.912 323.904 410.944 369.344 454.528 16.576 15.744 33.216 18.56 44.224 18.112 26.56-1.088 44.608-20.608 46.592-22.848l381.312-440.448c5.504-4.8 28.416-27.2 28.416-48.512z" />
<glyph unicode="&#xe913;" glyph-name="status" horiz-adv-x="1534" d="M1499.764 565.062l-188.121-49.729c-20.752-5.525-42.147 6.618-47.673 27.177-5.525 20.495 6.746 41.569 27.563 47.030l188.057 49.793c20.752 5.461 42.147-6.746 47.737-27.177 5.525-20.56-6.81-41.633-27.563-47.094zM1198.436 759.286c-5.011-4.947-11.051-8.288-17.411-9.959-13.043-3.405-27.499-0.128-37.714 9.894-15.227 15.099-15.227 39.385 0 54.419l137.686 135.887c15.227 15.034 39.899 15.034 55.126 0 15.163-15.034 15.163-39.32 0-54.355l-137.686-135.887zM1206.274 189.077c11.115-41.119-13.557-83.202-55.061-94.189-33.666-8.866-67.718 5.59-85.58 33.088l-458.031-11.886c-5.59-45.36-25.314-87.571-58.659-120.467-26.214-25.892-58.21-44.075-93.097-53.327-17.54-4.562-35.787-7.003-54.419-7.003-102.606 0-187.992 73.629-205.211 170.131l-62.129-1.606c-3.791-12.272-13.107-22.744-26.599-26.214-20.752-5.59-42.147 6.553-47.673 27.177l-15.099 55.704-30.261 111.279-15.099 55.704c-5.59 20.56 6.746 41.633 27.499 47.094 13.492 3.534 26.792-0.835 36.301-9.637l818.982 438.756c1.542 32.574 23.708 61.872 57.31 70.802 41.505 10.987 84.23-13.364 95.41-54.355l10.087-37.136 151.178-556.846 10.151-37.072zM401.428 12.199c35.016 0 67.783 13.3 92.454 37.714 18.054 17.861 30.004 40.027 35.144 64.12l-253.269-6.618c15.163-54.612 65.47-95.217 125.671-95.217zM920.045 649.035l-727.941-389.927 827.976 21.459-100.036 368.468zM1317.104 322.393l188.057-49.729c20.752-5.461 33.088-26.535 27.499-47.030-3.726-13.749-14.585-23.708-27.563-27.177-6.361-1.735-13.235-1.799-20.11 0l-188.057 49.729c-20.817 5.461-33.088 26.471-27.563 47.094 5.525 20.495 26.856 32.638 47.737 27.113z" />
<glyph unicode="&#xe914;" glyph-name="star" horiz-adv-x="1138" d="M568.889 960l-147.513-384h-421.376l337.124-234.667-138.638-405.333 370.404 234.667 379.278-234.667-147.513 405.333 337.124 234.667h-421.376l-147.513 384z" />
<glyph unicode="&#xe915;" glyph-name="send-message" horiz-adv-x="1152" d="M270.272 87.104l-215.296-144.832c-5.824-3.84-12.352-5.76-18.816-5.76-8.832 0-17.6 3.584-24.512 10.56-11.968 12.096-15.552 31.616-8.832 48.128l100.48 245.184v639.424c0 44.288 31.936 80.256 71.168 80.256h906.112c39.232 0 71.232-35.968 71.232-80.256v-664.768c0-44.224-32-80.256-71.232-80.256h-736.832z" />
<glyph unicode="&#xe916;" glyph-name="plus" d="M1024 320h-384v-384h-256v384h-384v256h384v384h256v-384h384v-256z" />
<glyph unicode="&#xe917;" glyph-name="marker" horiz-adv-x="770" d="M384.768 960.064c-212.16 0-384.768-169.088-384.768-376.96 0-54.272 11.328-105.984 33.664-153.92 96.192-206.208 280.64-423.936 334.848-485.76 4.096-4.672 9.984-7.296 16.256-7.296 6.208 0 12.16 2.624 16.192 7.296 54.272 61.824 238.656 279.488 334.912 485.76 22.336 47.936 33.664 99.648 33.664 153.92-0.064 207.872-172.672 376.96-384.768 376.96zM384.768 387.328c-110.208 0-199.872 87.808-199.872 195.776s89.664 195.84 199.872 195.84c110.144 0 199.808-87.872 199.808-195.84s-89.664-195.776-199.808-195.776z" />
<glyph unicode="&#xe918;" glyph-name="edit" horiz-adv-x="1022" d="M613.184 745.728c-26.88 26.88-70.4 26.88-97.216 0l-24.32-24.32-350.784-351.36c0 0-34.176-34.432-111.36-283.584-0.512-1.792-1.088-3.52-1.6-5.248-1.408-4.48-2.816-9.024-4.16-13.632-1.28-4.032-2.496-8.192-3.776-12.352-1.088-3.52-2.112-7.040-3.2-10.624-2.432-8.128-4.928-16.448-7.488-25.024-5.504-18.816-19.072-61.248-3.776-76.608 14.784-14.848 57.664-1.792 76.416 3.776 8.512 2.496 16.768 4.992 24.896 7.424 3.712 1.152 7.36 2.24 11.008 3.328 3.904 1.216 7.808 2.432 11.648 3.584 4.864 1.472 9.6 2.944 14.272 4.416 1.408 0.448 2.816 0.896 4.16 1.28 237.056 73.856 279.616 108.48 283.2 111.616 0 0.064 0 0.064 0 0.064 0.192 0.192 0.256 0.256 0.256 0.256l11.008 11.008 0.704-0.768 364.48 364.864c26.816 26.88 26.816 70.464 0 97.344l-194.368 194.56zM392.256 122.688c-0.32-0.192-0.704-0.448-1.152-0.704-0.256-0.192-0.512-0.32-0.768-0.512-0.32-0.192-0.64-0.384-0.96-0.576s-0.576-0.384-0.96-0.576c-11.264-6.784-44.48-24.256-125.12-53.44-9.408-3.392-19.648-7.040-30.4-10.752l-114.56 114.752c3.712 10.816 7.36 21.12 10.752 30.592 29.12 80.96 46.592 114.304 53.312 125.568 0.192 0.32 0.32 0.576 0.448 0.768 0.256 0.448 0.448 0.768 0.704 1.088 0.128 0.256 0.32 0.576 0.448 0.768 0.256 0.448 0.512 0.832 0.768 1.152l8.384 8.384 207.68-207.872-8.576-8.64zM1001.92 745.728l-194.368 194.624c-26.88 26.88-70.336 26.88-97.216 0l-48.576-48.64c-26.816-26.88-26.816-70.464 0-97.28l194.368-194.624c26.816-26.88 70.336-26.88 97.216 0l48.576 48.64c26.816 26.88 26.816 70.464 0 97.28z" />
<glyph unicode="&#xe919;" glyph-name="delete" horiz-adv-x="896" d="M896 775.296c0 0.256-0.128 0.384-0.128 0.576 0 0.256 0.128 0.384 0.128 0.64v-1.216zM834.56 715.392h-773.12c-33.664 0-60.992 27.072-61.312 60.48 0.32 33.472 27.648 60.544 61.312 60.544 0 0 107.84 0 143.744 0 16.128 0 23.040 13.12 23.040 13.12l29.248 62.208c12.8 27.072 46.336 48.32 76.352 48.32h228.288c30.080 0 63.616-21.248 76.352-48.32l26.88-57.152c0 0 9.088-18.176 26.752-18.176 35.648 0 142.464 0 142.464 0 33.664 0 60.992-27.072 61.312-60.544-0.32-33.408-27.648-60.48-61.312-60.48zM0 776.512c0-0.256 0.128-0.384 0.128-0.64 0-0.192-0.128-0.32-0.128-0.576v1.216zM81.024 592.832h745.536c0 0 21.44 0 21.44-25.216l-0.064-1.472c-0.256-3.968-26.88-336.448-30.656-477.824-2.304-85.376-69.76-152.256-153.6-152.256h-431.36c-83.84 0-151.296 66.88-153.6 152.256-3.776 141.376-30.4 473.856-30.656 477.824l-0.064 1.472c0 25.216 33.024 25.216 33.024 25.216z" />
<glyph unicode="&#xe91a;" glyph-name="discussion_mini" d="M512 960.064c-282.752 0-511.936-200.576-511.936-448.064 0-141.376 75.008-267.264 191.936-349.44v-226.56l224.32 136.064c31.040-5.056 62.912-8.064 95.68-8.064 282.752 0 511.936 200.576 511.936 448 0 247.488-229.184 448.064-511.936 448.064z" />
<glyph unicode="&#xe91b;" glyph-name="comment__hash" d="M828.928 204.174l-341.333-268.174v268.174h-487.595v755.826h1024v-755.826h-195.072zM739.556 568.832h-97.394l15.189 42.78h82.204v85.504h-51.883l27.932 78.791-88.69 13.54-32.711-92.331h-88.576l27.932 78.791-88.69 13.54-32.711-92.331h-127.716v-85.504h97.394l-15.189-42.78h-82.204v-85.504h51.883l-27.932-78.791 88.633-13.483 32.768 92.274h88.576l-27.932-78.791 88.633-13.483 32.768 92.274h127.716v85.504zM460.117 568.832l15.189 42.78h88.576l-15.189-42.78h-88.576z" />
<glyph unicode="&#xe91c;" glyph-name="cog" d="M1024.128 448.064c0 38.080-27.456 78.72-61.248 90.688-33.856 11.968-66.688 41.28-76.224 64.448-9.536 23.104-7.040 67.136 8.384 99.584 15.424 32.384 6.080 80.512-20.864 107.456s-75.072 36.288-107.52 20.864c-32.448-15.424-76.416-17.92-99.456-8.384-23.104 9.536-52.416 42.368-64.448 76.224s-52.672 61.248-90.816 61.248c-38.080 0-78.72-27.392-90.752-61.248s-41.408-66.688-64.448-76.224c-23.104-9.536-67.072-7.040-99.456 8.384-32.448 15.424-80.576 6.080-107.52-20.864s-36.288-75.072-20.864-107.456c15.424-32.448 17.856-76.48 8.32-99.584-9.6-23.104-42.304-52.48-76.16-64.448s-61.248-52.608-61.248-90.688c0-38.080 27.392-78.784 61.248-90.816s66.56-41.408 76.16-64.512c9.6-22.976 7.104-66.944-8.32-99.392s-6.080-80.576 20.864-107.52c26.944-26.944 75.072-36.288 107.52-20.864s76.352 17.92 99.456 8.384c23.104-9.6 52.416-42.496 64.448-76.288s52.672-61.184 90.752-61.184c38.144 0 78.784 27.392 90.816 61.184s41.344 66.688 64.384 76.288c23.104 9.6 67.072 7.040 99.52-8.384s80.576-6.080 107.52 20.864c26.944 26.944 36.288 75.072 20.864 107.52s-17.92 76.416-8.448 99.456c9.6 23.040 42.432 52.416 76.288 64.448 33.792 12.032 61.248 52.736 61.248 90.816zM511.936 260.096c-103.872 0-187.904 84.032-187.904 187.712 0 103.936 84.032 187.968 187.904 187.968 103.744 0 187.776-84.032 187.776-187.968 0-103.68-84.032-187.712-187.776-187.712z" />
<glyph unicode="&#xe91d;" glyph-name="author" d="M512 960c-282.795 0-512-229.205-512-512 0-282.738 229.205-512 512-512s512 229.262 512 512c0 282.795-229.205 512-512 512zM280.405 90.169l35.1 171.975 0.512 2.844c5.689 42.382 42.268 74.354 85.049 74.354h25.486c26.112-13.483 54.955-19.342 85.447-19.342 30.436 0 59.335 5.86 85.447 19.342h29.298c42.78 0 79.36-31.972 85.049-74.354l35.214-172.715c-67.47-44.715-148.196-70.94-235.008-70.94-85.39 0-164.807 25.486-231.595 68.836zM512 405.333c-63.886 0-128 76.459-128 149.333 0 68.551 59.449 128 128 128s128-59.449 128-128c0-72.875-64.114-149.333-128-149.333z" />
<glyph unicode="&#xe91e;" glyph-name="article_mini" horiz-adv-x="896" d="M800-64h-704c-52.992 0-96 43.392-96 96.832v564.48c0 25.6 10.048 50.112 27.968 68.288l262.464 265.92c18.048 18.24 42.496 28.48 68.032 28.48h441.536c52.992 0 96-43.328 96-96.768v-830.4c0-53.44-43.008-96.832-96-96.832zM637.824 773.76h-142.656c-28.032 0-50.752-22.912-50.752-51.2 0-28.224 22.72-51.136 50.752-51.136h142.656c28.032 0 50.752 22.912 50.752 51.136 0 28.288-22.72 51.2-50.752 51.2zM637.824 603.136h-142.656c-28.032 0-50.752-22.912-50.752-51.2s22.72-51.2 50.752-51.2h142.656c28.032 0 50.752 22.912 50.752 51.2s-22.72 51.2-50.752 51.2zM637.824 432.448h-379.584c-28.032 0-50.816-22.912-50.816-51.2s22.784-51.2 50.816-51.2h379.584c28.032 0 50.752 22.912 50.752 51.2s-22.72 51.2-50.752 51.2zM637.824 239.744h-379.584c-28.032 0-50.816-22.912-50.816-51.2s22.784-51.2 50.816-51.2h379.584c28.032 0 50.752 22.912 50.752 51.2s-22.72 51.2-50.752 51.2z" />
<glyph unicode="&#xe91f;" glyph-name="audio_mini" horiz-adv-x="896" d="M896 328.512h-0.576c-3.84-97.408-95.232-186.56-207.68-200.832-114.88-14.592-208 54.464-208 154.304s93.12 192.576 208 207.168c63.488 8.064 120.192-9.472 158.336-43.52v451.456l-429.824-165.184v-587.712h-0.192c-0.64-99.456-93.504-191.68-208-206.208-114.944-14.592-208.064 54.464-208.064 154.304s93.184 192.576 208.064 207.168c63.424 8.064 120.128-9.472 158.336-43.52v493.952c0 10.816 6.464 20.416 16.256 24.192l479.68 184.32c7.68 2.944 16.256 1.792 22.912-3.008 6.72-4.8 10.752-12.736 10.752-21.184v-605.696z" />
<glyph unicode="&#xe920;" glyph-name="share" horiz-adv-x="960" d="M760.128 329.984c-70.848 0-132.672-36.416-168.256-91.072l-214.208 120.512c13.824 26.752 22.336 56.576 22.336 88.64 0 19.84-3.84 38.592-9.408 56.64l222.912 125.312c36.544-38.912 88.448-63.808 146.624-63.808 110.464 0 200 88.192 200 196.928 0 108.672-89.536 196.864-200 196.864-110.528 0-200.064-88.192-200.064-196.864 0-19.84 3.904-38.528 9.408-56.576l-222.912-125.44c-36.544 39.104-88.448 63.872-146.56 63.872-110.528 0-200.064-88.064-200.064-196.928 0-108.672 89.536-196.864 200.064-196.864 45.568 0 87.104 15.616 120.768 40.96l241.472-137.792c-0.768-7.104-2.176-13.952-2.176-21.248 0-108.736 89.536-196.864 200.064-196.864 110.464 0 200 88.128 200 196.864s-89.536 196.864-200 196.864z" />
<glyph unicode="&#xe921;" glyph-name="no-image-article" horiz-adv-x="896" d="M800-64h-703.979c-53.024 0-96.021 43.349-96.021 96.821v564.448c0 25.6 10.048 50.155 27.968 68.299l262.453 265.92c18.048 18.251 42.507 28.512 68.053 28.512h441.525c53.024 0 96-43.349 96-96.811v-830.368c0-53.472-42.976-96.821-96-96.821zM828.299 863.189c0 15.755-12.693 28.544-28.299 28.544h-417.216v-268.224c0-25.088-20.235-45.493-45.088-45.493h-270.005v-545.195c0-15.755 12.693-28.544 28.331-28.544h703.979c15.605 0 28.299 12.789 28.299 28.544v0 830.368zM637.835 137.291h-379.605c-28.032 0-50.784 22.923-50.784 51.2s22.752 51.2 50.784 51.2h379.605c28.032 0 50.773-22.923 50.773-51.2s-22.741-51.2-50.773-51.2zM637.835 330.037h-379.605c-28.032 0-50.784 22.912-50.784 51.2 0 28.277 22.752 51.2 50.784 51.2h379.605c28.032 0 50.773-22.923 50.773-51.2 0-28.288-22.741-51.2-50.773-51.2zM637.835 500.704h-142.667c-28.032 0-50.773 22.912-50.773 51.2 0 28.277 22.741 51.2 50.773 51.2h142.667c28.032 0 50.773-22.923 50.773-51.2 0-28.288-22.741-51.2-50.773-51.2zM637.835 671.371h-142.667c-28.032 0-50.773 22.912-50.773 51.2s22.741 51.2 50.773 51.2h142.667c28.032 0 50.773-22.912 50.773-51.2s-22.741-51.2-50.773-51.2z" />
<glyph unicode="&#xe922;" glyph-name="remove" d="M1024.58 140.438l-205.017-205.017-307.599 307.599-307.599-307.599-205.017 205.017 307.599 307.599-307.599 307.599 205.017 205.017 307.599-307.526 307.599 307.526 205.017-205.017-307.599-307.599 307.599-307.599z" />
</font>
</defs>
</svg>
