<svg width="12" height="12" fill="none" xmlns="http://www.w3.org/2000/svg"><g fill-rule="evenodd" clip-rule="evenodd" fill="#2C2C2C"><path d="M5.374 11c-1.93 0-3.5-1.57-3.5-3.5a3.505 3.505 0 0 1 3-3.464V7.5a.501.501 0 0 0 .724.448l3.097-1.549c.119.355.179.724.179 1.101 0 1.93-1.57 3.5-3.5 3.5zm3.351-5.735L5.874 6.691v-3.19a.5.5 0 0 0-.5-.5 4.505 4.505 0 0 0-4.5 4.5c0 2.48 2.019 4.5 4.5 4.5s4.5-2.02 4.5-4.5c0-.702-.161-1.379-.478-2.012a.5.5 0 0 0-.671-.224z"/><path d="M7.374 4.191V1.037A3.518 3.518 0 0 1 9.977 2.89l-2.603 1.3zm3.721-1.239A4.515 4.515 0 0 0 6.874 0a.5.5 0 0 0-.5.5V5a.5.5 0 0 0 .724.447l3.752-1.876a.5.5 0 0 0 .245-.619zM3.374 6.75a.75.75 0 1 0 0 1.5.75.75 0 0 0 0-1.5zm4 1a.75.75 0 1 0 0 1.5.75.75 0 0 0 0-1.5zM4.874 9a.5.5 0 1 0 0 1 .5.5 0 0 0 0-1zm-1-4a.5.5 0 1 0 0 1 .5.5 0 0 0 0-1z"/><path d="M8.374 2a.5.5 0 1 0 0 1 .5.5 0 0 0 0-1z"/></g></svg>