<svg width="10" height="6" fill="none" xmlns="http://www.w3.org/2000/svg"><path fill-rule="evenodd" clip-rule="evenodd" d="M3 0h4c2.373 0 3 2.616 3 4a.5.5 0 0 1-.308.461c-.287.12-.434-.011-.618-.175A5.361 5.361 0 0 0 9 4.22v.28C9 5.327 8.327 6 7.5 6h-5C1.673 6 1 5.327 1 4.5v-.279l-.08.07c-.184.165-.324.29-.612.17A.5.5 0 0 1 0 4c0-1.384.627-4 3-4zm4.5 5a.5.5 0 0 0 .5-.5v-.898a1.451 1.451 0 0 0-.5-.102h-5c-.163 0-.333.04-.5.102V4.5a.5.5 0 0 0 .5.5h5zM2.75 1.029L2.149 2.53c-.368.06-.715.206-1.015.374.181-.793.615-1.737 1.616-1.876zM6.76 1h-.922l-.6 1.5h.923l.6-1.5zM3.839 1h.923l-.6 1.5h-.923l.6-1.5zM7.5 2.5c.496 0 .972.184 1.365.405-.147-.642-.454-1.391-1.098-1.726L7.238 2.5H7.5z" fill="#2C2C2C"/></svg>