<svg width="24" height="22" fill="none" xmlns="http://www.w3.org/2000/svg"><path d="M23.961 15.17a.486.486 0 00.016-.317L22 8.428V2.5C22 1.122 20.879 0 19.5 0h-15A2.503 2.503 0 002 2.5v5.928L.023 14.853a.487.487 0 00.016.318A1.482 1.482 0 000 15.5v6a.5.5 0 00.5.5h2a.5.5 0 00.5-.5V20h18v1.5a.5.5 0 00.5.5h2a.5.5 0 00.5-.5v-6c0-.114-.015-.223-.039-.33zM3 2.5C3 1.673 3.673 1 4.5 1h15c.827 0 1.5.673 1.5 1.5V8h-1.359l-.466-1.864A1.5 1.5 0 0017.719 5H14.5c-.827 0-1.5.673-1.5 1.5V8h-2V6.5c0-.826-.673-1.5-1.5-1.5H6.281a1.5 1.5 0 00-1.456 1.137L4.359 8H3V2.5zm15.614 6.308a.5.5 0 01-.395.192H14.5a.5.5 0 01-.5-.5v-2a.5.5 0 01.5-.5h3.22c.23 0 .429.155.485.378l.5 2a.496.496 0 01-.091.43zM10.001 6.5v1.995L10 8.5v.002A.5.5 0 019.501 9H5.782a.498.498 0 01-.486-.622l.5-2A.5.5 0 016.282 6h3.219a.5.5 0 01.5.5zM2.869 9h1.505c.053.15.122.294.223.424.288.366.719.576 1.184.576H9.5c.651 0 1.201-.42 1.408-1h2.184c.207.58.757 1 1.408 1h3.719c.465 0 .895-.21 1.183-.576.101-.13.17-.274.223-.424h1.506l1.544 5.018C22.617 14.01 22.56 14 22.5 14h-21c-.06 0-.117.011-.174.018L2.869 9zM2 21H1v-1h1v1zm21 0h-1v-1h1v1zm0-2H1v-3.5a.5.5 0 01.5-.5h21a.5.5 0 01.5.5V19z" fill="#919DA1"/></svg>