<svg width="1920" height="822" fill="none" xmlns="http://www.w3.org/2000/svg"><g clip-path="url(#clip0)"><g filter="url(#filter0_d)" clip-path="url(#clip1)"><path d="M321.523 349.83v-44.728h-22.484v-18.61h-32.486v18.61h-46.564v44.728h-18.281v-87.506h-33.979v87.506h-15.078v-59.971h-44.158v20.775h-8.634v25.27h-5.204v-9.495h1.304v-5.28h-1.658l-9.166-18.926-6.963 14.394v-10.685h2.19v-6.317H77.59l-15.268-22.611-15.256 22.611h-2.772v6.317h2.177v29.992h-7.596v-46.323h-4.33v-59.92H20.48v59.92H-9.55v71.605h-13.47v-25.662h-24.61v25.662h-27.688v-48.045h-22.547v72.605h-17.433v-32.207h-26.662v32.207h-35.233v72.605H-2.51v-.202h35.992v.202H341.5V349.83h-19.977z" fill="#DDEEF1"/><path d="M-1.941 385.746v-32.207h-26.662v32.207h-8.57v-72.605H-69.85v48.045h-17.56v-25.662h-24.611v25.662h-13.47v-71.605h-30.03v-59.92h-14.065v59.92h-4.33v46.323h-7.596v-29.992h2.178v-6.317h-2.773l-15.255-22.611-15.268 22.611h-2.772v6.317h2.177v10.685l-6.963-14.394-9.153 18.926H-231v5.28h1.304v9.495h-5.203v-25.27h-8.634v-20.775h-44.158v59.971h-13.812v-87.506h-33.98v87.506h-18.281v-44.728h-46.563v-18.61H-432.8v18.61h-22.497v44.728h-27.586v-89.646H-512v198.167h343.479v-.202h35.992l-10.128.202h165.82l10.129-72.605H-1.941z" fill="#E9EBF1"/><path d="M236.112 309.862v-7.064h-8.546v-17.104h-14.951v-15.192H154.24v15.192h-11.394v231.957h118.168V309.862h-24.902zm-88 17.888h4.773v9.913h-4.773v-9.913zm0 17.091h4.773v9.926h-4.773v-9.926zm5.064 104.205h-5.064v-9.887h5.064v9.887zm0-14.445h-5.064v-9.913h5.064v9.913zm0-14.432h-5.064v-9.913h5.064v9.913zm0-14.433h-5.064v-9.913h5.064v9.913zm60.363-77.986h4.773v9.913h-4.773v-9.913zm-9.356 0h4.773v9.913h-4.773v-9.913zm-9.355 0h4.785v9.913h-4.773l-.012-9.913zm-9.343 0h4.772v9.913h-4.772v-9.913zm-9.356 0h4.773v9.913h-4.773v-9.913zm-9.356 0h4.773v9.913h-4.773v-9.913zm-9.356 0h4.773v9.913h-4.735l-.038-9.913zm0 17.091h4.773v9.926h-4.735l-.038-9.926zm5.659 104.205h-5.064v-9.887h5.064v9.887zm0-14.445h-5.064v-9.913h5.064v9.913zm0-14.432h-5.064v-9.913h5.064v9.913zm0-14.433h-5.064v-9.913h5.064v9.913zm3.697-60.895h4.773v9.926h-4.773v-9.926zm6.254 104.205h-5.064v-9.887h5.064v9.887zm0-14.445h-5.064v-9.913h5.064v9.913zm0-14.432h-5.064v-9.913h5.064v9.913zm0-14.433h-5.064v-9.913h5.064v9.913zm3.115-60.895h4.772v9.926h-4.772v-9.926zm6.823 104.205h-5.064v-9.887h5.064v9.887zm0-14.445h-5.064v-9.913h5.064v9.913zm0-14.432h-5.064v-9.913h5.064v9.913zm0-14.433h-5.064v-9.913h5.064v9.913zm2.532-60.895h4.773v9.926h-4.773v-9.926zm7.406 104.205h-5.064v-9.887h5.064v9.887zm0-14.445h-5.064v-9.913h5.064v9.913zm0-14.432h-5.064v-9.913h5.064v9.913zm0-14.433h-5.064v-9.913h5.064v9.913zm1.937-60.895h4.773v9.926h-4.773v-9.926zm8.001 104.205h-5.064v-9.887h5.064v9.887zm0-14.445h-5.064v-9.913h5.064v9.913zm0-14.432h-5.064v-9.913h5.064v9.913zm0-14.433h-5.064v-9.913h5.064v9.913zm1.355-60.895h4.773v9.926h-4.773v-9.926zm8.584 104.205h-5.064v-9.887h5.064v9.887zm0-14.445h-5.064v-9.913h5.064v9.913zm0-14.432h-5.064v-9.913h5.064v9.913zm0-14.433h-5.064v-9.913h5.064v9.913zm.772-60.895h4.773v9.926h-4.786l.013-9.926zm9.166 104.205h-5.064v-9.887h5.064v9.887zm0-14.445h-5.064v-9.913h5.064v9.913zm0-14.432h-5.064v-9.913h5.064v9.913zm0-14.433h-5.064v-9.913h5.064v9.913zm9.938 43.31h-5.064v-9.887h5.064v9.887zm0-14.445h-5.064v-9.913h5.064v9.913zm0-14.432h-5.064v-9.913h5.064v9.913zm0-14.433h-5.064v-9.913h5.064v9.913zm10.001 43.31h-5.064v-9.887h5.064v9.887zm0-14.445h-5.064v-9.913h5.064v9.913zm0-14.432h-5.064v-9.913h5.064v9.913zm0-14.433h-5.064v-9.913h5.064v9.913zm9.938 43.31h-5.064v-9.887h5.064v9.887zm0-14.445h-5.064v-9.913h5.064v9.913zm0-14.432h-5.064v-9.913h5.064v9.913zm0-14.433h-5.064v-9.913h5.064v9.913z" fill="#EBF6F8"/><path d="M409.725 370.538v-9.103h-5.152v12.141h-16.572V325h-18.864l-30.839 10.242v23.535L292 350.801l.544 178.734h121.182V370.538h-4.001zM300.951 475.616h-3.317v-110.56l3.317.659v109.901zm7.292 0h-3.317V366.487l3.317.658v108.471zm7.292 0h-3.317v-107.61l3.317.646v106.964zm7.292 0h-3.304V369.361l3.304.658v105.597zm7.292 0h-3.304V370.791l3.304.659v104.166zm7.305 0h-3.317V372.234l3.317.646v102.736zm19.294-51.665h-5.938v-5.938h5.938v5.938zm0-9.495h-5.938v-5.938h5.938v5.938zm0-9.508h-5.938v-5.938h5.938v5.938zm0-18.99h-5.938v-5.938h5.938v5.938zm11.28 28.51h-5.938v-5.937h5.938v5.937zm0-18.99h-5.938v-5.937h5.938v5.937zm0-20.192h-5.938v-5.938h5.938v5.938zm0-9.495h-5.938v-5.938h5.938v5.938zm0-9.508h-5.938v-6.014h5.938v6.014zm41.575 55.818h-31.472v-3.558h31.472v3.558zm0-7.128h-31.472v-3.557h31.472v3.557zm0-10.128h-31.472v-3.557h31.472v3.557zm0-7.127h-31.472v-3.558h31.472v3.558z" fill="url(#paint0_linear)"/><path d="M168.628 459.781s12.375-17.406 46.449-17.406c34.073 0 41.617 17.152 41.617 17.152l-8.815-29.039-68.826.595-10.425 28.698z" fill="#fff"/><path d="M165.831 465.131l12.629-34.897 70.012-.595 8.985 29.633-1.526.594c-.085-.169-7.798-16.641-40.854-16.641-33.142 0-45.601 16.896-45.771 17.066l-3.475 4.84zm13.731-33.284l-8.815 24.283c5.34-5.094 18.817-14.604 44.245-14.604 23.563 0 34.582 8.067 39.329 13.246l-7.12-23.519-67.639.594z" fill="#fff"/><path d="M253.812 449.762l-5.424-18.934-71.793.51-5.594 20.038c5.001-4.84 18.308-14.774 44.076-14.774 23.394-.085 34.243 8.066 38.735 13.16z" fill="#fff"/><path d="M169.815 453.329l6.357-22.586h.423l72.301-.509 6.272 21.906-1.695-1.953c-4.323-4.84-15.087-12.991-38.396-12.991-25.852 0-39.16 10.274-43.652 14.604l-1.61 1.529zm7.204-21.482l-4.916 17.661c5.764-4.925 19.156-13.585 42.889-13.585 21.275 0 32.294 6.707 37.634 11.717l-4.662-16.302-70.945.509z" fill="#fff"/><path d="M213.636 431.592h-1.187v4.84h1.187v-4.84zm-1.102 10.529l-.085-5.689h1.187l.085 5.604-1.187.085zm-38.334.076l-1.048.557 2.424 4.574 1.048-.557-2.424-4.574zm34.594-11.73l-1.185.068.367 6.442 1.185-.067-.367-6.443zm-32.461 4.534l-1.126.377 3.347 10.07 1.126-.376-3.347-10.071zm4.301-3.299l-1.151.292 2.727 10.783 1.15-.293-2.726-10.782zm5.116 9.74l-1.526-10.02 1.102-.169 1.61 9.934-1.186.255zm3.644-1.444l-.763-8.66 1.187-.085.763 8.66-1.187.085zm4.417-8.859l-1.186.047.318 8.06 1.186-.047-.318-8.06zm4.095.201l-1.187.019.107 6.622 1.187-.019-.107-6.622zm2.507 6.111l-.254-6.283h1.186l.255 6.198-1.187.085zm3.645-.34l-.339-6.028 1.186-.085.339 6.113h-1.186zm-31.419 12.747l-1.119.398 1.583 4.482 1.118-.397-1.582-4.483zm2.503-1.543l-1.113.414 1.502 4.061 1.112-.414-1.501-4.061zm2.894 2.891l-1.441-4.161 1.102-.424 1.441 4.16-1.102.425zm2.543-1.274l-1.271-4.585 1.186-.339 1.272 4.585-1.187.339zm2.373-1.783l-1.017-4.755 1.187-.254 1.017 4.754-1.187.255zm3.068-5.694l-1.168.213.789 4.344 1.167-.213-.788-4.344zm2.357 3.911l-.678-5.349 1.187-.17.678 5.434-1.187.085zm2.882-1.189l-.424-4.924 1.187-.085.424 4.84-1.187.169zm4.035-5.975l-1.18.127.547 5.15 1.18-.126-.547-5.151zm3.424-.597l-1.186.036.156 5.176 1.187-.036-.157-5.176zm2.847-.923l-1.187.012.058 5.518 1.187-.012-.058-5.518zm2.917.024h-1.187v5.179h1.187v-5.179zm3.012-.689l-1.187.017.078 5.603 1.187-.016-.078-5.604zm2.928.248l-1.186.038.153 4.838 1.187-.038-.154-4.838zm41.164 3.511l-2.427 4.669 1.053.549 2.427-4.669-1.053-.549zm-33.797-4.004l-1.187-.085.339-6.368h1.187l-.339 6.453zm31.702-3.112l-3.368 10.241 1.127.372 3.368-10.241-1.127-.372zm-5.935 8.036l-1.186-.255 2.797-10.868 1.102.255-2.713 10.868zm-3.174-11.51l-1.364 9.754 1.175.165 1.364-9.754-1.175-.165zm-4.2 8.623l-1.102-.085.932-8.32 1.187.084-1.017 8.321zm-3.306-.254l-1.186-.085.339-8.066 1.186.084-.339 8.067zm-3.899-1.189h-1.186l.085-6.623h1.186l-.085 6.623zm-4.52-6.681l-.243 6.279 1.186.045.242-6.278-1.185-.046zm-2.769 6.172l-1.102-.085.254-6.114 1.187.085-.339 6.114zm30.938 16.472l-1.102-.425 1.61-4.5 1.102.424-1.61 4.501zm-1.964-6.387l-1.489 4.065 1.114.409 1.489-4.065-1.114-.409zM248 445.397l-1.416 4.181 1.124.382 1.415-4.182-1.123-.381zm-2.833 3.347l-1.102-.255 1.271-4.67 1.102.34-1.271 4.585zm-2.374-1.699l-1.102-.254 1.102-4.755 1.187.339-1.187 4.67zm-2.817-6.391l-.946 5.264 1.168.211.946-5.265-1.168-.21zm-2.966-.617l-.792 5.376 1.174.173.792-5.376-1.174-.173zm-2.523 4.376l-1.187-.17.593-5.264 1.187.17-.593 5.264zm-3.966-5.911l-.575 5.232 1.179.13.575-5.232-1.179-.13zm-2.391 4.892l-1.187-.085.254-5.519h1.187l-.254 5.604zm-2.797-6.368h-1.187v5.774h1.187v-5.774zm-2.882.425h-1.187v5.179h1.187v-5.179zm-3.052 4.924h-1.186l.085-5.603h1.186l-.085 5.603zm-4.238-.254v-5.519h1.187v5.519h-1.187z" fill="#fff"/><path d="M213.381 107.077c0 18.51-.084 37.104-.339 55.614-.254 18.51-.678 37.104-1.186 55.614-.255 9.255-.678 18.51-1.017 27.765-.255 9.255-.763 18.51-1.357 27.765-.593 9.254-.847 18.509-1.864 27.764-.933 9.255-1.441 18.51-2.713 27.765-1.356 9.17-2.373 18.34-4.238 27.51l-2.627 13.755-3.221 13.585c-1.95 9.085-4.831 18-7.29 26.916-1.356 4.415-2.881 8.83-4.322 13.245a185.984 185.984 0 01-4.577 13.161c-3.137 8.745-6.612 17.406-10.256 25.981-3.73 8.491-7.544 16.982-11.782 25.303-4.153 8.321-8.561 16.472-13.223 24.623-4.746 8.066-9.578 15.963-15.172 23.604l-.593.849h-1.017l-54.247.764-5.34.17 3.814-3.99c6.442-6.793 12.63-14.18 18.648-21.567 5.933-7.472 11.612-15.113 17.121-22.925l8.052-11.802 7.714-12.057c4.916-8.151 9.917-16.302 14.324-24.793 4.662-8.321 8.73-16.981 12.969-25.557 2.119-4.33 3.814-8.745 5.763-13.076 1.865-4.415 3.899-8.745 5.425-13.245l5.086-13.415c1.695-4.501 2.966-9.085 4.492-13.586 3.136-9 5.34-18.34 7.713-27.594 1.271-4.585 2.119-9.255 3.051-14.01l6.781-35.237.933-7.132 3.899-28.444c1.271-9.509 1.864-19.019 2.881-28.614l1.357-14.264.932-14.349c.593-9.595 1.271-19.104 1.61-28.699l2.289-57.482.509-.51h11.018v.595zm-.932.509h-10.086l.508-.509-1.865 57.482c-.254 9.594-.847 19.189-1.356 28.699l-.763 14.349-1.186 14.349c-.933 9.595-1.441 19.104-2.628 28.699l-3.645 28.614-.932 7.132-1.271 7.047-5.255 28.189c-.848 4.67-1.696 9.51-2.967 14.095-2.289 9.34-4.492 18.68-7.629 27.85-1.44 4.585-2.712 9.254-4.407 13.755l-5.001 13.5c-1.61 4.585-3.56 8.915-5.425 13.415-1.949 4.415-3.644 8.915-5.763 13.246-4.154 8.66-8.222 17.406-12.799 25.812-4.408 8.575-9.324 16.811-14.24 25.047l-7.628 12.227-8.053 11.972a564.365 564.365 0 01-17.121 23.264c-6.018 7.557-12.121 14.944-18.732 22.076l-1.696-3.906 54.247-.424-1.61.849c5.34-7.302 10.256-15.198 15.002-23.095 4.662-7.981 9.154-16.047 13.308-24.283 4.238-8.236 8.052-16.642 11.866-25.048 3.645-8.491 7.205-16.981 10.341-25.727a239.63 239.63 0 004.662-13.076c1.441-4.415 2.966-8.745 4.323-13.16 2.458-8.915 5.424-17.661 7.374-26.746l3.305-13.5 2.713-13.585c1.949-9.001 3.051-18.255 4.492-27.425 1.356-9.085 1.95-18.425 2.967-27.595 1.017-9.17 1.356-18.51 2.034-27.68a761.51 761.51 0 001.526-27.765c.423-9.255.932-18.509 1.186-27.764.678-18.51 1.187-37.02 1.526-55.615.339-18 .593-36.425.678-54.765z" fill="#fff"/><path d="M166.424 462.838h-40.092v2.378h40.092v-2.378zm-17.461 35.322h-46.109v2.377h46.109v-2.377z" fill="#fff"/><path d="M72.425 537.641c-.424 0-.848-.254-1.102-.679-.254-.594 0-1.273.508-1.528l75.437-36.51-22.207-33.623a1.183 1.183 0 01-.17-.934c.085-.34.255-.595.509-.765l52.891-33.538c.508-.34 1.271-.17 1.61.34.339.509.17 1.273-.339 1.613l-51.873 32.944 22.292 33.708c.169.255.254.594.169.934-.085.34-.339.594-.593.764l-76.624 37.105c-.17.085-.339.169-.508.169z" fill="#fff"/><path d="M126.671 537.047a1.21 1.21 0 01-1.017-.509l-23.309-36.51a1.182 1.182 0 01-.169-.934c.084-.34.254-.595.593-.765l61.621-34.812-21.021-31.245c-.339-.51-.254-1.274.339-1.614.509-.339 1.272-.254 1.611.34l21.783 32.265c.17.254.254.594.17.934-.085.339-.255.594-.594.764l-61.621 34.812 22.632 35.491c.339.51.169 1.274-.34 1.613-.254.085-.423.17-.678.17z" fill="#fff"/><path d="M102.769 536.877l-1.95-1.358c.424-.679 45.263-67.417 58.74-105.54l2.203.764c-13.561 38.463-58.569 105.455-58.993 106.134zm92.813-159.201h-28.734a.85.85 0 010-1.698h28.734a.85.85 0 010 1.698zm4.407-21.821h-26.106a.85.85 0 01-.848-.849.85.85 0 01.848-.849h26.106a.85.85 0 01.848.849c0 .509-.339.849-.848.849zm3.221-21.481h-23.479a.85.85 0 010-1.699h23.479a.85.85 0 01.848.849c-.085.51-.424.85-.848.85z" fill="#fff"/><path d="M160.152 396.526c-.254 0-.593-.17-.763-.425-.17-.424-.085-.934.339-1.104l34.159-17.915-20.089-20.887a.922.922 0 01-.254-.595c0-.254.17-.424.339-.594l28.141-21.736-19.072-15.369c-.339-.254-.423-.764-.084-1.188.254-.34.762-.425 1.186-.085l19.834 16.047c.17.17.339.425.339.68 0 .254-.084.509-.339.679l-28.225 21.821 20.258 20.972c.169.17.254.425.254.679 0 .255-.169.51-.424.595l-35.091 18.425c-.254-.085-.339 0-.508 0z" fill="#fff"/><path d="M190.581 397.205c-.17 0-.339-.085-.509-.17l-23.055-19.274c-.169-.17-.339-.424-.254-.679 0-.255.17-.51.339-.679l31.362-20.972-18.902-21.227a.663.663 0 01-.17-.68c0-.254.17-.424.34-.594l25.004-16.472c.424-.255.932-.17 1.102.255.254.424.169.849-.255 1.104l-24.156 16.047 18.901 21.227a.66.66 0 01.17.679c0 .255-.17.425-.339.594l-31.277 20.888 22.207 18.594c.339.255.424.849.085 1.189-.085.085-.339.17-.593.17z" fill="#fff"/><path d="M177.019 397.035l-2.288-.679c.169-.51 15.002-49.586 18.477-81.341l2.374.254c-3.475 32.01-18.393 81.257-18.563 81.766zm31.616-119.804h-18.224v1.189h18.224v-1.189zm.424-13.246h-16.868v1.189h16.868v-1.189zm1.271-13.245h-16.698v1.189h16.698v-1.189zm.339-13.246h-16.104v1.189h16.104v-1.189zm2.458-125.747h-11.188v1.188h11.188v-1.188zm-.169 6.028h-11.104v1.189h11.104v-1.189zm0 6.962H201.6v1.189h11.358v-1.189zm-.17 7.982H201.43v1.188h11.358v-1.188zm.254 7.641h-12.036v1.189h12.036v-1.189zm-.169 8.916h-12.206v1.188h12.206v-1.188zm.169 9.934h-13.053v1.189h13.053v-1.189zm-.339 9.425h-12.968v1.188h12.968v-1.188zm-.084 9.594h-13.223v1.189h13.223v-1.189zm-.339 9.595h-13.223v1.188h13.223v-1.188zm-.679 11.207h-13.815v1.189h13.815v-1.189zm-.508 12.397h-13.562v1.188h13.562v-1.188zm-.085 12.651h-14.663v1.189h14.663v-1.189z" fill="#fff"/><path d="M188.462 293.193l-.678-.933 19.495-14.435-15.935-13.245 17.63-13.331-14.664-13.245 15.596-13.246-13.053-12.736 13.901-11.972-12.46-11.292 13.053-9.85-12.036-9.594 12.036-9.425-11.358-9.679 11.528-9.001-10.68-7.471 10.341-8.321-9.833-6.878 9.917-5.773-9.069-4.67.509-1.104 11.018 5.689-10.171 5.943 9.578 6.708-10.341 8.321 10.68 7.472-11.612 9.085 11.358 9.679-12.036 9.425 12.121 9.679-13.223 9.849 12.46 11.208-13.986 11.972 13.053 12.821-15.511 13.246 14.664 13.245-17.461 13.331 15.85 13.245-20.681 15.283z" fill="#fff"/><path d="M201.6 159.465l12.12-9.17-11.103-9.34 10.171-7.642-9.493-7.896 10.002-7.048-10.002-5.773 9.408-4.84-.508-1.019-10.341 5.349c-.085.34-.17.595-.254.934l9.578 5.519-9.748 6.878 9.493 7.981-10.256 7.642 11.104 9.255-12.121 9.17 11.697 9.764-12.375 9.594 11.443 9.51-12.714 10.953 12.375 12.821-14.07 12.481 13.137 13.501-15.85 13.245 14.918 13.585-18.308 12.736 16.952 15.114.763-.849-15.851-14.18 17.715-12.311.594-.425-14.918-13.67 15.342-12.651.508-.425-13.138-13.585 14.07-12.481-12.375-12.821 12.884-11.123-11.527-9.425 12.375-9.594-11.697-9.764zm-62.384 355.931H90.394v2.377h48.822v-2.377zm19.749-35.916H114.89v2.377h44.075v-2.377zm14.833-34.218H135.91v2.378h37.888v-2.378z" fill="#fff"/><path d="M213.551 107.586c.085 18.34.339 36.765.763 55.105.339 18.51.932 37.02 1.526 55.614.254 9.255.847 18.51 1.186 27.765.339 9.255.933 18.51 1.526 27.765.678 9.254 1.017 18.509 2.034 27.679 1.017 9.17 1.611 18.51 2.967 27.595 1.441 9.17 2.458 18.425 4.492 27.425l2.712 13.585 3.306 13.501c2.034 9 4.916 17.83 7.374 26.746 1.356 4.415 2.882 8.745 4.323 13.16a239.931 239.931 0 004.662 13.076c3.136 8.66 6.696 17.236 10.341 25.727 3.814 8.406 7.628 16.811 11.866 25.047 4.153 8.236 8.646 16.303 13.307 24.284 4.747 7.896 9.663 15.793 15.003 23.095l-1.61-.849 54.246.424-1.695 3.906c-6.696-7.132-12.799-14.519-18.732-22.076s-11.612-15.368-17.122-23.265l-8.052-11.972-7.628-12.226c-4.916-8.321-9.832-16.557-14.24-25.048-4.662-8.406-8.73-17.151-12.799-25.812-2.119-4.33-3.814-8.83-5.764-13.245-1.864-4.415-3.814-8.831-5.424-13.416l-5.001-13.5c-1.695-4.5-2.882-9.17-4.408-13.755-3.051-9.085-5.255-18.51-7.628-27.849-1.272-4.67-2.119-9.425-2.967-14.095l-5.255-28.189-1.271-7.047-.933-7.133-3.644-28.613c-1.272-9.51-1.78-19.105-2.628-28.699l-1.187-14.349-.762-14.35c-.509-9.594-1.187-19.189-1.357-28.698l-1.864-57.483.508.51-10.171-.34zm-.932-.934h11.018l.509.51 2.289 57.482c.254 9.594 1.017 19.104 1.61 28.699l.932 14.349 1.357 14.264c1.017 9.51 1.61 19.104 2.881 28.614l3.899 28.444.933 7.132 6.781 35.237c.932 4.754 1.78 9.339 3.051 14.009 2.373 9.255 4.662 18.51 7.713 27.595 1.526 4.5 2.797 9.17 4.492 13.585l5.086 13.416c1.611 4.5 3.56 8.83 5.425 13.245 1.949 4.331 3.729 8.831 5.764 13.076 4.153 8.576 8.221 17.236 12.968 25.557 4.407 8.491 9.408 16.642 14.324 24.793l7.714 12.057 8.052 11.802c5.509 7.811 11.188 15.453 17.121 22.925 5.934 7.387 12.121 14.774 18.648 21.566L359 539l-5.425-.085-54.246-.764h-1.018l-.593-.849c-5.509-7.642-10.341-15.538-15.172-23.604-4.662-8.067-9.069-16.218-13.223-24.623-4.238-8.321-8.052-16.812-11.781-25.303-3.56-8.575-7.12-17.151-10.256-25.981a185.655 185.655 0 01-4.577-13.161c-1.441-4.415-2.967-8.83-4.323-13.246-2.458-9-5.255-17.83-7.29-26.915l-3.22-13.585-2.628-13.755c-1.95-9.17-2.882-18.34-4.238-27.51-1.272-9.255-1.78-18.51-2.712-27.765-1.018-9.255-1.272-18.51-1.865-27.765-.594-9.255-1.102-18.509-1.356-27.764-.339-9.255-.763-18.51-1.017-27.765-.509-18.51-.933-37.105-1.187-55.614-.254-18.51-.339-37.105-.339-55.615l.085-.679z" fill="#fff"/><path d="M299.668 462.838h-40.092v2.378h40.092v-2.378zm23.478 35.322h-46.109v2.377h46.109v-2.377z" fill="#fff"/><path d="M353.575 537.641c-.169 0-.339 0-.508-.084l-76.624-37.105c-.339-.17-.508-.424-.593-.764-.085-.34 0-.679.169-.934l22.292-33.708-51.873-32.944c-.509-.34-.678-1.104-.339-1.614.339-.509 1.102-.679 1.61-.339l52.891 33.538c.254.17.424.425.509.764.084.34 0 .595-.17.934l-22.207 33.624 75.437 36.51c.593.254.847 1.019.508 1.528-.254.34-.678.594-1.102.594z" fill="#fff"/><path d="M299.329 537.047c-.255 0-.424-.085-.594-.17-.508-.339-.678-1.104-.339-1.613l22.631-35.491-61.621-34.812c-.254-.17-.508-.425-.593-.764-.085-.34 0-.68.17-.934l21.783-32.265c.339-.51 1.102-.679 1.61-.34.509.34.679 1.104.34 1.614l-21.021 31.245 61.621 34.812c.254.17.508.425.593.765.085.339 0 .679-.169.933l-23.31 36.511c-.339.254-.678.509-1.101.509z" fill="#fff"/><path d="M323.231 536.877c-.424-.679-45.516-67.671-58.993-106.049l2.204-.764c13.392 38.123 58.315 104.86 58.739 105.54l-1.95 1.273zm-64.079-159.201h-28.734a.849.849 0 010-1.698h28.734a.85.85 0 01.848.849c0 .425-.424.849-.848.849zm-7.035-21.821h-26.106a.85.85 0 01-.848-.849.85.85 0 01.848-.849h26.106a.85.85 0 01.848.849c-.085.509-.424.849-.848.849zm-5.848-21.482H222.79a.85.85 0 010-1.698h23.479a.85.85 0 010 1.698z" fill="#fff"/><path d="M265.848 396.526c-.169 0-.254 0-.424-.085l-35.09-18.425a.638.638 0 01-.424-.595c0-.254 0-.509.254-.679l20.258-20.972-28.31-21.906c-.17-.17-.339-.425-.339-.679 0-.255.085-.51.339-.68l19.834-16.047a.905.905 0 011.186.085.91.91 0 01-.084 1.189L223.977 333.1l28.14 21.736c.17.17.339.34.339.594a.774.774 0 01-.254.595l-20.173 21.057 34.158 17.83c.424.17.594.68.339 1.104-.084.34-.423.51-.678.51z" fill="#fff"/><path d="M235.419 397.205c-.254 0-.508-.085-.593-.255a.911.911 0 01.085-1.189l22.207-18.594-31.277-20.887c-.169-.17-.339-.34-.339-.595 0-.255.085-.509.17-.679l18.901-21.227-24.156-15.878c-.339-.254-.509-.764-.255-1.103.255-.34.763-.51 1.102-.255l25.005 16.472c.169.17.339.34.339.594 0 .255-.085.51-.17.68l-18.902 21.226 31.362 20.972c.254.17.339.425.339.68 0 .254-.085.509-.254.679l-23.055 19.274c-.17.085-.339.085-.509.085z" fill="#fff"/><path d="M248.981 397.035c-.17-.509-15.088-49.841-18.563-81.766l2.374-.254c3.475 31.755 18.308 80.831 18.477 81.341l-2.288.679zm-13.392-119.804h-18.224v1.189h18.224v-1.189zm-1.865-13.246h-16.867v1.189h16.867v-1.189zm-1.356-13.245H215.67v1.189h16.698v-1.189zm-.933-13.246h-16.104v1.189h16.104v-1.189zm-7.374-125.747h-11.188v1.188h11.188v-1.188zm.085 6.028h-11.104v1.189h11.104v-1.189zm.339 6.962h-11.358v1.189h11.358v-1.189zm.17 7.982h-11.358v1.188h11.358v-1.188zm.339 7.641h-12.036v1.189h12.036v-1.189zm.339 8.916h-12.206v1.188h12.206v-1.188zm.593 9.934h-13.053v1.188h13.053v-1.188zm.424 9.424h-12.969v1.189h12.969v-1.189zm.339 9.595h-13.223v1.189h13.223v-1.189zm.254 9.595h-13.222v1.188h13.222v-1.188zm1.272 11.207h-13.816v1.189h13.816v-1.189zm.254 12.397h-13.562v1.188h13.562v-1.188zm1.186 12.651h-14.663v1.189h14.663v-1.189z" fill="#fff"/><path d="M237.538 293.193l-20.682-15.284 15.851-13.245-17.461-13.331 14.663-13.245-15.511-13.246 13.053-12.821-13.985-11.972 12.46-11.207-13.223-9.849 12.121-9.68-12.036-9.425 11.358-9.679-11.612-9.085 10.679-7.472-10.34-8.321 9.662-6.708-10.256-5.943 11.019-5.689.509 1.104-9.07 4.67 9.917 5.774-9.747 6.877 10.256 8.321-10.68 7.472 11.527 9-11.357 9.679 12.036 9.425-12.036 9.595 13.053 9.849-12.46 11.292 13.901 11.972-12.969 12.737 15.596 13.245-14.663 13.246 17.545 13.33-15.85 13.246 19.41 14.434-.678.934z" fill="#fff"/><path d="M217.789 264.834l14.918-13.585-15.935-13.16 13.138-13.501-14.071-12.481 12.376-12.821-12.715-10.953 11.443-9.51-12.375-9.594 11.697-9.764-12.121-9.17 11.104-9.255-10.256-7.642 9.493-7.981-9.747-6.878 9.408-5.434c0-.339-.085-.679 0-1.019l-10.426-5.434-.508 1.019 9.408 4.84-10.001 5.773 10.001 7.048-9.493 7.896 10.171 7.642-11.103 9.255 12.121 9.17-11.697 9.764 12.375 9.595-11.358 9.509 12.883 11.123-12.375 12.821 14.071 12.481-13.138 13.586 15.85 13.075-15.003 13.755 18.309 12.736-15.851 14.095.763.849 16.952-15.113-18.308-12.737zm117.817 250.562h-48.822v2.377h48.822v-2.377zM311.11 479.48h-44.075v2.377h44.075v-2.377zm-21.02-34.218h-37.888v2.378h37.888v-2.378z" fill="#fff"/><path d="M248.048 292.175h-71.707v8.83h71.707v-8.83zm-3.814 19.019h-64.079v3.651h64.079v-3.651z" fill="#fff"/><path d="M243.641 311.788v2.462h-62.892v-2.462h62.892zm1.187-1.189h-65.266v4.84h65.266v-4.84zm-56.705-7.471a.58.58 0 01-.594-.595v-6.792a.58.58 0 01.594-.595.58.58 0 01.593.595v6.792a.58.58 0 01-.593.595zm8.137 0a.58.58 0 01-.594-.595v-6.792a.58.58 0 01.594-.595.58.58 0 01.593.595v6.792a.58.58 0 01-.593.595zm8.137 0a.58.58 0 01-.594-.595v-6.792a.58.58 0 01.594-.595.58.58 0 01.593.595v6.792a.58.58 0 01-.593.595zm8.137 0a.58.58 0 01-.594-.595v-6.792a.58.58 0 01.594-.595.58.58 0 01.593.595v6.792a.58.58 0 01-.593.595zm8.137 0a.58.58 0 01-.594-.595v-6.792a.58.58 0 01.594-.595.58.58 0 01.593.595v6.792c0 .34-.339.595-.593.595zm8.137 0a.58.58 0 01-.594-.595v-6.792a.58.58 0 01.594-.595.58.58 0 01.593.595v6.792c0 .34-.339.595-.593.595zm8.137 0a.58.58 0 01-.594-.595v-6.792a.58.58 0 01.594-.595.58.58 0 01.593.595v6.792c-.085.34-.339.595-.593.595z" fill="#fff"/><path d="M244.234 301.26h-64.079v8.83h64.079v-8.83z" fill="#fff"/><path d="M243.641 301.854v7.642h-62.892v-7.642h62.892zm1.187-1.104h-65.266v10.019h65.266V300.75z" fill="#fff"/><path d="M241.607 311.364l-.848-.849h-1.78l-.678.679-.678-.679h-1.95l-.593.594-.593-.594h-1.017l1.101 1.103-1.101 1.104-1.187-1.189 1.017-1.018h-1.017l-.509.509-.508-.509h-1.017l1.017 1.018-1.102 1.104-1.187-1.188.933-.934h-1.017l-.424.424-.424-.424h-1.017l.932.934-1.102 1.103-1.186-1.188.847-.849h-1.017l-.339.339-.339-.339h-1.017l.848.849-1.102 1.103-1.187-1.188.763-.764h-1.017l-.255.254-.254-.254h-1.017l.763.764-1.102 1.103-1.187-1.188.594-.595h-.933l-.169.17-.17-.17h-1.017l.593.595-1.101 1.104-1.187-1.189.508-.51h-1.864l.508.51-1.102 1.104-1.186-1.189.424-.425h-1.865l.424.425-1.102 1.104-1.187-1.189.339-.34h-1.695l.339.34-1.102 1.104-1.187-1.189.255-.255h-1.526l.254.255-1.102 1.104-1.186-1.189.169-.17h-1.271l.169.17-1.101 1.104-1.187-1.189.085-.085h-1.102l.085.085-1.102 1.104-1.187-1.189h-1.187l-1.017 1.019-1.017-1.019h-1.356l-.932.934-.933-.934h-1.441l-.847.85-.848-.85h-1.695l-.763.765-.763-.765h-1.865l-.678.68-.678-.68h-.593v.425l.763.764-.763.764v1.698l.848.85-.424.424h1.78l-.424-.424 1.102-1.104 1.186 1.188-.339.255h1.611l-.339-.255 1.102-1.103 1.186 1.188-.169.17h1.441l-.17-.17 1.102-1.103 1.187 1.188-.085.085h1.187l-.085-.085 1.102-1.104 1.186 1.189h1.018l1.101-1.104 1.102 1.104h1.187l1.017-1.019 1.017 1.019h1.356l.933-.934.932.934h1.611l.847-.849.848.849h1.78l.763-.764.762.764h1.95l.593-.594.594.594h1.017l-1.102-1.104 1.102-1.103 1.186 1.188-1.017 1.019h1.017l.509-.509.508.509h1.018l-1.018-1.019 1.102-1.104 1.187 1.189-.932.934h1.017l.424-.424.423.424h1.017l-.932-.934 1.102-1.104 1.187 1.189-.848.849h1.017l.339-.339.339.339h1.017l-.847-.849 1.102-1.104 1.186 1.189-.763.764h1.018l.254-.255.254.255h1.017l-.763-.764 1.102-1.104 1.187 1.189-.678.679h1.017l.17-.17.169.17h1.017l-.678-.679 1.102-1.104 1.187 1.189-.509.509h1.017l.085-.085.085.085h1.017l-.509-.509 1.102-1.104 1.187 1.189-.424.424h1.865l-.424-.424 1.102-1.104 1.186 1.189-.339.339h1.696l-.339-.339 1.101-1.104 1.187 1.189-.254.254h1.526l-.255-.254 1.102-1.104 1.187 1.188-.17.17h.509v-.764l-1.102-1.104 1.102-1.104v-1.018l-.848-.849h-1.525l-1.441.849zm-60.689 3.141l-1.187-1.189 1.102-1.103 1.187 1.188-1.102 1.104zm.424-2.717l1.102-1.104 1.186 1.189-1.101 1.104-1.187-1.189zm2.882 2.887l-1.187-1.189 1.102-1.104 1.187 1.189-1.102 1.104zm.424-2.802l1.101-1.104 1.187 1.189-1.102 1.104-1.186-1.189zm2.881 2.887l-1.186-1.189 1.102-1.104 1.186 1.189-1.102 1.104zm.339-2.802l1.102-1.104 1.187 1.189-1.102 1.104-1.187-1.189zm2.882 2.887l-1.186-1.189 1.102-1.104 1.186 1.189-1.102 1.104zm.424-2.802l1.102-1.104 1.187 1.189-1.102 1.104-1.187-1.189zm2.882 2.887l-1.187-1.189 1.102-1.104 1.187 1.189-1.102 1.104zm.424-2.802l1.102-1.104 1.186 1.189-1.102 1.103-1.186-1.188zm2.882 2.887l-1.187-1.189 1.102-1.104 1.187 1.189-1.102 1.104zm.423-2.802l1.102-1.104 1.187 1.189-1.102 1.103-1.187-1.188zm2.882 2.887l-1.186-1.189 1.102-1.104 1.186 1.189-1.102 1.104zm.339-2.802l1.102-1.104 1.187 1.188-1.102 1.104-1.187-1.188zm2.882 2.886l-1.186-1.188 1.101-1.104 1.187 1.189-1.102 1.103zm.424-2.717l1.102-1.103 1.187 1.188-1.102 1.104-1.187-1.189zm2.882 2.887l-1.187-1.188 1.102-1.104 1.187 1.188-1.102 1.104zm.424-2.802l1.102-1.103 1.186 1.188-1.102 1.104-1.186-1.189zm2.882 2.887l-1.187-1.189 1.102-1.103 1.186 1.188-1.101 1.104zm1.61-1.613l-1.187-1.189 1.102-1.104 1.187 1.189-1.102 1.104zm3.306.085l-1.187-1.189 1.102-1.104 1.187 1.189-1.102 1.104zm3.221.085l-1.187-1.189 1.102-1.104 1.186 1.189-1.101 1.104zm3.305.085l-1.186-1.189 1.101-1.104 1.187 1.189-1.102 1.104zm3.306.085l-1.187-1.189 1.102-1.104 1.187 1.189-1.102 1.104zm3.305.169l-1.186-1.188 1.102-1.104 1.186 1.189-1.102 1.103zm3.306.085l-1.186-1.188 1.101-1.104 1.187 1.188-1.102 1.104zm3.221.085l-1.187-1.189 1.102-1.103 1.187 1.188-1.102 1.104zm.424-2.802l1.102-1.104 1.186 1.189-1.101 1.104-1.187-1.189zm2.882 2.887l-1.187-1.189 1.102-1.103 1.187 1.188-1.102 1.104zm.424-2.802l1.101-1.104 1.187 1.189-1.102 1.104-1.186-1.189zm2.881 2.887l-1.186-1.189 1.102-1.104 1.186 1.189-1.102 1.104zm1.611-1.613l-1.187-1.189 1.102-1.104 1.187 1.189-1.102 1.104zm-54.586-11.548h-1.187v8.491h1.187v-8.491zm8.137 0h-1.187v8.491h1.187v-8.491zm8.137 0h-1.187v8.491h1.187v-8.491zm8.137 0h-1.187v8.491h1.187v-8.491zm8.137 0h-1.187v8.491h1.187v-8.491zm8.137 0h-1.187v8.491h1.187v-8.491zm8.137 0h-1.187v8.491h1.187v-8.491z" fill="#fff"/><path d="M180.664 310.514l-.848-.764 7.883-8.66.847.849-7.882 8.575z" fill="#fff"/><path d="M187.698 310.684l-7.713-8.915.932-.764 7.714 8.915-.933.764z" fill="#fff"/><path d="M188.547 310.514l-.848-.764 7.883-8.66.847.849-7.882 8.575z" fill="#fff"/><path d="M195.581 310.684l-7.713-8.915.932-.764 7.713 8.915-.932.764z" fill="#fff"/><path d="M196.684 310.514l-.848-.764 7.883-8.66.847.849-7.882 8.575z" fill="#fff"/><path d="M196.903 300.984l-.896.779 7.721 8.914.897-.779-7.722-8.914z" fill="#fff"/><path d="M205.075 310.514l-.848-.764 7.883-8.66.848.849-7.883 8.575z" fill="#fff"/><path d="M212.109 310.684l-7.713-8.915.932-.764 7.714 8.915-.933.764z" fill="#fff"/><path d="M212.788 310.514l-.848-.764 7.883-8.66.848.849-7.883 8.575z" fill="#fff"/><path d="M219.823 310.684l-7.714-8.915.933-.764 7.713 8.915-.932.764z" fill="#fff"/><path d="M220.925 310.514l-.848-.764 7.883-8.66.848.849-7.883 8.575z" fill="#fff"/><path d="M228.044 310.684l-7.713-8.915.847-.764 7.714 8.915-.848.764z" fill="#fff"/><path d="M228.893 310.515l-.848-.765 7.798-8.66.932.849-7.882 8.576z" fill="#fff"/><path d="M235.927 310.684l-7.713-8.915.932-.764 7.713 8.915-.932.764z" fill="#fff"/><path d="M236.606 310.514l-.848-.764 7.883-8.66.847.849-7.882 8.575z" fill="#fff"/><path d="M243.64 310.684l-7.713-8.915.932-.764 7.714 8.915-.933.764zm31.193 92.04H149.641v15.283h125.192v-15.283z" fill="#fff"/><path d="M145.149 429.809l4.831-14.094h124.429l5.764 14.094H145.149z" fill="#fff"/><path d="M274.07 416.309l5.255 12.991H145.997l4.492-12.991H274.07zm.763-1.189H149.641l-5.255 15.284h136.719l-6.272-15.284zm-95.441 15.284h-35.09v1.188h35.09v-1.188z" fill="#fff"/><path d="M279.834 427.602l-2.798 2.802h1.696l1.61-1.614-.508-1.188zm-.255-.68l-1.102-2.802-1.356-1.358.594-.594-.509-1.189-.932.934-3.815-3.821 2.543-2.547-.169-.425h-1.017l-2.119 2.123-2.119-2.123h-1.696l2.967 2.972-3.56 3.566-3.814-3.821 2.712-2.717h-1.695l-1.865 1.868-1.865-1.868h-1.695l2.713 2.717-3.56 3.566-3.815-3.82 2.458-2.463h-1.695l-1.61 1.614-1.611-1.614h-1.695l2.458 2.463-3.56 3.566-3.814-3.821 2.204-2.208h-1.695l-1.357 1.359-1.356-1.359h-1.695l2.204 2.208-3.56 3.566-3.814-3.821 1.864-1.868h-1.695l-1.102 1.104-1.102-1.104h-1.695l1.865 1.868-3.56 3.566-3.814-3.821 1.61-1.613h-1.695l-.848.849-.847-.849h-1.695l1.61 1.613-3.56 3.567-3.814-3.821 1.356-1.359h-1.695l-.593.595-.509-.595h-1.695l1.356 1.359-3.56 3.566-3.814-3.821 1.102-1.104h-1.696l-.254.255-.254-.255h-1.695l1.102 1.104-3.56 3.566-3.815-3.821.848-.849h-3.39l.847.849-3.56 3.566-3.814-3.82.593-.595h-2.882l.594.595-3.56 3.566-3.814-3.821.339-.34h-2.374l.339.34-3.56 3.566-3.814-3.821.085-.085h-1.865l.085.085-3.56 3.566-3.645-3.651h-2.034l-3.39 3.397-3.391-3.397h-2.543l-3.051 3.057-1.187-1.189-.423 1.274.763.764-1.611 1.613-.848 2.547 3.306-3.311 3.814 3.821-3.56 3.566-3.729-3.736-.424 1.274 3.306 3.311-2.374 2.377h1.696l1.525-1.528 1.526 1.528h1.695l-2.373-2.377 3.56-3.566 3.814 3.821-2.034 2.037h1.695l1.272-1.273 1.271 1.273h1.695l-2.034-2.037 3.56-3.566 3.814 3.82-1.78 1.783h1.695l.933-.933.932.933h1.695l-1.78-1.783 3.56-3.566 3.814 3.821-1.525 1.528h1.695l.678-.679.678.679h1.695l-1.525-1.528 3.56-3.566 3.814 3.821-1.272 1.273h1.696l.423-.424.424.424h1.695l-1.271-1.273 3.56-3.566 3.814 3.821-1.017 1.018h1.695l.255-.254.254.254h1.695l-1.017-1.018 3.56-3.566 3.814 3.82-.763.764h3.221l-.763-.764 3.56-3.566 3.814 3.821-.508.509h2.712l-.508-.509 3.56-3.566 3.814 3.821-.254.254h2.203l-.254-.254 3.56-3.566 3.814 3.82h1.695l3.476-3.481 3.475 3.481h2.288l3.221-3.226 3.221 3.226h2.797l2.967-2.971 2.966 2.971h3.306l2.712-2.717 2.713 2.717h1.695l-3.56-3.566 3.56-3.566 3.814 3.821-3.305 3.311h1.695l2.458-2.462 2.458 2.462h1.695l-3.306-3.311 3.56-3.566 3.56 3.311zm-128.581-7.896l3.56-3.566 3.814 3.821-3.56 3.566-3.814-3.821zm8.391 8.491l-3.814-3.821 3.56-3.566 3.814 3.821-3.56 3.566zm.593-8.236l3.56-3.566 3.814 3.82-3.56 3.567-3.814-3.821zm8.476 8.49l-3.814-3.82 3.56-3.566 3.814 3.82-3.56 3.566zm.509-8.151l3.56-3.566 3.814 3.821-3.56 3.566-3.814-3.821zm8.476 8.406l-3.814-3.821 3.56-3.566 3.814 3.821-3.56 3.566zm.593-8.151l3.56-3.566 3.814 3.821-3.56 3.566-3.814-3.821zm8.391 8.406l-3.814-3.821 3.56-3.566 3.814 3.821-3.56 3.566zm.594-8.151l3.56-3.566 3.814 3.821-3.56 3.566-3.814-3.821zm8.476 8.406l-3.814-3.821 3.56-3.566 3.814 3.821-3.56 3.566zm.508-8.151l3.56-3.567 3.815 3.821-3.56 3.566-3.815-3.82zm8.476 8.405l-3.814-3.82 3.56-3.567 3.814 3.821-3.56 3.566zm.594-8.151l3.56-3.566 3.814 3.821-3.56 3.566-3.814-3.821zm8.391 8.406l-3.814-3.821 3.56-3.566 3.814 3.821-3.56 3.566zm.593-8.151l3.56-3.566 3.815 3.821-3.56 3.566-3.815-3.821zm8.392 8.406l-3.73-3.821 3.56-3.566 3.814 3.821-3.644 3.566zm.593-8.151l3.56-3.566 3.814 3.82-3.56 3.567-3.814-3.821zm8.476 8.49l-3.814-3.82 3.56-3.566 3.814 3.82-3.56 3.566zm.509-8.236l3.56-3.566 3.814 3.821-3.56 3.566-3.814-3.821zm8.476 8.491l-3.815-3.821 3.56-3.566 3.815 3.821-3.56 3.566zm.593-8.236l3.56-3.566 3.814 3.821-3.56 3.566-3.814-3.821zm8.391 8.491l-3.814-3.821 3.56-3.566 3.814 3.821-3.56 3.566zm.594-8.151l3.56-3.566 3.814 3.821-3.56 3.566-3.814-3.821zm8.476 8.406l-3.815-3.821 3.56-3.566 3.815 3.82-3.56 3.567zm4.322-4.416l-3.814-3.82 3.56-3.566 3.814 3.82-3.56 3.566zm9.07.255l-3.814-3.821 3.56-3.566 3.814 3.821-3.56 3.566zm-127.649 4.161h.508l-.424-.425-.084.425zm17.375-17.661a.58.58 0 01-.593-.594v-8.321a.58.58 0 01.593-.595.58.58 0 01.594.595v8.321a.58.58 0 01-.594.594zm12.715 0a.58.58 0 01-.594-.594v-8.321a.58.58 0 01.594-.595.58.58 0 01.593.595v8.321a.58.58 0 01-.593.594zm12.714 0a.58.58 0 01-.594-.594v-8.321a.58.58 0 01.594-.595.58.58 0 01.593.595v8.321a.58.58 0 01-.593.594zm12.714 0a.58.58 0 01-.594-.594v-8.321a.58.58 0 01.594-.595.58.58 0 01.593.595v8.321a.58.58 0 01-.593.594zm12.714 0a.58.58 0 01-.594-.594v-8.321a.58.58 0 01.594-.595.58.58 0 01.593.595v8.321a.58.58 0 01-.593.594zm12.714 0a.58.58 0 01-.593-.594v-8.321a.58.58 0 01.593-.595.58.58 0 01.593.595v8.321a.58.58 0 01-.593.594zm12.714 0a.58.58 0 01-.593-.594v-8.321a.58.58 0 01.593-.595.58.58 0 01.593.595v8.321a.58.58 0 01-.593.594zm12.714 0a.58.58 0 01-.593-.594v-8.321a.58.58 0 01.593-.595.58.58 0 01.593.595v8.321a.58.58 0 01-.593.594zm12.714 0a.58.58 0 01-.593-.594v-8.321a.58.58 0 01.593-.595.58.58 0 01.593.595v8.321a.58.58 0 01-.593.594z" fill="#fff"/><path d="M274.239 396.101H150.15v7.896h124.089v-7.896z" fill="#fff"/><path d="M273.646 396.695v6.708H150.743v-6.708h122.903zm1.187-1.188H149.641v9.085h125.192v-9.085z" fill="#fff"/><path d="M162.271 395.846h-1.187v8.321h1.187v-8.321zm12.714 0h-1.187v8.321h1.187v-8.321zm12.714 0h-1.187v8.321h1.187v-8.321zm12.714 0h-1.187v8.321h1.187v-8.321zm12.714 0h-1.187v8.321h1.187v-8.321zm12.714 0h-1.186v8.321h1.186v-8.321zm12.714 0h-1.186v8.321h1.186v-8.321zm12.714 0h-1.186v8.321h1.186v-8.321zm12.714 0h-1.186v8.321h1.186v-8.321zm-85.184 37.699l-1.102-.339c1.356-4.84 3.306-16.897 3.306-17.067l1.186.17c-.084.594-2.034 12.312-3.39 17.236zm28.988-141.71l-.847-.764 10.256-11.632-8.731-14.859 7.036-13.331-5.34-12.481 4.492-14.01-3.475-12.226 2.627-12.482-2.203-10.953 1.186-.255 2.204 11.208v.085l-2.628 12.397 3.476 12.226-4.493 13.925 5.425 12.651-.085.255-6.865 12.991 8.815 15.028-10.85 12.227z" fill="#fff"/><path d="M217.619 292.854l-10.086-13.925 8.391-13.33-7.035-13.755 6.357-11.972-5.086-15.114 3.899-11.123-3.221-12.906 2.289-11.122 1.102.169-2.119 10.953 3.221 12.991-3.984 11.038 5.17 15.199-6.272 11.887 7.035 13.839-8.306 13.246 9.578 13.161-.933.764zm6.697-194.184H201.43v9.595h22.886v-9.594zm0-15.282H201.43v9.594h22.886v-9.594z" fill="#fff"/><path d="M227.452 85.68h-29.158v18.085h29.158V85.68zm-20.767-.849l5.934-13.67 5.933 13.67h-11.867z" fill="#fff"/><path d="M214.907 79.737h-4.577l2.289-24.199 2.288 24.199zM214.229 40h-3.136v1.783h3.136V40z" fill="#fff"/><path d="M213.297 40.425h-1.356v24.707h1.356V40.424zm-8.816 47.972h-1.525v11.887h1.525V88.397zm4.493 0h-1.526v11.887h1.526V88.397zm4.492 0h-1.525v11.887h1.525V88.397zm4.493 0h-1.526v11.887h1.526V88.397zm4.492 0h-1.526v11.887h1.526V88.397z" fill="#fff"/><path d="M66.233 444.729v-37.398h-3.342v-2.962h-6.66l-.164-12.42h-5.836v-6.33h-2.836v-6.102h2v-4.279h-6.33V238.257h-3.62V207.48l-4.115-3.646v-9.115l-2.393-2.127v-8.786l-1.797-1.582v-7.761l-4.241-3.798v-7.368h-1.672v-2.215l-2.532-2.229v-5.811H20.1v-4.507l-1.266-1.114-1.342-2.367-.43-4.672-.671-2.532-.165-5.621-1.063-1.266-.71-24.421-.278-23.497-.392-1.088-.38 1.088-.279 23.497-.721 24.421-1.064 1.266-.164 5.621-.659 2.532-.506 4.723-1.33 2.367-1.265 1.114v4.456H4.883v5.761l-2.532 2.228v2.215H.692v7.394l-4.253 3.798v7.76l-1.785 1.583v8.761l-2.406 2.127v9.115l-4.127 3.696v30.802h-3.608v136.931h-6.33v4.279h2v6.102h-2.874v6.33h-5.836l-.177 12.42h-6.647v2.962h-3.33v37.423h-6.33v108.37H72.514v-108.37h-6.28zm-106.015 57.476h-2.291v-53.627h2.291v53.627zm6.178 0h-2.291v-53.627h2.291v53.627zm.747-58.236h-2.215v-33.194h2.253l-.038 33.194zm5.444 58.236h-2.291v-53.627h2.291v53.627zm.228-58.236h-2.228v-33.194h2.228v33.194zm3.444-33.22h2.215v33.22h-2.215v-33.22zm2.532 91.431h-2.292v-53.602h2.292v53.602zm49.867-328.084l-1.215 4.266-2.747-1.633 3.962-2.633zm-.063 9.672l-1.62 4.102-2.532-1.848 4.152-2.254zm0 9.761l-1.62 4.102-2.532-1.848 4.152-2.254zm-.291 14.395v32.232h-2v-32.207l2-.025zm-4.418 1.481v1.62h-4.001v-1.62h4zm-4.001 17.939v-1.62h4v1.62h-4zm4 3.798v1.658h-4v-1.62l4-.038zm-4-9.254v-1.634h4v1.634h-4zm0-5.444v-1.621h4v1.621h-4zm2.342-55.438l-.557 4.317-2.962-1.266 3.519-3.051zm0 9.76l-.557 4.318-2.962-1.266 3.519-3.052zm0 9.863l-.557 4.317-2.962-1.266 3.519-3.051zm-8.431-42.323l1.025 4.722h-2.064l1.039-4.722zm0 8.533l1.86 5.862h-3.722l1.862-5.862zm0 9.976l2.443 6.14h-4.887l2.444-6.14zm0 10.128l2.443 6.14h-4.887l2.444-6.14zm0 10.128l2.443 6.153h-4.887l2.444-6.153zm0 10.128l2.443 6.14h-4.887l2.444-6.14zM.629 197.644l-1.646-4.09 4.203 2.254-2.557 1.836zm.671 10.292v32.233h-2v-32.22l2-.013zm-.67-20.053l-1.634-4.102 4.203 2.253-2.57 1.849zm2.265-11.192l-2.798 1.671-1.202-4.215 4 2.544zm-9.925 31.245h2v32.233h-2v-32.233zm-11.04 202.826h2.228v33.22h-2.228v-33.22zm2.975 91.443h-2.291v-53.627h2.291v53.627zm6.191 0h-2.291v-53.627h2.291v53.627zm5.47-58.236h-7.002v-2.076h7.001v2.076zm0-5.254h-7.002v-2.088h7.001v2.088zm0-5.241h-7.002v-2.076h7.001v2.076zm0-5.254h-7.002v-2.063h7.001v2.063zm0-5.241h-7.002v-2.051h7.001v2.051zm0-5.254h-7.002v-2.076h7.001v2.076zm0-5.254h-7.002v-2.063h7.001v2.063zm0-5.254h-7.002v-2.063h7.001v2.063zm0-5.241h-7.002v-2.063h7.001v2.063zm0-5.254h-7.002v-2.063h7.001v2.063zm0-5.241h-7.002v-2.076h7.001v2.076zm0-15.433h-9.66v-2.329h9.66v2.329zm0-6.203h-9.66v-2.329h9.66v2.329zm0-6.216h-9.66V361.3h9.66v2.329zm0-6.203h-9.66v-2.33h9.66v2.33zm0-6.217h-9.66v-2.329h9.66v2.329zm0-6.203h-9.66v-2.329h9.66v2.329zm0-6.216h-9.66v-2.304h9.66v2.304zm0-6.203h-9.66v-2.304h9.66v2.304zm0-6.216h-9.66v-2.33h9.66v2.33zm0-6.204h-9.66v-2.329h9.66v2.329zm0-6.216h-9.66v-2.329h9.66v2.329zm0-6.216h-9.66v-2.317h9.66v2.317zm0-6.203h-9.66v-2.33h9.66v2.33zm0-6.216h-9.66v-2.33h9.66v2.33zm0-6.204h-9.66v-2.329h9.66v2.329zm0-6.216h-9.66v-2.329h9.66v2.329zm0-6.203h-9.66v-2.33h9.66v2.33zm0-6.216h-9.66v-2.33h9.66v2.33zm0-6.204h-9.66v-2.355h9.66v2.355zm0-6.216h-9.66v-2.329h9.66v2.329zm0-6.203h-9.66v-2.33h9.66v2.33zm-2.254-54.21l4.697 1.266-1.963 2.354-2.734-3.62zM5.516 502.18h-6.672V247.575h6.672V502.18zm2.177-263.923h-4v-1.659h4v1.659zm0-5.444h-4v-1.62h4v1.62zm0-5.444h-4v-1.62h4v1.62zm0-5.431h-4v-1.633h4v1.633zm0-5.444h-4v-1.62h4v1.62zm0-5.443h-4v-1.621h4v1.621zm-1.797-16.395l-.557-4.317 3.532 3.013-2.975 1.304zm0-9.66l-.557-4.317 3.532 3.026-2.975 1.291zm0-9.862l-.557-4.317 3.532 3.026-2.975 1.291zm0-9.761l-.557-4.317 3.532 3.026-2.975 1.291zm12.103 336.832H9.554V205.581a4.254 4.254 0 018.445 0v296.624zm4.203-311.866l-.557 4.317-2.963-1.266 3.52-3.051zm-2.33 46.259h4v1.621h-4v-1.621zm8.862 265.569h-6.672V247.575h6.672v254.592zm-.164-303.283l4.697-1.266-2.786 3.659-1.911-2.393zm6.102 9.027v32.232h-2v-32.194l2-.038zM31 433.462v-2.077h7.001v2.077h-7zm6.95 3.165v2.063h-7v-2.063h7zm-7-8.432v-2.064h7v2.064h-7zm0-5.241v-2.026h7v2.076l-7-.05zm0-5.254v-2.076h7v2.076h-7zm0-5.254v-2.064h7v2.064h-7zm0-5.254v-2.064h7v2.064h-7zm0-5.241v-2.038h7v2.076l-7-.038zm0-5.254v-2.064h7v2.064h-7zm0-5.241v-2.077h7v2.077h-7zm0 50.412h7v2.076h-7v-2.076zm7.76 60.287h-2.278v-53.577h2.278v53.577zm1.9-126.081h-9.673v-2.33h9.672v2.33zm0-6.204h-9.673v-2.329h9.672v2.329zm0-6.216h-9.673v-2.329h9.672v2.329zm0-6.203h-9.673v-2.33h9.672v2.33zm0-6.216h-9.673v-2.33h9.672v2.33zm0-6.204h-9.673v-2.329h9.672v2.329zm0-6.216h-9.673v-2.329h9.672v2.329zm0-6.203h-9.673v-2.329h9.672v2.329zm0-6.216h-9.673v-2.33h9.672v2.33zm0-6.204h-9.673v-2.329h9.672v2.329zm0-6.216h-9.673v-2.329h9.672v2.329zm0-6.216h-9.673v-2.316h9.672v2.316zm0-6.203h-9.673v-2.329h9.672v2.329zm0-6.216h-9.673v-2.33h9.672v2.33zm0-6.204h-9.673v-2.329h9.672v2.329zm0-6.216h-9.673v-2.329h9.672v2.329zm0-6.203h-9.673v-2.329h9.672v2.329zm0-6.216h-9.673v-2.329h9.672v2.329zm0-6.203h-9.673v-2.381h9.672v2.381zm0-6.217h-9.673v-2.329h9.672v2.329zm0-6.203h-9.673v-2.329h9.672v2.329zm4.278 250.326h-2.291v-53.627h2.291v53.627zm.747-58.236h-2.228v-33.194h2.266l-.038 33.194zm5.444 58.236h-2.291v-53.627h2.291v53.627zm.228-58.236h-2.215v-33.194h2.228l-.013 33.194zm3.444-33.22h2.228v33.22H54.75v-33.22zm2.532 91.431H54.99v-53.602h2.292v53.602zm3.14-91.431h2.227v33.22h-2.228v-33.22zm3.038 91.431h-2.292v-53.602h2.292v53.602zm6.19 0H67.36v-53.602h2.291v53.602z" fill="url(#paint1_linear)"/><path d="M130.314 507.448v-1.051h-1.443v-23.649h1.19v-3.912h-5.394v-7.596H122.3v-2.367h2.114v-3.963h-1.962v-4.722h-3.798v-2.367h-.988c-.367-4.305-2.329-9.457-2.164-11.04.519-5.254-2.368-20.75-1.266-22.851 1.101-2.102 1.569-13.395 0-17.864a67.531 67.531 0 01-2.368-8.672s3.684-.785 5.254-2.62c1.57-1.836 2.899-1.849 2.367-2.899-.531-1.051 2.102-2.102 4.723-4.457a43.86 43.86 0 005.254-6.051l-12.078-8.406-6.571 7.355s-1.266-10.761-2.367-12.66c-1.101-1.899-3.406-5.507-5.507-6.039-2.102-.532-3.152-4.469-2.368-6.57.579-2.63.901-5.31.963-8.001l9.545-.266-9.469-1.469v-.24a8.378 8.378 0 00-.279-1.532l8.862-4.811-9.52 3.102a7.971 7.971 0 00-.988-1.456l5.609-8.66-7.065 7.482a6.155 6.155 0 00-2.316-.759l-1.013-11.103-1.026 11.077a8.764 8.764 0 00-2.532.557l-6.849-7.254 5.267 8.141a5.066 5.066 0 00-1.43 1.721l-7.85-2.532c-.835-4.532-2.342-13.166-2.14-15.495.254-3.014-1.519-7.153-1.911-8.736a25.58 25.58 0 01-1.178-3.152c.849-1.178.292-3.14.596-5.064h2.405v-1.57H76.99v-.899h-1.076c.177-.532.43-1.266.683-1.848.874-2.19-2.873-3.975-1.582-5.165A3.064 3.064 0 0075.28 293s-.317 1.57-3.596 3.507c-2.354 1.405-1.139 4.633.089 6.393.294.357.46.803.468 1.266h-2.266v.937H68.71v1.557h1.861c-.582 1.608-1.165 3.899-.24 4.938 1.48 1.658 3.101 10.457 3.19 12.66.089 2.202-1.101 10.203.304 14.672a244.13 244.13 0 011.975 6.584 8.713 8.713 0 00-1.102 2.165c-1.266 3.861-2.19 7.887-1.266 8.76a5.349 5.349 0 012.266 3.507c.266 1.836 1.051 8.862 1.051 10.938 0 2.077 2.102 4.735 2.634 7.596.531 2.862 1.266 3.938.266 6.571-1 2.633-2.368 3.418-.798 6.039a12.216 12.216 0 011.582 9.191c-.785 3.418-4.988 8.153-3.684 12.09a36.6 36.6 0 012.368 13.129c0 5.785-2.368 9.203-2.102 13.66.266 4.456 0 10.773 0 13.141 0 2.367-1.658 3.798-2.95 5.52H72.13v2.367h-3.8v4.722h-1.974v3.937h2.101v2.393H66.09v7.596h-5.38v3.937h1.19v23.649h-1.444v1.051H59v1.57h1.456v1.051h1.443v29.118h66.984v-29.118h1.443v-1.051h1.444v-1.595h-1.456zm-42.55-157.63c.253 1.583-.393 3.684-.798 3.684s-1.266 1.709-2.355.127c-1.089-1.583-.392-2.76-.797-4.862a41.634 41.634 0 01-.254-1.835l4.292.126c-.146.913-.175 1.84-.089 2.76zm-7.014-9.102c-.063-.406-.165-.899-.266-1.456l7.343 3.975a2.53 2.53 0 000 .81c.098.414.133.841.101 1.266l-4.557.709c-.355-2.608-.925-5.748-2.292-5.621l-.33.317z" fill="url(#paint2_linear)"/><g filter="url(#filter1_d)"><path d="M421.447 511.286v-50.222h-31.65V410.31h-36.144v50.754h-12.394v52.754h-48.728V491.84h5.684l-9.989-41.221h-67.414l-7.128 19.649h-66.237v30.814h-13.42v-60.287h-24.914v60.287h-9.166v15.268h-27.6v-48.513H63.12v-10.736H15.783v10.736H3.655v12.09H-3.27v4.988h-20.193V548h-42.6v-47.462H-61l-8.95-23.333h-81.936v-53.083h-13.42V366h-39.081v58.122h-49.374v49.184h-33.891v21.522h-12.116v-33.397h10.698l-50.222-67.642-50.273 67.629h11.065v33.41h-20.383v-64.401h-24.054v-6.064h-8.254v-14.686h-14.432v-13.052h-56.375v13.052H-513v166.175h949.5v-64.566h-15.053zm-924.749 32.258h-4.609v-8.52h4.609v8.52zm0-12.394h-4.609v-8.47h4.609v8.47zm0-12.382h-4.609v-8.52h4.609v8.52zm0-12.394h-4.609v-8.507h4.609v8.507zm0-37.41h-4.609v-8.52h4.609v8.52zm0-14.673h-4.609v-8.52h4.609v8.52zm9.026 89.253h-4.608v-8.52h4.608v8.52zm0-12.394h-4.608v-8.47h4.608v8.47zm0-12.382h-4.608v-8.52h4.608v8.52zm0-12.394h-4.608v-8.507h4.608v8.507zm0-37.41h-4.608v-8.52h4.608v8.52zm0-14.673h-4.608v-8.52h4.608v8.52zm9.027 89.253h-4.596v-8.52h4.596v8.52zm0-12.394h-4.596v-8.47h4.596v8.47zm0-12.382h-4.596v-8.52h4.596v8.52zm0-12.394h-4.596v-8.507h4.596v8.507zm0-37.41h-4.596v-8.52h4.596v8.52zm0-14.673h-4.596v-8.52h4.596v8.52zm9.039 89.253h-4.608v-8.52h4.608v8.52zm0-12.394h-4.608v-8.47h4.608v8.47zm0-12.382h-4.608v-8.52h4.608v8.52zm0-12.394h-4.608v-8.507h4.608v8.507zm0-37.41h-4.608v-8.52h4.608v8.52zm0-14.673h-4.608v-8.52h4.608v8.52zm9.027 89.253h-4.609v-8.52h4.609v8.52zm0-12.394h-4.609v-8.47h4.609v8.47zm0-12.382h-4.609v-8.52h4.609v8.52zm0-12.394h-4.609v-8.507h4.609v8.507zm0-37.41h-4.609v-8.52h4.609v8.52zm0-14.673h-4.609v-8.52h4.609v8.52zm9.026 89.253h-4.608v-8.52h4.608v8.52zm0-12.394h-4.608v-8.47h4.608v8.47zm0-12.382h-4.608v-8.52h4.608v8.52zm0-12.394h-4.608v-8.507h4.608v8.507zm0-37.41h-4.608v-8.52h4.608v8.52zm0-14.673h-4.608v-8.52h4.608v8.52zm9.09 89.253h-4.659v-8.52h4.659v8.52zm0-12.394h-4.659v-8.47h4.659v8.47zm0-12.382h-4.659v-8.52h4.659v8.52zm0-12.394h-4.659v-8.507h4.659v8.507zm0-37.41h-4.659v-8.52h4.659v8.52zm0-14.648h-4.659v-8.52h4.659v8.52zm9.027 89.253h-4.659v-8.52h4.608l.051 8.52zm0-12.394h-4.659v-8.495h4.608l.051 8.495zm0-12.381h-4.659v-8.521h4.608l.051 8.521zm0-12.395h-4.659v-8.532h4.608l.051 8.532zm0-37.41h-4.659v-8.52h4.608l.051 8.52zm0-14.673h-4.659v-8.52h4.608l.051 8.52zm9.026 89.253h-4.646v-8.52h4.596l.05 8.52zm0-12.394h-4.646v-8.495h4.596l.05 8.495zm0-12.381h-4.646v-8.521h4.596l.05 8.521zm0-12.395h-4.646v-8.532h4.596l.05 8.532zm9.039 37.17h-4.658v-8.52h4.608l.05 8.52zm0-12.394h-4.658v-8.495h4.608l.05 8.495zm0-12.381h-4.658v-8.521h4.608l.05 8.521zm0-12.395h-4.658v-8.532h4.608l.05 8.532zm9.027 37.17h-4.659v-8.52h4.608l.051 8.52zm0-12.394h-4.659v-8.495h4.608l.051 8.495zm0-12.381h-4.659v-8.521h4.608l.051 8.521zm0-12.395h-4.659v-8.532h4.608l.051 8.532zm9.039 37.17h-4.646v-8.52h4.621l.025 8.52zm0-12.394h-4.646v-8.495h4.621l.025 8.495zm0-12.381h-4.646v-8.521h4.621l.025 8.521zm0-12.395h-4.646v-8.532h4.621l.025 8.532zm65.351-63.603v-9.799a10.612 10.612 0 0110.369 10.305.387.387 0 010 .127h-10.356l-.013-.633zm-1.165-9.154v9.154h-9.684a9.999 9.999 0 019.634-9.179l.05.025zm-4.696 61.186h-5.9v-.38h5.9v.38zm0-2.532h-5.9v-5.671h5.9v5.671zm0-7.824h-5.9v-5.684h5.9v5.684zm8.33 10.356h-5.9v-.38h5.9v.38zm0-2.532h-5.9v-5.671h5.9v5.671zm0-7.824h-5.9v-5.684h5.9v5.684zm1.633-5.608h6.495v6.254h-6.495v-6.254zm6.571 15.964h-5.9v-.38h5.9v.38zm0-2.532h-5.9v-5.671h5.9v5.671zm101.102 53.615h-6.228v-9.039h6.228v9.039zm0-15.192h-6.228v-9.039h6.228v9.039zm0-15.192h-6.228v-9.039h6.228v9.039zm0-15.192h-6.228v-8.925h6.228v8.925zm0-15.192h-6.228v-9.026h6.228v9.026zm0-15.192h-6.228v-9.039h6.228v9.039zm0-15.192h-6.228v-8.798h6.228v8.798zm0-15.192h-6.228v-9.039h6.228v9.039zm9.9 106.066h-6.228v-9.039h6.228v9.039zm0-15.192h-6.228v-9.039h6.228v9.039zm0-15.192h-6.228v-9.039h6.228v9.039zm0-15.192h-6.228v-8.647h6.228v8.647zm0-15.192h-6.228v-9.027h6.228v9.027zm0-15.192h-6.228v-9.039h6.228v9.039zm0-15.192h-6.228v-8.52h6.228v8.52zm0-15.192h-6.228v-9.039h6.228v9.039zm9.901 106.065h-6.229v-9.039h6.229v9.039zm0-15.192h-6.229v-9.039h6.229v9.039zm0-15.192h-6.229v-9.039h6.229v9.039zm0-15.192h-6.229v-8.368h6.229v8.368zm0-15.192h-6.229v-9.026h6.229v9.026zm0-15.192h-6.229v-9.039h6.229v9.039zm0-15.192h-6.229v-8.241h6.229v8.241zm0-15.192h-6.229v-9.039h6.229v9.039zm33.561-67.933h4.406v44.234h-4.406v-44.234zm-9.077 0h4.355v44.234h-4.393l.038-44.234zm-9.09 0h4.406v44.234h-4.406v-44.234zm-5.545 174.834h-6.229v-9.039h6.229v9.039zm0-15.192h-6.229v-9.039h6.229v9.039zm0-15.192h-6.229v-9.039h6.229v9.039zm0-15.192h-6.229v-8.925h6.229v8.925zm0-15.192h-6.229v-9.026h6.229v9.026zm0-15.192h-6.229v-9.039h6.229v9.039zm0-15.192h-6.229v-8.798h6.229v8.798zm0-15.192h-6.229v-9.039h6.229v9.039zm.823-23.699h-4.406v-43.956h4.406v43.956zm9.077 129.765h-6.229v-9.039h6.229v9.039zm0-15.192h-6.229v-9.039h6.229v9.039zm0-15.192h-6.229v-9.039h6.229v9.039zm0-15.192h-6.229v-8.647h6.229v8.647zm0-15.192h-6.229v-9.027h6.229v9.027zm0-15.192h-6.229v-9.039h6.229v9.039zm0-15.192h-6.229v-8.52h6.229v8.52zm0-15.192h-6.229v-9.039h6.229v9.039zm9.913 106.065h-6.241v-9.039h6.241v9.039zm0-15.192h-6.241v-9.039h6.241v9.039zm0-15.192h-6.241v-9.039h6.241v9.039zm0-15.192h-6.241v-8.368h6.241v8.368zm0-15.192h-6.241v-9.026h6.241v9.026zm0-15.192h-6.241v-9.039h6.241v9.039zm0-15.192h-6.241v-8.241h6.241v8.241zm0-15.192h-6.241v-9.039h6.241v9.039zm9.887 106.066h-6.228v-9.039h6.228v9.039zm0-15.192h-6.228v-9.04h6.228v9.04zm0-15.192h-6.228v-9.04h6.228v9.04zm0-15.192h-6.228v-8.09h6.228v8.09zm0-15.192h-6.228v-9.027h6.228v9.027zm0-15.192h-6.228v-9.04h6.228v9.04zm0-15.192h-6.228v-7.963h6.228v7.963zm0-15.192h-6.228v-9.04h6.228v9.04zm9.901 106.065h-6.179v-9.039h6.229l-.05 9.039zm0-15.192h-6.179v-9.039h6.229l-.05 9.039zm0-15.192h-6.179v-9.039h6.229l-.05 9.039zm0-15.192h-6.179v-7.811h6.229l-.05 7.811zm0-15.192h-6.179v-9.026h6.229l-.05 9.026zm0-15.192h-6.179v-9.039h6.229l-.05 9.039zm0-15.192h-6.179v-7.684h6.229l-.05 7.684zm0-15.192h-6.179v-9.039h6.229l-.05 9.039zm35.739 105.99v10.292h-.089v2.266h-3.975v-12.558l-.469-.785h4.938l-.443.785h.038zm-.064-17.724h.064v10.292h-.089v2.266h-3.975v-11.153l-.469-.785h4.938l-.469-.62zm0-21.522v12.558h-3.975v-2.266h-.101v-10.292h.076l-.456-.798h4.938l-.482.798zm10.065 39.246v10.292h-.101v2.266h-3.975v-2.266h-.064v-10.292l-.455-.785h4.937l-.456.785h.114zm-.076-17.724h.076v10.292h-.101v2.266h-3.975v-2.266h-.064v-8.887l-.455-.785h4.937l-.418-.62zm0-21.522v12.558h-3.975v-2.266h-.089v-10.292h.064l-.443-.798h4.937l-.494.798zm10.065 39.246v10.292h-.089v2.266h-3.975v-2.266h-.063v-10.292l-.469-.785h4.938l-.456.785h.114zm-.076-17.724h.076v10.292h-.089v2.266h-3.975v-2.266h-.063v-8.887l-.469-.785h4.938l-.418-.62zm0-21.522v12.558h-3.975v-2.266h-.127v-10.292h.076l-.456-.798h4.938l-.456.798zm10.065 39.246v10.292h-.102v2.266h-3.937v-2.266h-.063v-10.292l-.456-.785h4.925l-.443.785h.076zm-.076-17.724h.076v10.292h-.102v2.266h-3.937v-2.266h-.063v-8.887l-.456-.785h4.925l-.443-.62zm0-21.522v10.292h-.064v2.266h-3.899v-2.266h-.089v-10.292l-.443-.798h4.925l-.43.798zm10.039 39.246v10.292h-.076v2.266h-3.962v-2.266h-.064v-10.292l-.468-.785h4.937l-.456.785h.089zm0-17.724h.076v10.292h-.152v2.266h-3.962v-2.266h-.064v-8.887l-.468-.785h4.937l-.367-.62zm0-21.522v10.292h-.076v2.266h-3.962v-2.266h-.102v-10.292h.076l-.456-.798h4.938l-.418.798zm10.445-.798l-.456.798v10.292h-.064v2.266H-75.9v-2.266h-.101v-10.292h.076l-.456-.798h4.976zm0 21.522l-.444.785h.051v10.293h-.088v2.266h-3.976v-11.141l-.468-.785 4.925-1.418zm-.393 19.914v10.293h-.101v2.266h-3.95v-2.266h-.063v-10.293l-.469-.785h4.938l-.456.785h.101zm56.451 14.293h-3.861v-7.064h3.861v7.064zm0-10.191h-3.861v-7.001h3.861v7.001zm0-10.204h-3.861v-7.001h3.861v7.001zm0-10.191h-3.861v-7.001h3.861v7.001zm7.596 30.586h-3.798v-7.064h3.798v7.064zm0-10.191h-3.798v-7.001h3.798v7.001zm0-10.204h-3.798v-7.001h3.798v7.001zm0-10.191h-3.798v-7.001h3.798v7.001zm7.596 30.586h-3.861v-7.064h3.861v7.064zm0-10.191h-3.861v-7.001h3.861v7.001zm0-10.204h-3.861v-7.001h3.861v7.001zm0-10.191h-3.861v-7.001h3.861v7.001zm7.596 30.586H3.58v-7.064h3.86v7.064zm0-10.191H3.58v-7.001h3.86v7.001zm0-10.204H3.58v-7.001h3.86v7.001zm0-10.191H3.58v-7.001h3.86v7.001zm7.596 30.586h-3.874v-7.064h3.874v7.064zm0-10.191h-3.874v-7.001h3.874v7.001zm0-10.204h-3.874v-7.001h3.874v7.001zm0-10.191h-3.874v-7.001h3.874v7.001zm0-25.738h-3.874v-7.014h3.874v7.014zm0-12.078h-3.874V484.7h3.874v7.026zm7.596 68.365H18.72v-7.027h3.874l.038 7.027zm0-10.192H18.72v-6.963h3.874l.038 6.963zm0-10.204H18.72v-7.001h3.874l.038 7.001zm0-10.191H18.72v-7.001h3.874l.038 7.001zm0-25.738H18.72v-7.013h3.874l.038 7.013zm0-12.077H18.72V484.7h3.874l.038 6.989zm7.596 68.364h-3.874v-6.989h3.874v6.989zm0-10.192h-3.874v-6.925h3.874v6.925zm0-10.204h-3.874v-7.001h3.874v7.001zm0-10.191h-3.874v-7.001h3.874v7.001zm0-25.738h-3.874v-7.013h3.874v7.013zm0-12.077h-3.874V484.7h3.874v6.951zm7.596 68.364H33.95v-6.951h3.874v6.951zm0-10.192H33.95v-6.887h3.874v6.887zm0-10.204H33.95v-7.001h3.874v7.001zm0-10.191H33.95v-7.001h3.874v7.001zm0-25.738H33.95v-7.013h3.874v7.013zm0-12.077H33.95V484.7h3.874v6.913zm7.596 68.364h-3.874v-6.913h3.874v6.913zm0-10.192h-3.874v-6.849h3.874v6.849zm0-10.204h-3.874v-7.001h3.874v7.001zm0-10.191h-3.874v-7.001h3.874v7.001zm0-25.738h-3.874v-7.013h3.874v7.013zm0-12.077h-3.874V484.7h3.874v6.875zm7.596 68.364h-3.861v-6.875h3.861v6.875zm0-10.192h-3.861v-6.811h3.861v6.811zm0-10.204h-3.861v-7.001h3.861v7.001zm0-10.191h-3.861v-7.001h3.861v7.001zm0-25.738h-3.861v-7.013h3.861v7.013zm0-12.077h-3.861V484.7h3.861v6.837zm7.596 68.364h-3.861v-6.837h3.861v6.837zm0-10.192h-3.861v-6.773h3.861v6.773zm0-10.204h-3.861v-7.001h3.861v7.001zm0-10.191h-3.861v-7.001h3.861v7.001zm0-25.738h-3.874v-7.013h3.874v7.013zm0-12.077h-3.874V484.7h3.874v6.799zm7.596 68.364h-3.874v-6.799h3.874v6.799zm0-10.192h-3.874v-6.735h3.874v6.735zm0-10.204h-3.874v-7.001h3.874v7.001zm0-10.191h-3.874v-7.001h3.874v7.001zm0-25.738h-3.874v-7.013h3.874v7.013zm0-12.077h-3.874V484.7h3.874v6.761zm173.442 50.64v11.482h-.114v2.532h-4.418v-2.532h-.076v-11.482l-.393-.671v-.203h5.394l-.507.874h.114zm-.076-19.75h.076v11.723h-.114v2.532h-4.418v-2.532h-.076V522.68l-.393-.671v-.215h5.394l-.469.557zm0-23.978v11.483h-.076v2.532h-4.431v-2.532h-.101v-11.23h.076l-.507-.873h5.52l-.481.62zm11.23 43.728v11.482h-.114v2.532h-4.431v-2.532h-.064v-11.482l-.519-.874h5.507l-.506.874h.127zm-.089-19.75h.089v11.723h-.114v2.532h-4.431v-2.532h-.064V522.68l-.519-.886h5.507l-.468.557zm0-23.978v14.015h-4.431v-2.532h-.114v-11.23h.089l-.507-.873h5.507l-.544.62zm11.229 43.728v11.482h-.253v2.532h-4.418v-2.532h-.076v-11.482l-.507-.874h5.495l-.494.874h.253zm-.076-19.75h.076v11.723h-.253v2.532h-4.418v-2.532h-.076V522.68l-.507-.886h5.495l-.317.557zm-.177-23.725v14.015h-4.418v-2.532h-.114v-11.483h.076l-.494-.873h5.495l-.545.873zm11.192 43.728v11.482h-.102v2.532h-4.431v-2.532h-.076v-11.482l-.519-.874h5.507l-.506.874h.127zm0-19.75h.088v11.47h-.114v2.532h-4.431v-2.532h-.063V522.68l-.519-.886h5.507l-.468.81zm0-23.978v11.483h-.076v2.532h-4.431v-2.532h-.114v-11.483h.088l-.506-.873h5.507l-.468.873zm11.647-.873l-.507.873v11.483h-.076v2.532h-4.431v-2.532h-.101v-11.483h.076l-.506-.873h5.545zm0 23.965l-.494.886h.076v11.47h-.114v2.532h-4.418v-2.532h-.076V522.68l-.507-.886 5.533-.076zm-.393 20.636v11.482h-.101v2.532h-4.431v-2.532h-.076v-11.482l-.506-.874h5.494l-.494.874h.114zm66.035-31.549h-5.76v-9.773h5.76v9.773zm0-16.382h-5.76V484.7h5.76v9.723zm0-16.382h-5.76v-9.799h5.76v9.799zm21.661-61.338h4.077v35.74h-4.077v-35.74zm-8.381 0h4.064v35.74h-4.064v-35.74zm-8.406 0h4.127v35.74h-4.076l-.051-35.74zm4.241 126.854h-5.76v-9.761h5.76v9.761zm0-16.37h-5.76v-9.773h5.76v9.773zm0-16.369h-5.76v-9.774h5.76v9.774zm0-16.382h-5.76V484.7h5.76v9.736zm0-16.382h-5.76v-9.812h5.76v9.812zm9.166 65.503h-5.773v-9.761h5.773v9.761zm0-16.37h-5.773v-9.773h5.773v9.773zm0-16.369h-5.773v-9.774h5.773v9.774zm0-16.382h-5.773V484.7h5.773v9.736zm0-16.382h-5.773v-9.812h5.773v9.812zm9.153 65.503h-5.773v-9.761h5.773v9.761zm0-16.37h-5.773v-9.773h5.773v9.773zm0-16.369h-5.773v-9.774h5.773v9.774zm0-16.382h-5.773V484.7h5.773v9.736zm0-16.382h-5.773v-9.812h5.773v9.812zm2.633-61.351h4.064v35.74h-4.064v-35.74zm6.52 126.854h-5.773v-9.761h5.773v9.761zm0-16.37h-5.773v-9.773h5.773v9.773zm0-16.369h-5.773v-9.774h5.773v9.774zm0-16.382h-5.773V484.7h5.773v9.736zm0-16.382h-5.773v-9.812h5.773v9.812zm9.154 65.503h-5.723v-9.761h5.773l-.05 9.761zm0-16.37h-5.723v-9.773h5.773l-.05 9.773zm0-16.369h-5.723v-9.774h5.773l-.05 9.774zm0-16.382h-5.723V484.7h5.773l-.05 9.736zm0-16.382h-5.723v-9.812h5.773l-.05 9.812zm9.153 65.503h-5.761v-9.761h5.761v9.761zm0-16.37h-5.761v-9.773h5.761v9.773zm0-16.369h-5.761v-9.774h5.761v9.774zm0-16.382h-5.761V484.7h5.761v9.736zm0-16.382h-5.761v-9.812h5.761v9.812zm9.153 65.503h-5.672v-9.761h5.76l-.088 9.761zm0-16.37h-5.672v-9.773h5.76l-.088 9.773zm0-16.369h-5.672v-9.774h5.76l-.088 9.774zm0-16.382h-5.672V484.7h5.76l-.088 9.736zm0-16.382h-5.672v-9.812h5.76l-.088 9.812z" fill="#fff"/></g><path d="M72.728 65.068a7.827 7.827 0 01-.266-2.038 8.04 8.04 0 0114.99-3.963 8.547 8.547 0 016.76-3.304h.392a12.342 12.342 0 01-.392-3.076 12.217 12.217 0 0123.041-5.634 8.354 8.354 0 0111.837 7.596 8.842 8.842 0 01-.304 2.253 6.434 6.434 0 018.246 4.644 6.436 6.436 0 01-.156 3.497h.709a6.213 6.213 0 016.216 6.216 6.215 6.215 0 01-6.216 6.216H73.019a6.216 6.216 0 01-.38-12.42l.089.013z" fill="#fff"/><path d="M265.76 144.902h.19a7.71 7.71 0 017.204-10.419h.873v-.595a7.708 7.708 0 014.254-6.887v-1.038c0-2.868 1.139-5.618 3.167-7.645a10.808 10.808 0 0115.29 0 10.811 10.811 0 013.166 7.645c0 .731-.072 1.46-.215 2.177a10.187 10.187 0 015.659 4.14 9.42 9.42 0 0117.256 4.672 7.085 7.085 0 011.57-.178 6.847 6.847 0 016.849 6.837 7.23 7.23 0 01-.14 1.392 5.764 5.764 0 014.526 6.271 5.763 5.763 0 01-5.792 5.123H265.76a5.77 5.77 0 01-4.073-1.687 5.75 5.75 0 01-1.248-1.869 5.744 5.744 0 010-4.408 5.75 5.75 0 013.117-3.118 5.77 5.77 0 012.204-.438v.025z" fill="url(#paint3_linear)"/><path d="M291.818 34.494a9.42 9.42 0 0111.964-12.04 11.083 11.083 0 01-.544-3.456 11.257 11.257 0 017.855-10.733 11.255 11.255 0 0112.603 4.251 11.24 11.24 0 0110.812-2.76 17.941 17.941 0 0123.008-8.315 17.937 17.937 0 019.908 22.368.755.755 0 000 .165 9.065 9.065 0 012.038-.228 8.867 8.867 0 018.245 5.456 8.869 8.869 0 01.681 3.406 8.487 8.487 0 01-.19 1.798 7.497 7.497 0 01-1.646 14.888h-83.037a7.492 7.492 0 01-7.466-6.641 7.491 7.491 0 015.769-8.159z" fill="url(#paint4_linear)"/></g><g filter="url(#filter2_d)" clip-path="url(#clip2)"><path d="M1908.09 303.355v-61.477h-37.85v61.477h-12.99v249.744h83.98V303.355h-33.14zm-39.39 159.44h-6.04v-11.837h6.04v11.837zm0-19.838h-6.04v-11.825h6.04v11.825zm0-19.839h-6.04v-11.811h6.04v11.811zm0-19.838h-6.04v-11.824h6.04v11.824zm0-19.825h-6.04v-11.838h6.04v11.838zm0-19.839h-6.04v-11.811h6.04v11.811zm0-19.838h-6.04v-11.837h6.04v11.837zm0-19.838h-6.04v-11.837h6.04v11.837zm22.73-74.314h4.26v43.284h-4.26v-43.284zm-8.79 0h4.26v43.284h-4.26v-43.284zm-8.8 0h4.27v43.284h-4.27v-43.284zm4.45 213.169h-6.04v-11.837h6.04v11.837zm0-19.838h-6.04v-11.825h6.04v11.825zm0-19.839h-6.04v-11.811h6.04v11.811zm0-19.838h-6.04v-11.824h6.04v11.824zm0-19.825h-6.04v-11.838h6.04v11.838zm0-19.839h-6.04v-11.811h6.04v11.811zm0-19.838h-6.04v-11.837h6.04v11.837zm0-19.838h-6.04v-11.837h6.04v11.837zm9.58 138.855h-6.04v-11.837h6.04v11.837zm0-19.838h-6.04v-11.825h6.04v11.825zm0-19.839h-6.04v-11.811h6.04v11.811zm0-19.838h-6.04v-11.824h6.04v11.824zm0-19.825h-6.04v-11.838h6.04v11.838zm0-19.839h-6.04v-11.811h6.04v11.811zm0-19.838h-6.04v-11.837h6.04v11.837zm0-19.838h-6.04v-11.837h6.04v11.837zm9.6 138.855h-6.04v-11.837h6.04v11.837zm0-19.838h-6.04v-11.825h6.04v11.825zm0-19.839h-6.04v-11.811h6.04v11.811zm0-19.838h-6.04v-11.824h6.04v11.824zm0-19.825h-6.04v-11.838h6.04v11.838zm0-19.839h-6.04v-11.811h6.04v11.811zm0-19.838h-6.04v-11.837h6.04v11.837zm0-19.838h-6.04v-11.837h6.04v11.837zm2.76-74.314h4.25v43.284h-4.25v-43.284zm6.82 213.169H1901v-11.837h6.04l.01 11.837zm0-19.838H1901v-11.825h6.04l.01 11.825zm0-19.839H1901v-11.811h6.04l.01 11.811zm0-19.838H1901v-11.824h6.04l.01 11.824zm0-19.825H1901v-11.838h6.04l.01 11.838zm0-19.839H1901v-11.811h6.04l.01 11.811zm0-19.838H1901v-11.837h6.04l.01 11.837zm0-19.838H1901v-11.837h6.04l.01 11.837zm9.6 138.855h-6.05v-11.837h6.05v11.837zm0-19.838h-6.05v-11.825h6.05v11.825zm0-19.839h-6.05v-11.811h6.05v11.811zm0-19.838h-6.05v-11.824h6.05v11.824zm0-19.825h-6.05v-11.838h6.05v11.838zm0-19.839h-6.05v-11.811h6.05v11.811zm0-19.838h-6.05v-11.837h6.05v11.837zm0-19.838h-6.05v-11.837h6.05v11.837zm9.58 138.855h-6.04v-11.837h6.04v11.837zm0-19.838h-6.04v-11.825h6.04v11.825zm0-19.839h-6.04v-11.811h6.04v11.811zm0-19.838h-6.04v-11.824h6.04v11.824zm0-19.825h-6.04v-11.838h6.04v11.838zm0-19.839h-6.04v-11.811h6.04v11.811zm0-19.838h-6.04v-11.837h6.04v11.837zm0-19.838h-6.04v-11.837h6.04v11.837zm9.58 138.855h-6.03v-11.837h6.03v11.837zm0-19.838h-6.03v-11.825h6.03v11.825zm0-19.839h-6.03v-11.811h6.03v11.811zm0-19.838h-6.03v-11.824h6.03v11.824zm0-19.825h-6.03v-11.838h6.03v11.838zm0-19.839h-6.03v-11.811h6.03v11.811zm0-19.838h-6.03v-11.837h6.03v11.837zm0-19.838h-6.03v-11.837h6.03v11.837z" fill="url(#paint5_linear)"/><path d="M1831.18 216.533a23.724 23.724 0 00-21.92 14.63 23.71 23.71 0 00-1.35 13.701c.91 4.6 3.17 8.827 6.48 12.144a23.753 23.753 0 0012.15 6.493c4.6.916 9.36.447 13.7-1.347a23.69 23.69 0 0010.64-8.733c2.61-3.9 4-8.485 4-13.175a23.73 23.73 0 00-6.94-16.763 23.725 23.725 0 00-16.76-6.95zm0 46.425c-4.5.002-8.89-1.329-12.63-3.825a22.782 22.782 0 01-8.38-10.198 22.705 22.705 0 01-1.29-13.132c.87-4.41 3.04-8.46 6.22-11.639a22.734 22.734 0 0111.64-6.22c4.41-.876 8.98-.425 13.13 1.297a22.762 22.762 0 0110.2 8.375 22.788 22.788 0 013.82 12.63 22.706 22.706 0 01-22.71 22.712z" fill="url(#paint6_linear)"/><path d="M1827.57 236.207l-9.72-7.128 8.71 8.331 3.97 2.443.14-.164-3.1-3.482z" fill="url(#paint7_linear)"/><path d="M1831.77 239.815a.624.624 0 00-.22-.213.74.74 0 00-.29-.101.747.747 0 00-.31.031.638.638 0 00-.26.157l.49.557-.63-.393a.787.787 0 00-.12.393.748.748 0 00.75.747c.2-.004.38-.083.52-.223a.794.794 0 00.23-.524.7.7 0 00-.08-.317l3.56-1.595 5.37-3.633-5.84 2.835-3.17 2.279z" fill="url(#paint8_linear)"/><path d="M1870.5 217.046v-3.798h-3.16v-18.18h-2.66v-11.331h-2.84v11.002l-13.92-22.32v-44.626h-2v13.267l-3.47-2.949v-5.824l-10.06-23.497V72h-2.41v36.891l-10 23.396v5.824l-3.47 2.949v-13.267h-2v44.613l-13.99 22.32v-11.001h-2.84v11.33h-2.66v18.155h-3.16v3.798h4v46.842h-3.8v3.798h4.51v252.06h69.32V267.673h4.5v-3.798h-3.8v-46.842l3.91.013zm-29.69-70.099h2.64v21.649h-2.64v-21.649zm-5.48 0h2.65v21.649h-2.65v-21.649zm-5.47 0h2.64v21.649h-2.64v-21.649zm-5.48 0h2.63v21.649h-2.63v-21.649zm-5.48 0h2.65v21.649h-2.65v-21.649zM1809 498.06h-4.75v-48.615h4.75v48.615zm0-55.704h-4.75v-48.615h4.75v48.615zm0-55.704h-4.75v-48.615h4.75v48.615zm0-55.704h-4.75v-48.615h4.75v48.615zm9.82 167.112h-4.74v-48.615h4.74v48.615zm0-55.704h-4.74v-48.615h4.74v48.615zm0-55.704h-4.74v-48.615h4.74v48.615zm0-55.704h-4.74v-48.615h4.74v48.615zm9.83 167.112h-4.76v-48.615h4.76v48.615zm0-55.704h-4.76v-48.615h4.76v48.615zm0-55.704h-4.76v-48.615h4.76v48.615zm0-55.704h-4.76v-48.615h4.76v48.615zm9.81 167.112h-4.75v-48.615h4.75v48.615zm0-55.704h-4.75v-48.615h4.75v48.615zm0-55.704h-4.75v-48.615h4.75v48.615zm0-55.704h-4.75v-48.615h4.75v48.615zm9.82 167.112h-4.74v-48.615h4.74v48.615zm0-55.704h-4.74v-48.615h4.74v48.615zm0-55.704h-4.74v-48.615h4.74v48.615zm0-55.704h-4.74v-48.615h4.74v48.615zm-17.1-64.971c-5.1 0-10.08-1.511-14.31-4.342a25.748 25.748 0 01-9.49-11.562 25.8 25.8 0 01-1.47-14.886 25.83 25.83 0 017.05-13.191 25.817 25.817 0 0113.19-7.051c5-.994 10.18-.483 14.89 1.466a25.746 25.746 0 0111.56 9.489 25.77 25.77 0 014.34 14.313c0 6.833-2.71 13.386-7.54 18.218a25.774 25.774 0 01-18.22 7.546zm26.93 232.083h-4.76v-48.615h4.76v48.615zm0-55.704h-4.76v-48.615h4.76v48.615zm0-55.704h-4.76v-48.615h4.76v48.615zm0-55.704h-4.76v-48.615h4.76v48.615z" fill="url(#paint9_linear)"/><path d="M1455.05 511.286v-50.222h31.65V410.31h36.15v50.754h12.39v52.754h18.18V491.84h-5.69l9.99-41.221h67.42l7.12 19.649h66.24v30.814h13.42v.418h24.91v-.418h9.17v15.268h40.5v-48.513h9.23v-10.736h47.34v10.736h12.12v12.09h6.93v4.988h20.19V548h60.25v-47.462h-5.06l8.95-23.333h81.94v-53.083h13.42V366h39.08v58.122h49.37v49.184h33.89v21.522h12.12v-33.397h-10.7l50.22-67.642 50.28 67.629H2255v33.41h20.38v-64.401h24.06v-6.064h8.25v-14.686h14.43v-13.052h56.38v13.052h11v166.175H1440v-64.566h15.05zm924.75 32.258h4.61v-8.52h-4.61v8.52zm0-12.394h4.61v-8.47h-4.61v8.47zm0-12.382h4.61v-8.52h-4.61v8.52zm0-12.394h4.61v-8.507h-4.61v8.507zm0-37.41h4.61v-8.52h-4.61v8.52zm0-14.673h4.61v-8.52h-4.61v8.52zm-9.02 89.253h4.6v-8.52h-4.6v8.52zm0-12.394h4.6v-8.47h-4.6v8.47zm0-12.382h4.6v-8.52h-4.6v8.52zm0-12.394h4.6v-8.507h-4.6v8.507zm0-37.41h4.6v-8.52h-4.6v8.52zm0-14.673h4.6v-8.52h-4.6v8.52zm-9.03 89.253h4.6v-8.52h-4.6v8.52zm0-12.394h4.6v-8.47h-4.6v8.47zm0-12.382h4.6v-8.52h-4.6v8.52zm0-12.394h4.6v-8.507h-4.6v8.507zm0-37.41h4.6v-8.52h-4.6v8.52zm0-14.673h4.6v-8.52h-4.6v8.52zm-9.04 89.253h4.61v-8.52h-4.61v8.52zm0-12.394h4.61v-8.47h-4.61v8.47zm0-12.382h4.61v-8.52h-4.61v8.52zm0-12.394h4.61v-8.507h-4.61v8.507zm0-37.41h4.61v-8.52h-4.61v8.52zm0-14.673h4.61v-8.52h-4.61v8.52zm-9.03 89.253h4.61v-8.52h-4.61v8.52zm0-12.394h4.61v-8.47h-4.61v8.47zm0-12.382h4.61v-8.52h-4.61v8.52zm0-12.394h4.61v-8.507h-4.61v8.507zm0-37.41h4.61v-8.52h-4.61v8.52zm0-14.673h4.61v-8.52h-4.61v8.52zm-9.02 89.253h4.61v-8.52h-4.61v8.52zm0-12.394h4.61v-8.47h-4.61v8.47zm0-12.382h4.61v-8.52h-4.61v8.52zm0-12.394h4.61v-8.507h-4.61v8.507zm0-37.41h4.61v-8.52h-4.61v8.52zm0-14.673h4.61v-8.52h-4.61v8.52zm-9.09 89.253h4.66v-8.52h-4.66v8.52zm0-12.394h4.66v-8.47h-4.66v8.47zm0-12.382h4.66v-8.52h-4.66v8.52zm0-12.394h4.66v-8.507h-4.66v8.507zm0-37.41h4.66v-8.52h-4.66v8.52zm0-14.648h4.66v-8.52h-4.66v8.52zm-9.03 89.253h4.66v-8.52h-4.61l-.05 8.52zm0-12.394h4.66v-8.495h-4.61l-.05 8.495zm0-12.381h4.66v-8.521h-4.61l-.05 8.521zm0-12.395h4.66v-8.532h-4.61l-.05 8.532zm0-37.41h4.66v-8.52h-4.61l-.05 8.52zm0-14.673h4.66v-8.52h-4.61l-.05 8.52zm-9.03 89.253h4.65v-8.52h-4.6l-.05 8.52zm0-12.394h4.65v-8.495h-4.6l-.05 8.495zm0-12.381h4.65v-8.521h-4.6l-.05 8.521zm0-12.395h4.65v-8.532h-4.6l-.05 8.532zm-9.04 37.17h4.66v-8.52h-4.6l-.06 8.52zm0-12.394h4.66v-8.495h-4.6l-.06 8.495zm0-12.381h4.66v-8.521h-4.6l-.06 8.521zm0-12.395h4.66v-8.532h-4.6l-.06 8.532zm-9.02 37.17h4.66v-8.52h-4.61l-.05 8.52zm0-12.394h4.66v-8.495h-4.61l-.05 8.495zm0-12.381h4.66v-8.521h-4.61l-.05 8.521zm0-12.395h4.66v-8.532h-4.61l-.05 8.532zm-9.04 37.17h4.65v-8.52h-4.63l-.02 8.52zm0-12.394h4.65v-8.495h-4.63l-.02 8.495zm0-12.381h4.65v-8.521h-4.63l-.02 8.521zm0-12.395h4.65v-8.532h-4.63l-.02 8.532zm-65.35-63.603v-9.799c-2.72.06-5.31 1.164-7.24 3.081a10.625 10.625 0 00-3.13 7.224.273.273 0 000 .127h10.36l.01-.633zm1.16-9.154v9.154h9.69a10.003 10.003 0 00-9.64-9.179l-.05.025zm4.7 61.186h5.9v-.38h-5.9v.38zm0-2.532h5.9v-5.671h-5.9v5.671zm0-7.824h5.9v-5.684h-5.9v5.684zm-8.33 10.356h5.9v-.38h-5.9v.38zm0-2.532h5.9v-5.671h-5.9v5.671zm0-7.824h5.9v-5.684h-5.9v5.684zm-1.63-5.608h-6.5v6.254h6.5v-6.254zm-6.57 15.964h5.9v-.38h-5.9v.38zm0-2.532h5.9v-5.671h-5.9v5.671zm-101.11 53.615h6.23v-9.039h-6.23v9.039zm0-15.192h6.23v-9.039h-6.23v9.039zm0-15.192h6.23v-9.039h-6.23v9.039zm0-15.192h6.23v-8.925h-6.23v8.925zm0-15.192h6.23v-9.026h-6.23v9.026zm0-15.192h6.23v-9.039h-6.23v9.039zm0-15.192h6.23v-8.798h-6.23v8.798zm0-15.192h6.23v-9.039h-6.23v9.039zm-9.9 106.066h6.23v-9.039h-6.23v9.039zm0-15.192h6.23v-9.039h-6.23v9.039zm0-15.192h6.23v-9.039h-6.23v9.039zm0-15.192h6.23v-8.647h-6.23v8.647zm0-15.192h6.23v-9.027h-6.23v9.027zm0-15.192h6.23v-9.039h-6.23v9.039zm0-15.192h6.23v-8.52h-6.23v8.52zm0-15.192h6.23v-9.039h-6.23v9.039zm-9.9 106.065h6.23v-9.039h-6.23v9.039zm0-15.192h6.23v-9.039h-6.23v9.039zm0-15.192h6.23v-9.039h-6.23v9.039zm0-15.192h6.23v-8.368h-6.23v8.368zm0-15.192h6.23v-9.026h-6.23v9.026zm0-15.192h6.23v-9.039h-6.23v9.039zm0-15.192h6.23v-8.241h-6.23v8.241zm0-15.192h6.23v-9.039h-6.23v9.039zm-33.56-67.933h-4.4v44.234h4.4v-44.234zm9.08 0h-4.36v44.234h4.4l-.04-44.234zm9.09 0h-4.41v44.234h4.41v-44.234zm5.54 174.834h6.23v-9.039h-6.23v9.039zm0-15.192h6.23v-9.039h-6.23v9.039zm0-15.192h6.23v-9.039h-6.23v9.039zm0-15.192h6.23v-8.925h-6.23v8.925zm0-15.192h6.23v-9.026h-6.23v9.026zm0-15.192h6.23v-9.039h-6.23v9.039zm0-15.192h6.23v-8.798h-6.23v8.798zm0-15.192h6.23v-9.039h-6.23v9.039zm-.82-23.699h4.41v-43.956h-4.41v43.956zm-9.08 129.765h6.23v-9.039h-6.23v9.039zm0-15.192h6.23v-9.039h-6.23v9.039zm0-15.192h6.23v-9.039h-6.23v9.039zm0-15.192h6.23v-8.647h-6.23v8.647zm0-15.192h6.23v-9.027h-6.23v9.027zm0-15.192h6.23v-9.039h-6.23v9.039zm0-15.192h6.23v-8.52h-6.23v8.52zm0-15.192h6.23v-9.039h-6.23v9.039zm-9.91 106.065h6.24v-9.039h-6.24v9.039zm0-15.192h6.24v-9.039h-6.24v9.039zm0-15.192h6.24v-9.039h-6.24v9.039zm0-15.192h6.24v-8.368h-6.24v8.368zm0-15.192h6.24v-9.026h-6.24v9.026zm0-15.192h6.24v-9.039h-6.24v9.039zm0-15.192h6.24v-8.241h-6.24v8.241zm0-15.192h6.24v-9.039h-6.24v9.039zm-9.89 106.066h6.23v-9.039h-6.23v9.039zm0-15.192h6.23v-9.04h-6.23v9.04zm0-15.192h6.23v-9.04h-6.23v9.04zm0-15.192h6.23v-8.09h-6.23v8.09zm0-15.192h6.23v-9.027h-6.23v9.027zm0-15.192h6.23v-9.04h-6.23v9.04zm0-15.192h6.23v-7.963h-6.23v7.963zm0-15.192h6.23v-9.04h-6.23v9.04zm-9.9 106.065h6.18v-9.039h-6.23l.05 9.039zm0-15.192h6.18v-9.039h-6.23l.05 9.039zm0-15.192h6.18v-9.039h-6.23l.05 9.039zm0-15.192h6.18v-7.811h-6.23l.05 7.811zm0-15.192h6.18v-9.026h-6.23l.05 9.026zm0-15.192h6.18v-9.039h-6.23l.05 9.039zm0-15.192h6.18v-7.684h-6.23l.05 7.684zm0-15.192h6.18v-9.039h-6.23l.05 9.039zm-35.74 105.99v10.292h.09v2.266h3.98v-12.558l.47-.785h-4.94l.44.785h-.04zm.07-17.724h-.07v10.292h.09v2.266h3.98v-11.153l.47-.785h-4.94l.47-.62zm0-21.522v12.558h3.97v-2.266h.1v-10.292h-.07l.45-.798h-4.93l.48.798zm-10.07 39.246v10.292h.1v2.266h3.98v-2.266h.06v-10.292l.46-.785h-4.94l.46.785h-.12zm.08-17.724h-.08v10.292h.1v2.266h3.98v-2.266h.06v-8.887l.46-.785h-4.94l.42-.62zm0-21.522v12.558h3.97v-2.266h.09v-10.292h-.06l.44-.798h-4.94l.5.798zm-10.07 39.246v10.292h.09v2.266h3.98v-2.266h.06v-10.292l.47-.785h-4.94l.46.785h-.12zm.08-17.724h-.08v10.292h.09v2.266h3.98v-2.266h.06v-8.887l.47-.785h-4.94l.42-.62zm0-21.522v12.558h3.97v-2.266h.13v-10.292h-.07l.45-.798h-4.94l.46.798zm-10.07 39.246v10.292h.11v2.266h3.93v-2.266h.07v-10.292l.45-.785h-4.92l.44.785h-.08zm.08-17.724h-.08v10.292h.11v2.266h3.93v-2.266h.07v-8.887l.45-.785h-4.92l.44-.62zm0-21.522v10.292h.06v2.266h3.9v-2.266h.09v-10.292l.44-.798h-4.92l.43.798zm-10.04 39.246v10.292h.08v2.266h3.96v-2.266h.06v-10.292l.47-.785h-4.94l.46.785h-.09zm0-17.724h-.07v10.292h.15v2.266h3.96v-2.266h.06v-8.887l.47-.785h-4.94l.37-.62zm0-21.522v10.292h.08v2.266h3.96v-2.266h.1v-10.292h-.07l.45-.798h-4.94l.42.798zm-10.44-.798l.45.798v10.292h.07v2.266h3.97v-2.266h.1v-10.292h-.07l.45-.798h-4.97zm0 21.522l.44.785h-.05v10.293h.09v2.266h3.97v-11.141l.47-.785-4.92-1.418zm.39 19.914v10.293h.1v2.266h3.95v-2.266h.06v-10.293l.47-.785h-4.94l.46.785h-.1zm-74.1 14.293h3.86v-7.064h-3.86v7.064zm0-10.191h3.86v-7.001h-3.86v7.001zm0-10.204h3.86v-7.001h-3.86v7.001zm0-10.191h3.86v-7.001h-3.86v7.001zm-7.6 30.586h3.8v-7.064h-3.8v7.064zm0-10.191h3.8v-7.001h-3.8v7.001zm0-10.204h3.8v-7.001h-3.8v7.001zm0-10.191h3.8v-7.001h-3.8v7.001zm-7.6 30.586h3.87v-7.064H1859v7.064zm0-10.191h3.87v-7.001H1859v7.001zm0-10.204h3.87v-7.001H1859v7.001zm0-10.191h3.87v-7.001H1859v7.001zm-7.59 30.586h3.86v-7.064h-3.86v7.064zm0-10.191h3.86v-7.001h-3.86v7.001zm0-10.204h3.86v-7.001h-3.86v7.001zm0-10.191h3.86v-7.001h-3.86v7.001zm-7.6 30.586h3.88v-7.064h-3.88v7.064zm0-10.191h3.88v-7.001h-3.88v7.001zm0-10.204h3.88v-7.001h-3.88v7.001zm0-10.191h3.88v-7.001h-3.88v7.001zm0-25.738h3.88v-7.014h-3.88v7.014zm0-12.078h3.88V484.7h-3.88v7.026zm-7.59 68.365h3.91v-7.027h-3.88l-.03 7.027zm0-10.192h3.91v-6.963h-3.88l-.03 6.963zm0-10.204h3.91v-7.001h-3.88l-.03 7.001zm0-10.191h3.91v-7.001h-3.88l-.03 7.001zm0-25.738h3.91v-7.013h-3.88l-.03 7.013zm0-12.077h3.91V484.7h-3.88l-.03 6.989zm-7.6 68.364h3.87v-6.989h-3.87v6.989zm0-10.192h3.87v-6.925h-3.87v6.925zm0-10.204h3.87v-7.001h-3.87v7.001zm0-10.191h3.87v-7.001h-3.87v7.001zm0-25.738h3.87v-7.013h-3.87v7.013zm0-12.077h3.87V484.7h-3.87v6.951zm-7.6 68.364h3.88v-6.951h-3.88v6.951zm0-10.192h3.88v-6.887h-3.88v6.887zm0-10.204h3.88v-7.001h-3.88v7.001zm0-10.191h3.88v-7.001h-3.88v7.001zm0-25.738h3.88v-7.013h-3.88v7.013zm0-12.077h3.88V484.7h-3.88v6.913zm-7.59 68.364h3.87v-6.913h-3.87v6.913zm0-10.192h3.87v-6.849h-3.87v6.849zm0-10.204h3.87v-7.001h-3.87v7.001zm0-10.191h3.87v-7.001h-3.87v7.001zm0-25.738h3.87v-7.013h-3.87v7.013zm0-12.077h3.87V484.7h-3.87v6.875zm-7.6 68.364h3.86v-6.875h-3.86v6.875zm0-10.192h3.86v-6.811h-3.86v6.811zm0-10.204h3.86v-7.001h-3.86v7.001zm0-10.191h3.86v-7.001h-3.86v7.001zm0-25.738h3.86v-7.013h-3.86v7.013zm0-12.077h3.86V484.7h-3.86v6.837zm-7.59 68.364h3.86v-6.837h-3.86v6.837zm0-10.192h3.86v-6.773h-3.86v6.773zm0-10.204h3.86v-7.001h-3.86v7.001zm0-10.191h3.86v-7.001h-3.86v7.001zm0-25.738h3.87v-7.013h-3.87v7.013zm0-12.077h3.87V484.7h-3.87v6.799zm-7.6 68.364h3.87v-6.799h-3.87v6.799zm0-10.192h3.87v-6.735h-3.87v6.735zm0-10.204h3.87v-7.001h-3.87v7.001zm0-10.191h3.87v-7.001h-3.87v7.001zm0-25.738h3.87v-7.013h-3.87v7.013zm0-12.077h3.87V484.7h-3.87v6.761zm-186.34 50.64v11.482h.11v2.532h4.42v-2.532h.08v-11.482l.39-.671v-.203h-5.4l.51.874h-.11zm.07-19.75h-.07v11.723h.11v2.532h4.42v-2.532h.08V522.68l.39-.671v-.215h-5.4l.47.557zm0-23.978v11.483h.08v2.532h4.43v-2.532h.1v-11.23h-.07l.5-.873h-5.52l.48.62zm-11.23 43.728v11.482h.12v2.532h4.43v-2.532h.06v-11.482l.52-.874h-5.51l.51.874h-.13zm.09-19.75h-.09v11.723h.12v2.532h4.43v-2.532h.06V522.68l.52-.886h-5.51l.47.557zm0-23.978v14.015h4.43v-2.532h.12v-11.23h-.09l.5-.873h-5.5l.54.62zM1582 542.101v11.482h.26v2.532h4.41v-2.532h.08v-11.482l.51-.874h-5.5l.5.874h-.26zm.08-19.75h-.08v11.723h.26v2.532h4.41v-2.532h.08V522.68l.51-.886h-5.5l.32.557zm.18-23.725v14.015h4.41v-2.532h.12v-11.483h-.08l.5-.873h-5.5l.55.873zm-11.2 43.728v11.482h.11v2.532h4.43v-2.532h.07v-11.482l.52-.874h-5.51l.51.874h-.13zm0-19.75h-.08v11.47h.11v2.532h4.43v-2.532h.06V522.68l.52-.886h-5.5l.46.81zm0-23.978v11.483h.08v2.532h4.43v-2.532h.12v-11.483h-.09l.5-.873h-5.5l.46.873zm-11.64-.873l.5.873v11.483h.08v2.532h4.43v-2.532h.1v-11.483h-.07l.5-.873h-5.54zm0 23.965l.49.886h-.08v11.47h.12v2.532h4.42v-2.532h.07V522.68l.51-.886-5.53-.076zm.39 20.636v11.482h.1v2.532h4.43v-2.532h.08v-11.482l.5-.874h-5.49l.49.874h-.11zm-35.48-31.549h5.76v-9.773h-5.76v9.773zm0-16.382h5.76V484.7h-5.76v9.723zm0-16.382h5.76v-9.799h-5.76v9.799zm-21.66-61.338h-4.08v35.74h4.08v-35.74zm8.38 0h-4.07v35.74h4.07v-35.74zm8.4 0h-4.12v35.74h4.07l.05-35.74zm-4.24 126.854h5.76v-9.761h-5.76v9.761zm0-16.37h5.76v-9.773h-5.76v9.773zm0-16.369h5.76v-9.774h-5.76v9.774zm0-16.382h5.76V484.7h-5.76v9.736zm0-16.382h5.76v-9.812h-5.76v9.812zm-9.16 65.503h5.77v-9.761h-5.77v9.761zm0-16.37h5.77v-9.773h-5.77v9.773zm0-16.369h5.77v-9.774h-5.77v9.774zm0-16.382h5.77V484.7h-5.77v9.736zm0-16.382h5.77v-9.812h-5.77v9.812zm-9.16 65.503h5.78v-9.761h-5.78v9.761zm0-16.37h5.78v-9.773h-5.78v9.773zm0-16.369h5.78v-9.774h-5.78v9.774zm0-16.382h5.78V484.7h-5.78v9.736zm0-16.382h5.78v-9.812h-5.78v9.812zm-2.63-61.351h-4.06v35.74h4.06v-35.74zm-6.52 126.854h5.77v-9.761h-5.77v9.761zm0-16.37h5.77v-9.773h-5.77v9.773zm0-16.369h5.77v-9.774h-5.77v9.774zm0-16.382h5.77V484.7h-5.77v9.736zm0-16.382h5.77v-9.812h-5.77v9.812zm-9.15 65.503h5.72v-9.761h-5.77l.05 9.761zm0-16.37h5.72v-9.773h-5.77l.05 9.773zm0-16.369h5.72v-9.774h-5.77l.05 9.774zm0-16.382h5.72V484.7h-5.77l.05 9.736zm0-16.382h5.72v-9.812h-5.77l.05 9.812zm-9.16 65.503h5.76v-9.761h-5.76v9.761zm0-16.37h5.76v-9.773h-5.76v9.773zm0-16.369h5.76v-9.774h-5.76v9.774zm0-16.382h5.76V484.7h-5.76v9.736zm0-16.382h5.76v-9.812h-5.76v9.812zm-9.15 65.503h5.67v-9.761h-5.76l.09 9.761zm0-16.37h5.67v-9.773h-5.76l.09 9.773zm0-16.369h5.67v-9.774h-5.76l.09 9.774zm0-16.382h5.67V484.7h-5.76l.09 9.736zm0-16.382h5.67v-9.812h-5.76l.09 9.812z" fill="url(#paint10_linear)"/><path d="M1795.54 40.14h-.25c.58-1.517.78-3.153.59-4.766-.2-1.613-.78-3.154-1.71-4.49a9.974 9.974 0 00-3.6-3.18 9.989 9.989 0 00-4.66-1.135c-.38-.02-.76-.02-1.14 0v-.772c0-1.862-.52-3.687-1.5-5.272a10.007 10.007 0 00-4.03-3.704c0-.443.06-.899.06-1.368.02-1.985-.37-3.954-1.16-5.776a14.17 14.17 0 00-3.42-4.797 14.114 14.114 0 00-10.94-3.618 14.1 14.1 0 00-5.61 1.811 14.175 14.175 0 00-4.38 3.947 14.241 14.241 0 00-2.38 5.39c-.4 1.944-.39 3.952.04 5.892a13.277 13.277 0 00-7.43 5.47 12.288 12.288 0 00-5.9-4.72 12.252 12.252 0 00-7.54-.37c-2.49.673-4.7 2.115-6.32 4.12a12.217 12.217 0 00-2.72 7.046 8.845 8.845 0 00-8.31 2.355 8.833 8.833 0 00-2.6 6.266c0 .608.06 1.215.18 1.81-1.81.4-3.4 1.453-4.48 2.957a7.544 7.544 0 00-1.35 5.189 7.474 7.474 0 002.46 4.765 7.5 7.5 0 005.01 1.902h83.09a7.5 7.5 0 005.11-2.303 7.514 7.514 0 000-10.396 7.5 7.5 0 00-5.11-2.303v.05z" fill="url(#paint11_linear)"/><path d="M1605.74 130.71a9.02 9.02 0 00.55-3.127c0-2.501-1-4.9-2.77-6.669a9.403 9.403 0 00-9.74-2.243c.36-1.117.55-2.283.54-3.457a11.237 11.237 0 00-20.44-6.482 11.28 11.28 0 00-10.83-2.759 17.915 17.915 0 00-9.85-8.824 17.943 17.943 0 00-13.23.34 17.942 17.942 0 00-9.39 9.315 17.882 17.882 0 00-.44 13.221.458.458 0 000 .165 9.111 9.111 0 00-2.05-.228 8.871 8.871 0 00-8.69 10.66 7.477 7.477 0 00-4.47 2.956 7.497 7.497 0 00-1.36 5.189 7.52 7.52 0 002.46 4.765 7.507 7.507 0 005.02 1.902h83.08a7.482 7.482 0 005-1.901 7.484 7.484 0 002.46-4.747 7.51 7.51 0 00-1.33-5.177 7.525 7.525 0 00-4.44-2.975l-.08.076z" fill="url(#paint12_linear)"/><path d="M1644.6 152.017c.14-.554.21-1.124.21-1.696 0-1.471-.49-2.898-1.39-4.061a6.674 6.674 0 00-11.08.782 6.987 6.987 0 00-2.49-2.018 7.084 7.084 0 00-3.12-.717h-.31a10.087 10.087 0 00-1.87-8.743 10.144 10.144 0 00-5.54-3.559 10.113 10.113 0 00-6.55.598 10.147 10.147 0 00-4.81 4.501 6.913 6.913 0 00-3.84-.563 6.91 6.91 0 00-3.54 1.593 6.95 6.95 0 00-2.14 3.25 7.03 7.03 0 00-.05 3.885 5.424 5.424 0 00-1.64-.266 5.324 5.324 0 00-5.33 5.33c0 .572.09 1.139.26 1.684h-.54c-1.37 0-2.68.543-3.64 1.509a5.138 5.138 0 00-1.51 3.644c0 1.366.54 2.677 1.51 3.643a5.129 5.129 0 003.64 1.509h53.49a5.152 5.152 0 003.56-1.468 5.206 5.206 0 001.55-3.526 5.173 5.173 0 00-1.33-3.614 5.176 5.176 0 00-3.47-1.684l-.03-.013z" fill="url(#paint13_linear)"/><path fill-rule="evenodd" clip-rule="evenodd" d="M1600.62 344h6.62v6.623h7.09V344h6.62v6.623h7.09V344h6.62v6.623h7.08V344h6.63v6.623h7.08V344h6.63v6.623h7.08V344h6.63v6.623h6.93V344h6.63v6.623h7.08V344h6.63v6.623h7.08V344h6.63v6.623h7.08V344h6.63v6.623h7.08V344h6.63v6.623h7.08V344h6.63v6.623h7.08V344h6.63v6.623h3.62l-3.17 5.719v-1h-171.44v1l-3.62-5.719h3.62V344zm0 13.342v13.751H1597l3.62 5.569v-1h171.44v1l3.17-5.569h-3.62v-13.751h-170.99zm170.99 20.32h-170.99v61.163h-3.17l1.51 5.719v-.999h62.52v1l1.06-5.72h-2.41v-11.589c-.16-1.054-.16-1.957-.16-3.011 0-14.449 11.76-26.19 26.22-26.19 14.31 0 26.06 11.741 26.06 26.04 0 1.053 0 2.107-.15 3.01v11.74h-2.71l1.51 5.72v-1h62.37v.999l1.2-5.719h-2.86v-61.163zm0 67.883h-59.51v78.473h-51.97v-78.473h-59.51v78.473h59.51v.15h51.97v-.15h59.51v-78.473zm-157.83-46.854h33.33v27.437h-33.33v-27.437zm2 2v23.437h29.33v-23.437h-29.33zm111.29-2h33.34v27.437h-33.34v-27.437zm2 2v23.437h29.34v-23.437h-29.34zm-1 52.336h-1v56.036h33.34v-56.036h-32.34zm1 54.036v-52.036h29.34v52.036h-29.34zm-115.29-54.036h33.33v56.036h-33.33v-56.036zm2 2v52.036h29.33v-52.036h-29.33zm72.12-66.716l.1.994-.1-.995.02-.002.06-.005.21-.017c.19-.013.46-.03.8-.042a36.74 36.74 0 013.68.061h22.99v19.514l-1.99.136c-.69-5.03-2.62-8.603-5.1-11.159-2.49-2.567-5.57-4.155-8.62-5.127-2.66-.848-5.26-1.218-7.35-1.364h-4.6l-.1-1.994zm22.11 7.093c-2.35-2.418-5.14-4.028-7.91-5.099h11.56v10.419a19.545 19.545 0 00-3.65-5.32zm-25.68-7.094l-.1.995.1-.994-.1 1.994h-4.6c-2.1.146-4.7.516-7.36 1.364-3.04.972-6.13 2.56-8.61 5.127-2.48 2.556-4.42 6.129-5.11 11.159l-1.99-.136v-19.514h23a35.971 35.971 0 013.68-.061c.34.012.61.029.79.042l.22.017.06.005.01.002h.01zm-14.2 1.995h-11.57v10.419a19.35 19.35 0 013.66-5.32c2.34-2.418 5.13-4.028 7.91-5.099z" fill="#fff"/></g><path d="M0 571h1923v141.959S1317 822 961.5 822 0 712.959 0 712.959V571z" fill="#fff"/></g><defs><linearGradient id="paint7_linear" x1="5536.34" y1="752.679" x2="5718.55" y2="5582.03" gradientUnits="userSpaceOnUse"><stop stop-color="#fff"/><stop offset=".42" stop-color="#FCFCFC"/><stop offset=".69" stop-color="#F4F4F4"/><stop offset=".91" stop-color="#E5E5E5"/><stop offset="1" stop-color="#DDD"/></linearGradient><linearGradient id="paint10_linear" x1="-358895" y1="82837.9" x2="-358895" y2="106165" gradientUnits="userSpaceOnUse"><stop stop-color="#fff"/><stop offset=".42" stop-color="#FCFCFC"/><stop offset=".69" stop-color="#F4F4F4"/><stop offset=".91" stop-color="#E5E5E5"/><stop offset="1" stop-color="#DDD"/></linearGradient><linearGradient id="paint1_linear" x1="43959.1" y1="126315" x2="54861.7" y2="126315" gradientUnits="userSpaceOnUse"><stop stop-color="#fff"/><stop offset=".42" stop-color="#FCFCFC"/><stop offset=".69" stop-color="#F4F4F4"/><stop offset=".91" stop-color="#E5E5E5"/><stop offset="1" stop-color="#DDD"/></linearGradient><linearGradient id="paint2_linear" x1="32755.9" y1="82146.1" x2="36938.7" y2="82146.1" gradientUnits="userSpaceOnUse"><stop stop-color="#fff"/><stop offset=".42" stop-color="#FCFCFC"/><stop offset=".69" stop-color="#F4F4F4"/><stop offset=".91" stop-color="#E5E5E5"/><stop offset="1" stop-color="#DDD"/></linearGradient><linearGradient id="paint3_linear" x1="528.189" y1="4819.75" x2="528.189" y2="6155.31" gradientUnits="userSpaceOnUse"><stop stop-color="#fff"/><stop offset=".59" stop-color="#EDEDED"/><stop offset="1" stop-color="#DDD"/></linearGradient><linearGradient id="paint4_linear" x1="-9158.22" y1="1232.84" x2="-9158.22" y2="3938.17" gradientUnits="userSpaceOnUse"><stop stop-color="#fff"/><stop offset=".59" stop-color="#EDEDED"/><stop offset="1" stop-color="#DDD"/></linearGradient><linearGradient id="paint5_linear" x1="28937.8" y1="103284" x2="34509.5" y2="103284" gradientUnits="userSpaceOnUse"><stop stop-color="#fff"/><stop offset=".42" stop-color="#FCFCFC"/><stop offset=".69" stop-color="#F4F4F4"/><stop offset=".91" stop-color="#E5E5E5"/><stop offset="1" stop-color="#DDD"/></linearGradient><linearGradient id="paint0_linear" x1="72525.4" y1="70730" x2="84231.8" y2="70730" gradientUnits="userSpaceOnUse"><stop stop-color="#fff"/><stop offset=".42" stop-color="#FCFCFC"/><stop offset=".69" stop-color="#F4F4F4"/><stop offset=".91" stop-color="#E5E5E5"/><stop offset="1" stop-color="#DDD"/></linearGradient><linearGradient id="paint8_linear" x1="4920.67" y1="537.976" x2="4997.78" y2="3360.32" gradientUnits="userSpaceOnUse"><stop stop-color="#fff"/><stop offset=".42" stop-color="#FCFCFC"/><stop offset=".69" stop-color="#F4F4F4"/><stop offset=".91" stop-color="#E5E5E5"/><stop offset="1" stop-color="#DDD"/></linearGradient><linearGradient id="paint9_linear" x1="24799.1" y1="21772.4" x2="73030.7" y2="210428" gradientUnits="userSpaceOnUse"><stop stop-color="#fff"/><stop offset=".42" stop-color="#FCFCFC"/><stop offset=".69" stop-color="#F4F4F4"/><stop offset=".91" stop-color="#E5E5E5"/><stop offset="1" stop-color="#DDD"/></linearGradient><linearGradient id="paint6_linear" x1="15806.7" y1="2509.98" x2="16760.8" y2="23756.6" gradientUnits="userSpaceOnUse"><stop stop-color="#fff"/><stop offset=".42" stop-color="#FCFCFC"/><stop offset=".69" stop-color="#F4F4F4"/><stop offset=".91" stop-color="#E5E5E5"/><stop offset="1" stop-color="#DDD"/></linearGradient><linearGradient id="paint11_linear" x1="25264.7" y1="1402.68" x2="25264.7" y2="3676.87" gradientUnits="userSpaceOnUse"><stop stop-color="#fff"/><stop offset=".59" stop-color="#EDEDED"/><stop offset="1" stop-color="#DDD"/></linearGradient><linearGradient id="paint12_linear" x1="10307.1" y1="5083.96" x2="10307.1" y2="7793.23" gradientUnits="userSpaceOnUse"><stop stop-color="#fff"/><stop offset=".59" stop-color="#EDEDED"/><stop offset="1" stop-color="#DDD"/></linearGradient><linearGradient id="paint13_linear" x1="-31231.4" y1="4009.71" x2="-31430.1" y2="5458.65" gradientUnits="userSpaceOnUse"><stop stop-color="#fff"/><stop offset=".59" stop-color="#EDEDED"/><stop offset="1" stop-color="#DDD"/></linearGradient><clipPath id="clip1"><path fill="#fff" d="M0 0h466v576H0z"/></clipPath><clipPath id="clip2"><path fill="#fff" transform="translate(1440)" d="M0 0h483v576H0z"/></clipPath><clipPath id="clip0"><path fill="#fff" d="M0 0h1920v822H0z"/></clipPath><filter id="filter1_d" x="-526" y="349" width="991.5" height="251.852" filterUnits="userSpaceOnUse" color-interpolation-filters="sRGB"><feFlood flood-opacity="0" result="BackgroundImageFix"/><feColorMatrix in="SourceAlpha" values="0 0 0 0 0 0 0 0 0 0 0 0 0 0 0 0 0 0 127 0"/><feOffset dx="8" dy="4"/><feGaussianBlur stdDeviation="10.5"/><feColorMatrix values="0 0 0 0 0 0 0 0 0 0.52549 0 0 0 0 0.72549 0 0 0 0.1 0"/><feBlend in2="BackgroundImageFix" result="effect1_dropShadow"/><feBlend in="SourceGraphic" in2="effect1_dropShadow" result="shape"/></filter><filter id="filter2_d" x="1436" y="0" width="973.5" height="599.852" filterUnits="userSpaceOnUse" color-interpolation-filters="sRGB"><feFlood flood-opacity="0" result="BackgroundImageFix"/><feColorMatrix in="SourceAlpha" values="0 0 0 0 0 0 0 0 0 0 0 0 0 0 0 0 0 0 127 0"/><feOffset dx="8" dy="12"/><feGaussianBlur stdDeviation="6"/><feColorMatrix values="0 0 0 0 0 0 0 0 0 0.52549 0 0 0 0 0.72549 0 0 0 0.1 0"/><feBlend in2="BackgroundImageFix" result="effect1_dropShadow"/><feBlend in="SourceGraphic" in2="effect1_dropShadow" result="shape"/></filter><filter id="filter0_d" x="-517" y="0" width="973.5" height="599.852" filterUnits="userSpaceOnUse" color-interpolation-filters="sRGB"><feFlood flood-opacity="0" result="BackgroundImageFix"/><feColorMatrix in="SourceAlpha" values="0 0 0 0 0 0 0 0 0 0 0 0 0 0 0 0 0 0 127 0"/><feOffset dx="8" dy="12"/><feGaussianBlur stdDeviation="6"/><feColorMatrix values="0 0 0 0 0 0 0 0 0 0.52549 0 0 0 0 0.72549 0 0 0 0.1 0"/><feBlend in2="BackgroundImageFix" result="effect1_dropShadow"/><feBlend in="SourceGraphic" in2="effect1_dropShadow" result="shape"/></filter></defs></svg>