<svg width="147" height="40" fill="none" xmlns="http://www.w3.org/2000/svg"><path d="M61.733 14.184a7.622 7.622 0 013.117.648 8.036 8.036 0 012.55 1.776 9.131 9.131 0 011.764 2.606c.45 1 .704 2.077.75 3.172v14.863a2.712 2.712 0 01-1.677 2.537c-.333.138-.69.21-1.05.21a2.706 2.706 0 01-2.56-1.687 2.685 2.685 0 01-.195-1.06V22.708a2.653 2.653 0 00-.79-1.958 2.62 2.62 0 00-1.923-.788 2.69 2.69 0 00-1.945.788 2.623 2.623 0 00-.81 1.958v14.541a2.654 2.654 0 01-.794 1.958 2.73 2.73 0 01-4.448-.897 2.653 2.653 0 01-.193-1.06V22.707a2.68 2.68 0 00-1.69-2.554c-.338-.135-.7-.2-1.064-.192a2.625 2.625 0 00-1.922.788 2.66 2.66 0 00-.791 1.958v14.541a2.685 2.685 0 01-1.692 2.553 2.707 2.707 0 01-1.063.194 2.625 2.625 0 01-1.922-.789 2.658 2.658 0 01-.79-1.958V22.386c0-1.056.213-2.1.626-3.072a8.305 8.305 0 011.768-2.624 8.794 8.794 0 012.614-1.813 7.605 7.605 0 013.181-.689 7.46 7.46 0 012.895.567 10.53 10.53 0 012.573 1.536 11.177 11.177 0 012.536-1.514 7.337 7.337 0 012.945-.593zm13.325.041a2.549 2.549 0 011.882.81 2.629 2.629 0 01.773 1.9V37.29a2.604 2.604 0 01-.791 1.917 2.569 2.569 0 01-1.882.789 2.675 2.675 0 01-1.963-.789 2.61 2.61 0 01-.791-1.917V16.935a2.713 2.713 0 011.702-2.52 2.734 2.734 0 011.052-.2l.018.01zM98.31 35.346a2.658 2.658 0 01.763 1.903 2.685 2.685 0 01-1.663 2.56c-.338.135-.7.199-1.063.187H83.403a2.851 2.851 0 01-1.418-.426 2.627 2.627 0 01-.932-.988 2.753 2.753 0 01-.323-1.333 2.939 2.939 0 01.405-1.454l.04-.041L91.348 19.64h-8.026a2.69 2.69 0 01-1.904-.77 2.541 2.541 0 01-.81-1.936 2.63 2.63 0 01.81-1.94 2.614 2.614 0 011.904-.81h12.962c.737.027 1.435.34 1.944.872.51.533.79 1.242.783 1.978a2.764 2.764 0 01-.455 1.473l-10.13 16.037h7.922a2.575 2.575 0 011.963.802zm17.257-9.407a7.788 7.788 0 011.881 2.61 7.936 7.936 0 01.714 3.326 7.798 7.798 0 01-.65 3.172 8.169 8.169 0 01-4.313 4.3 7.856 7.856 0 01-3.181.649h-5.909a2.994 2.994 0 01-1.559-.993 2.588 2.588 0 01-.627-1.713V21.58a7.202 7.202 0 01.586-2.892 7.365 7.365 0 011.6-2.343 7.822 7.822 0 012.373-1.572 7.234 7.234 0 012.895-.59 7.402 7.402 0 012.918.59 7.494 7.494 0 012.39 1.595 7.561 7.561 0 011.6 2.384 7.32 7.32 0 01.586 2.904 7.413 7.413 0 01-1.304 4.283zm-6.199-6.3a1.858 1.858 0 00-1.418.604c-.367.38-.571.886-.569 1.413v2.021h1.987a2.015 2.015 0 001.877-1.244 2.01 2.01 0 00.15-.777 1.976 1.976 0 00-.591-1.413 1.922 1.922 0 00-1.436-.603zm.686 14.864a2.59 2.59 0 001.904-.77 2.632 2.632 0 00.774-1.858 2.63 2.63 0 00-1.647-2.436 2.603 2.603 0 00-1.031-.188h-2.632v5.252h2.632zm12.926-20.278a2.55 2.55 0 011.881.81 2.615 2.615 0 01.791 1.9V37.29a2.612 2.612 0 01-.791 1.917 2.567 2.567 0 01-1.881.789 2.673 2.673 0 01-1.968-.789 2.616 2.616 0 01-.787-1.917V16.935a2.726 2.726 0 01.809-1.933 2.728 2.728 0 011.946-.787v.01zm23.251 21.121c.498.507.774 1.19.768 1.899a2.721 2.721 0 01-.768 1.958 2.598 2.598 0 01-1.945.788h-12.944a2.853 2.853 0 01-1.418-.426 2.591 2.591 0 01-.909-.988 2.752 2.752 0 01-.327-1.332 2.943 2.943 0 01.382-1.446l.036-.04 10.171-16.115h-8.035a2.676 2.676 0 01-1.904-.77 2.537 2.537 0 01-.809-1.935 2.626 2.626 0 01.809-1.94 2.6 2.6 0 011.904-.81h12.962a2.82 2.82 0 011.395.453 2.804 2.804 0 011.318 2.401 2.797 2.797 0 01-.454 1.473l-10.122 16.028h7.94a2.578 2.578 0 011.95.802z" fill="#464F53"/><path d="M11.144 31.445h16.402l-8.18-16.35 4.758-9.517 14.12 28.214a4.234 4.234 0 01-.186 4.13 4.254 4.254 0 01-3.622 2.015H4.254a4.269 4.269 0 01-3.62-2.016 4.238 4.238 0 01-.184-4.13L17.393 0h9.521l-15.77 31.445z" fill="#69C0AC"/><path style="mix-blend-mode:multiply" opacity=".59" d="M27.546 31.445l-8.199-16.35 4.759-9.499 14.139 28.196-10.699-2.348z" fill="url(#paint0_linear)"/><defs><linearGradient id="paint0_linear" x1="18.647" y1="14.351" x2="23.362" y2="17.105" gradientUnits="userSpaceOnUse"><stop stop-color="#1D1D1B"/><stop offset="1" stop-color="#1D1D1B" stop-opacity="0"/></linearGradient></defs></svg>