<svg width="323" height="218" fill="none" xmlns="http://www.w3.org/2000/svg"><path d="M65.19 150.81l.09.18v33.16a5.944 5.944 0 01-3.694 5.56 5.952 5.952 0 01-2.306.44 5.87 5.87 0 01-4.28-1.77 5.757 5.757 0 01-1.74-4.23v-10.43H41.58v10.43a5.693 5.693 0 01-1.79 4.23 6.007 6.007 0 01-4.37 1.74 5.577 5.577 0 01-4.18-1.74 5.845 5.845 0 01-1.7-4.23v-33.34A16.729 16.729 0 0131 144a18.603 18.603 0 013.83-5.62 17.778 17.778 0 015.66-3.78 17.88 17.88 0 0113.82 0 17.88 17.88 0 015.66 3.78 18.62 18.62 0 013.8 5.62 16.722 16.722 0 011.42 6.81zm-11.94.27a5.942 5.942 0 00-5.88-5.88 5.509 5.509 0 00-4.1 1.74 5.704 5.704 0 00-1.69 4.14v10.61h11.67v-10.61zm59.18-17.92c2.362-.014 4.7.474 6.86 1.43a17.824 17.824 0 015.62 3.92 20.574 20.574 0 013.88 5.75 19.003 19.003 0 011.64 7v32.8a6 6 0 01-6 6.06 5.94 5.94 0 01-6.06-6.06V152a5.874 5.874 0 00-1.74-4.32 5.746 5.746 0 00-4.23-1.74 5.915 5.915 0 00-4.28 1.74 5.783 5.783 0 00-1.78 4.32v32.09a5.874 5.874 0 01-1.74 4.32 5.998 5.998 0 01-8.47 0 5.903 5.903 0 01-1.73-4.32V152a5.94 5.94 0 00-6.06-6.06 5.757 5.757 0 00-4.24 1.74 5.871 5.871 0 00-1.71 4.32v32.09a5.93 5.93 0 01-6.06 6.06 5.768 5.768 0 01-4.23-1.74 5.868 5.868 0 01-1.74-4.32v-32.8c.002-2.33.471-4.635 1.38-6.78a18.304 18.304 0 013.84-5.79 19.308 19.308 0 015.74-4 16.7 16.7 0 017.05-1.52 16.398 16.398 0 016.37 1.25 23.737 23.737 0 015.66 3.39 24.5 24.5 0 015.57-3.34 16.098 16.098 0 016.46-1.34zm29.32.09a5.616 5.616 0 012.259.439A5.616 5.616 0 01145.9 135a5.791 5.791 0 011.73 4.19v44.92a5.74 5.74 0 01-1.73 4.23 5.66 5.66 0 01-4.15 1.74 5.874 5.874 0 01-4.32-1.74 5.76 5.76 0 01-1.74-4.23v-44.88a6.006 6.006 0 011.779-4.264 6 6 0 014.281-1.736v.02zm51.16 46.62a5.86 5.86 0 011.69 4.19 5.938 5.938 0 01-1.69 4.32 5.705 5.705 0 01-4.28 1.74h-28.52a6.258 6.258 0 01-3.12-.94 5.792 5.792 0 01-2.05-2.18 6.19 6.19 0 01-.71-2.94 6.597 6.597 0 01.89-3.21l.09-.09 22.37-35.56h-17.65a5.855 5.855 0 01-4.18-1.7 5.622 5.622 0 01-1.79-4.27 5.836 5.836 0 011.79-4.28 5.708 5.708 0 014.18-1.79h28.53a6.139 6.139 0 013.07 1 6.19 6.19 0 012.9 5.3 6.199 6.199 0 01-1 3.25l-22.28 35.39h17.46a5.64 5.64 0 014.3 1.77zm37.97-20.77a17.17 17.17 0 014.14 5.75 17.57 17.57 0 011.56 7.35 17.246 17.246 0 01-1.42 7 18.309 18.309 0 01-3.83 5.66 18.544 18.544 0 01-5.66 3.83 17.249 17.249 0 01-7 1.43h-13a6.603 6.603 0 01-3.44-2.19 5.712 5.712 0 01-1.38-3.78v-34.67a15.763 15.763 0 011.3-6.38 16.058 16.058 0 013.52-5.17 17.007 17.007 0 015.21-3.47 15.874 15.874 0 016.37-1.3 16.24 16.24 0 016.42 1.3 16.279 16.279 0 018.78 8.78 16.207 16.207 0 011.29 6.41 16.402 16.402 0 01-2.86 9.45zm-13.64-13.9a4.118 4.118 0 00-3.12 1.33 4.459 4.459 0 00-1.24 3.12v4.46h4.36a4.4 4.4 0 003.169-1.291 4.427 4.427 0 001.291-3.169 4.384 4.384 0 00-1.29-3.12 4.258 4.258 0 00-3.17-1.33zm1.52 32.8a5.7 5.7 0 004.19-1.7 5.82 5.82 0 000-8.2 5.718 5.718 0 00-4.19-1.69H213V178h5.76zm28.43-44.75a5.587 5.587 0 014.14 1.79 5.8 5.8 0 011.74 4.19v44.92a5.767 5.767 0 01-1.74 4.23 5.647 5.647 0 01-4.14 1.74 5.842 5.842 0 01-4.32-1.74 5.746 5.746 0 01-1.74-4.23v-44.92a6.006 6.006 0 011.778-4.264 6 6 0 014.282-1.736v.02zm51.16 46.62a5.877 5.877 0 011.69 4.19 5.937 5.937 0 01-1.69 4.32 5.738 5.738 0 01-4.28 1.74h-28.52a6.258 6.258 0 01-3.12-.94 5.71 5.71 0 01-2.05-2.18 6.096 6.096 0 01-.71-2.94 6.509 6.509 0 01.89-3.21l.09-.09L283 145.2h-17.63a5.894 5.894 0 01-4.19-1.7 5.616 5.616 0 01-1.78-4.27 5.813 5.813 0 011.78-4.28 5.745 5.745 0 014.19-1.79h28.52a6.165 6.165 0 013.08 1 6.145 6.145 0 012.89 5.3 6.111 6.111 0 01-1 3.25l-22.26 35.38h17.47a5.644 5.644 0 014.28 1.78z" fill="#fff"/><path d="M140.71 94.83H190l-24.63-49.31 14.32-28.64 42.52 85a12.81 12.81 0 01-11.46 18.54H120a12.807 12.807 0 01-12.79-12.237 12.81 12.81 0 011.34-6.303L159.49 0h28.64l-47.42 94.83z" fill="#69C0AC"/><path style="mix-blend-mode:multiply" opacity=".59" d="M190.03 94.83l-24.66-49.31 14.32-28.64 42.52 85.03-32.18-7.08z" fill="url(#paint0_linear)"/><path d="M3.47 215.52a3.376 3.376 0 01-1.38-.28 3.738 3.738 0 01-1.1-.77 3.717 3.717 0 01-.73-1.13 3.658 3.658 0 010-2.71 3.85 3.85 0 01.74-1.18 3.63 3.63 0 011.1-.79 3.376 3.376 0 011.38-.28c.293-.005.586.029.87.1.254.063.5.157.73.28.218.113.423.251.61.41a5.9 5.9 0 01.52.48l-.47.48a5.277 5.277 0 00-1-.79 2.439 2.439 0 00-1.3-.33 2.67 2.67 0 00-1.09.22c-.327.149-.622.36-.87.62a2.93 2.93 0 00-.58.93c-.143.363-.215.75-.21 1.14-.005.394.07.785.22 1.15.136.35.34.669.6.94a2.669 2.669 0 002 .85c.45.006.895-.104 1.29-.32a3.916 3.916 0 001-.81l.46.4a4.723 4.723 0 01-1.18 1 3.142 3.142 0 01-1.61.39zm14.21-7.29a1.81 1.81 0 00.6-.47 1 1 0 00.15-.63h-.37V206H19v1c.02.352-.071.702-.26 1a1.753 1.753 0 01-.85.58l-.21-.35zm16.46 7.29a3.325 3.325 0 01-1.28-.25 3.364 3.364 0 01-1.07-.72 3.498 3.498 0 01-.73-1.13 3.761 3.761 0 01-.27-1.46 3.77 3.77 0 01.25-1.39c.153-.417.383-.8.68-1.13a3.31 3.31 0 011-.76 2.905 2.905 0 011.29-.28 2.917 2.917 0 012.3 1.03c.277.335.491.718.63 1.13.147.455.222.931.22 1.41v.14a.94.94 0 010 .13h-5.68c.024.392.122.775.29 1.13.148.314.351.598.6.84.24.227.522.404.83.52a2.61 2.61 0 001 .18c.471.015.939-.088 1.36-.3.37-.204.708-.463 1-.77l.45.4c-.342.373-.74.69-1.18.94a3.462 3.462 0 01-1.69.34zm2.32-3.89a3.362 3.362 0 00-.21-1 2.739 2.739 0 00-.46-.84 2.294 2.294 0 00-.75-.59 2.231 2.231 0 00-1-.22 2.389 2.389 0 00-1 .2 2.351 2.351 0 00-.77.56c-.23.245-.413.53-.54.84-.14.317-.227.655-.26 1l4.99.05zm14.86 3.87a4.418 4.418 0 01-1.5-.28c-.47-.17-.91-.417-1.3-.73l.39-.52c.353.28.748.503 1.17.66.408.159.842.241 1.28.24a2 2 0 001.17-.35 1.135 1.135 0 00.47-1 .842.842 0 00-.15-.5 1.33 1.33 0 00-.4-.38 3.048 3.048 0 00-.57-.26l-.68-.22-.84-.25a3.526 3.526 0 01-.76-.34 1.878 1.878 0 01-.54-.51 1.34 1.34 0 01-.21-.77 1.73 1.73 0 01.17-.76c.115-.224.27-.424.46-.59a2.35 2.35 0 01.71-.4c.294-.094.601-.141.91-.14.432.004.86.075 1.27.21.41.127.797.316 1.15.56l-.34.55a4.785 4.785 0 00-1-.5 3.55 3.55 0 00-1.1-.19 1.787 1.787 0 00-1.13.34 1.06 1.06 0 00-.42.85c0 .176.055.348.16.49.12.139.261.258.42.35.196.104.4.191.61.26l.71.22.82.26c.257.083.5.205.72.36.21.137.387.318.52.53.135.23.201.494.19.76A1.781 1.781 0 0153 215a2.475 2.475 0 01-.75.41 3.066 3.066 0 01-.93.09zm16.75-.02a2.57 2.57 0 01-.75-.1 1.647 1.647 0 01-1.02-.93 2.17 2.17 0 01-.15-.84v-4.47h-1v-.6h1v-2.18h.66v2.18h2.4v.6h-2.4v4.39a1.253 1.253 0 00.38 1c.29.21.643.312 1 .29.163.02.327.02.49 0 .178-.041.352-.098.52-.17v.61c-.17.076-.348.137-.53.18-.198.037-.4.05-.6.04zm26.47-6.94h.76l2.58 6.09 2.61-6.09h.73l-3.06 6.88h-.56l-3.06-6.88zm21.54 6.98a3.37 3.37 0 01-1.4-.28 3.792 3.792 0 01-1.11-.77 3.517 3.517 0 01-.72-1.13 3.47 3.47 0 01-.27-1.36 3.52 3.52 0 01.27-1.37 3.48 3.48 0 01.73-1.13c.321-.33.701-.598 1.12-.79a3.421 3.421 0 011.4-.28 3.37 3.37 0 011.4.28c.413.188.789.449 1.11.77.31.327.555.711.72 1.13.181.431.272.893.27 1.36a3.52 3.52 0 01-.27 1.37 3.48 3.48 0 01-.73 1.13c-.321.33-.701.598-1.12.79a3.405 3.405 0 01-1.4.28zm0-.63c.389.007.775-.072 1.13-.23.335-.144.635-.359.88-.63a2.83 2.83 0 00.58-.92c.141-.36.212-.743.21-1.13a3.12 3.12 0 00-.21-1.15 2.827 2.827 0 00-1.5-1.57 2.767 2.767 0 00-1.11-.22 2.672 2.672 0 00-2 .86 2.83 2.83 0 00-.58.92c-.141.36-.212.743-.21 1.13-.005.394.07.785.22 1.15a2.787 2.787 0 001.49 1.57c.354.15.735.225 1.12.22h-.02zm18.17.63a3.18 3.18 0 01-1.15-.2 2.538 2.538 0 01-.87-.59 2.48 2.48 0 01-.53-.89 3.393 3.393 0 01-.18-1.13v-4.17h.65v4.05c-.032.615.172 1.22.57 1.69a2.005 2.005 0 001.6.64 2.41 2.41 0 00.93-.18c.282-.118.54-.287.76-.5.215-.222.385-.483.5-.77.124-.318.186-.658.18-1v-4h.66v6.82h-.66v-1.27c-.236.398-.557.74-.94 1a2.62 2.62 0 01-1.52.5zm17.85-.02a4.42 4.42 0 01-1.5-.28 4.665 4.665 0 01-1.3-.73l.39-.52a4.32 4.32 0 001.18.66c.404.159.835.241 1.27.24a2 2 0 001.17-.35 1.13 1.13 0 00.47-1 .92.92 0 00-.14-.5 1.515 1.515 0 00-.41-.38 2.768 2.768 0 00-.57-.26l-.68-.22-.84-.25a3.524 3.524 0 01-.76-.34 1.875 1.875 0 01-.54-.51 1.418 1.418 0 01-.2-.77c-.005-.262.05-.522.16-.76.115-.224.271-.424.46-.59.211-.174.452-.309.71-.4.294-.094.601-.141.91-.14.432.004.86.075 1.27.21.413.127.804.316 1.16.56l-.35.55a4.54 4.54 0 00-1-.5 3.489 3.489 0 00-1.09-.19 1.774 1.774 0 00-1.13.34 1.078 1.078 0 00-.43.85.816.816 0 00.16.49c.121.142.267.26.43.35.194.108.398.195.61.26l.71.22.81.26c.257.083.499.205.72.36.209.137.387.318.52.53.135.23.201.494.19.76a1.784 1.784 0 01-.68 1.44 2.269 2.269 0 01-.75.41 2.993 2.993 0 01-.93.2zm34.21-1.66a7.534 7.534 0 01-.5.64 3.14 3.14 0 01-.62.53 2.693 2.693 0 01-.76.37c-.3.1-.614.147-.93.14a3.302 3.302 0 01-2.27-.93 3.583 3.583 0 01-.76-1.12 3.737 3.737 0 01-.29-1.49 3.621 3.621 0 011.05-2.62c.306-.3.666-.541 1.06-.71a3.219 3.219 0 011.21-.24c.318-.005.635.039.94.13.272.085.53.206.77.36.223.149.428.323.61.52.181.192.345.4.49.62v-1.47h.69v9h-.66l-.03-3.73zm-2.75 1a2.646 2.646 0 001-.21 2.68 2.68 0 00.89-.6c.266-.268.479-.584.63-.93a3 3 0 00.23-1.19 3.087 3.087 0 00-.23-1.2 2.879 2.879 0 00-.63-.92 2.68 2.68 0 00-.89-.6 2.77 2.77 0 00-2.09 0 2.36 2.36 0 00-.85.57 2.753 2.753 0 00-.57.92c-.145.39-.216.804-.21 1.22-.005.416.066.83.21 1.22.138.344.338.659.59.93.244.253.536.454.86.59.331.16.693.245 1.06.25v-.05zm18.53.68a3.18 3.18 0 01-1.15-.2 2.538 2.538 0 01-.87-.59 2.48 2.48 0 01-.53-.89 3.393 3.393 0 01-.18-1.13v-4.17h.64v4.05c-.032.615.172 1.22.57 1.69a2.005 2.005 0 001.6.64 2.41 2.41 0 00.93-.18c.282-.118.54-.287.76-.5.215-.222.385-.483.5-.77.124-.318.186-.658.18-1v-4h.66v6.82h-.66v-1.27a3.264 3.264 0 01-.94 1 2.619 2.619 0 01-1.51.5zm15.65-9.66h.82v.9h-.82v-.9zm.08 2.68h.66v6.82h-.66v-6.82zm26.63 0h.76l2.58 6.09 2.61-6.09h.74l-3.06 6.88h-.57l-3.06-6.88zm21.55 6.98a3.405 3.405 0 01-1.4-.28 3.733 3.733 0 01-1.1-.77 3.551 3.551 0 01-.73-1.13 3.713 3.713 0 010-2.73c.171-.421.423-.805.74-1.13.318-.33.694-.598 1.11-.79a3.451 3.451 0 011.41-.28c.481-.007.958.089 1.4.28.41.188.783.449 1.1.77.313.327.561.71.73 1.13a3.713 3.713 0 010 2.73 3.513 3.513 0 01-.74 1.13 3.567 3.567 0 01-1.11.79 3.451 3.451 0 01-1.41.28zm0-.63a2.563 2.563 0 002-.89 2.83 2.83 0 00.58-.92 3.143 3.143 0 00-.01-2.28 2.693 2.693 0 00-.6-.94 2.623 2.623 0 00-.9-.63A2.717 2.717 0 00266 209a2.603 2.603 0 00-1.12.23 2.723 2.723 0 00-.89.63 3.01 3.01 0 00-.58.92 3.072 3.072 0 00-.2 1.13 3.12 3.12 0 00.21 1.15c.132.352.337.672.6.94.252.271.559.486.9.63.338.16.706.249 1.08.26zm16.4 2.65a2.998 2.998 0 01-.7-.07 4.252 4.252 0 01-.65-.23l.22-.58c.166.082.34.146.52.19.214.044.432.064.65.06a1.3 1.3 0 00.49-.08 1.12 1.12 0 00.43-.27c.147-.153.277-.32.39-.5a5.8 5.8 0 00.37-.75l-3.28-6.77h.77l2.83 6.1 2.47-6.1h.72l-3 7.06a3.683 3.683 0 01-1 1.51 2 2 0 01-1.23.43zm19.96-2.02a3.303 3.303 0 01-2.36-.97 3.507 3.507 0 01-.73-1.13A3.753 3.753 0 01299 212a3.77 3.77 0 01.93-2.52c.281-.316.62-.574 1-.76.4-.19.837-.286 1.28-.28.448-.008.892.084 1.3.27.385.178.726.437 1 .76.277.335.491.718.63 1.13.152.454.227.931.22 1.41v.14a.706.706 0 010 .13h-5.66c.021.391.116.775.28 1.13.148.314.351.598.6.84.241.225.523.401.83.52a2.65 2.65 0 001 .18c.471.015.939-.088 1.36-.3a4.115 4.115 0 001-.77l.45.4c-.34.375-.738.693-1.18.94a3.407 3.407 0 01-1.68.3zm2.32-3.89a4.114 4.114 0 00-.21-1 2.748 2.748 0 00-.47-.84 2.2 2.2 0 00-.75-.59 2.232 2.232 0 00-1-.22 2.31 2.31 0 00-1.77.76 3.005 3.005 0 00-.55.84 3.23 3.23 0 00-.25 1l5 .05zm12.17 3.37l4.93-5.86H317v-.59h5.71v.37l-4.92 5.86h4.92v.59h-5.9l.04-.37z" fill="#fff"/><defs><linearGradient id="paint0_linear" x1="163.27" y1="43.28" x2="177.47" y2="51.55" gradientUnits="userSpaceOnUse"><stop stop-color="#1D1D1B"/><stop offset="1" stop-color="#1D1D1B" stop-opacity="0"/></linearGradient></defs></svg>