<svg width="56" height="20" fill="none" xmlns="http://www.w3.org/2000/svg"><path fill-rule="evenodd" clip-rule="evenodd" d="M0 8.646V.021h8.772V6.49H6.586v2.156H0zM10.966 6.49V2.176h6.578v6.47h-4.38V6.49h-2.198zm39.287-.086l-3.355 7.77h2.297l.563-1.377h3.04l.575 1.378h2.341L52.36 6.404h-2.105zm1.915 4.729l-.879-2.194-.889 2.194h1.768zm-11.72-4.674v1.874h2.364v5.841h2.184V8.333h2.364V6.459h-6.912zm-7.104 7.796V6.486h6.08v1.832h-4.007v1.177h3.63v1.698h-3.63v1.231h4.062v1.831h-6.136.001zM29.29 6.486l-1.871 3.008-1.87-3.008H23.25v7.77h2.129v-4.44l1.994 3.02h.045l2.006-3.042v4.461h2.162V6.486H29.29zm-18.326 4.317H8.775V8.646h2.188v2.157zm2.202 0v2.157h-2.2v6.469h8.773v-8.627h-6.573zm-10.972 6.47v-6.471h4.392v2.157h2.187v4.313h-6.58z" fill="#E3E6E8"/></svg>