<svg width="1799" height="866" fill="none" xmlns="http://www.w3.org/2000/svg"><g opacity=".1"><path d="M1514.91 325.235h169.01l-84.45-169.117 49.1-98.225 145.79 291.521a44.013 44.013 0 014.6 21.626 43.955 43.955 0 01-6.52 21.126 43.959 43.959 0 01-15.98 15.276 43.913 43.913 0 01-21.39 5.558H1443.9a43.885 43.885 0 01-21.38-5.57 43.963 43.963 0 01-15.97-15.279 44.032 44.032 0 01-6.51-21.12 43.98 43.98 0 014.6-21.617L1579.3 0h98.21l-162.6 325.235z" fill="#69C0AC"/><path style="mix-blend-mode:multiply" opacity=".59" d="M1684.02 325.235l-84.55-169.117 49.1-98.225 145.79 291.624-110.34-24.282z" fill="url(#paint0_linear)"/></g><g opacity=".1"><path d="M114.911 778.235h169.007l-84.452-169.117 49.101-98.225 145.794 291.521a43.951 43.951 0 01-1.922 42.752A43.933 43.933 0 01355.066 866H43.899A43.923 43.923 0 01.044 824.031a43.942 43.942 0 014.595-21.617L179.304 453h98.202L114.911 778.235z" fill="#69C0AC"/><path style="mix-blend-mode:multiply" opacity=".59" d="M284.021 778.235l-84.555-169.117 49.101-98.225 145.794 291.624-110.34-24.282z" fill="url(#paint1_linear)"/></g><defs><linearGradient id="paint0_linear" x1="1592.27" y1="148.436" x2="1640.96" y2="176.789" gradientUnits="userSpaceOnUse"><stop stop-color="#1D1D1B"/><stop offset="1" stop-color="#1D1D1B" stop-opacity="0"/></linearGradient><linearGradient id="paint1_linear" x1="192.265" y1="601.436" x2="240.961" y2="629.789" gradientUnits="userSpaceOnUse"><stop stop-color="#1D1D1B"/><stop offset="1" stop-color="#1D1D1B" stop-opacity="0"/></linearGradient></defs></svg>