<svg xmlns="http://www.w3.org/2000/svg" width="89.442" height="89.44" viewBox="0 0 89.442 89.44">
  <defs>
    <style>
      .cls-1 {
        fill: #fff;
        fill-rule: evenodd;
      }
    </style>
  </defs>
  <path class="cls-1" d="M1043.28,1674.37a44.749,44.749,0,0,0-51.759-8.32,45.034,45.034,0,0,0-12.687,9.58l0.77-4.62a1.449,1.449,0,1,0-2.858-.48l-1.545,9.27a1.444,1.444,0,0,0,.4,1.26,1.429,1.429,0,0,0,1.024.43,1.91,1.91,0,0,0,.238-0.02l9.272-1.55a1.445,1.445,0,1,0-.476-2.85l-4.984.83a42.042,42.042,0,0,1,12.147-9.26,41.831,41.831,0,0,1,60.653,37.35,41.93,41.93,0,0,1-4.77,19.42,1.441,1.441,0,0,0,.61,1.95,1.336,1.336,0,0,0,.67.17,1.446,1.446,0,0,0,1.28-.77A44.776,44.776,0,0,0,1043.28,1674.37Zm4.43,56.55a1.47,1.47,0,0,0-1.26-.41l-9.28,1.55a1.45,1.45,0,0,0,.48,2.86l4.98-.83a41.829,41.829,0,0,1-68.023-47.52,1.447,1.447,0,0,0-2.565-1.34,44.726,44.726,0,0,0,72.438,51.14l-0.77,4.61a1.44,1.44,0,0,0,1.19,1.66,0.974,0.974,0,0,0,.24.02,1.448,1.448,0,0,0,1.43-1.21l1.54-9.27A1.435,1.435,0,0,0,1047.71,1730.92Zm-19.99-29.93a2.206,2.206,0,0,0-1.91-1.08h-10.5l6.97-18.13a1.457,1.457,0,0,0-.16-1.34,1.438,1.438,0,0,0-1.19-.62h-15.45a1.456,1.456,0,0,0-1.42,1.13l-5.971,26.88a2.219,2.219,0,0,0,2.171,2.7h9.77l-2.9,24.66a1.451,1.451,0,0,0,1,1.55,1.611,1.611,0,0,0,.44.06,1.463,1.463,0,0,0,1.27-.75l17.92-32.86A2.215,2.215,0,0,0,1027.72,1700.99Zm-16.84,27.1,2.22-18.84a1.5,1.5,0,0,0-.36-1.13,1.458,1.458,0,0,0-1.08-.49H1001.1l5.54-24.92h12.18l-6.97,18.12a1.474,1.474,0,0,0,.16,1.35,1.452,1.452,0,0,0,1.19.62h11.47Z" transform="translate(-966.938 -1661.28)"/>
</svg>
