<svg xmlns="http://www.w3.org/2000/svg" width="75.063" height="75.06" viewBox="0 0 75.063 75.06">
  <defs>
    <style>
      .cls-1 {
        fill: #fff;
        fill-rule: evenodd;
      }
    </style>
  </defs>
  <path id="Forma_1" data-name="Forma 1" class="cls-1" d="M454.913,1721.46l-7,10.06-4.94-4.06a1.253,1.253,0,0,0-1.587,1.94l5.988,4.91a1.225,1.225,0,0,0,.793.29c0.056,0,.114-0.01.171-0.01a1.258,1.258,0,0,0,.856-0.53l7.774-11.17A1.251,1.251,0,0,0,454.913,1721.46Zm-26.5-20.53v-12.69a1.251,1.251,0,0,0-2.5,0v12.69a5,5,0,0,0-3.623,3.73h-8.887a1.25,1.25,0,1,0,0,2.5h8.982A4.991,4.991,0,1,0,428.417,1700.93Zm-1.251,7.33a2.5,2.5,0,1,1,2.5-2.5A2.5,2.5,0,0,1,427.166,1708.26Zm0-27.52a1.253,1.253,0,0,0,1.251-1.26v-1.25a1.251,1.251,0,0,0-2.5,0v1.25A1.253,1.253,0,0,0,427.166,1680.74Zm0,50.04a1.251,1.251,0,0,0-1.251,1.25v1.25a1.251,1.251,0,0,0,2.5,0v-1.25A1.251,1.251,0,0,0,427.166,1730.78Zm26.272-23.77h1.251a1.25,1.25,0,1,0,0-2.5h-1.251A1.25,1.25,0,1,0,453.438,1707.01Zm-52.543-2.5h-1.251a1.25,1.25,0,1,0,0,2.5H400.9A1.25,1.25,0,1,0,400.9,1704.51Zm44.848-16.08a1.226,1.226,0,0,0,.884-0.37l0.885-.88a1.251,1.251,0,1,0-1.769-1.77l-0.885.88a1.251,1.251,0,0,0,0,1.77A1.226,1.226,0,0,0,445.743,1688.43Zm-38.037,35.02-0.885.89a1.239,1.239,0,0,0,0,1.76,1.242,1.242,0,0,0,1.769,0l0.885-.88A1.251,1.251,0,1,0,407.706,1723.45Zm0.884-38.04a1.251,1.251,0,0,0-1.769,1.77l0.885,0.88a1.242,1.242,0,0,0,1.769,0,1.251,1.251,0,0,0,0-1.77Zm56.107,20.5a37.55,37.55,0,1,0-24.583,35.22,16.23,16.23,0,0,0,22.268-22.27A37.38,37.38,0,0,0,464.7,1705.91Zm-27.053,33.43a35.029,35.029,0,1,1,22.948-22.95c-0.1-.11-0.209-0.21-0.309-0.32-0.205-.22-0.414-0.43-0.632-0.64q-0.294-.285-0.6-0.54c-0.2-.18-0.4-0.34-0.609-0.5-0.229-.18-0.459-0.36-0.7-0.53-0.2-.14-0.413-0.27-0.624-0.41-0.249-.15-0.5-0.31-0.756-0.46-0.223-.12-0.452-0.23-0.681-0.35-0.255-.12-0.509-0.25-0.77-0.37s-0.522-.21-0.786-0.31c-0.246-.09-0.489-0.19-0.739-0.27-0.3-.09-0.618-0.17-0.93-0.25-0.222-.06-0.44-0.12-0.665-0.17-0.371-.08-0.75-0.13-1.129-0.18a4.739,4.739,0,0,0-.528-0.08,15.941,15.941,0,0,0-1.7-.1,16.243,16.243,0,0,0-16.172,17.97c0.019,0.18.056,0.36,0.081,0.54,0.053,0.37.1,0.75,0.182,1.12,0.047,0.23.116,0.45,0.173,0.67,0.079,0.31.154,0.62,0.252,0.92,0.081,0.26.181,0.5,0.274,0.75s0.191,0.52.3,0.78,0.246,0.52.376,0.78c0.113,0.22.224,0.45,0.347,0.67,0.146,0.26.305,0.51,0.465,0.76,0.131,0.21.263,0.42,0.4,0.62,0.169,0.24.347,0.47,0.529,0.7,0.16,0.21.323,0.41,0.492,0.6,0.18,0.21.364,0.41,0.554,0.61s0.415,0.42.631,0.62C437.432,1739.12,437.53,1739.24,437.644,1739.34Zm10.79,1.6a13.728,13.728,0,0,1-7.543-2.26,13.4,13.4,0,0,1-1.306-.98c-0.075-.06-0.145-0.13-0.219-0.19-0.311-.28-0.609-0.56-0.893-0.86-0.125-.13-0.246-0.27-0.365-0.4-0.225-.26-0.439-0.53-0.645-0.8-0.111-.14-0.226-0.29-0.331-0.44q-0.384-.555-0.712-1.14c-0.056-.1-0.111-0.2-0.166-0.31a11.929,11.929,0,0,1-.564-1.21c-0.066-.16-0.121-0.33-0.181-0.49-0.118-.33-0.229-0.66-0.322-1-0.049-.18-0.1-0.35-0.137-0.53-0.084-.36-0.15-0.72-0.2-1.08-0.024-.16-0.055-0.32-0.074-0.48a14.138,14.138,0,0,1-.1-1.59,13.775,13.775,0,0,1,13.762-13.76,12.015,12.015,0,0,1,1.59.1,3.922,3.922,0,0,1,.479.07,9.864,9.864,0,0,1,1.078.21c0.179,0.04.357,0.08,0.533,0.13,0.338,0.1.671,0.21,1,.32,0.165,0.06.331,0.12,0.492,0.19a11.086,11.086,0,0,1,1.208.56c0.106,0.05.211,0.11,0.315,0.17a13.116,13.116,0,0,1,1.135.71c0.152,0.1.3,0.22,0.444,0.33,0.271,0.2.536,0.42,0.792,0.64,0.136,0.12.271,0.25,0.4,0.37,0.3,0.28.583,0.58,0.857,0.89,0.065,0.08.136,0.15,0.2,0.22a13.137,13.137,0,0,1,.971,1.31,13.618,13.618,0,0,1,2.266,7.54A13.775,13.775,0,0,1,448.434,1740.94Z" transform="translate(-389.625 -1668.38)"/>
</svg>
