<svg xmlns="http://www.w3.org/2000/svg" width="81.406" height="71.84" viewBox="0 0 81.406 71.84">
  <defs>
    <style>
      .cls-1 {
        fill: #fff;
        fill-rule: evenodd;
      }
    </style>
  </defs>
  <path id="Forma_1" data-name="Forma 1" class="cls-1" d="M272.6,1703.36a3.261,3.261,0,0,0-2.377-1.04h-0.267a13.79,13.79,0,0,0-6.395-19.56,13.74,13.74,0,0,0-27.478,0,3.571,3.571,0,0,0-.864-0.11,3.768,3.768,0,0,0-3.076,1.6l-0.342.49a1.011,1.011,0,0,1-1.254.34l-0.539-.25a3.727,3.727,0,0,0-3.464.16,3.776,3.776,0,0,0-1.867,2.93l-0.054.6a3.367,3.367,0,0,1-.235.82,1.017,1.017,0,0,1-.574-0.83l-0.053-.59a3.7,3.7,0,0,0-1.606-2.73l4.327-6.17a5.51,5.51,0,1,0-8.993-6.37l-7.92,11.3a5.511,5.511,0,0,0-.62,1.2,0.748,0.748,0,0,1-.405-0.07l-0.539-.25a3.727,3.727,0,0,0-3.464.16,3.778,3.778,0,0,0-1.865,2.93l-0.054.6a1.018,1.018,0,0,1-.919.92l-0.591.05a3.753,3.753,0,0,0-2.92,1.88,3.8,3.8,0,0,0-.156,3.48l0.249,0.54a1.017,1.017,0,0,1-.337,1.26l-0.485.34a3.808,3.808,0,0,0-1.6,3.1,3.752,3.752,0,0,0,.759,2.23h-1.292a3.263,3.263,0,0,0-2.378,1.04,3.327,3.327,0,0,0-.878,2.48c0.814,12.09,8.464,18.15,19.7,23.55a6.4,6.4,0,0,1,2.918,2.82,4.183,4.183,0,0,1-.267,4.03,3.124,3.124,0,0,0-.044,3.17,3.083,3.083,0,0,0,2.723,1.59h31.337a3.084,3.084,0,0,0,2.723-1.59,3.129,3.129,0,0,0-.058-3.19,4.175,4.175,0,0,1-.253-4.01,6.387,6.387,0,0,1,2.918-2.82c11.236-5.4,18.888-11.46,19.7-23.55A3.336,3.336,0,0,0,272.6,1703.36Zm-3.527-7.94a11.024,11.024,0,0,1-2.431,6.9h-7.194v-5.52a1.375,1.375,0,1,0-2.75,0v5.52h-4.856a3.336,3.336,0,0,0,.3-0.48,0.034,0.034,0,0,0,.013-0.02,3.584,3.584,0,0,0,.278-0.74c0.018-.06.033-0.12,0.047-0.19a3.821,3.821,0,0,0,.1-0.8,3.779,3.779,0,0,0-1.595-3.09l-0.316-.23c0.11,0,.216-0.02.324-0.03,0.165-.01.33-0.03,0.494-0.05,0.271-.04.539-0.08,0.8-0.13,0.157-.02.315-0.05,0.471-0.08,0.286-.07.567-0.14,0.847-0.22,0.125-.04.251-0.07,0.375-0.11,0.392-.13.776-0.26,1.151-0.42,0.1-.05.2-0.1,0.3-0.15,0.272-.12.543-0.25,0.806-0.39,0.147-.08.29-0.16,0.433-0.25,0.21-.12.419-0.24,0.623-0.38q0.226-.15.447-0.3c0.185-.14.368-0.28,0.547-0.42,0.147-.11.293-0.23,0.435-0.35,0.169-.14.33-0.3,0.492-0.45,0.139-.13.279-0.26,0.412-0.39,0.153-.16.295-0.32,0.439-0.49a10.851,10.851,0,0,0,.778-0.96c0.087-.11.179-0.23,0.263-0.35,0.15-.22.287-0.44,0.425-0.66,0.069-.12.14-0.23,0.206-0.35,0.139-.24.267-0.48,0.391-0.73,0.048-.1.1-0.2,0.143-0.3q0.192-.42.357-0.84c0.023-.06.046-0.12,0.068-0.19a13.856,13.856,0,0,0,.6-2.07A11.044,11.044,0,0,1,269.069,1695.42Zm-19.251-23.49a11.04,11.04,0,0,1,11,11.05c0,0.21-.018.42-0.031,0.62a0.062,0.062,0,0,0,0,.02,10.959,10.959,0,0,1-1.024,4.06,0.158,0.158,0,0,1-.017.04c-0.134.29-.283,0.56-0.441,0.83a0.894,0.894,0,0,1-.056.1c-0.147.25-.307,0.49-0.473,0.73l-0.106.15c-0.156.21-.322,0.42-0.492,0.62-0.054.06-.106,0.12-0.161,0.19-0.161.18-.332,0.35-0.5,0.52-0.071.07-.142,0.15-0.216,0.22-0.165.15-.338,0.3-0.513,0.44-0.089.08-.177,0.15-0.269,0.22-0.169.13-.344,0.25-0.52,0.38-0.106.07-.21,0.14-0.32,0.21-0.172.11-.35,0.21-0.527,0.31-0.121.07-.242,0.14-0.366,0.2-0.173.09-.352,0.17-0.529,0.25-0.136.06-.271,0.12-0.41,0.17-0.175.07-.354,0.13-0.532,0.19-0.15.05-.3,0.11-0.45,0.15-0.173.05-.352,0.09-0.529,0.13s-0.326.08-.493,0.11a4.583,4.583,0,0,1-.519.08c-0.178.03-.354,0.05-0.532,0.07h-0.106c0-.02,0-0.03,0-0.05a3.69,3.69,0,0,0,.055-0.76c0-.08-0.011-0.16-0.018-0.24a3.582,3.582,0,0,0-.1-0.58,2.265,2.265,0,0,0-.059-0.23,3.688,3.688,0,0,0-3.241-2.63l-0.593-.06a1.01,1.01,0,0,1-.824-0.58l2.939-2.95a1.377,1.377,0,1,0-1.944-1.95l-1.962,1.97a3.709,3.709,0,0,0-1.047-.94,3.6,3.6,0,0,0-.876-0.36,1.634,1.634,0,0,0-.308-0.05,4.336,4.336,0,0,0-.619-0.09c-0.026,0-.052-0.01-0.078-0.01a3.728,3.728,0,0,0-.47.05c-0.1.02-.2,0.02-0.292,0.04a3.5,3.5,0,0,0-.821.26l-0.536.25a0.925,0.925,0,0,1-.43.09c-0.009,0-.015-0.01-0.024-0.01a1.054,1.054,0,0,1-.42-0.12A11.015,11.015,0,0,1,249.818,1671.93Zm-22.46,16.84,0.054-.6a1.013,1.013,0,0,1,.5-0.79,0.966,0.966,0,0,1,.932-0.04l0.542,0.25a3.751,3.751,0,0,0,4.656-1.25l0.342-.49a1.04,1.04,0,0,1,1.659,0l0.342,0.49a3.749,3.749,0,0,0,2.966,1.58h0.04a2.79,2.79,0,0,0,.5-0.02,0.948,0.948,0,0,0,.234-0.04c0.113-.02.224-0.03,0.336-0.06a4.143,4.143,0,0,0,.583-0.21l0.537-.25a0.967,0.967,0,0,1,.933.04,1,1,0,0,1,.5.79l0.053,0.59a3.783,3.783,0,0,0,3.41,3.43l0.592,0.05a1.008,1.008,0,0,1,.788.51,1,1,0,0,1,.042.93l-0.253.55c-0.011.02-.015,0.05-0.025,0.07a3.8,3.8,0,0,0,.193,3.4,0.164,0.164,0,0,1,.025.04c0.074,0.12.152,0.24,0.242,0.36a1.96,1.96,0,0,0,.154.19,2.676,2.676,0,0,0,.206.23,3.007,3.007,0,0,0,.455.38l0.488,0.35a1.027,1.027,0,0,1,0,1.67l-0.489.34a0.011,0.011,0,0,1-.013.01,3.753,3.753,0,0,0-.5.44c-0.06.06-.112,0.13-0.169,0.19a3.6,3.6,0,0,0-.235.31c-0.027.04-.063,0.07-0.089,0.11H229.837a3.433,3.433,0,0,0,.3-0.48s0.008-.01.012-0.01a3.907,3.907,0,0,0,.279-0.75c0.018-.06.032-0.12,0.046-0.19a3.822,3.822,0,0,0,.1-0.8h0a3.81,3.81,0,0,0-.061-0.52,3.461,3.461,0,0,0-.047-0.38,4.249,4.249,0,0,0-1.488-2.19l-0.487-.35a1.009,1.009,0,0,1-.335-1.25l0.251-.55a3.6,3.6,0,0,0,.264-0.82c0.018-.09.018-0.17,0.029-0.25a3.786,3.786,0,0,0,.044-0.6c0-.1-0.019-0.21-0.03-0.31a3.9,3.9,0,0,0-.087-0.53c-0.029-.11-0.067-0.22-0.105-0.33-0.034-.09-0.05-0.19-0.089-0.28-0.023-.05-0.064-0.09-0.09-0.14-0.035-.07-0.053-0.15-0.091-0.22a3.544,3.544,0,0,0-.259-0.34,3.288,3.288,0,0,0-.214-0.29,3.573,3.573,0,0,0-.554-0.49,1.761,1.761,0,0,0-.165-0.15A5.868,5.868,0,0,0,227.358,1688.77Zm-7.623-14.52a2.753,2.753,0,0,1,4.5,3.18l-5.364,7.65h0l-2.556,3.64a2.747,2.747,0,0,1-3.831.67s-0.005,0-.007-0.01a3.048,3.048,0,0,1-.512-0.48c-0.038-.05-0.074-0.1-0.11-0.15a2.665,2.665,0,0,1-.327-0.58,0.124,0.124,0,0,1-.019-0.04,2.66,2.66,0,0,1-.159-0.68c-0.006-.06-0.009-0.12-0.013-0.18a2.72,2.72,0,0,1,.044-0.71,2.76,2.76,0,0,1,.437-1.02Zm-20.207,27.01-0.487-.34a1.026,1.026,0,0,1,0-1.67l0.484-.34a3.786,3.786,0,0,0,1.25-4.68l-0.249-.54a1.026,1.026,0,0,1,.83-1.45l0.589-.05a3.774,3.774,0,0,0,3.412-3.43l0.054-.59a1.01,1.01,0,0,1,1.434-.83l0.542,0.25a3.57,3.57,0,0,0,1.233.32c0,0.03.017,0.06,0.022,0.09s0,0.05.006,0.07c0.027,0.16.085,0.3,0.125,0.46a5.038,5.038,0,0,0,.146.53,5.865,5.865,0,0,0,.277.59c0.066,0.13.117,0.26,0.194,0.39a5.457,5.457,0,0,0,.465.61c0.07,0.09.125,0.18,0.2,0.26a5.668,5.668,0,0,0,.84.74,5.044,5.044,0,0,0,.854.48c0.094,0.05.189,0.08,0.285,0.12,0.21,0.08.423,0.15,0.642,0.21,0.11,0.03.219,0.06,0.331,0.08q0.35,0.06.706,0.09a2.363,2.363,0,0,1,.265.02h0.069a6.177,6.177,0,0,0,.956-0.08,5.5,5.5,0,0,0,3.557-2.26l2.023-2.88a0.967,0.967,0,0,1,.437.74l0.054,0.59a3.783,3.783,0,0,0,3.41,3.43l0.591,0.05a1.056,1.056,0,0,1,.352.12,0.921,0.921,0,0,1,.155.09,0.96,0.96,0,0,1,.192.2c0.035,0.05.075,0.09,0.1,0.14a1.033,1.033,0,0,1,.119.41c0,0.01,0,.02,0,0.02a1.01,1.01,0,0,1-.091.46l-0.251.54a3.8,3.8,0,0,0-.333,1.94,0.142,0.142,0,0,1,0,.02,3.765,3.765,0,0,0,1.576,2.72l0.334,0.24,0.152,0.11a1.036,1.036,0,0,1,.32,1.31,1.213,1.213,0,0,1-.093.1,1.073,1.073,0,0,1-.227.26l-0.017.01-0.471.33a3.933,3.933,0,0,0-.521.46c-0.049.05-.089,0.11-0.135,0.16a4.479,4.479,0,0,0-.294.38c-0.015.02-.036,0.04-0.049,0.06H200.531A3.935,3.935,0,0,0,199.528,1701.26Zm53.06,25.63a9.2,9.2,0,0,0-4.176,4.05,6.973,6.973,0,0,0,.353,6.73,0.358,0.358,0,0,1,0,.38,0.353,0.353,0,0,1-.328.19H217.106a0.355,0.355,0,0,1-.329-0.19,0.382,0.382,0,0,1,.019-0.41,6.95,6.95,0,0,0,.34-6.7,9.2,9.2,0,0,0-4.175-4.05c-10.663-5.11-17.418-10.45-18.144-21.23a0.533,0.533,0,0,1,.145-0.41,0.47,0.47,0,0,1,.368-0.16h74.89a0.479,0.479,0,0,1,.369.16,0.526,0.526,0,0,1,.142.41C270,1716.44,263.25,1721.78,252.588,1726.89Zm-9.645,1.68H230.97a1.38,1.38,0,0,0,0,2.76h11.973A1.38,1.38,0,0,0,242.943,1728.57Zm-20.626,2.76h4.656a1.38,1.38,0,0,0,0-2.76h-4.656A1.38,1.38,0,0,0,222.317,1731.33Zm20.626,1.39H222.317a1.38,1.38,0,0,0,0,2.76h20.626A1.38,1.38,0,0,0,242.943,1732.72Zm3.959-50.71a1.38,1.38,0,1,0,1.944-1.96l-3.89-3.9a1.377,1.377,0,1,0-1.944,1.95Zm7.777,7.81a1.381,1.381,0,0,0,1.944,0,1.381,1.381,0,0,0,0-1.95l-3.89-3.91a1.377,1.377,0,1,0-1.944,1.95Zm-2.916-7.41a1.4,1.4,0,0,0,.972-0.4l3.89-3.91a1.377,1.377,0,1,0-1.944-1.95l-3.891,3.9A1.38,1.38,0,0,0,251.763,1682.41Zm7.681,11.62a1.38,1.38,0,0,0,1.375,1.39h5.5a1.385,1.385,0,0,0,0-2.77h-5.5A1.378,1.378,0,0,0,259.444,1694.03Zm-25.439.69a1.36,1.36,0,0,0,.972-0.4l2.063-2.07a1.392,1.392,0,0,0,0-1.96,1.369,1.369,0,0,0-1.944,0l-2.063,2.08a1.38,1.38,0,0,0,0,1.95A1.36,1.36,0,0,0,234.005,1694.72Zm6.591,3.05a1.377,1.377,0,1,0,1.944-1.95l-1.375-1.38a1.377,1.377,0,1,0-1.944,1.95Zm-5.5-.57-1.375,1.38a1.392,1.392,0,0,0,0,1.96,1.381,1.381,0,0,0,1.944,0l1.375-1.38a1.392,1.392,0,0,0,0-1.96A1.369,1.369,0,0,0,235.1,1697.2Z" transform="translate(-192.063 -1669.16)"/>
</svg>
