<svg xmlns="http://www.w3.org/2000/svg" width="82.688" height="76.41" viewBox="0 0 82.688 76.41">
  <defs>
    <style>
      .cls-1 {
        fill: #fff;
        fill-rule: evenodd;
      }
    </style>
  </defs>
  <path id="Forma_1" data-name="Forma 1" class="cls-1" d="M858.728,1690.53c-1.207-13.2-10.611-22.78-22.38-22.78a22.272,22.272,0,0,0-19.061,10.91,21.472,21.472,0,0,0-18.6-10.91c-11.768,0-21.174,9.58-22.38,22.78a23.389,23.389,0,0,0,.7,8.66,37.078,37.078,0,0,0,11.45,18.98l28.811,25.98,29.306-25.98a37.078,37.078,0,0,0,11.45-18.98A23.4,23.4,0,0,0,858.728,1690.53Zm-3.8,7.93a33.9,33.9,0,0,1-10.481,17.36l-27.159,24.08L790.6,1715.83a33.967,33.967,0,0,1-10.491-17.37,20.427,20.427,0,0,1-.662-7.43l0.024-.16c1.034-11.56,9.115-19.96,19.218-19.96,7.454,0,14.017,4.55,17.131,11.88l1.464,3.45,1.465-3.45a19.208,19.208,0,0,1,17.605-11.88c10.1,0,18.184,8.4,19.238,20.11A20.359,20.359,0,0,1,854.927,1698.46Zm-53.315-21.11a15.874,15.874,0,0,0-15.9,15.81,1.591,1.591,0,0,0,3.181,0,12.7,12.7,0,0,1,12.724-12.65A1.58,1.58,0,1,0,801.612,1677.35Z" transform="translate(-776.156 -1667.75)"/>
</svg>
