<svg xmlns="http://www.w3.org/2000/svg" width="83.062" height="82.87" viewBox="0 0 83.062 82.87">
  <defs>
    <style>
      .cls-1 {
        fill: #fff;
        fill-rule: evenodd;
      }
    </style>
  </defs>
  <path class="cls-1" d="M629,1702.26a28.87,28.87,0,0,0-21.77.01,1.385,1.385,0,0,0,1.035,2.57,26.14,26.14,0,0,1,19.761.01,1.38,1.38,0,0,0,.487.09A1.384,1.384,0,0,0,629,1702.26Zm38.275,11.68h-4.644c-2.43-5.12-5.791-8.19-10.227-9.33l2.359-8.24a1.384,1.384,0,0,0-2.065-1.55l-10.211,6.37c-6.673-5.41-17.315-6.58-25.222-6.58a42.117,42.117,0,0,0-16.67,3.32,7.983,7.983,0,0,0-4.6-4.01c-3.286-1.36-7.517-1.6-9.632-.54a1.373,1.373,0,0,0-.766,1.23c0,2.24,0,6.91,4.153,6.91a1.385,1.385,0,1,0,0-2.77c-0.929,0-1.3-.79-1.37-3.15a13,13,0,0,1,6.555.87,5.315,5.315,0,0,1,3.163,2.66c-7.59,4.04-12.5,10.42-12.5,17.58a17.092,17.092,0,0,0,4.27,11.7l4.071,17.61a1.392,1.392,0,0,0,1.35,1.07h12.459a1.383,1.383,0,0,0,1.385-1.38v-4.97a38.1,38.1,0,0,0,18.793.96l3.633,4.83a1.386,1.386,0,0,0,1.108.56h9.691a1.383,1.383,0,0,0,1.384-1.38v-7.08c14.568-2.04,24.973-9.41,24.919-17.78v-5.52A1.385,1.385,0,0,0,667.271,1713.94Zm-1.384,6.91v0.01c0.05,7.06-10.138,13.59-23.7,15.19a1.379,1.379,0,0,0-1.223,1.37v6.9h-7.614l-3.738-4.97a1.386,1.386,0,0,0-1.383-.52,35.349,35.349,0,0,1-20-1.32,1.378,1.378,0,0,0-1.873,1.29v5.52h-9.973l-3.906-16.88a1.336,1.336,0,0,0-.33-0.62,14.226,14.226,0,0,1-3.788-10.11c0-10.66,12.963-19.34,28.9-19.34,10.943,0,19.524,2.33,24.159,6.55a1.394,1.394,0,0,0,1.666.15l8.02-5-1.779,6.21a1.38,1.38,0,0,0,1.121,1.74c4.5,0.69,7.679,3.5,10.015,8.86a1.4,1.4,0,0,0,1.271.83h4.153v4.14h0Zm-13.013-9.39-0.011-.01a1.383,1.383,0,1,0-1.65,2.22,1.415,1.415,0,0,0,.829.27A1.377,1.377,0,0,0,652.874,1711.46ZM617.7,1676.68a1.382,1.382,0,0,0-.2-0.02c-1.707-.07-2.59-0.73-2.582-1.34,0.009-.58.8-1.4,2.523-1.42,2.386,0,2.9.64,3.069,0.86a1.4,1.4,0,0,0,1.945.22,1.377,1.377,0,0,0,.223-1.94,5.347,5.347,0,0,0-3.853-1.83v-0.08a1.385,1.385,0,0,0-2.769,0v0.15c-2.532.5-3.881,2.26-3.906,4-0.029,1.93,1.545,3.95,5.125,4.14,2.271,0.45,2.982,1.26,2.955,1.57-0.036.41-1.006,1.16-2.789,1.19-2.132,0-2.51-.29-3.161-0.96a1.381,1.381,0,1,0-1.985,1.92,5.272,5.272,0,0,0,3.761,1.74v0.06a1.385,1.385,0,0,0,2.769,0v-0.14c2.355-.41,4.009-1.77,4.164-3.58C623.053,1680.41,622.879,1677.67,617.7,1676.68Zm-0.261-12.45a13.81,13.81,0,1,0,13.844,13.81A13.839,13.839,0,0,0,617.434,1664.23Zm0,24.86a11.05,11.05,0,1,1,11.075-11.05A11.077,11.077,0,0,1,617.434,1689.09Z" transform="translate(-585.594 -1664.22)"/>
</svg>
