<svg xmlns="http://www.w3.org/2000/svg" width="112.25" height="76.59" viewBox="0 0 112.25 76.59">
  <defs>
    <style>
      .cls-1 {
        fill: #fff;
        fill-rule: evenodd;
      }
    </style>
  </defs>
  <path id="Forma_1" data-name="Forma 1" class="cls-1" d="M1226.81,1687.97a1.807,1.807,0,0,0-.33,2.52,25.069,25.069,0,1,1-4.73-4.74,1.8,1.8,0,0,0,2.17-2.86,28.355,28.355,0,0,0-17.38-5.88,28.708,28.708,0,1,0,22.78,11.3A1.787,1.787,0,0,0,1226.81,1687.97Zm-20.27-20.53a38.29,38.29,0,1,0,38.21,38.29A38.286,38.286,0,0,0,1206.54,1667.44Zm0,72.99a34.7,34.7,0,1,1,34.62-34.7A34.7,34.7,0,0,1,1206.54,1740.43Zm-41.78-72.99a1.788,1.788,0,0,0-1.79,1.79v14.96h-3.58v-14.96a1.8,1.8,0,0,0-3.59,0v14.96h-3.58v-14.96a1.79,1.79,0,0,0-3.58,0v21.54a8.98,8.98,0,0,0,7.16,8.79v42.67a1.8,1.8,0,0,0,3.59,0v-42.67a8.98,8.98,0,0,0,7.16-8.79v-21.54A1.788,1.788,0,0,0,1164.76,1667.44Zm-7.17,28.71a5.38,5.38,0,0,1-5.37-5.38v-2.99h10.75v2.99A5.382,5.382,0,0,1,1157.59,1696.15Zm101.48-28.71a8.971,8.971,0,0,0-8.95,8.97v32.91a1.788,1.788,0,0,0,1.79,1.79h5.37v31.12a1.79,1.79,0,0,0,3.58,0v-73A1.788,1.788,0,0,0,1259.07,1667.44Zm-1.79,40.08h-3.58v-31.11a5.4,5.4,0,0,1,3.58-5.08v36.19Z" transform="translate(-1148.63 -1667.44)"/>
</svg>
