<svg width="360" height="410" fill="none" xmlns="http://www.w3.org/2000/svg"><mask id="a" maskUnits="userSpaceOnUse" x="0" y="0" width="360" height="410"><path fill-rule="evenodd" clip-rule="evenodd" d="M0 0h360v410H0V0z" fill="#fff"/></mask><g opacity=".1" fill="#fff" mask="url(#a)"><path d="M-1801.14-545.324l-2.49 2.492L-121.8 1139l2.492-2.49L-1801.14-545.324zm28.05 0l-2.49 2.492L-93.749 1139l2.492-2.49L-1773.09-545.324zm25.56 2.492l2.49-2.492L-63.206 1136.51l-2.492 2.49L-1747.53-542.832zm30.54-2.492l-2.49 2.492L-37.647 1139l2.492-2.49L-1716.99-545.324zm25.56 2.492l2.49-2.492L-7.104 1136.51l-2.491 2.49L-1691.43-542.832zm30.54-2.492l-2.49 2.492L18.455 1139l2.492-2.49L-1660.89-545.324zm25.56 2.492l2.5-2.492L48.998 1136.51l-2.491 2.49L-1635.33-542.832zm30.55-2.492l-2.49 2.492L74.558 1139l2.491-2.49L-1604.78-545.324zm25.56 2.492l2.49-2.492L105.1 1136.51l-2.491 2.49L-1579.22-542.832zm30.54-2.492l-2.49 2.492L130.66 1139l2.492-2.49L-1548.68-545.324zm25.56 2.492l2.49-2.492L161.203 1136.51l-2.492 2.49L-1523.12-542.832zm30.54-2.492l-2.49 2.492L186.762 1139l2.492-2.49L-1492.58-545.324zm25.56 2.492l2.49-2.492L217.305 1136.51l-2.492 2.49L-1467.02-542.832zm30.54-2.492l-2.49 2.492L242.864 1139l2.492-2.49L-1436.48-545.324zm25.56 2.492l2.49-2.492L273.407 1136.51l-2.492 2.49L-1410.92-542.832zm30.55-2.492l-2.5 2.492L298.967 1139l2.491-2.49L-1380.37-545.324zm25.55 2.492l2.5-2.492L329.509 1136.51l-2.492 2.49L-1354.82-542.832zm30.55-2.492l-2.49 2.492L355.068 1139l2.492-2.49-1681.83-1681.834zm25.56 2.492l2.49-2.492L385.611 1136.51l-2.491 2.49-1681.83-1681.832zm30.54-2.492l-2.49 2.492L411.171 1139l2.491-2.49L-1268.17-545.324zm25.56 2.492l2.49-2.492L441.713 1136.51l-2.491 2.49L-1242.61-542.832zm30.54-2.492l-2.49 2.492L467.273 1139l2.491-2.49L-1212.07-545.324zm25.56 2.492l2.49-2.492L497.815 1136.51l-2.491 2.49L-1186.51-542.832zm30.54-2.492l-2.49 2.492L523.375 1139l2.491-2.49L-1155.97-545.324zm25.56 2.492l2.5-2.492L553.918 1136.51l-2.492 2.49L-1130.41-542.832zm30.55-2.492l-2.5 2.492L579.477 1139l2.492-2.49L-1099.86-545.324zm25.56 2.492l2.49-2.492L610.02 1136.51l-2.492 2.49L-1074.3-542.832zm30.54-2.492l-2.49 2.492L635.579 1139l2.492-2.49L-1043.76-545.324zm25.56 2.492l2.49-2.492L666.122 1136.51l-2.492 2.49L-1018.2-542.832zm30.541-2.492l-2.492 2.492L691.681 1139l2.492-2.49L-987.659-545.324zm25.559 2.492l2.492-2.492L722.224 1136.51l-2.492 2.49L-962.1-542.832zm30.543-2.492l-2.492 2.492L747.784 1139l2.491-2.49L-931.557-545.324zm25.559 2.492l2.492-2.492L778.326 1136.51l-2.491 2.49L-905.998-542.832zm30.543-2.492l-2.492 2.492L803.886 1139l2.491-2.49L-875.455-545.324zm25.559 2.492l2.492-2.492L834.428 1136.51l-2.491 2.49L-849.896-542.832zm30.543-2.492l-2.492 2.492L859.988 1139l2.491-2.49L-819.353-545.324zm25.559 2.492l2.492-2.492L890.531 1136.51l-2.492 2.49L-793.794-542.832zm30.543-2.492l-2.491 2.492L916.09 1139l2.492-2.49L-763.251-545.324zm25.56 2.492l2.491-2.492L946.633 1136.51l-2.492 2.49L-737.691-542.832zm30.542-2.492l-2.491 2.492L972.192 1139l2.492-2.49L-707.149-545.324zm25.56 2.492l2.491-2.492L1002.74 1136.51l-2.5 2.49L-681.589-542.832zm30.542-2.492l-2.491 2.492L1028.29 1139l2.5-2.49L-651.047-545.324zm25.56 2.492l2.492-2.492L1058.84 1136.51l-2.49 2.49L-625.487-542.832zm30.543-2.492l-2.492 2.492L1084.4 1139l2.49-2.49L-594.944-545.324zm25.559 2.492l2.492-2.492L1114.94 1136.51l-2.49 2.49L-569.385-542.832zm30.543-2.492l-2.492 2.492L1140.5 1139l2.49-2.49L-538.842-545.324zm25.559 2.492l2.492-2.492L1171.04 1136.51l-2.49 2.49L-513.283-542.832zm30.543-2.492l-2.492 2.492L1196.6 1139l2.49-2.49L-482.74-545.324zm25.559 2.492l2.492-2.492L1227.14 1136.51l-2.49 2.49L-457.181-542.832zm30.543-2.492l-2.492 2.492L1252.7 1139l2.49-2.49L-426.638-545.324zm25.56 2.492l2.491-2.492L1283.25 1136.51l-2.5 2.49L-401.078-542.832zm30.542-2.492l-2.491 2.492L1308.81 1139l2.49-2.49L-370.536-545.324zm25.56 2.492l2.491-2.492L1339.35 1136.51l-2.49 2.49L-344.976-542.832zm30.542-2.492l-2.491 2.492L1364.91 1139l2.49-2.49L-314.434-545.324zm25.56 2.492l2.491-2.492L1395.45 1136.51l-2.49 2.49L-288.874-542.832zm30.543-2.492l-2.492 2.492L1421.01 1139l2.49-2.49L-258.331-545.324zm25.559 2.492l2.492-2.492L1451.55 1136.51l-2.49 2.49L-232.772-542.832zm30.543-2.492l-2.492 2.492L1477.11 1139l2.49-2.49L-202.229-545.324zm25.559 2.492l2.492-2.492L1507.65 1136.51l-2.49 2.49L-176.67-542.832zm30.543-2.492l-2.492 2.492L1533.21 1139l2.5-2.49L-146.127-545.324zm25.559 2.492l2.492-2.492L1563.76 1136.51l-2.5 2.49L-120.568-542.832zm30.543-2.492l-2.492 2.492L1589.32 1139l2.49-2.49L-90.025-545.324zm25.559 2.492l2.492-2.492L1619.86 1136.51l-2.49 2.49L-64.465-542.832zm30.543-2.492l-2.491 2.492L1645.42 1139l2.49-2.49L-33.923-545.324zm25.56 2.492l2.491-2.492L1675.96 1136.51l-2.49 2.49L-8.363-542.832zm30.543-2.492l-2.492 2.492L1701.52 1139l2.49-2.49L22.18-545.324zm25.559 2.492l2.491-2.492L1732.06 1136.51l-2.49 2.49L47.739-542.832zm30.542-2.492l-2.491 2.492L1757.62 1139l2.49-2.49L78.281-545.324zm25.56 2.492l2.492-2.492L1788.17 1136.51l-2.5 2.49L103.841-542.832zm30.543-2.492l-2.492 2.492L1813.72 1139l2.5-2.49L134.384-545.324zm25.559 2.492l2.492-2.492L1844.27 1136.51l-2.49 2.49L159.943-542.832zm30.543-2.492l-2.492 2.492L1869.83 1139l2.49-2.49L190.486-545.324zm25.559 2.492l2.492-2.492L1900.37 1136.51l-2.49 2.49L216.045-542.832zm30.543-2.492l-2.492 2.492L1925.93 1139l2.49-2.49L246.588-545.324zm25.559 2.492l2.492-2.492L1956.47 1136.51l-2.49 2.49L272.147-542.832zm30.543-2.492l-2.492 2.492L1982.03 1139l2.49-2.49L302.69-545.324zm25.56 2.492l2.491-2.492L2012.57 1136.51l-2.49 2.49L328.25-542.832zm30.542-2.492l-2.491 2.492L2038.13 1139l2.49-2.49L358.792-545.324zm25.56 2.492l2.491-2.492L2068.68 1136.51l-2.5 2.49L384.352-542.832zm30.542-2.492l-2.491 2.492L2094.24 1139l2.49-2.49L414.894-545.324zm25.56 2.492l2.492-2.492L2124.78 1136.51l-2.49 2.49L440.454-542.832zm30.543-2.492l-2.492 2.492L2150.34 1139l2.49-2.49L470.997-545.324zm25.559 2.492l2.492-2.492L2180.88 1136.51l-2.49 2.49L496.556-542.832zm30.543-2.492l-2.492 2.492L2206.44 1139l2.49-2.49L527.099-545.324zm25.559 2.492l2.492-2.492L2236.98 1136.51l-2.49 2.49L552.658-542.832zm30.543-2.492l-2.492 2.492L2262.54 1139l2.49-2.49L583.201-545.324zm25.559 2.492l2.492-2.492L2293.08 1136.51l-2.49 2.49L608.76-542.832zm30.543-2.492l-2.491 2.492L2318.64 1139l2.5-2.49L639.303-545.324zm25.56 2.492l2.491-2.492L2349.19 1136.51l-2.5 2.49L664.863-542.832zm30.542-2.492l-2.491 2.492L2374.75 1139l2.49-2.49L695.405-545.324zm25.56 2.492l2.491-2.492L2405.29 1136.51l-2.49 2.49L720.965-542.832zm30.542-2.492l-2.491 2.492L2430.85 1139l2.49-2.49L751.507-545.324zm25.56 2.492l2.491-2.492L2461.39 1136.51l-2.49 2.49L777.067-542.832zm30.543-2.492l-2.492 2.492L2486.95 1139l2.49-2.49L807.61-545.324zm25.559 2.492l2.492-2.492L2517.49 1136.51 2515 1139 833.169-542.832zm30.543-2.492l-2.492 2.492L2543.05 1139l2.49-2.49L863.712-545.324zm25.559 2.492l2.492-2.492L2573.6 1136.51l-2.5 2.49L889.271-542.832zm30.543-2.492l-2.492 2.492L2599.15 1139l2.5-2.49L919.814-545.324zm25.559 2.492l2.492-2.492L2629.7 1136.51l-2.49 2.49L945.373-542.832zm30.543-2.492l-2.492 2.492L2655.26 1139l2.49-2.49L975.916-545.324zm25.564 2.492l2.49-2.492L2685.8 1136.51l-2.49 2.49L1001.48-542.832zm30.54-2.492l-2.49 2.492L2711.36 1139l2.49-2.49L1032.02-545.324zm25.56 2.492l2.49-2.492L2741.9 1136.51l-2.49 2.49L1057.58-542.832zm30.54-2.492l-2.49 2.492L2767.46 1139l2.49-2.49L1088.12-545.324zm25.56 2.492l2.49-2.492L2798 1136.51l-2.49 2.49L1113.68-542.832zm30.54-2.492l-2.49 2.492L2823.56 1139l2.49-2.49L1144.22-545.324zm25.56 2.492l2.49-2.492L2854.11 1136.51l-2.5 2.49L1169.78-542.832zm30.54-2.492l-2.49 2.492L2879.66 1139l2.5-2.49L1200.32-545.324zm25.56 2.492l2.49-2.492L2910.21 1136.51l-2.49 2.49L1225.88-542.832zm30.55-2.492l-2.5 2.492L2935.77 1139l2.49-2.49L1256.43-545.324zm25.55 2.492l2.5-2.492L2966.31 1136.51l-2.49 2.49L1281.98-542.832zm30.55-2.492l-2.49 2.492L2991.87 1139l2.49-2.49L1312.53-545.324zm25.56 2.492l2.49-2.492L3022.41 1136.51l-2.49 2.49L1338.09-542.832zm30.54-2.492l-2.49 2.492L3047.97 1139l2.49-2.49L1368.63-545.324zm25.56 2.492l2.49-2.492L3078.51 1136.51l-2.49 2.49L1394.19-542.832zm30.54-2.492l-2.49 2.492L3104.07 1139l2.49-2.49L1424.73-545.324zm25.56 2.492l2.49-2.492L3134.62 1136.51l-2.5 2.49L1450.29-542.832zm30.54-2.492l-2.49 2.492L3160.17 1139l2.5-2.49L1480.83-545.324zm25.56 2.492l2.49-2.492L3190.72 1136.51l-2.49 2.49L1506.39-542.832zm30.55-2.492l-2.5 2.492L3216.28 1139l2.49-2.49L1536.94-545.324zm25.55 2.492l2.5-2.492L3246.82 1136.51l-2.49 2.49L1562.49-542.832zm30.55-2.492l-2.49 2.492L3272.38 1139l2.49-2.49L1593.04-545.324zm25.56 2.492l2.49-2.492L3302.92 1136.51l-2.49 2.49L1618.6-542.832zm30.54-2.492l-2.49 2.492L3328.48 1139l2.49-2.49L1649.14-545.324zm25.56 2.492l2.49-2.492L3359.02 1136.51l-2.49 2.49L1674.7-542.832zm30.54-2.492l-2.49 2.492L3384.58 1139l2.49-2.49L1705.24-545.324zm25.56 2.492l2.49-2.492L3415.12 1136.51l-2.49 2.49L1730.8-542.832zm30.54-2.492l-2.49 2.492L3440.68 1139l2.5-2.49L1761.34-545.324zm25.56 2.492l2.49-2.492L3471.23 1136.51l-2.49 2.49L1786.9-542.832zm30.55-2.492l-2.5 2.492L3496.79 1139l2.49-2.49L1817.45-545.324zm25.55 2.492l2.5-2.492L3527.33 1136.51l-2.49 2.49L1843-542.832zm30.55-2.492l-2.49 2.492L3552.89 1139l2.49-2.49L1873.55-545.324zm25.56 2.492l2.49-2.492L3583.43 1136.51l-2.49 2.49L1899.11-542.832zm30.54-2.492l-2.49 2.492L3608.99 1139l2.49-2.49L1929.65-545.324zm25.56 2.492l2.49-2.492L3639.53 1136.51l-2.49 2.49L1955.21-542.832zm30.54-2.492l-2.49 2.492L3665.09 1139l2.49-2.49L1985.75-545.324zm25.56 2.492l2.49-2.492L3695.63 1136.51l-2.49 2.49L2011.31-542.832zm30.54-2.492l-2.49 2.492L3721.19 1139l2.5-2.49L2041.85-545.324z"/></g></svg>