<svg width="344" height="24" fill="none" xmlns="http://www.w3.org/2000/svg"><mask id="a" maskUnits="userSpaceOnUse" x="0" y="0" width="344" height="24"><path fill-rule="evenodd" clip-rule="evenodd" d="M0 5a5 5 0 0 1 5-5h334a5 5 0 0 1 5 5v14a5 5 0 0 1-5 5H5a5 5 0 0 1-5-5V5z" fill="#74CC47"/></mask><g opacity=".05" fill="#2C2C2C" mask="url(#a)"><path d="M-2691.14-1033.32l-2.49 2.49L-1011.8 651l2.49-2.492-1681.83-1681.828zm28.05 0l-2.49 2.49L-983.749 651l2.492-2.492L-2663.09-1033.32zm25.56 2.49l2.49-2.49L-953.206 648.508l-2.492 2.492-1681.832-1681.83zm30.54-2.49l-2.49 2.49L-927.646 651l2.491-2.492L-2606.99-1033.32zm25.56 2.49l2.49-2.49L-897.104 648.508l-2.491 2.492-1681.835-1681.83zm30.54-2.49l-2.49 2.49L-871.545 651l2.492-2.492L-2550.89-1033.32zm25.56 2.49l2.5-2.49L-841.002 648.508l-2.491 2.492-1681.837-1681.83zm30.55-2.49l-2.49 2.49L-815.442 651l2.491-2.492L-2494.78-1033.32zm25.56 2.49l2.49-2.49L-784.9 648.508l-2.491 2.492-1681.829-1681.83zm30.54-2.49l-2.49 2.49L-759.34 651l2.492-2.492L-2438.68-1033.32zm25.56 2.49l2.49-2.49L-728.797 648.508l-2.492 2.492-1681.831-1681.83zm30.54-2.49l-2.49 2.49L-703.238 651l2.492-2.492L-2382.58-1033.32zm25.56 2.49l2.49-2.49L-672.695 648.508l-2.492 2.492-1681.833-1681.83zm30.54-2.49l-2.49 2.49L-647.136 651l2.492-2.492L-2326.48-1033.32zm25.56 2.49l2.49-2.49L-616.593 648.508l-2.492 2.492-1681.835-1681.83zm30.55-2.49l-2.5 2.49L-591.033 651l2.491-2.492L-2270.37-1033.32zm25.55 2.49l2.5-2.49L-560.491 648.508l-2.492 2.492-1681.837-1681.83zm30.55-2.49l-2.49 2.49L-534.932 651l2.492-2.492-1681.83-1681.828zm25.56 2.49l2.49-2.49L-504.389 648.508-506.88 651l-1681.83-1681.83zm30.54-2.49l-2.49 2.49L-478.829 651l2.491-2.492L-2158.17-1033.32zm25.56 2.49l2.49-2.49L-448.287 648.508l-2.491 2.492-1681.832-1681.83zm30.54-2.49l-2.49 2.49L-422.727 651l2.491-2.492L-2102.07-1033.32zm25.56 2.49l2.49-2.49L-392.185 648.508l-2.491 2.492-1681.834-1681.83zm30.54-2.49l-2.49 2.49L-366.625 651l2.491-2.492L-2045.97-1033.32zm25.56 2.49l2.5-2.49L-336.082 648.508l-2.492 2.492-1681.836-1681.83zm30.55-2.49l-2.5 2.49L-310.523 651l2.492-2.492L-1989.86-1033.32zm25.56 2.49l2.49-2.49L-279.98 648.508l-2.492 2.492L-1964.3-1030.83zm30.54-2.49l-2.49 2.49L-254.421 651l2.492-2.492L-1933.76-1033.32zm25.56 2.49l2.49-2.49L-223.878 648.508-226.37 651-1908.2-1030.83zm30.54-2.49l-2.49 2.49L-198.319 651l2.492-2.492L-1877.66-1033.32zm25.56 2.49l2.49-2.49L-167.776 648.508l-2.492 2.492L-1852.1-1030.83zm30.54-2.49l-2.49 2.49L-142.216 651l2.491-2.492L-1821.56-1033.32zm25.56 2.49l2.49-2.49L-111.674 648.508l-2.491 2.492L-1796-1030.83zm30.54-2.49l-2.49 2.49L-86.114 651l2.491-2.492L-1765.46-1033.32zm25.56 2.49l2.5-2.49L-55.571 648.508-58.064 651-1739.9-1030.83zm30.55-2.49l-2.49 2.49L-30.012 651l2.492-2.492-1681.83-1681.828zm25.56 2.49l2.49-2.49L.53 648.508-1.96 651l-1681.83-1681.83zm30.54-2.49l-2.49 2.49L26.09 651l2.492-2.492L-1653.25-1033.32zm25.56 2.49l2.49-2.49L56.633 648.508 54.14 651l-1681.83-1681.83zm30.54-2.49l-2.49 2.49L82.192 651l2.492-2.492L-1597.15-1033.32zm25.56 2.49l2.49-2.49L112.735 648.508 110.243 651-1571.59-1030.83zm30.54-2.49l-2.49 2.49L138.294 651l2.492-2.492L-1541.05-1033.32zm25.56 2.49l2.49-2.49L168.837 648.508 166.345 651-1515.49-1030.83zm30.55-2.49l-2.5 2.49L194.397 651l2.491-2.492L-1484.94-1033.32zm25.56 2.49l2.49-2.49L224.939 648.508 222.448 651-1459.38-1030.83zm30.54-2.49l-2.49 2.49L250.499 651l2.491-2.492-1681.83-1681.828zm25.56 2.49l2.49-2.49L281.041 648.508 278.55 651l-1681.83-1681.83zm30.54-2.49l-2.49 2.49L306.601 651l2.491-2.492L-1372.74-1033.32zm25.56 2.49l2.49-2.49L337.144 648.508 334.652 651-1347.18-1030.83zm30.54-2.49l-2.49 2.49L362.703 651l2.492-2.492L-1316.64-1033.32zm25.56 2.49l2.49-2.49L393.246 648.508 390.754 651-1291.08-1030.83zm30.54-2.49l-2.49 2.49L418.805 651l2.492-2.492L-1260.54-1033.32zm25.56 2.49l2.5-2.49L449.348 648.508 446.856 651-1234.98-1030.83zm30.55-2.49l-2.5 2.49L474.907 651l2.492-2.492L-1204.43-1033.32zm25.56 2.49l2.49-2.49L505.45 648.508 502.958 651-1178.87-1030.83zm30.54-2.49l-2.49 2.49L531.01 651l2.491-2.492L-1148.33-1033.32zm25.56 2.49l2.49-2.49L561.552 648.508 559.061 651-1122.77-1030.83zm30.54-2.49l-2.49 2.49L587.112 651l2.491-2.492L-1092.23-1033.32zm25.56 2.49l2.49-2.49L617.654 648.508 615.163 651-1066.67-1030.83zm30.54-2.49l-2.49 2.49L643.214 651l2.491-2.492L-1036.13-1033.32zm25.56 2.49l2.49-2.49L673.757 648.508 671.265 651-1010.57-1030.83zm30.545-2.49l-2.492 2.49L699.316 651l2.492-2.492L-980.025-1033.32zm25.56 2.49l2.491-2.49L729.859 648.508 727.367 651-954.465-1030.83zm30.542-2.49l-2.491 2.49L755.418 651l2.492-2.492L-923.923-1033.32zm25.56 2.49l2.491-2.49L785.961 648.508 783.469 651-898.363-1030.83zm30.542-2.49l-2.491 2.49L811.52 651l2.492-2.492L-867.821-1033.32zm25.56 2.49l2.491-2.49L842.063 648.508 839.571 651-842.261-1030.83zm30.542-2.49l-2.491 2.49L867.623 651l2.491-2.492L-811.719-1033.32zm25.56 2.49l2.492-2.49L898.165 648.508 895.673 651-786.159-1030.83zm30.543-2.49l-2.492 2.49L923.724 651l2.492-2.492L-755.616-1033.32zm25.559 2.49l2.492-2.49L954.267 648.508 951.775 651-730.057-1030.83zm30.543-2.49l-2.492 2.49L979.827 651l2.491-2.492L-699.514-1033.32zm25.559 2.49l2.492-2.49L1010.37 648.508l-2.49 2.492-1681.835-1681.83zm30.543-2.49l-2.492 2.49L1035.93 651l2.49-2.492L-643.412-1033.32zm25.559 2.49l2.492-2.49L1066.47 648.508l-2.49 2.492-1681.833-1681.83zm30.543-2.49l-2.492 2.49L1092.03 651l2.49-2.492L-587.31-1033.32zm25.56 2.49l2.491-2.49L1122.57 648.508l-2.49 2.492-1681.83-1681.83zm30.542-2.49l-2.491 2.49L1148.13 651l2.49-2.492L-531.208-1033.32zm25.56 2.49l2.491-2.49L1178.68 648.508l-2.5 2.492-1681.828-1681.83zm30.542-2.49l-2.491 2.49L1204.24 651l2.49-2.492L-475.106-1033.32zm25.56 2.49l2.492-2.49L1234.78 648.508l-2.49 2.492-1681.836-1681.83zm30.543-2.49l-2.492 2.49L1260.34 651l2.49-2.492L-419.003-1033.32zm25.559 2.49l2.492-2.49L1290.88 648.508l-2.49 2.492-1681.834-1681.83zm30.543-2.49l-2.492 2.49L1316.44 651l2.49-2.492L-362.901-1033.32zm25.559 2.49l2.492-2.49L1346.98 648.508l-2.49 2.492-1681.832-1681.83zm30.543-2.49l-2.492 2.49L1372.54 651l2.49-2.492L-306.799-1033.32zm25.559 2.49l2.492-2.49L1403.08 648.508l-2.49 2.492-1681.83-1681.83zm30.543-2.49l-2.491 2.49L1428.64 651l2.5-2.492L-250.697-1033.32zm25.56 2.49l2.491-2.49L1459.19 648.508l-2.5 2.492-1681.827-1681.83zm30.542-2.49l-2.491 2.49L1484.75 651l2.49-2.492L-194.595-1033.32zm25.56 2.49l2.491-2.49L1515.29 648.508 1512.8 651-169.035-1030.83zm30.542-2.49l-2.491 2.49L1540.85 651l2.49-2.492L-138.493-1033.32zm25.56 2.49l2.491-2.49L1571.39 648.508 1568.9 651-112.933-1030.83zm30.543-2.49l-2.492 2.49L1596.95 651l2.49-2.492L-82.39-1033.32zm25.559 2.49l2.492-2.49L1627.49 648.508 1625 651-56.831-1030.83zm30.543-2.49l-2.492 2.49L1653.05 651l2.49-2.492L-26.288-1033.32zm25.559 2.49l2.492-2.49L1683.6 648.508l-2.5 2.492L-.729-1030.83zm30.543-2.49l-2.492 2.49L1709.15 651l2.5-2.492L29.814-1033.32zm25.559 2.49l2.492-2.49L1739.7 648.508l-2.49 2.492L55.373-1030.83zm30.543-2.49l-2.492 2.49L1765.26 651l2.49-2.492L85.916-1033.32zm25.559 2.49l2.492-2.49L1795.8 648.508l-2.49 2.492L111.475-1030.83zm30.543-2.49l-2.492 2.49L1821.36 651l2.49-2.492L142.018-1033.32zm25.559 2.49l2.492-2.49L1851.9 648.508l-2.49 2.492L167.577-1030.83zm30.543-2.49l-2.492 2.49L1877.46 651l2.49-2.492L198.12-1033.32zm25.559 2.49l2.492-2.49L1908 648.508l-2.49 2.492L223.679-1030.83zm30.543-2.49l-2.492 2.49L1933.56 651l2.49-2.492L254.222-1033.32zm25.559 2.49l2.492-2.49L1964.11 648.508l-2.5 2.492L279.781-1030.83zm30.543-2.49l-2.492 2.49L1989.66 651l2.5-2.492L310.324-1033.32zm25.559 2.49l2.492-2.49L2020.21 648.508l-2.49 2.492L335.883-1030.83zm30.543-2.49l-2.492 2.49L2045.77 651l2.49-2.492L366.426-1033.32zm25.559 2.49l2.492-2.49L2076.31 648.508l-2.49 2.492L391.985-1030.83zm30.543-2.49l-2.492 2.49L2101.87 651l2.49-2.492L422.528-1033.32zm25.559 2.49l2.492-2.49L2132.41 648.508l-2.49 2.492L448.087-1030.83zm30.543-2.49l-2.492 2.49L2157.97 651l2.49-2.492L478.63-1033.32zm25.559 2.49l2.492-2.49L2188.51 648.508l-2.49 2.492L504.189-1030.83zm30.543-2.49l-2.492 2.49L2214.07 651l2.49-2.492L534.732-1033.32zm25.559 2.49l2.492-2.49L2244.62 648.508l-2.5 2.492L560.291-1030.83zm30.542-2.49l-2.491 2.49L2270.17 651l2.5-2.492L590.833-1033.32zm25.56 2.49l2.492-2.49L2300.72 648.508l-2.49 2.492L616.393-1030.83zm30.543-2.49l-2.492 2.49L2326.28 651l2.49-2.492L646.936-1033.32zm25.559 2.49l2.492-2.49L2356.82 648.508l-2.49 2.492L672.495-1030.83zm30.543-2.49l-2.492 2.49L2382.38 651l2.49-2.492L703.038-1033.32zm25.559 2.49l2.492-2.49L2412.92 648.508l-2.49 2.492L728.597-1030.83zm30.543-2.49l-2.492 2.49L2438.48 651l2.49-2.492L759.14-1033.32zm25.559 2.49l2.491-2.49L2469.02 648.508l-2.49 2.492L784.699-1030.83zm30.542-2.49l-2.491 2.49L2494.58 651l2.49-2.492L815.241-1033.32zm25.56 2.49l2.491-2.49L2525.12 648.508l-2.49 2.492L840.801-1030.83zm30.543-2.49l-2.492 2.49L2550.68 651l2.5-2.492L871.344-1033.32zm25.559 2.49l2.492-2.49L2581.23 648.508l-2.49 2.492L896.903-1030.83zm30.543-2.49l-2.492 2.49L2606.79 651l2.49-2.492L927.446-1033.32zm25.559 2.49l2.491-2.49L2637.33 648.508l-2.49 2.492L953.005-1030.83zm30.542-2.49l-2.491 2.49L2662.89 651l2.49-2.492L983.547-1033.32zm25.563 2.49l2.49-2.49L2693.43 648.508l-2.49 2.492-1681.83-1681.83zm30.54-2.49l-2.49 2.49L2718.99 651l2.49-2.492L1039.65-1033.32zm25.56 2.49l2.49-2.49L2749.53 648.508l-2.49 2.492-1681.83-1681.83zm30.54-2.49l-2.49 2.49L2775.09 651l2.49-2.492L1095.75-1033.32zm25.56 2.49l2.49-2.49L2805.63 648.508l-2.49 2.492-1681.83-1681.83zm30.54-2.49l-2.49 2.49L2831.19 651l2.5-2.492L1151.85-1033.32z"/></g></svg>