<svg width="673" height="673" viewBox="0 0 673 673" fill="none" xmlns="http://www.w3.org/2000/svg">
<path d="M307.172 1.28048C249.816 6.29848 194.707 25.949 147.116 58.3526C99.5252 90.7561 61.0444 134.829 35.3546 186.354C9.66474 237.88 -2.37483 295.136 0.387519 352.645C3.14986 410.153 20.6217 465.991 51.1318 514.818C81.6419 563.644 124.17 603.826 174.647 631.519C225.125 659.211 281.864 673.49 339.437 672.987C397.009 672.485 453.49 657.219 503.477 628.649C553.463 600.079 595.284 559.162 624.937 509.81L552.828 466.483C530.588 503.496 499.223 534.184 461.733 555.612C424.243 577.039 381.882 588.489 338.702 588.865C295.523 589.242 252.969 578.534 215.11 557.764C177.252 536.994 145.356 506.858 122.474 470.238C99.5913 433.619 86.4874 391.74 84.4156 348.608C82.3439 305.477 91.3736 262.535 110.641 223.891C129.908 185.246 158.769 152.192 194.462 127.889C230.155 103.587 271.487 88.8489 314.504 85.0854L307.172 1.28048Z" fill="#5C59EB"/>
<path d="M345.817 351.272C354.252 346.402 357.141 335.617 352.272 327.183C347.402 318.748 336.617 315.859 328.183 320.728M350.226 358.908C362.877 351.603 367.212 335.426 359.908 322.774C352.603 310.123 336.426 305.788 323.774 313.092M354.634 366.544C371.503 356.804 377.283 335.234 367.544 318.366C357.804 301.497 336.234 295.717 319.366 305.456M359.043 374.18C380.129 362.006 387.354 335.043 375.18 313.957C363.006 292.871 336.043 285.646 314.957 297.82M363.452 381.816C388.755 367.207 397.424 334.852 382.816 309.548C368.207 284.245 335.852 275.576 310.548 290.184M367.86 389.451C397.381 372.408 407.495 334.66 390.451 305.14C373.408 275.619 335.66 265.505 306.14 282.549M372.269 397.087C406.006 377.609 417.566 334.469 398.087 300.731C378.609 266.994 335.469 255.434 301.731 274.913M376.677 404.723C414.632 382.81 427.637 334.277 405.723 296.323C383.81 258.368 335.277 245.363 297.323 267.277M381.086 412.359C423.258 388.011 437.707 334.086 413.359 291.914C389.011 249.742 335.086 235.293 292.914 259.641M389.903 427.631C440.51 398.413 457.849 333.703 428.631 283.097C399.413 232.49 334.703 215.151 284.097 244.369M394.312 435.267C449.135 403.615 467.919 333.512 436.267 278.688C404.615 223.865 334.512 205.081 279.688 236.733M398.72 442.903C457.761 408.816 477.99 333.32 443.903 274.28C409.816 215.239 334.32 195.01 275.28 229.097M403.129 450.539C466.387 414.017 488.061 333.129 451.539 269.871C415.017 206.613 334.129 184.939 270.871 221.461M407.538 458.175C475.013 419.218 498.132 332.938 459.175 265.462C420.218 197.987 333.938 174.868 266.462 213.825M411.946 465.811C483.639 424.419 508.202 332.746 466.811 261.054C425.419 189.361 333.746 164.798 262.054 206.189M416.355 473.447C492.265 429.62 518.273 332.555 474.447 256.645C430.62 180.735 333.555 154.727 257.645 198.553M425.172 488.718C509.516 440.022 538.415 332.172 489.718 247.828C441.022 163.484 333.172 134.585 248.828 183.282M429.581 496.354C518.142 445.223 548.485 331.981 497.354 243.419C446.224 154.858 332.981 124.515 244.419 175.646M433.989 503.99C526.768 450.425 558.556 331.789 504.99 239.011C451.425 146.232 332.789 114.444 240.011 168.01M439.5 513.535C537.55 456.926 571.144 331.55 514.535 233.5C457.926 135.45 332.55 101.856 234.5 158.465" stroke="#DCE0EE" stroke-width="1.33117"/>
</svg>
