<svg xmlns="http://www.w3.org/2000/svg" xmlns:xlink="http://www.w3.org/1999/xlink" viewBox="0 0 1140 200"><defs><style>.cls-1{fill:#fff;}.cls-2{fill:url(#linear-gradient);}.cls-3{fill:#a4aec0;}.cls-4{fill:url(#linear-gradient-2);}.cls-5{fill:url(#linear-gradient-3);}.cls-6{fill:url(#linear-gradient-4);}.cls-7{fill:url(#linear-gradient-5);}.cls-8{fill:url(#linear-gradient-6);}</style><linearGradient id="linear-gradient" x1="570" y1="159.33" x2="570" y2="68.61" gradientUnits="userSpaceOnUse"><stop offset="0" stop-color="#fff"/><stop offset="1" stop-color="#dde3ec"/></linearGradient><linearGradient id="linear-gradient-2" x1="761.9" y1="200" x2="761.9" y2="75.35" gradientUnits="userSpaceOnUse"><stop offset="0" stop-color="#fff"/><stop offset="0.37" stop-color="#dde3ec"/><stop offset="1" stop-color="#fff"/></linearGradient><linearGradient id="linear-gradient-3" x1="586.34" y1="58.06" x2="586.34" y2="7.42" xlink:href="#linear-gradient"/><linearGradient id="linear-gradient-4" x1="1037.17" y1="48.61" x2="1037.17" y2="16.87" xlink:href="#linear-gradient"/><linearGradient id="linear-gradient-5" x1="342.34" y1="58.06" x2="342.34" y2="7.42" xlink:href="#linear-gradient"/><linearGradient id="linear-gradient-6" x1="259.34" y1="45.4" x2="259.34" y2="20.08" gradientTransform="matrix(-0.96, 0, 0, 1, 464.17, 0)" xlink:href="#linear-gradient"/></defs><title>404</title><g id="Layer_2" data-name="Layer 2"><g id="Layer_1-2" data-name="Layer 1"><rect class="cls-1" width="1140" height="200"/><path class="cls-2" d="M1140,159.33H0V76s116-18.67,388,3.33C755,109,1140,76,1140,76Z"/><path class="cls-3" d="M545.55,165H537.8v10H527.06V165H501.42v-7.42l22.44-30.19h11.56L514.61,156H527.4v-8.91h10.4V156h7.75Z"/><path class="cls-3" d="M558.68,172.86a19.49,19.49,0,0,1-7.24-8.46,30.7,30.7,0,0,1-2.62-13.23A30.62,30.62,0,0,1,551.44,138a19.52,19.52,0,0,1,7.24-8.47,20.48,20.48,0,0,1,21.08,0A19.65,19.65,0,0,1,587,138a30.77,30.77,0,0,1,2.62,13.22A30.85,30.85,0,0,1,587,164.4a19.62,19.62,0,0,1-7.24,8.46,20.42,20.42,0,0,1-21.08,0Zm17.37-10.13q2.49-3.73,2.48-11.56t-2.48-11.56a8.05,8.05,0,0,0-13.6,0Q560,143.36,560,151.17t2.48,11.56a8.05,8.05,0,0,0,13.6,0Z"/><path class="cls-4" d="M1035.3,108.87a8.3,8.3,0,0,1-1.1,4.67,12.72,12.72,0,0,1-2.78,3.37,27.44,27.44,0,0,1-6.7,4.18,59.09,59.09,0,0,1-7,2.68,125.52,125.52,0,0,1-14.34,3.44,259.8,259.8,0,0,1-28.92,3.47c-9.55.38-19,.6-28.56,1-19,.76-38,1.77-56.94,3.19a1011.87,1011.87,0,0,0-112.64,14.25c-37,7-73.44,16.59-108.3,29.53q-25.56,9.45-49.86,21.33H488.47q27.09-13.26,54.94-24c9.34-3.69,18.8-7,28.24-10.25s18.93-6.25,28.48-9,19.08-5.39,28.65-7.82,19.17-4.62,28.79-6.58c19.21-4.09,38.48-7.4,57.74-10.12s38.53-4.84,57.78-6.52,38.47-2.81,57.66-3.71c9.6-.37,19.19-.8,28.78-1s19.16-.46,28.73-.64q28.71-.44,57.36-.44c9.54,0,19.11-.07,28.62,0a250.65,250.65,0,0,0,28.1-.31,102,102,0,0,0,13.73-1.91,53,53,0,0,0,6.52-1.8,23.06,23.06,0,0,0,5.71-2.83c1.63-1.18,2.7-2.59,2.69-4s-1-3.34-2.48-4.87a27.12,27.12,0,0,0-5.27-4.13,57.15,57.15,0,0,0-6.15-3.26,98.72,98.72,0,0,0-13.32-4.7,128.43,128.43,0,0,0-13.9-3,179.18,179.18,0,0,0-28.43-2.46A225.6,225.6,0,0,1,990,88.05c9.47,1.25,19,2.93,28.08,6.3a59.25,59.25,0,0,1,6.73,2.92,30.92,30.92,0,0,1,6.3,4.21,15.14,15.14,0,0,1,2.67,3.08A9.08,9.08,0,0,1,1035.3,108.87Z"/><path class="cls-3" d="M638.58,165h-7.75v10H620.08V165H594.45v-7.42l22.44-30.19h11.56L607.64,156h12.78v-8.91h10.41V156h7.75Z"/><path class="cls-5" d="M615.68,58.06a16.67,16.67,0,0,0,0-33.34,25.32,25.32,0,0,0-46-4.54,20.07,20.07,0,1,0-9.26,37.88Z"/><path class="cls-6" d="M1055.55,48.61a10.45,10.45,0,1,0,0-20.89,15.87,15.87,0,0,0-28.83-2.85,12.58,12.58,0,1,0-5.8,23.74Z"/><path class="cls-7" d="M371.68,58.06a16.67,16.67,0,0,0,0-33.34,25.32,25.32,0,0,0-46-4.54,20.07,20.07,0,1,0-9.26,37.88Z"/><path class="cls-8" d="M200,45.4a8.34,8.34,0,0,1,0-16.67,12.27,12.27,0,0,1,11.58-8.65,12.13,12.13,0,0,1,10.59,6.38,9.39,9.39,0,0,1,4.47-1.14,9.86,9.86,0,0,1,9.67,10,9.86,9.86,0,0,1-9.67,10Z"/></g></g></svg>