<svg xmlns="http://www.w3.org/2000/svg" viewBox="0 0 960 270"><defs><style>.cls-1{fill:#ebeef4;fill-rule:evenodd;}</style></defs><title>city-pattern</title><g id="Layer_2" data-name="Layer 2"><g id="Layer_1-2" data-name="Layer 1"><path class="cls-1" d="M953.18,230.37l-4.9-3.14L943.39,231l-1.39.22-.3-48.51-23.17-1L911,183.92,910.86,201s-7.8,4.55-7.94,5,1.08,2.17,1.08,2.17l.14,17.88s-7.14-.14-8.7-.14A33.14,33.14,0,0,0,890,227l-.07,6.08-10.93.3-.15-10.28-10.67-5.9-3.18,2v-3.42l-9.08-.74-.29-6.07-9.87.07.15,6-5.91,1.7.22,19.23H838l-.43-37.19-9.92-2.55-12.65.8.58-40.65-10.34-3.61s-.07-8-.4-8.81-3.57-1.28-3.57-1.28a5.76,5.76,0,0,0-.44-2c-.36-.66-3.31-1.21-3.31-1.21a2.67,2.67,0,0,0-.59-1.82c-.65-.65-3.93-.87-3.93-.87l-.15-24.61s-.24-.55-.62-.58a1.53,1.53,0,0,0-1.12.33c-.47.29-.16,25.27-.16,25.27a25.21,25.21,0,0,0-4,.59c-1.08.36-.23,2.56-.23,2.56l-1.7.14-.35-28.42L782.14,111l-7.92,0-5.22.11L768.93,99s-5.54-1.83-7.66-1.79-5.9.62-5.9.62l-.43-5L749,92.48V85.35l-1-.73,0-51.5-.55.29-1,2.91s.22,22.69.18,22.87-2,5.49-2,5.49l-5.52-.15L738,65.4V188.77l-2-.41,0-3.05-17-3.56.07-3-5.51-1.23-1.52.14-.44-20.3-11.16-15.73-2.4-1.16-18.63,2-.43,8.26-8,7.76-.45,56.12-10.46.49-.23,6.28-1.56.18-.19,8.86-3.89.07-1.57,3.29-9,.22-.07-1.94-3.07-.3L639,188.49l-6-1.12-.13-10.48-1.87-.8.33-28.93-6.13-1.53-.13-2.63-10.67-3h-8.28l-9.82-1.61-1.68.11-.49,1.61-6.13.29-.07,36.82-3.15-.32-.18-1.21-3.78-1-.11-1.6L575,172v-3.87l-6.7-.77-.66.77-3.43.11-.55-3.53-6-1-7.29,1-.29,7.14-5.08,1,.3,38.23h-2.12l-13.61.33-.37,13.08-1.93.22-.23,5-5-.22-.22-24.63-3.52-1-.08-3.76H506l-.07,3.4-2.92.22-.3,26.53-5.38.29s0,9.84-.15,10.56H477V85.32l1-.15V83.73l-7.84-.41L469.83,77l-15.62-.25L452,79.14v2.71L438,97.38V250h-1.86l-.28-3.5-1.86-.16V158.26l-3-.17v-5.5l-4.23-.08-.25-5.23-19.2-.87-.13-1.41-8.05-.31-1.55,1.7.12,2.33-.95.37,0,.62-3.78.13-3.36,3.81-7.71.21-4.65,7,.67,32.77-6.89-.17V192h-4.07l-.63-6-6.3,0-.09-19h-5.48l0-2L351,165l-.12-21H349v1.6l-1-.06,0-1.58-3.42-6.44-.08-3.1H344v3.24l-1,0-.19-35.93-.81-.08-2-3.06v-2l-1-.91,0,.89v1.7L336.35,102,335,102v6h-1.41l0-1h-1.15l0,1h-1.89l-.14-6-.89-.11L327,98.36V96.68l-.31-.82-.45.65-.09,1.54-2.07,3.78-.93.17-.12,5.89-1,.13,0,20.67L309,131v3.09l-1,.08V148l-6-.08L301.74,221h-9l-.29-3.15-2.07-3.62-1,0-.12-4.27h-7.17l-.31-10.29-.18-1.68-.58,1.83,1,9.83v4.73l-2-.08-.13-12.4-5.87-9.7.17-30.36-.68-2.69-2-.08-.09-1.11H259.78l-4.31-87L254,66.17,252.59,66l0-1.62.86-.13L253,62.39l-3-.14V51.5l.78-.27s0-.8,0-.9S250,50,250,50l-.05-.79-1-.14,1-21.85V21.4l-2-.15V8.19l1,0V21.33l-2,.08v5.8l1,.18V50.84h-.93L247,50h-.62l0,1H247v3.08l1,.13,0,4.63.51.18.09,4.36L231,63.83V52.22l1.25-.13s.16-1.56.16-1.67-.41-.17-.41-.17V15.88l-1.63-.21L230.08,0,230,0V15.73l-2,.15V50.22l0,.08a9.36,9.36,0,0,0,0,1.3c.06.12,1,.06,1,.06l0,11.56-.27,0L228.62,66H224.4l-1,.37-3.64,60.16-4.72.16v-.82l-1-.87-6.52,0-.08,1.56-16.44.28L190.75,228l-5.75-.08-.11-16.06-1.61-1.08-5.63.22-6.38.07L171,223.49l-3.06-1.3-2.46-.26-.29-9.3,0-2.07-2.65-1.08-.11-1.85L160.7,207l-19.7.14,0,2.63-3.07.12-.12,3.11-6.84.1-.15-1.21-1.63-.57-2.15.06,0-9.25-3.4-1.76-2.6-.09-.17-.53-7.94.29-2.66.66-.11,1.48-1.08.1v14.65l0,2.57-1,0V222l-6,.06v8.68l-1.73-.14-.41-13.17L98.13,217H93.36l0,.07L91,217v-2.28l-2-1.1,0-2.91.88-.17,0-.15-3-.81,0-8.39L83,200H78v-2.87l-1.07-.23L74,197v2.7L61,200V207h0v-2.52L57.07,204H47.21l-.08,4H43v-2.57l-2-.61v-.92l-2-.71,0-2-2.48-.56-7.54.21v2.53l-2.78.06,0,1.47L24,205l-.08,6-4.92.19V213h-.86l0,.38-.52.06,0,.56H16v22l1,.09v1.09l-3-.05v-21.5l-1-.29,0-3-2.18-.57L0,212.29V270H960V230.16Z"/></g></g></svg>