<svg width="35" height="60" fill="#fff" xmlns="http://www.w3.org/2000/svg" viewBox="0 0 156.76 265.85"><path class="st0" d="M53 231.05H.23v-68.96h121.74v11.79H16.81v15.83h26.23v11.8H16.81v17.75H53z"/><path class="st0" d="M156.76 231.05v-68.96h-28.67v11.79h12.1v45.38h-22.75l.01 22.12-27.18-22.12H59.11v11.7h26.06l44.01 34.89-.03-34.89zm0-81.16h-14.98v-51h-.32l-17.43 51h-13.28l-17.96-51h-.42v51h-15.2V80.93h23.59l17 49.3 16.79-49.3h22.21zM49.11 130.98v-30.29c0-3.33-1.36-5.67-4.09-7.01-2.73-1.35-6.75-2.02-12.06-2.02-5.38 0-9.42.66-12.11 1.97s-4.04 3.67-4.04 7.07v30.29c0 1.77.46 3.24 1.38 4.41s2.25 2 3.98 2.5c1.74.5 3.4.83 4.99 1.01 1.59.18 3.56.27 5.9.27s4.3-.09 5.9-.27c1.59-.18 3.24-.51 4.94-1.01s2.99-1.33 3.88-2.5c.89-1.18 1.33-2.65 1.33-4.42zm16.58-30.18v30.18c0 3.9-1.03 7.23-3.08 9.99s-4.82 4.84-8.29 6.22-6.94 2.36-10.41 2.92c-3.47.57-7.16.85-11.05.85-3.68 0-7.14-.23-10.36-.69s-6.66-1.33-10.31-2.6c-3.65-1.28-6.55-3.33-8.71-6.16-2.16-2.83-3.24-6.34-3.24-10.52v-30.18c0-3.54.8-6.66 2.39-9.35s3.51-4.75 5.74-6.16c2.23-1.42 4.94-2.57 8.13-3.45 3.19-.89 6.02-1.43 8.5-1.65 2.48-.21 5.1-.32 7.86-.32 2.83 0 5.51.11 8.02.32 2.51.21 5.37.76 8.55 1.65 3.19.89 5.92 2.04 8.18 3.45 2.27 1.42 4.18 3.45 5.74 6.11 1.56 2.64 2.34 5.78 2.34 9.39zm74.5-49.67V20.84c0-3.33-1.36-5.67-4.09-7.01-6.11-3.02-40.04-3.04-46.16-.05-2.69 1.31-4.04 3.67-4.04 7.07v30.29c0 1.77.46 3.24 1.38 4.41s2.25 2 3.98 2.5c1.74.5 3.4.83 4.99 1.01 3.84.43 29.94.43 33.78 0 1.59-.18 3.24-.51 4.94-1.01s2.99-1.33 3.88-2.5c.89-1.18 1.34-2.65 1.34-4.42zm16.57-30.18v30.18c0 3.9-1.03 7.23-3.08 9.99s-4.82 4.84-8.29 6.22-6.94 2.36-10.41 2.92c-7 1.14-36.38 1.16-43.4.16-3.22-.46-6.66-1.33-10.31-2.6-3.65-1.28-6.55-3.33-8.71-6.16-2.16-2.83-3.24-6.34-3.24-10.52V20.96c0-3.54.8-6.66 2.39-9.35 1.59-2.69 3.51-4.75 5.74-6.16 2.23-1.42 4.94-2.57 8.13-3.45 3.19-.89 6.02-1.44 8.5-1.65 5.26-.45 32.61-.44 37.87 0 2.51.21 5.37.76 8.55 1.65 3.19.89 5.92 2.04 8.18 3.45 2.27 1.42 4.18 3.45 5.74 6.11 1.56 2.64 2.34 5.78 2.34 9.39zM57.19 68.97H.23v-10.1L36.15 11.8H0V0h56.55v9.99L20.64 57.07h36.55z"/></svg>